%TF.GenerationSoftware,KiCad,Pcbnew,9.0.7*%
%TF.CreationDate,2026-07-01T15:36:29+02:00*%
%TF.ProjectId,Cat-Phones-DK-V1,4361742d-5068-46f6-9e65-732d444b2d56,rev?*%
%TF.SameCoordinates,Original*%
%TF.FileFunction,Drillmap*%
%TF.FilePolarity,Positive*%
%FSLAX45Y45*%
G04 Gerber Fmt 4.5, Leading zero omitted, Abs format (unit mm)*
G04 Created by KiCad (PCBNEW 9.0.7) date 2026-07-01 15:36:29*
%MOMM*%
%LPD*%
G01*
G04 APERTURE LIST*
%ADD10C,0.050000*%
%ADD11C,0.200000*%
%ADD12C,0.100000*%
G04 APERTURE END LIST*
D10*
X19033750Y-6878750D02*
X19286250Y-7131250D01*
D11*
X19070000Y-12750000D02*
G75*
G02*
X18870000Y-12750000I-100000J0D01*
G01*
X18870000Y-12750000D02*
G75*
G02*
X19070000Y-12750000I100000J0D01*
G01*
D10*
X9593750Y-7131250D02*
X9846250Y-6878750D01*
X19037500Y-13115000D02*
X19290000Y-12862500D01*
D11*
X19115000Y-7115000D02*
G75*
G02*
X18915000Y-7115000I-100000J0D01*
G01*
X18915000Y-7115000D02*
G75*
G02*
X19115000Y-7115000I100000J0D01*
G01*
D10*
X9595000Y-6875000D02*
X19290000Y-6875000D01*
X19290000Y-13115000D01*
X9595000Y-13115000D01*
X9595000Y-6875000D01*
D11*
X9950000Y-7100000D02*
G75*
G02*
X9750000Y-7100000I-100000J0D01*
G01*
X9750000Y-7100000D02*
G75*
G02*
X9950000Y-7100000I100000J0D01*
G01*
X9945000Y-12870000D02*
G75*
G02*
X9745000Y-12870000I-100000J0D01*
G01*
X9745000Y-12870000D02*
G75*
G02*
X9945000Y-12870000I100000J0D01*
G01*
D10*
X9593750Y-12863750D02*
X9846250Y-13116250D01*
D11*
D12*
X11391500Y-7723000D02*
X11411500Y-7743000D01*
X11411500Y-7723000D02*
X11391500Y-7743000D01*
X11391500Y-7863000D02*
X11411500Y-7883000D01*
X11411500Y-7863000D02*
X11391500Y-7883000D01*
X11461500Y-7653000D02*
X11481500Y-7673000D01*
X11481500Y-7653000D02*
X11461500Y-7673000D01*
X11461500Y-7793000D02*
X11481500Y-7813000D01*
X11481500Y-7793000D02*
X11461500Y-7813000D01*
X11461500Y-7933000D02*
X11481500Y-7953000D01*
X11481500Y-7933000D02*
X11461500Y-7953000D01*
X11531500Y-7723000D02*
X11551500Y-7743000D01*
X11551500Y-7723000D02*
X11531500Y-7743000D01*
X11531500Y-7863000D02*
X11551500Y-7883000D01*
X11551500Y-7863000D02*
X11531500Y-7883000D01*
X11601500Y-7653000D02*
X11621500Y-7673000D01*
X11621500Y-7653000D02*
X11601500Y-7673000D01*
X11601500Y-7793000D02*
X11621500Y-7813000D01*
X11621500Y-7793000D02*
X11601500Y-7813000D01*
X11601500Y-7933000D02*
X11621500Y-7953000D01*
X11621500Y-7933000D02*
X11601500Y-7953000D01*
X11671500Y-7723000D02*
X11691500Y-7743000D01*
X11691500Y-7723000D02*
X11671500Y-7743000D01*
X11671500Y-7863000D02*
X11691500Y-7883000D01*
X11691500Y-7863000D02*
X11671500Y-7883000D01*
X9775000Y-10655000D02*
G75*
G02*
X9745000Y-10655000I-15000J0D01*
G01*
X9745000Y-10655000D02*
G75*
G02*
X9775000Y-10655000I15000J0D01*
G01*
X9781250Y-11305000D02*
G75*
G02*
X9751250Y-11305000I-15000J0D01*
G01*
X9751250Y-11305000D02*
G75*
G02*
X9781250Y-11305000I15000J0D01*
G01*
X9798750Y-11044500D02*
G75*
G02*
X9768750Y-11044500I-15000J0D01*
G01*
X9768750Y-11044500D02*
G75*
G02*
X9798750Y-11044500I15000J0D01*
G01*
X9961750Y-10679500D02*
G75*
G02*
X9931750Y-10679500I-15000J0D01*
G01*
X9931750Y-10679500D02*
G75*
G02*
X9961750Y-10679500I15000J0D01*
G01*
X10135000Y-11264500D02*
G75*
G02*
X10105000Y-11264500I-15000J0D01*
G01*
X10105000Y-11264500D02*
G75*
G02*
X10135000Y-11264500I15000J0D01*
G01*
X10275000Y-10679500D02*
G75*
G02*
X10245000Y-10679500I-15000J0D01*
G01*
X10245000Y-10679500D02*
G75*
G02*
X10275000Y-10679500I15000J0D01*
G01*
X10396500Y-8186750D02*
G75*
G02*
X10366500Y-8186750I-15000J0D01*
G01*
X10366500Y-8186750D02*
G75*
G02*
X10396500Y-8186750I15000J0D01*
G01*
X10466250Y-8510000D02*
G75*
G02*
X10436250Y-8510000I-15000J0D01*
G01*
X10436250Y-8510000D02*
G75*
G02*
X10466250Y-8510000I15000J0D01*
G01*
X10475000Y-7121250D02*
G75*
G02*
X10445000Y-7121250I-15000J0D01*
G01*
X10445000Y-7121250D02*
G75*
G02*
X10475000Y-7121250I15000J0D01*
G01*
X10513750Y-7625000D02*
G75*
G02*
X10483750Y-7625000I-15000J0D01*
G01*
X10483750Y-7625000D02*
G75*
G02*
X10513750Y-7625000I15000J0D01*
G01*
X10685000Y-10775000D02*
G75*
G02*
X10655000Y-10775000I-15000J0D01*
G01*
X10655000Y-10775000D02*
G75*
G02*
X10685000Y-10775000I15000J0D01*
G01*
X10695000Y-7069000D02*
G75*
G02*
X10665000Y-7069000I-15000J0D01*
G01*
X10665000Y-7069000D02*
G75*
G02*
X10695000Y-7069000I15000J0D01*
G01*
X10720000Y-11105000D02*
G75*
G02*
X10690000Y-11105000I-15000J0D01*
G01*
X10690000Y-11105000D02*
G75*
G02*
X10720000Y-11105000I15000J0D01*
G01*
X10831500Y-7069000D02*
G75*
G02*
X10801500Y-7069000I-15000J0D01*
G01*
X10801500Y-7069000D02*
G75*
G02*
X10831500Y-7069000I15000J0D01*
G01*
X10831500Y-8212000D02*
G75*
G02*
X10801500Y-8212000I-15000J0D01*
G01*
X10801500Y-8212000D02*
G75*
G02*
X10831500Y-8212000I15000J0D01*
G01*
X10831500Y-8339000D02*
G75*
G02*
X10801500Y-8339000I-15000J0D01*
G01*
X10801500Y-8339000D02*
G75*
G02*
X10831500Y-8339000I15000J0D01*
G01*
X10831500Y-8466000D02*
G75*
G02*
X10801500Y-8466000I-15000J0D01*
G01*
X10801500Y-8466000D02*
G75*
G02*
X10831500Y-8466000I15000J0D01*
G01*
X10920000Y-11829500D02*
G75*
G02*
X10890000Y-11829500I-15000J0D01*
G01*
X10890000Y-11829500D02*
G75*
G02*
X10920000Y-11829500I15000J0D01*
G01*
X10934000Y-11351000D02*
G75*
G02*
X10904000Y-11351000I-15000J0D01*
G01*
X10904000Y-11351000D02*
G75*
G02*
X10934000Y-11351000I15000J0D01*
G01*
X11075000Y-11120000D02*
G75*
G02*
X11045000Y-11120000I-15000J0D01*
G01*
X11045000Y-11120000D02*
G75*
G02*
X11075000Y-11120000I15000J0D01*
G01*
X11135000Y-8845000D02*
G75*
G02*
X11105000Y-8845000I-15000J0D01*
G01*
X11105000Y-8845000D02*
G75*
G02*
X11135000Y-8845000I15000J0D01*
G01*
X11216250Y-11875000D02*
G75*
G02*
X11186250Y-11875000I-15000J0D01*
G01*
X11186250Y-11875000D02*
G75*
G02*
X11216250Y-11875000I15000J0D01*
G01*
X11260625Y-10790625D02*
G75*
G02*
X11230625Y-10790625I-15000J0D01*
G01*
X11230625Y-10790625D02*
G75*
G02*
X11260625Y-10790625I15000J0D01*
G01*
X11468750Y-11255000D02*
G75*
G02*
X11438750Y-11255000I-15000J0D01*
G01*
X11438750Y-11255000D02*
G75*
G02*
X11468750Y-11255000I15000J0D01*
G01*
X11473750Y-10785000D02*
G75*
G02*
X11443750Y-10785000I-15000J0D01*
G01*
X11443750Y-10785000D02*
G75*
G02*
X11473750Y-10785000I15000J0D01*
G01*
X11473750Y-11024500D02*
G75*
G02*
X11443750Y-11024500I-15000J0D01*
G01*
X11443750Y-11024500D02*
G75*
G02*
X11473750Y-11024500I15000J0D01*
G01*
X11478750Y-10555000D02*
G75*
G02*
X11448750Y-10555000I-15000J0D01*
G01*
X11448750Y-10555000D02*
G75*
G02*
X11478750Y-10555000I15000J0D01*
G01*
X11815000Y-9300000D02*
G75*
G02*
X11785000Y-9300000I-15000J0D01*
G01*
X11785000Y-9300000D02*
G75*
G02*
X11815000Y-9300000I15000J0D01*
G01*
X12125500Y-11762500D02*
G75*
G02*
X12095500Y-11762500I-15000J0D01*
G01*
X12095500Y-11762500D02*
G75*
G02*
X12125500Y-11762500I15000J0D01*
G01*
X12255000Y-11790000D02*
G75*
G02*
X12225000Y-11790000I-15000J0D01*
G01*
X12225000Y-11790000D02*
G75*
G02*
X12255000Y-11790000I15000J0D01*
G01*
X12270000Y-12372000D02*
G75*
G02*
X12240000Y-12372000I-15000J0D01*
G01*
X12240000Y-12372000D02*
G75*
G02*
X12270000Y-12372000I15000J0D01*
G01*
X12350000Y-12372000D02*
G75*
G02*
X12320000Y-12372000I-15000J0D01*
G01*
X12320000Y-12372000D02*
G75*
G02*
X12350000Y-12372000I15000J0D01*
G01*
X12379500Y-11762500D02*
G75*
G02*
X12349500Y-11762500I-15000J0D01*
G01*
X12349500Y-11762500D02*
G75*
G02*
X12379500Y-11762500I15000J0D01*
G01*
X12385000Y-7705000D02*
G75*
G02*
X12355000Y-7705000I-15000J0D01*
G01*
X12355000Y-7705000D02*
G75*
G02*
X12385000Y-7705000I15000J0D01*
G01*
X12581500Y-7450000D02*
G75*
G02*
X12551500Y-7450000I-15000J0D01*
G01*
X12551500Y-7450000D02*
G75*
G02*
X12581500Y-7450000I15000J0D01*
G01*
X12633500Y-11762500D02*
G75*
G02*
X12603500Y-11762500I-15000J0D01*
G01*
X12603500Y-11762500D02*
G75*
G02*
X12633500Y-11762500I15000J0D01*
G01*
X12735000Y-12145000D02*
G75*
G02*
X12705000Y-12145000I-15000J0D01*
G01*
X12705000Y-12145000D02*
G75*
G02*
X12735000Y-12145000I15000J0D01*
G01*
X12780000Y-9230000D02*
G75*
G02*
X12750000Y-9230000I-15000J0D01*
G01*
X12750000Y-9230000D02*
G75*
G02*
X12780000Y-9230000I15000J0D01*
G01*
X12830000Y-12372000D02*
G75*
G02*
X12800000Y-12372000I-15000J0D01*
G01*
X12800000Y-12372000D02*
G75*
G02*
X12830000Y-12372000I15000J0D01*
G01*
X12875000Y-9145000D02*
G75*
G02*
X12845000Y-9145000I-15000J0D01*
G01*
X12845000Y-9145000D02*
G75*
G02*
X12875000Y-9145000I15000J0D01*
G01*
X12915962Y-12377962D02*
G75*
G02*
X12885962Y-12377962I-15000J0D01*
G01*
X12885962Y-12377962D02*
G75*
G02*
X12915962Y-12377962I15000J0D01*
G01*
X12940000Y-9520000D02*
G75*
G02*
X12910000Y-9520000I-15000J0D01*
G01*
X12910000Y-9520000D02*
G75*
G02*
X12940000Y-9520000I15000J0D01*
G01*
X13250000Y-11446250D02*
G75*
G02*
X13220000Y-11446250I-15000J0D01*
G01*
X13220000Y-11446250D02*
G75*
G02*
X13250000Y-11446250I15000J0D01*
G01*
X13250000Y-11660000D02*
G75*
G02*
X13220000Y-11660000I-15000J0D01*
G01*
X13220000Y-11660000D02*
G75*
G02*
X13250000Y-11660000I15000J0D01*
G01*
X13486250Y-12035000D02*
G75*
G02*
X13456250Y-12035000I-15000J0D01*
G01*
X13456250Y-12035000D02*
G75*
G02*
X13486250Y-12035000I15000J0D01*
G01*
X13500000Y-12380000D02*
G75*
G02*
X13470000Y-12380000I-15000J0D01*
G01*
X13470000Y-12380000D02*
G75*
G02*
X13500000Y-12380000I15000J0D01*
G01*
X17195000Y-9785000D02*
G75*
G02*
X17165000Y-9785000I-15000J0D01*
G01*
X17165000Y-9785000D02*
G75*
G02*
X17195000Y-9785000I15000J0D01*
G01*
X17291250Y-10196250D02*
G75*
G02*
X17261250Y-10196250I-15000J0D01*
G01*
X17261250Y-10196250D02*
G75*
G02*
X17291250Y-10196250I15000J0D01*
G01*
X17805000Y-10195000D02*
G75*
G02*
X17775000Y-10195000I-15000J0D01*
G01*
X17775000Y-10195000D02*
G75*
G02*
X17805000Y-10195000I15000J0D01*
G01*
X18287500Y-10540000D02*
G75*
G02*
X18257500Y-10540000I-15000J0D01*
G01*
X18257500Y-10540000D02*
G75*
G02*
X18287500Y-10540000I15000J0D01*
G01*
X18810000Y-10260000D02*
G75*
G02*
X18780000Y-10260000I-15000J0D01*
G01*
X18780000Y-10260000D02*
G75*
G02*
X18810000Y-10260000I15000J0D01*
G01*
X12143000Y-12399500D02*
X12143000Y-12459500D01*
X12113000Y-12429500D02*
X12173000Y-12429500D01*
X12113000Y-12374500D02*
X12113000Y-12484500D01*
X12173000Y-12484500D02*
G75*
G02*
X12113000Y-12484500I-30000J0D01*
G01*
X12173000Y-12484500D02*
X12173000Y-12374500D01*
X12173000Y-12374500D02*
G75*
G03*
X12113000Y-12374500I-30000J0D01*
G01*
X12143000Y-12817500D02*
X12143000Y-12877500D01*
X12113000Y-12847500D02*
X12173000Y-12847500D01*
X12113000Y-12807500D02*
X12113000Y-12887500D01*
X12173000Y-12887500D02*
G75*
G02*
X12113000Y-12887500I-30000J0D01*
G01*
X12173000Y-12887500D02*
X12173000Y-12807500D01*
X12173000Y-12807500D02*
G75*
G03*
X12113000Y-12807500I-30000J0D01*
G01*
X13007000Y-12399500D02*
X13007000Y-12459500D01*
X12977000Y-12429500D02*
X13037000Y-12429500D01*
X12977000Y-12374500D02*
X12977000Y-12484500D01*
X13037000Y-12484500D02*
G75*
G02*
X12977000Y-12484500I-30000J0D01*
G01*
X13037000Y-12484500D02*
X13037000Y-12374500D01*
X13037000Y-12374500D02*
G75*
G03*
X12977000Y-12374500I-30000J0D01*
G01*
X13007000Y-12817500D02*
X13007000Y-12877500D01*
X12977000Y-12847500D02*
X13037000Y-12847500D01*
X12977000Y-12807500D02*
X12977000Y-12887500D01*
X13037000Y-12887500D02*
G75*
G02*
X12977000Y-12887500I-30000J0D01*
G01*
X13037000Y-12887500D02*
X13037000Y-12807500D01*
X13037000Y-12807500D02*
G75*
G03*
X12977000Y-12807500I-30000J0D01*
G01*
X9912856Y-7565356D02*
X9912856Y-7494644D01*
X9842144Y-7494644D01*
X9842144Y-7565356D01*
X9912856Y-7565356D01*
X9912856Y-7819356D02*
X9912856Y-7748644D01*
X9842144Y-7748644D01*
X9842144Y-7819356D01*
X9912856Y-7819356D01*
X9912856Y-8180356D02*
X9912856Y-8109644D01*
X9842144Y-8109644D01*
X9842144Y-8180356D01*
X9912856Y-8180356D01*
X9912856Y-8434356D02*
X9912856Y-8363644D01*
X9842144Y-8363644D01*
X9842144Y-8434356D01*
X9912856Y-8434356D01*
X9912856Y-8688356D02*
X9912856Y-8617644D01*
X9842144Y-8617644D01*
X9842144Y-8688356D01*
X9912856Y-8688356D01*
X9912856Y-8942356D02*
X9912856Y-8871644D01*
X9842144Y-8871644D01*
X9842144Y-8942356D01*
X9912856Y-8942356D01*
X9962856Y-9894856D02*
X9962856Y-9824144D01*
X9892144Y-9824144D01*
X9892144Y-9894856D01*
X9962856Y-9894856D01*
X9962856Y-10148856D02*
X9962856Y-10078144D01*
X9892144Y-10078144D01*
X9892144Y-10148856D01*
X9962856Y-10148856D01*
X10318356Y-9894856D02*
X10318356Y-9824144D01*
X10247644Y-9824144D01*
X10247644Y-9894856D01*
X10318356Y-9894856D01*
X10318356Y-10148856D02*
X10318356Y-10078144D01*
X10247644Y-10078144D01*
X10247644Y-10148856D01*
X10318356Y-10148856D01*
X10672856Y-9894856D02*
X10672856Y-9824144D01*
X10602144Y-9824144D01*
X10602144Y-9894856D01*
X10672856Y-9894856D01*
X10672856Y-10148856D02*
X10672856Y-10078144D01*
X10602144Y-10078144D01*
X10602144Y-10148856D01*
X10672856Y-10148856D01*
X11309856Y-9892856D02*
X11309856Y-9822144D01*
X11239144Y-9822144D01*
X11239144Y-9892856D01*
X11309856Y-9892856D01*
X11309856Y-10146856D02*
X11309856Y-10076144D01*
X11239144Y-10076144D01*
X11239144Y-10146856D01*
X11309856Y-10146856D01*
X12255856Y-9898356D02*
X12255856Y-9827644D01*
X12185144Y-9827644D01*
X12185144Y-9898356D01*
X12255856Y-9898356D01*
X12255856Y-10152356D02*
X12255856Y-10081644D01*
X12185144Y-10081644D01*
X12185144Y-10152356D01*
X12255856Y-10152356D01*
X12629856Y-9888356D02*
X12629856Y-9817644D01*
X12559144Y-9817644D01*
X12559144Y-9888356D01*
X12629856Y-9888356D01*
X12629856Y-10142356D02*
X12629856Y-10071644D01*
X12559144Y-10071644D01*
X12559144Y-10142356D01*
X12629856Y-10142356D01*
X13056856Y-7120356D02*
X13056856Y-7049644D01*
X12986144Y-7049644D01*
X12986144Y-7120356D01*
X13056856Y-7120356D01*
X13056856Y-7374356D02*
X13056856Y-7303644D01*
X12986144Y-7303644D01*
X12986144Y-7374356D01*
X13056856Y-7374356D01*
X13056856Y-7628356D02*
X13056856Y-7557644D01*
X12986144Y-7557644D01*
X12986144Y-7628356D01*
X13056856Y-7628356D01*
X13056856Y-7882356D02*
X13056856Y-7811644D01*
X12986144Y-7811644D01*
X12986144Y-7882356D01*
X13056856Y-7882356D01*
X13056856Y-8136356D02*
X13056856Y-8065644D01*
X12986144Y-8065644D01*
X12986144Y-8136356D01*
X13056856Y-8136356D01*
X13056856Y-8390356D02*
X13056856Y-8319644D01*
X12986144Y-8319644D01*
X12986144Y-8390356D01*
X13056856Y-8390356D01*
X13056856Y-8644356D02*
X13056856Y-8573644D01*
X12986144Y-8573644D01*
X12986144Y-8644356D01*
X13056856Y-8644356D01*
X13056856Y-8898356D02*
X13056856Y-8827644D01*
X12986144Y-8827644D01*
X12986144Y-8898356D01*
X13056856Y-8898356D01*
X13085856Y-9893356D02*
X13085856Y-9822644D01*
X13015144Y-9822644D01*
X13015144Y-9893356D01*
X13085856Y-9893356D01*
X13085856Y-10147356D02*
X13085856Y-10076644D01*
X13015144Y-10076644D01*
X13015144Y-10147356D01*
X13085856Y-10147356D01*
X13425856Y-9893356D02*
X13425856Y-9822644D01*
X13355144Y-9822644D01*
X13355144Y-9893356D01*
X13425856Y-9893356D01*
X13425856Y-10147356D02*
X13425856Y-10076644D01*
X13355144Y-10076644D01*
X13355144Y-10147356D01*
X13425856Y-10147356D01*
X13436856Y-7118356D02*
X13436856Y-7047644D01*
X13366144Y-7047644D01*
X13366144Y-7118356D01*
X13436856Y-7118356D01*
X13436856Y-7372356D02*
X13436856Y-7301644D01*
X13366144Y-7301644D01*
X13366144Y-7372356D01*
X13436856Y-7372356D01*
X13436856Y-7626356D02*
X13436856Y-7555644D01*
X13366144Y-7555644D01*
X13366144Y-7626356D01*
X13436856Y-7626356D01*
X13436856Y-7880356D02*
X13436856Y-7809644D01*
X13366144Y-7809644D01*
X13366144Y-7880356D01*
X13436856Y-7880356D01*
X13436856Y-8134356D02*
X13436856Y-8063644D01*
X13366144Y-8063644D01*
X13366144Y-8134356D01*
X13436856Y-8134356D01*
X13436856Y-8388356D02*
X13436856Y-8317644D01*
X13366144Y-8317644D01*
X13366144Y-8388356D01*
X13436856Y-8388356D01*
X16122856Y-10881356D02*
X16122856Y-10810644D01*
X16052144Y-10810644D01*
X16052144Y-10881356D01*
X16122856Y-10881356D01*
X16122856Y-11135356D02*
X16122856Y-11064644D01*
X16052144Y-11064644D01*
X16052144Y-11135356D01*
X16122856Y-11135356D01*
X16482856Y-10885356D02*
X16482856Y-10814644D01*
X16412144Y-10814644D01*
X16412144Y-10885356D01*
X16482856Y-10885356D01*
X16482856Y-11139356D02*
X16482856Y-11068644D01*
X16412144Y-11068644D01*
X16412144Y-11139356D01*
X16482856Y-11139356D01*
X17112856Y-10885356D02*
X17112856Y-10814644D01*
X17042144Y-10814644D01*
X17042144Y-10885356D01*
X17112856Y-10885356D01*
X17112856Y-11139356D02*
X17112856Y-11068644D01*
X17042144Y-11068644D01*
X17042144Y-11139356D01*
X17112856Y-11139356D01*
X17467856Y-10881356D02*
X17467856Y-10810644D01*
X17397144Y-10810644D01*
X17397144Y-10881356D01*
X17467856Y-10881356D01*
X17467856Y-11135356D02*
X17467856Y-11064644D01*
X17397144Y-11064644D01*
X17397144Y-11135356D01*
X17467856Y-11135356D01*
X18090356Y-12912856D02*
X18090356Y-12842144D01*
X18019644Y-12842144D01*
X18019644Y-12912856D01*
X18090356Y-12912856D01*
X18344356Y-12912856D02*
X18344356Y-12842144D01*
X18273644Y-12842144D01*
X18273644Y-12912856D01*
X18344356Y-12912856D01*
D11*
X9852027Y-13430234D02*
X9852027Y-13230234D01*
X9852027Y-13230234D02*
X9899646Y-13230234D01*
X9899646Y-13230234D02*
X9928217Y-13239758D01*
X9928217Y-13239758D02*
X9947265Y-13258805D01*
X9947265Y-13258805D02*
X9956789Y-13277853D01*
X9956789Y-13277853D02*
X9966313Y-13315948D01*
X9966313Y-13315948D02*
X9966313Y-13344519D01*
X9966313Y-13344519D02*
X9956789Y-13382615D01*
X9956789Y-13382615D02*
X9947265Y-13401662D01*
X9947265Y-13401662D02*
X9928217Y-13420710D01*
X9928217Y-13420710D02*
X9899646Y-13430234D01*
X9899646Y-13430234D02*
X9852027Y-13430234D01*
X10052027Y-13430234D02*
X10052027Y-13296900D01*
X10052027Y-13334996D02*
X10061551Y-13315948D01*
X10061551Y-13315948D02*
X10071074Y-13306424D01*
X10071074Y-13306424D02*
X10090122Y-13296900D01*
X10090122Y-13296900D02*
X10109170Y-13296900D01*
X10175836Y-13430234D02*
X10175836Y-13296900D01*
X10175836Y-13230234D02*
X10166313Y-13239758D01*
X10166313Y-13239758D02*
X10175836Y-13249281D01*
X10175836Y-13249281D02*
X10185360Y-13239758D01*
X10185360Y-13239758D02*
X10175836Y-13230234D01*
X10175836Y-13230234D02*
X10175836Y-13249281D01*
X10299646Y-13430234D02*
X10280598Y-13420710D01*
X10280598Y-13420710D02*
X10271074Y-13401662D01*
X10271074Y-13401662D02*
X10271074Y-13230234D01*
X10404408Y-13430234D02*
X10385360Y-13420710D01*
X10385360Y-13420710D02*
X10375836Y-13401662D01*
X10375836Y-13401662D02*
X10375836Y-13230234D01*
X10632979Y-13430234D02*
X10632979Y-13230234D01*
X10632979Y-13230234D02*
X10699646Y-13373091D01*
X10699646Y-13373091D02*
X10766313Y-13230234D01*
X10766313Y-13230234D02*
X10766313Y-13430234D01*
X10947265Y-13430234D02*
X10947265Y-13325472D01*
X10947265Y-13325472D02*
X10937741Y-13306424D01*
X10937741Y-13306424D02*
X10918694Y-13296900D01*
X10918694Y-13296900D02*
X10880598Y-13296900D01*
X10880598Y-13296900D02*
X10861551Y-13306424D01*
X10947265Y-13420710D02*
X10928217Y-13430234D01*
X10928217Y-13430234D02*
X10880598Y-13430234D01*
X10880598Y-13430234D02*
X10861551Y-13420710D01*
X10861551Y-13420710D02*
X10852027Y-13401662D01*
X10852027Y-13401662D02*
X10852027Y-13382615D01*
X10852027Y-13382615D02*
X10861551Y-13363567D01*
X10861551Y-13363567D02*
X10880598Y-13354043D01*
X10880598Y-13354043D02*
X10928217Y-13354043D01*
X10928217Y-13354043D02*
X10947265Y-13344519D01*
X11042503Y-13296900D02*
X11042503Y-13496900D01*
X11042503Y-13306424D02*
X11061551Y-13296900D01*
X11061551Y-13296900D02*
X11099646Y-13296900D01*
X11099646Y-13296900D02*
X11118694Y-13306424D01*
X11118694Y-13306424D02*
X11128217Y-13315948D01*
X11128217Y-13315948D02*
X11137741Y-13334996D01*
X11137741Y-13334996D02*
X11137741Y-13392138D01*
X11137741Y-13392138D02*
X11128217Y-13411186D01*
X11128217Y-13411186D02*
X11118694Y-13420710D01*
X11118694Y-13420710D02*
X11099646Y-13430234D01*
X11099646Y-13430234D02*
X11061551Y-13430234D01*
X11061551Y-13430234D02*
X11042503Y-13420710D01*
X11223455Y-13411186D02*
X11232979Y-13420710D01*
X11232979Y-13420710D02*
X11223455Y-13430234D01*
X11223455Y-13430234D02*
X11213932Y-13420710D01*
X11213932Y-13420710D02*
X11223455Y-13411186D01*
X11223455Y-13411186D02*
X11223455Y-13430234D01*
X11223455Y-13306424D02*
X11232979Y-13315948D01*
X11232979Y-13315948D02*
X11223455Y-13325472D01*
X11223455Y-13325472D02*
X11213932Y-13315948D01*
X11213932Y-13315948D02*
X11223455Y-13306424D01*
X11223455Y-13306424D02*
X11223455Y-13325472D01*
D12*
X9571250Y-13748750D02*
X9591250Y-13768750D01*
X9591250Y-13748750D02*
X9571250Y-13768750D01*
D11*
X9890122Y-13650234D02*
X9909170Y-13650234D01*
X9909170Y-13650234D02*
X9928217Y-13659758D01*
X9928217Y-13659758D02*
X9937741Y-13669281D01*
X9937741Y-13669281D02*
X9947265Y-13688329D01*
X9947265Y-13688329D02*
X9956789Y-13726424D01*
X9956789Y-13726424D02*
X9956789Y-13774043D01*
X9956789Y-13774043D02*
X9947265Y-13812138D01*
X9947265Y-13812138D02*
X9937741Y-13831186D01*
X9937741Y-13831186D02*
X9928217Y-13840710D01*
X9928217Y-13840710D02*
X9909170Y-13850234D01*
X9909170Y-13850234D02*
X9890122Y-13850234D01*
X9890122Y-13850234D02*
X9871074Y-13840710D01*
X9871074Y-13840710D02*
X9861551Y-13831186D01*
X9861551Y-13831186D02*
X9852027Y-13812138D01*
X9852027Y-13812138D02*
X9842503Y-13774043D01*
X9842503Y-13774043D02*
X9842503Y-13726424D01*
X9842503Y-13726424D02*
X9852027Y-13688329D01*
X9852027Y-13688329D02*
X9861551Y-13669281D01*
X9861551Y-13669281D02*
X9871074Y-13659758D01*
X9871074Y-13659758D02*
X9890122Y-13650234D01*
X10042503Y-13831186D02*
X10052027Y-13840710D01*
X10052027Y-13840710D02*
X10042503Y-13850234D01*
X10042503Y-13850234D02*
X10032979Y-13840710D01*
X10032979Y-13840710D02*
X10042503Y-13831186D01*
X10042503Y-13831186D02*
X10042503Y-13850234D01*
X10128217Y-13669281D02*
X10137741Y-13659758D01*
X10137741Y-13659758D02*
X10156789Y-13650234D01*
X10156789Y-13650234D02*
X10204408Y-13650234D01*
X10204408Y-13650234D02*
X10223455Y-13659758D01*
X10223455Y-13659758D02*
X10232979Y-13669281D01*
X10232979Y-13669281D02*
X10242503Y-13688329D01*
X10242503Y-13688329D02*
X10242503Y-13707377D01*
X10242503Y-13707377D02*
X10232979Y-13735948D01*
X10232979Y-13735948D02*
X10118694Y-13850234D01*
X10118694Y-13850234D02*
X10242503Y-13850234D01*
X10366313Y-13650234D02*
X10385360Y-13650234D01*
X10385360Y-13650234D02*
X10404408Y-13659758D01*
X10404408Y-13659758D02*
X10413932Y-13669281D01*
X10413932Y-13669281D02*
X10423455Y-13688329D01*
X10423455Y-13688329D02*
X10432979Y-13726424D01*
X10432979Y-13726424D02*
X10432979Y-13774043D01*
X10432979Y-13774043D02*
X10423455Y-13812138D01*
X10423455Y-13812138D02*
X10413932Y-13831186D01*
X10413932Y-13831186D02*
X10404408Y-13840710D01*
X10404408Y-13840710D02*
X10385360Y-13850234D01*
X10385360Y-13850234D02*
X10366313Y-13850234D01*
X10366313Y-13850234D02*
X10347265Y-13840710D01*
X10347265Y-13840710D02*
X10337741Y-13831186D01*
X10337741Y-13831186D02*
X10328217Y-13812138D01*
X10328217Y-13812138D02*
X10318694Y-13774043D01*
X10318694Y-13774043D02*
X10318694Y-13726424D01*
X10318694Y-13726424D02*
X10328217Y-13688329D01*
X10328217Y-13688329D02*
X10337741Y-13669281D01*
X10337741Y-13669281D02*
X10347265Y-13659758D01*
X10347265Y-13659758D02*
X10366313Y-13650234D01*
X10556789Y-13650234D02*
X10575836Y-13650234D01*
X10575836Y-13650234D02*
X10594884Y-13659758D01*
X10594884Y-13659758D02*
X10604408Y-13669281D01*
X10604408Y-13669281D02*
X10613932Y-13688329D01*
X10613932Y-13688329D02*
X10623455Y-13726424D01*
X10623455Y-13726424D02*
X10623455Y-13774043D01*
X10623455Y-13774043D02*
X10613932Y-13812138D01*
X10613932Y-13812138D02*
X10604408Y-13831186D01*
X10604408Y-13831186D02*
X10594884Y-13840710D01*
X10594884Y-13840710D02*
X10575836Y-13850234D01*
X10575836Y-13850234D02*
X10556789Y-13850234D01*
X10556789Y-13850234D02*
X10537741Y-13840710D01*
X10537741Y-13840710D02*
X10528217Y-13831186D01*
X10528217Y-13831186D02*
X10518694Y-13812138D01*
X10518694Y-13812138D02*
X10509170Y-13774043D01*
X10509170Y-13774043D02*
X10509170Y-13726424D01*
X10509170Y-13726424D02*
X10518694Y-13688329D01*
X10518694Y-13688329D02*
X10528217Y-13669281D01*
X10528217Y-13669281D02*
X10537741Y-13659758D01*
X10537741Y-13659758D02*
X10556789Y-13650234D01*
X10709170Y-13850234D02*
X10709170Y-13716900D01*
X10709170Y-13735948D02*
X10718694Y-13726424D01*
X10718694Y-13726424D02*
X10737741Y-13716900D01*
X10737741Y-13716900D02*
X10766313Y-13716900D01*
X10766313Y-13716900D02*
X10785360Y-13726424D01*
X10785360Y-13726424D02*
X10794884Y-13745472D01*
X10794884Y-13745472D02*
X10794884Y-13850234D01*
X10794884Y-13745472D02*
X10804408Y-13726424D01*
X10804408Y-13726424D02*
X10823455Y-13716900D01*
X10823455Y-13716900D02*
X10852027Y-13716900D01*
X10852027Y-13716900D02*
X10871075Y-13726424D01*
X10871075Y-13726424D02*
X10880598Y-13745472D01*
X10880598Y-13745472D02*
X10880598Y-13850234D01*
X10975836Y-13850234D02*
X10975836Y-13716900D01*
X10975836Y-13735948D02*
X10985360Y-13726424D01*
X10985360Y-13726424D02*
X11004408Y-13716900D01*
X11004408Y-13716900D02*
X11032979Y-13716900D01*
X11032979Y-13716900D02*
X11052027Y-13726424D01*
X11052027Y-13726424D02*
X11061551Y-13745472D01*
X11061551Y-13745472D02*
X11061551Y-13850234D01*
X11061551Y-13745472D02*
X11071075Y-13726424D01*
X11071075Y-13726424D02*
X11090122Y-13716900D01*
X11090122Y-13716900D02*
X11118694Y-13716900D01*
X11118694Y-13716900D02*
X11137741Y-13726424D01*
X11137741Y-13726424D02*
X11147265Y-13745472D01*
X11147265Y-13745472D02*
X11147265Y-13850234D01*
X11537741Y-13640710D02*
X11366313Y-13897853D01*
X11794884Y-13650234D02*
X11813932Y-13650234D01*
X11813932Y-13650234D02*
X11832979Y-13659758D01*
X11832979Y-13659758D02*
X11842503Y-13669281D01*
X11842503Y-13669281D02*
X11852027Y-13688329D01*
X11852027Y-13688329D02*
X11861551Y-13726424D01*
X11861551Y-13726424D02*
X11861551Y-13774043D01*
X11861551Y-13774043D02*
X11852027Y-13812138D01*
X11852027Y-13812138D02*
X11842503Y-13831186D01*
X11842503Y-13831186D02*
X11832979Y-13840710D01*
X11832979Y-13840710D02*
X11813932Y-13850234D01*
X11813932Y-13850234D02*
X11794884Y-13850234D01*
X11794884Y-13850234D02*
X11775836Y-13840710D01*
X11775836Y-13840710D02*
X11766313Y-13831186D01*
X11766313Y-13831186D02*
X11756789Y-13812138D01*
X11756789Y-13812138D02*
X11747265Y-13774043D01*
X11747265Y-13774043D02*
X11747265Y-13726424D01*
X11747265Y-13726424D02*
X11756789Y-13688329D01*
X11756789Y-13688329D02*
X11766313Y-13669281D01*
X11766313Y-13669281D02*
X11775836Y-13659758D01*
X11775836Y-13659758D02*
X11794884Y-13650234D01*
X11947265Y-13831186D02*
X11956789Y-13840710D01*
X11956789Y-13840710D02*
X11947265Y-13850234D01*
X11947265Y-13850234D02*
X11937741Y-13840710D01*
X11937741Y-13840710D02*
X11947265Y-13831186D01*
X11947265Y-13831186D02*
X11947265Y-13850234D01*
X12080598Y-13650234D02*
X12099646Y-13650234D01*
X12099646Y-13650234D02*
X12118694Y-13659758D01*
X12118694Y-13659758D02*
X12128217Y-13669281D01*
X12128217Y-13669281D02*
X12137741Y-13688329D01*
X12137741Y-13688329D02*
X12147265Y-13726424D01*
X12147265Y-13726424D02*
X12147265Y-13774043D01*
X12147265Y-13774043D02*
X12137741Y-13812138D01*
X12137741Y-13812138D02*
X12128217Y-13831186D01*
X12128217Y-13831186D02*
X12118694Y-13840710D01*
X12118694Y-13840710D02*
X12099646Y-13850234D01*
X12099646Y-13850234D02*
X12080598Y-13850234D01*
X12080598Y-13850234D02*
X12061551Y-13840710D01*
X12061551Y-13840710D02*
X12052027Y-13831186D01*
X12052027Y-13831186D02*
X12042503Y-13812138D01*
X12042503Y-13812138D02*
X12032979Y-13774043D01*
X12032979Y-13774043D02*
X12032979Y-13726424D01*
X12032979Y-13726424D02*
X12042503Y-13688329D01*
X12042503Y-13688329D02*
X12052027Y-13669281D01*
X12052027Y-13669281D02*
X12061551Y-13659758D01*
X12061551Y-13659758D02*
X12080598Y-13650234D01*
X12271075Y-13650234D02*
X12290122Y-13650234D01*
X12290122Y-13650234D02*
X12309170Y-13659758D01*
X12309170Y-13659758D02*
X12318694Y-13669281D01*
X12318694Y-13669281D02*
X12328217Y-13688329D01*
X12328217Y-13688329D02*
X12337741Y-13726424D01*
X12337741Y-13726424D02*
X12337741Y-13774043D01*
X12337741Y-13774043D02*
X12328217Y-13812138D01*
X12328217Y-13812138D02*
X12318694Y-13831186D01*
X12318694Y-13831186D02*
X12309170Y-13840710D01*
X12309170Y-13840710D02*
X12290122Y-13850234D01*
X12290122Y-13850234D02*
X12271075Y-13850234D01*
X12271075Y-13850234D02*
X12252027Y-13840710D01*
X12252027Y-13840710D02*
X12242503Y-13831186D01*
X12242503Y-13831186D02*
X12232979Y-13812138D01*
X12232979Y-13812138D02*
X12223456Y-13774043D01*
X12223456Y-13774043D02*
X12223456Y-13726424D01*
X12223456Y-13726424D02*
X12232979Y-13688329D01*
X12232979Y-13688329D02*
X12242503Y-13669281D01*
X12242503Y-13669281D02*
X12252027Y-13659758D01*
X12252027Y-13659758D02*
X12271075Y-13650234D01*
X12404408Y-13650234D02*
X12537741Y-13650234D01*
X12537741Y-13650234D02*
X12452027Y-13850234D01*
X12623456Y-13850234D02*
X12661551Y-13850234D01*
X12661551Y-13850234D02*
X12680598Y-13840710D01*
X12680598Y-13840710D02*
X12690122Y-13831186D01*
X12690122Y-13831186D02*
X12709170Y-13802615D01*
X12709170Y-13802615D02*
X12718694Y-13764519D01*
X12718694Y-13764519D02*
X12718694Y-13688329D01*
X12718694Y-13688329D02*
X12709170Y-13669281D01*
X12709170Y-13669281D02*
X12699646Y-13659758D01*
X12699646Y-13659758D02*
X12680598Y-13650234D01*
X12680598Y-13650234D02*
X12642503Y-13650234D01*
X12642503Y-13650234D02*
X12623456Y-13659758D01*
X12623456Y-13659758D02*
X12613932Y-13669281D01*
X12613932Y-13669281D02*
X12604408Y-13688329D01*
X12604408Y-13688329D02*
X12604408Y-13735948D01*
X12604408Y-13735948D02*
X12613932Y-13754996D01*
X12613932Y-13754996D02*
X12623456Y-13764519D01*
X12623456Y-13764519D02*
X12642503Y-13774043D01*
X12642503Y-13774043D02*
X12680598Y-13774043D01*
X12680598Y-13774043D02*
X12699646Y-13764519D01*
X12699646Y-13764519D02*
X12709170Y-13754996D01*
X12709170Y-13754996D02*
X12718694Y-13735948D01*
X12794884Y-13650234D02*
X12794884Y-13688329D01*
X12871075Y-13650234D02*
X12871075Y-13688329D01*
X13166313Y-13926424D02*
X13156789Y-13916900D01*
X13156789Y-13916900D02*
X13137741Y-13888329D01*
X13137741Y-13888329D02*
X13128218Y-13869281D01*
X13128218Y-13869281D02*
X13118694Y-13840710D01*
X13118694Y-13840710D02*
X13109170Y-13793091D01*
X13109170Y-13793091D02*
X13109170Y-13754996D01*
X13109170Y-13754996D02*
X13118694Y-13707377D01*
X13118694Y-13707377D02*
X13128218Y-13678805D01*
X13128218Y-13678805D02*
X13137741Y-13659758D01*
X13137741Y-13659758D02*
X13156789Y-13631186D01*
X13156789Y-13631186D02*
X13166313Y-13621662D01*
X13347265Y-13850234D02*
X13232979Y-13850234D01*
X13290122Y-13850234D02*
X13290122Y-13650234D01*
X13290122Y-13650234D02*
X13271075Y-13678805D01*
X13271075Y-13678805D02*
X13252027Y-13697853D01*
X13252027Y-13697853D02*
X13232979Y-13707377D01*
X13423456Y-13669281D02*
X13432979Y-13659758D01*
X13432979Y-13659758D02*
X13452027Y-13650234D01*
X13452027Y-13650234D02*
X13499646Y-13650234D01*
X13499646Y-13650234D02*
X13518694Y-13659758D01*
X13518694Y-13659758D02*
X13528218Y-13669281D01*
X13528218Y-13669281D02*
X13537741Y-13688329D01*
X13537741Y-13688329D02*
X13537741Y-13707377D01*
X13537741Y-13707377D02*
X13528218Y-13735948D01*
X13528218Y-13735948D02*
X13413932Y-13850234D01*
X13413932Y-13850234D02*
X13537741Y-13850234D01*
X13775837Y-13850234D02*
X13775837Y-13650234D01*
X13861551Y-13850234D02*
X13861551Y-13745472D01*
X13861551Y-13745472D02*
X13852027Y-13726424D01*
X13852027Y-13726424D02*
X13832980Y-13716900D01*
X13832980Y-13716900D02*
X13804408Y-13716900D01*
X13804408Y-13716900D02*
X13785360Y-13726424D01*
X13785360Y-13726424D02*
X13775837Y-13735948D01*
X13985360Y-13850234D02*
X13966313Y-13840710D01*
X13966313Y-13840710D02*
X13956789Y-13831186D01*
X13956789Y-13831186D02*
X13947265Y-13812138D01*
X13947265Y-13812138D02*
X13947265Y-13754996D01*
X13947265Y-13754996D02*
X13956789Y-13735948D01*
X13956789Y-13735948D02*
X13966313Y-13726424D01*
X13966313Y-13726424D02*
X13985360Y-13716900D01*
X13985360Y-13716900D02*
X14013932Y-13716900D01*
X14013932Y-13716900D02*
X14032980Y-13726424D01*
X14032980Y-13726424D02*
X14042503Y-13735948D01*
X14042503Y-13735948D02*
X14052027Y-13754996D01*
X14052027Y-13754996D02*
X14052027Y-13812138D01*
X14052027Y-13812138D02*
X14042503Y-13831186D01*
X14042503Y-13831186D02*
X14032980Y-13840710D01*
X14032980Y-13840710D02*
X14013932Y-13850234D01*
X14013932Y-13850234D02*
X13985360Y-13850234D01*
X14166313Y-13850234D02*
X14147265Y-13840710D01*
X14147265Y-13840710D02*
X14137741Y-13821662D01*
X14137741Y-13821662D02*
X14137741Y-13650234D01*
X14318694Y-13840710D02*
X14299646Y-13850234D01*
X14299646Y-13850234D02*
X14261551Y-13850234D01*
X14261551Y-13850234D02*
X14242503Y-13840710D01*
X14242503Y-13840710D02*
X14232980Y-13821662D01*
X14232980Y-13821662D02*
X14232980Y-13745472D01*
X14232980Y-13745472D02*
X14242503Y-13726424D01*
X14242503Y-13726424D02*
X14261551Y-13716900D01*
X14261551Y-13716900D02*
X14299646Y-13716900D01*
X14299646Y-13716900D02*
X14318694Y-13726424D01*
X14318694Y-13726424D02*
X14328218Y-13745472D01*
X14328218Y-13745472D02*
X14328218Y-13764519D01*
X14328218Y-13764519D02*
X14232980Y-13783567D01*
X14404408Y-13840710D02*
X14423456Y-13850234D01*
X14423456Y-13850234D02*
X14461551Y-13850234D01*
X14461551Y-13850234D02*
X14480599Y-13840710D01*
X14480599Y-13840710D02*
X14490122Y-13821662D01*
X14490122Y-13821662D02*
X14490122Y-13812138D01*
X14490122Y-13812138D02*
X14480599Y-13793091D01*
X14480599Y-13793091D02*
X14461551Y-13783567D01*
X14461551Y-13783567D02*
X14432980Y-13783567D01*
X14432980Y-13783567D02*
X14413932Y-13774043D01*
X14413932Y-13774043D02*
X14404408Y-13754996D01*
X14404408Y-13754996D02*
X14404408Y-13745472D01*
X14404408Y-13745472D02*
X14413932Y-13726424D01*
X14413932Y-13726424D02*
X14432980Y-13716900D01*
X14432980Y-13716900D02*
X14461551Y-13716900D01*
X14461551Y-13716900D02*
X14480599Y-13726424D01*
X14556789Y-13926424D02*
X14566313Y-13916900D01*
X14566313Y-13916900D02*
X14585361Y-13888329D01*
X14585361Y-13888329D02*
X14594884Y-13869281D01*
X14594884Y-13869281D02*
X14604408Y-13840710D01*
X14604408Y-13840710D02*
X14613932Y-13793091D01*
X14613932Y-13793091D02*
X14613932Y-13754996D01*
X14613932Y-13754996D02*
X14604408Y-13707377D01*
X14604408Y-13707377D02*
X14594884Y-13678805D01*
X14594884Y-13678805D02*
X14585361Y-13659758D01*
X14585361Y-13659758D02*
X14566313Y-13631186D01*
X14566313Y-13631186D02*
X14556789Y-13621662D01*
D12*
X9591250Y-14022750D02*
G75*
G02*
X9561250Y-14022750I-15000J0D01*
G01*
X9561250Y-14022750D02*
G75*
G02*
X9591250Y-14022750I15000J0D01*
G01*
D11*
X9890122Y-13914234D02*
X9909170Y-13914234D01*
X9909170Y-13914234D02*
X9928217Y-13923758D01*
X9928217Y-13923758D02*
X9937741Y-13933281D01*
X9937741Y-13933281D02*
X9947265Y-13952329D01*
X9947265Y-13952329D02*
X9956789Y-13990424D01*
X9956789Y-13990424D02*
X9956789Y-14038043D01*
X9956789Y-14038043D02*
X9947265Y-14076138D01*
X9947265Y-14076138D02*
X9937741Y-14095186D01*
X9937741Y-14095186D02*
X9928217Y-14104710D01*
X9928217Y-14104710D02*
X9909170Y-14114234D01*
X9909170Y-14114234D02*
X9890122Y-14114234D01*
X9890122Y-14114234D02*
X9871074Y-14104710D01*
X9871074Y-14104710D02*
X9861551Y-14095186D01*
X9861551Y-14095186D02*
X9852027Y-14076138D01*
X9852027Y-14076138D02*
X9842503Y-14038043D01*
X9842503Y-14038043D02*
X9842503Y-13990424D01*
X9842503Y-13990424D02*
X9852027Y-13952329D01*
X9852027Y-13952329D02*
X9861551Y-13933281D01*
X9861551Y-13933281D02*
X9871074Y-13923758D01*
X9871074Y-13923758D02*
X9890122Y-13914234D01*
X10042503Y-14095186D02*
X10052027Y-14104710D01*
X10052027Y-14104710D02*
X10042503Y-14114234D01*
X10042503Y-14114234D02*
X10032979Y-14104710D01*
X10032979Y-14104710D02*
X10042503Y-14095186D01*
X10042503Y-14095186D02*
X10042503Y-14114234D01*
X10118694Y-13914234D02*
X10242503Y-13914234D01*
X10242503Y-13914234D02*
X10175836Y-13990424D01*
X10175836Y-13990424D02*
X10204408Y-13990424D01*
X10204408Y-13990424D02*
X10223455Y-13999948D01*
X10223455Y-13999948D02*
X10232979Y-14009472D01*
X10232979Y-14009472D02*
X10242503Y-14028519D01*
X10242503Y-14028519D02*
X10242503Y-14076138D01*
X10242503Y-14076138D02*
X10232979Y-14095186D01*
X10232979Y-14095186D02*
X10223455Y-14104710D01*
X10223455Y-14104710D02*
X10204408Y-14114234D01*
X10204408Y-14114234D02*
X10147265Y-14114234D01*
X10147265Y-14114234D02*
X10128217Y-14104710D01*
X10128217Y-14104710D02*
X10118694Y-14095186D01*
X10366313Y-13914234D02*
X10385360Y-13914234D01*
X10385360Y-13914234D02*
X10404408Y-13923758D01*
X10404408Y-13923758D02*
X10413932Y-13933281D01*
X10413932Y-13933281D02*
X10423455Y-13952329D01*
X10423455Y-13952329D02*
X10432979Y-13990424D01*
X10432979Y-13990424D02*
X10432979Y-14038043D01*
X10432979Y-14038043D02*
X10423455Y-14076138D01*
X10423455Y-14076138D02*
X10413932Y-14095186D01*
X10413932Y-14095186D02*
X10404408Y-14104710D01*
X10404408Y-14104710D02*
X10385360Y-14114234D01*
X10385360Y-14114234D02*
X10366313Y-14114234D01*
X10366313Y-14114234D02*
X10347265Y-14104710D01*
X10347265Y-14104710D02*
X10337741Y-14095186D01*
X10337741Y-14095186D02*
X10328217Y-14076138D01*
X10328217Y-14076138D02*
X10318694Y-14038043D01*
X10318694Y-14038043D02*
X10318694Y-13990424D01*
X10318694Y-13990424D02*
X10328217Y-13952329D01*
X10328217Y-13952329D02*
X10337741Y-13933281D01*
X10337741Y-13933281D02*
X10347265Y-13923758D01*
X10347265Y-13923758D02*
X10366313Y-13914234D01*
X10556789Y-13914234D02*
X10575836Y-13914234D01*
X10575836Y-13914234D02*
X10594884Y-13923758D01*
X10594884Y-13923758D02*
X10604408Y-13933281D01*
X10604408Y-13933281D02*
X10613932Y-13952329D01*
X10613932Y-13952329D02*
X10623455Y-13990424D01*
X10623455Y-13990424D02*
X10623455Y-14038043D01*
X10623455Y-14038043D02*
X10613932Y-14076138D01*
X10613932Y-14076138D02*
X10604408Y-14095186D01*
X10604408Y-14095186D02*
X10594884Y-14104710D01*
X10594884Y-14104710D02*
X10575836Y-14114234D01*
X10575836Y-14114234D02*
X10556789Y-14114234D01*
X10556789Y-14114234D02*
X10537741Y-14104710D01*
X10537741Y-14104710D02*
X10528217Y-14095186D01*
X10528217Y-14095186D02*
X10518694Y-14076138D01*
X10518694Y-14076138D02*
X10509170Y-14038043D01*
X10509170Y-14038043D02*
X10509170Y-13990424D01*
X10509170Y-13990424D02*
X10518694Y-13952329D01*
X10518694Y-13952329D02*
X10528217Y-13933281D01*
X10528217Y-13933281D02*
X10537741Y-13923758D01*
X10537741Y-13923758D02*
X10556789Y-13914234D01*
X10709170Y-14114234D02*
X10709170Y-13980900D01*
X10709170Y-13999948D02*
X10718694Y-13990424D01*
X10718694Y-13990424D02*
X10737741Y-13980900D01*
X10737741Y-13980900D02*
X10766313Y-13980900D01*
X10766313Y-13980900D02*
X10785360Y-13990424D01*
X10785360Y-13990424D02*
X10794884Y-14009472D01*
X10794884Y-14009472D02*
X10794884Y-14114234D01*
X10794884Y-14009472D02*
X10804408Y-13990424D01*
X10804408Y-13990424D02*
X10823455Y-13980900D01*
X10823455Y-13980900D02*
X10852027Y-13980900D01*
X10852027Y-13980900D02*
X10871075Y-13990424D01*
X10871075Y-13990424D02*
X10880598Y-14009472D01*
X10880598Y-14009472D02*
X10880598Y-14114234D01*
X10975836Y-14114234D02*
X10975836Y-13980900D01*
X10975836Y-13999948D02*
X10985360Y-13990424D01*
X10985360Y-13990424D02*
X11004408Y-13980900D01*
X11004408Y-13980900D02*
X11032979Y-13980900D01*
X11032979Y-13980900D02*
X11052027Y-13990424D01*
X11052027Y-13990424D02*
X11061551Y-14009472D01*
X11061551Y-14009472D02*
X11061551Y-14114234D01*
X11061551Y-14009472D02*
X11071075Y-13990424D01*
X11071075Y-13990424D02*
X11090122Y-13980900D01*
X11090122Y-13980900D02*
X11118694Y-13980900D01*
X11118694Y-13980900D02*
X11137741Y-13990424D01*
X11137741Y-13990424D02*
X11147265Y-14009472D01*
X11147265Y-14009472D02*
X11147265Y-14114234D01*
X11537741Y-13904710D02*
X11366313Y-14161853D01*
X11794884Y-13914234D02*
X11813932Y-13914234D01*
X11813932Y-13914234D02*
X11832979Y-13923758D01*
X11832979Y-13923758D02*
X11842503Y-13933281D01*
X11842503Y-13933281D02*
X11852027Y-13952329D01*
X11852027Y-13952329D02*
X11861551Y-13990424D01*
X11861551Y-13990424D02*
X11861551Y-14038043D01*
X11861551Y-14038043D02*
X11852027Y-14076138D01*
X11852027Y-14076138D02*
X11842503Y-14095186D01*
X11842503Y-14095186D02*
X11832979Y-14104710D01*
X11832979Y-14104710D02*
X11813932Y-14114234D01*
X11813932Y-14114234D02*
X11794884Y-14114234D01*
X11794884Y-14114234D02*
X11775836Y-14104710D01*
X11775836Y-14104710D02*
X11766313Y-14095186D01*
X11766313Y-14095186D02*
X11756789Y-14076138D01*
X11756789Y-14076138D02*
X11747265Y-14038043D01*
X11747265Y-14038043D02*
X11747265Y-13990424D01*
X11747265Y-13990424D02*
X11756789Y-13952329D01*
X11756789Y-13952329D02*
X11766313Y-13933281D01*
X11766313Y-13933281D02*
X11775836Y-13923758D01*
X11775836Y-13923758D02*
X11794884Y-13914234D01*
X11947265Y-14095186D02*
X11956789Y-14104710D01*
X11956789Y-14104710D02*
X11947265Y-14114234D01*
X11947265Y-14114234D02*
X11937741Y-14104710D01*
X11937741Y-14104710D02*
X11947265Y-14095186D01*
X11947265Y-14095186D02*
X11947265Y-14114234D01*
X12080598Y-13914234D02*
X12099646Y-13914234D01*
X12099646Y-13914234D02*
X12118694Y-13923758D01*
X12118694Y-13923758D02*
X12128217Y-13933281D01*
X12128217Y-13933281D02*
X12137741Y-13952329D01*
X12137741Y-13952329D02*
X12147265Y-13990424D01*
X12147265Y-13990424D02*
X12147265Y-14038043D01*
X12147265Y-14038043D02*
X12137741Y-14076138D01*
X12137741Y-14076138D02*
X12128217Y-14095186D01*
X12128217Y-14095186D02*
X12118694Y-14104710D01*
X12118694Y-14104710D02*
X12099646Y-14114234D01*
X12099646Y-14114234D02*
X12080598Y-14114234D01*
X12080598Y-14114234D02*
X12061551Y-14104710D01*
X12061551Y-14104710D02*
X12052027Y-14095186D01*
X12052027Y-14095186D02*
X12042503Y-14076138D01*
X12042503Y-14076138D02*
X12032979Y-14038043D01*
X12032979Y-14038043D02*
X12032979Y-13990424D01*
X12032979Y-13990424D02*
X12042503Y-13952329D01*
X12042503Y-13952329D02*
X12052027Y-13933281D01*
X12052027Y-13933281D02*
X12061551Y-13923758D01*
X12061551Y-13923758D02*
X12080598Y-13914234D01*
X12337741Y-14114234D02*
X12223456Y-14114234D01*
X12280598Y-14114234D02*
X12280598Y-13914234D01*
X12280598Y-13914234D02*
X12261551Y-13942805D01*
X12261551Y-13942805D02*
X12242503Y-13961853D01*
X12242503Y-13961853D02*
X12223456Y-13971377D01*
X12528217Y-14114234D02*
X12413932Y-14114234D01*
X12471075Y-14114234D02*
X12471075Y-13914234D01*
X12471075Y-13914234D02*
X12452027Y-13942805D01*
X12452027Y-13942805D02*
X12432979Y-13961853D01*
X12432979Y-13961853D02*
X12413932Y-13971377D01*
X12642503Y-13999948D02*
X12623456Y-13990424D01*
X12623456Y-13990424D02*
X12613932Y-13980900D01*
X12613932Y-13980900D02*
X12604408Y-13961853D01*
X12604408Y-13961853D02*
X12604408Y-13952329D01*
X12604408Y-13952329D02*
X12613932Y-13933281D01*
X12613932Y-13933281D02*
X12623456Y-13923758D01*
X12623456Y-13923758D02*
X12642503Y-13914234D01*
X12642503Y-13914234D02*
X12680598Y-13914234D01*
X12680598Y-13914234D02*
X12699646Y-13923758D01*
X12699646Y-13923758D02*
X12709170Y-13933281D01*
X12709170Y-13933281D02*
X12718694Y-13952329D01*
X12718694Y-13952329D02*
X12718694Y-13961853D01*
X12718694Y-13961853D02*
X12709170Y-13980900D01*
X12709170Y-13980900D02*
X12699646Y-13990424D01*
X12699646Y-13990424D02*
X12680598Y-13999948D01*
X12680598Y-13999948D02*
X12642503Y-13999948D01*
X12642503Y-13999948D02*
X12623456Y-14009472D01*
X12623456Y-14009472D02*
X12613932Y-14018996D01*
X12613932Y-14018996D02*
X12604408Y-14038043D01*
X12604408Y-14038043D02*
X12604408Y-14076138D01*
X12604408Y-14076138D02*
X12613932Y-14095186D01*
X12613932Y-14095186D02*
X12623456Y-14104710D01*
X12623456Y-14104710D02*
X12642503Y-14114234D01*
X12642503Y-14114234D02*
X12680598Y-14114234D01*
X12680598Y-14114234D02*
X12699646Y-14104710D01*
X12699646Y-14104710D02*
X12709170Y-14095186D01*
X12709170Y-14095186D02*
X12718694Y-14076138D01*
X12718694Y-14076138D02*
X12718694Y-14038043D01*
X12718694Y-14038043D02*
X12709170Y-14018996D01*
X12709170Y-14018996D02*
X12699646Y-14009472D01*
X12699646Y-14009472D02*
X12680598Y-13999948D01*
X12794884Y-13914234D02*
X12794884Y-13952329D01*
X12871075Y-13914234D02*
X12871075Y-13952329D01*
X13166313Y-14190424D02*
X13156789Y-14180900D01*
X13156789Y-14180900D02*
X13137741Y-14152329D01*
X13137741Y-14152329D02*
X13128218Y-14133281D01*
X13128218Y-14133281D02*
X13118694Y-14104710D01*
X13118694Y-14104710D02*
X13109170Y-14057091D01*
X13109170Y-14057091D02*
X13109170Y-14018996D01*
X13109170Y-14018996D02*
X13118694Y-13971377D01*
X13118694Y-13971377D02*
X13128218Y-13942805D01*
X13128218Y-13942805D02*
X13137741Y-13923758D01*
X13137741Y-13923758D02*
X13156789Y-13895186D01*
X13156789Y-13895186D02*
X13166313Y-13885662D01*
X13337741Y-13914234D02*
X13242503Y-13914234D01*
X13242503Y-13914234D02*
X13232979Y-14009472D01*
X13232979Y-14009472D02*
X13242503Y-13999948D01*
X13242503Y-13999948D02*
X13261551Y-13990424D01*
X13261551Y-13990424D02*
X13309170Y-13990424D01*
X13309170Y-13990424D02*
X13328218Y-13999948D01*
X13328218Y-13999948D02*
X13337741Y-14009472D01*
X13337741Y-14009472D02*
X13347265Y-14028519D01*
X13347265Y-14028519D02*
X13347265Y-14076138D01*
X13347265Y-14076138D02*
X13337741Y-14095186D01*
X13337741Y-14095186D02*
X13328218Y-14104710D01*
X13328218Y-14104710D02*
X13309170Y-14114234D01*
X13309170Y-14114234D02*
X13261551Y-14114234D01*
X13261551Y-14114234D02*
X13242503Y-14104710D01*
X13242503Y-14104710D02*
X13232979Y-14095186D01*
X13537741Y-14114234D02*
X13423456Y-14114234D01*
X13480598Y-14114234D02*
X13480598Y-13914234D01*
X13480598Y-13914234D02*
X13461551Y-13942805D01*
X13461551Y-13942805D02*
X13442503Y-13961853D01*
X13442503Y-13961853D02*
X13423456Y-13971377D01*
X13775837Y-14114234D02*
X13775837Y-13914234D01*
X13861551Y-14114234D02*
X13861551Y-14009472D01*
X13861551Y-14009472D02*
X13852027Y-13990424D01*
X13852027Y-13990424D02*
X13832980Y-13980900D01*
X13832980Y-13980900D02*
X13804408Y-13980900D01*
X13804408Y-13980900D02*
X13785360Y-13990424D01*
X13785360Y-13990424D02*
X13775837Y-13999948D01*
X13985360Y-14114234D02*
X13966313Y-14104710D01*
X13966313Y-14104710D02*
X13956789Y-14095186D01*
X13956789Y-14095186D02*
X13947265Y-14076138D01*
X13947265Y-14076138D02*
X13947265Y-14018996D01*
X13947265Y-14018996D02*
X13956789Y-13999948D01*
X13956789Y-13999948D02*
X13966313Y-13990424D01*
X13966313Y-13990424D02*
X13985360Y-13980900D01*
X13985360Y-13980900D02*
X14013932Y-13980900D01*
X14013932Y-13980900D02*
X14032980Y-13990424D01*
X14032980Y-13990424D02*
X14042503Y-13999948D01*
X14042503Y-13999948D02*
X14052027Y-14018996D01*
X14052027Y-14018996D02*
X14052027Y-14076138D01*
X14052027Y-14076138D02*
X14042503Y-14095186D01*
X14042503Y-14095186D02*
X14032980Y-14104710D01*
X14032980Y-14104710D02*
X14013932Y-14114234D01*
X14013932Y-14114234D02*
X13985360Y-14114234D01*
X14166313Y-14114234D02*
X14147265Y-14104710D01*
X14147265Y-14104710D02*
X14137741Y-14085662D01*
X14137741Y-14085662D02*
X14137741Y-13914234D01*
X14318694Y-14104710D02*
X14299646Y-14114234D01*
X14299646Y-14114234D02*
X14261551Y-14114234D01*
X14261551Y-14114234D02*
X14242503Y-14104710D01*
X14242503Y-14104710D02*
X14232980Y-14085662D01*
X14232980Y-14085662D02*
X14232980Y-14009472D01*
X14232980Y-14009472D02*
X14242503Y-13990424D01*
X14242503Y-13990424D02*
X14261551Y-13980900D01*
X14261551Y-13980900D02*
X14299646Y-13980900D01*
X14299646Y-13980900D02*
X14318694Y-13990424D01*
X14318694Y-13990424D02*
X14328218Y-14009472D01*
X14328218Y-14009472D02*
X14328218Y-14028519D01*
X14328218Y-14028519D02*
X14232980Y-14047567D01*
X14404408Y-14104710D02*
X14423456Y-14114234D01*
X14423456Y-14114234D02*
X14461551Y-14114234D01*
X14461551Y-14114234D02*
X14480599Y-14104710D01*
X14480599Y-14104710D02*
X14490122Y-14085662D01*
X14490122Y-14085662D02*
X14490122Y-14076138D01*
X14490122Y-14076138D02*
X14480599Y-14057091D01*
X14480599Y-14057091D02*
X14461551Y-14047567D01*
X14461551Y-14047567D02*
X14432980Y-14047567D01*
X14432980Y-14047567D02*
X14413932Y-14038043D01*
X14413932Y-14038043D02*
X14404408Y-14018996D01*
X14404408Y-14018996D02*
X14404408Y-14009472D01*
X14404408Y-14009472D02*
X14413932Y-13990424D01*
X14413932Y-13990424D02*
X14432980Y-13980900D01*
X14432980Y-13980900D02*
X14461551Y-13980900D01*
X14461551Y-13980900D02*
X14480599Y-13990424D01*
X14556789Y-14190424D02*
X14566313Y-14180900D01*
X14566313Y-14180900D02*
X14585361Y-14152329D01*
X14585361Y-14152329D02*
X14594884Y-14133281D01*
X14594884Y-14133281D02*
X14604408Y-14104710D01*
X14604408Y-14104710D02*
X14613932Y-14057091D01*
X14613932Y-14057091D02*
X14613932Y-14018996D01*
X14613932Y-14018996D02*
X14604408Y-13971377D01*
X14604408Y-13971377D02*
X14594884Y-13942805D01*
X14594884Y-13942805D02*
X14585361Y-13923758D01*
X14585361Y-13923758D02*
X14566313Y-13895186D01*
X14566313Y-13895186D02*
X14556789Y-13885662D01*
D12*
X9561250Y-14256750D02*
X9561250Y-14316750D01*
X9531250Y-14286750D02*
X9591250Y-14286750D01*
D11*
X9890122Y-14178234D02*
X9909170Y-14178234D01*
X9909170Y-14178234D02*
X9928217Y-14187758D01*
X9928217Y-14187758D02*
X9937741Y-14197281D01*
X9937741Y-14197281D02*
X9947265Y-14216329D01*
X9947265Y-14216329D02*
X9956789Y-14254424D01*
X9956789Y-14254424D02*
X9956789Y-14302043D01*
X9956789Y-14302043D02*
X9947265Y-14340138D01*
X9947265Y-14340138D02*
X9937741Y-14359186D01*
X9937741Y-14359186D02*
X9928217Y-14368710D01*
X9928217Y-14368710D02*
X9909170Y-14378234D01*
X9909170Y-14378234D02*
X9890122Y-14378234D01*
X9890122Y-14378234D02*
X9871074Y-14368710D01*
X9871074Y-14368710D02*
X9861551Y-14359186D01*
X9861551Y-14359186D02*
X9852027Y-14340138D01*
X9852027Y-14340138D02*
X9842503Y-14302043D01*
X9842503Y-14302043D02*
X9842503Y-14254424D01*
X9842503Y-14254424D02*
X9852027Y-14216329D01*
X9852027Y-14216329D02*
X9861551Y-14197281D01*
X9861551Y-14197281D02*
X9871074Y-14187758D01*
X9871074Y-14187758D02*
X9890122Y-14178234D01*
X10042503Y-14359186D02*
X10052027Y-14368710D01*
X10052027Y-14368710D02*
X10042503Y-14378234D01*
X10042503Y-14378234D02*
X10032979Y-14368710D01*
X10032979Y-14368710D02*
X10042503Y-14359186D01*
X10042503Y-14359186D02*
X10042503Y-14378234D01*
X10223455Y-14178234D02*
X10185360Y-14178234D01*
X10185360Y-14178234D02*
X10166313Y-14187758D01*
X10166313Y-14187758D02*
X10156789Y-14197281D01*
X10156789Y-14197281D02*
X10137741Y-14225853D01*
X10137741Y-14225853D02*
X10128217Y-14263948D01*
X10128217Y-14263948D02*
X10128217Y-14340138D01*
X10128217Y-14340138D02*
X10137741Y-14359186D01*
X10137741Y-14359186D02*
X10147265Y-14368710D01*
X10147265Y-14368710D02*
X10166313Y-14378234D01*
X10166313Y-14378234D02*
X10204408Y-14378234D01*
X10204408Y-14378234D02*
X10223455Y-14368710D01*
X10223455Y-14368710D02*
X10232979Y-14359186D01*
X10232979Y-14359186D02*
X10242503Y-14340138D01*
X10242503Y-14340138D02*
X10242503Y-14292519D01*
X10242503Y-14292519D02*
X10232979Y-14273472D01*
X10232979Y-14273472D02*
X10223455Y-14263948D01*
X10223455Y-14263948D02*
X10204408Y-14254424D01*
X10204408Y-14254424D02*
X10166313Y-14254424D01*
X10166313Y-14254424D02*
X10147265Y-14263948D01*
X10147265Y-14263948D02*
X10137741Y-14273472D01*
X10137741Y-14273472D02*
X10128217Y-14292519D01*
X10366313Y-14178234D02*
X10385360Y-14178234D01*
X10385360Y-14178234D02*
X10404408Y-14187758D01*
X10404408Y-14187758D02*
X10413932Y-14197281D01*
X10413932Y-14197281D02*
X10423455Y-14216329D01*
X10423455Y-14216329D02*
X10432979Y-14254424D01*
X10432979Y-14254424D02*
X10432979Y-14302043D01*
X10432979Y-14302043D02*
X10423455Y-14340138D01*
X10423455Y-14340138D02*
X10413932Y-14359186D01*
X10413932Y-14359186D02*
X10404408Y-14368710D01*
X10404408Y-14368710D02*
X10385360Y-14378234D01*
X10385360Y-14378234D02*
X10366313Y-14378234D01*
X10366313Y-14378234D02*
X10347265Y-14368710D01*
X10347265Y-14368710D02*
X10337741Y-14359186D01*
X10337741Y-14359186D02*
X10328217Y-14340138D01*
X10328217Y-14340138D02*
X10318694Y-14302043D01*
X10318694Y-14302043D02*
X10318694Y-14254424D01*
X10318694Y-14254424D02*
X10328217Y-14216329D01*
X10328217Y-14216329D02*
X10337741Y-14197281D01*
X10337741Y-14197281D02*
X10347265Y-14187758D01*
X10347265Y-14187758D02*
X10366313Y-14178234D01*
X10556789Y-14178234D02*
X10575836Y-14178234D01*
X10575836Y-14178234D02*
X10594884Y-14187758D01*
X10594884Y-14187758D02*
X10604408Y-14197281D01*
X10604408Y-14197281D02*
X10613932Y-14216329D01*
X10613932Y-14216329D02*
X10623455Y-14254424D01*
X10623455Y-14254424D02*
X10623455Y-14302043D01*
X10623455Y-14302043D02*
X10613932Y-14340138D01*
X10613932Y-14340138D02*
X10604408Y-14359186D01*
X10604408Y-14359186D02*
X10594884Y-14368710D01*
X10594884Y-14368710D02*
X10575836Y-14378234D01*
X10575836Y-14378234D02*
X10556789Y-14378234D01*
X10556789Y-14378234D02*
X10537741Y-14368710D01*
X10537741Y-14368710D02*
X10528217Y-14359186D01*
X10528217Y-14359186D02*
X10518694Y-14340138D01*
X10518694Y-14340138D02*
X10509170Y-14302043D01*
X10509170Y-14302043D02*
X10509170Y-14254424D01*
X10509170Y-14254424D02*
X10518694Y-14216329D01*
X10518694Y-14216329D02*
X10528217Y-14197281D01*
X10528217Y-14197281D02*
X10537741Y-14187758D01*
X10537741Y-14187758D02*
X10556789Y-14178234D01*
X10709170Y-14378234D02*
X10709170Y-14244900D01*
X10709170Y-14263948D02*
X10718694Y-14254424D01*
X10718694Y-14254424D02*
X10737741Y-14244900D01*
X10737741Y-14244900D02*
X10766313Y-14244900D01*
X10766313Y-14244900D02*
X10785360Y-14254424D01*
X10785360Y-14254424D02*
X10794884Y-14273472D01*
X10794884Y-14273472D02*
X10794884Y-14378234D01*
X10794884Y-14273472D02*
X10804408Y-14254424D01*
X10804408Y-14254424D02*
X10823455Y-14244900D01*
X10823455Y-14244900D02*
X10852027Y-14244900D01*
X10852027Y-14244900D02*
X10871075Y-14254424D01*
X10871075Y-14254424D02*
X10880598Y-14273472D01*
X10880598Y-14273472D02*
X10880598Y-14378234D01*
X10975836Y-14378234D02*
X10975836Y-14244900D01*
X10975836Y-14263948D02*
X10985360Y-14254424D01*
X10985360Y-14254424D02*
X11004408Y-14244900D01*
X11004408Y-14244900D02*
X11032979Y-14244900D01*
X11032979Y-14244900D02*
X11052027Y-14254424D01*
X11052027Y-14254424D02*
X11061551Y-14273472D01*
X11061551Y-14273472D02*
X11061551Y-14378234D01*
X11061551Y-14273472D02*
X11071075Y-14254424D01*
X11071075Y-14254424D02*
X11090122Y-14244900D01*
X11090122Y-14244900D02*
X11118694Y-14244900D01*
X11118694Y-14244900D02*
X11137741Y-14254424D01*
X11137741Y-14254424D02*
X11147265Y-14273472D01*
X11147265Y-14273472D02*
X11147265Y-14378234D01*
X11537741Y-14168710D02*
X11366313Y-14425853D01*
X11794884Y-14178234D02*
X11813932Y-14178234D01*
X11813932Y-14178234D02*
X11832979Y-14187758D01*
X11832979Y-14187758D02*
X11842503Y-14197281D01*
X11842503Y-14197281D02*
X11852027Y-14216329D01*
X11852027Y-14216329D02*
X11861551Y-14254424D01*
X11861551Y-14254424D02*
X11861551Y-14302043D01*
X11861551Y-14302043D02*
X11852027Y-14340138D01*
X11852027Y-14340138D02*
X11842503Y-14359186D01*
X11842503Y-14359186D02*
X11832979Y-14368710D01*
X11832979Y-14368710D02*
X11813932Y-14378234D01*
X11813932Y-14378234D02*
X11794884Y-14378234D01*
X11794884Y-14378234D02*
X11775836Y-14368710D01*
X11775836Y-14368710D02*
X11766313Y-14359186D01*
X11766313Y-14359186D02*
X11756789Y-14340138D01*
X11756789Y-14340138D02*
X11747265Y-14302043D01*
X11747265Y-14302043D02*
X11747265Y-14254424D01*
X11747265Y-14254424D02*
X11756789Y-14216329D01*
X11756789Y-14216329D02*
X11766313Y-14197281D01*
X11766313Y-14197281D02*
X11775836Y-14187758D01*
X11775836Y-14187758D02*
X11794884Y-14178234D01*
X11947265Y-14359186D02*
X11956789Y-14368710D01*
X11956789Y-14368710D02*
X11947265Y-14378234D01*
X11947265Y-14378234D02*
X11937741Y-14368710D01*
X11937741Y-14368710D02*
X11947265Y-14359186D01*
X11947265Y-14359186D02*
X11947265Y-14378234D01*
X12080598Y-14178234D02*
X12099646Y-14178234D01*
X12099646Y-14178234D02*
X12118694Y-14187758D01*
X12118694Y-14187758D02*
X12128217Y-14197281D01*
X12128217Y-14197281D02*
X12137741Y-14216329D01*
X12137741Y-14216329D02*
X12147265Y-14254424D01*
X12147265Y-14254424D02*
X12147265Y-14302043D01*
X12147265Y-14302043D02*
X12137741Y-14340138D01*
X12137741Y-14340138D02*
X12128217Y-14359186D01*
X12128217Y-14359186D02*
X12118694Y-14368710D01*
X12118694Y-14368710D02*
X12099646Y-14378234D01*
X12099646Y-14378234D02*
X12080598Y-14378234D01*
X12080598Y-14378234D02*
X12061551Y-14368710D01*
X12061551Y-14368710D02*
X12052027Y-14359186D01*
X12052027Y-14359186D02*
X12042503Y-14340138D01*
X12042503Y-14340138D02*
X12032979Y-14302043D01*
X12032979Y-14302043D02*
X12032979Y-14254424D01*
X12032979Y-14254424D02*
X12042503Y-14216329D01*
X12042503Y-14216329D02*
X12052027Y-14197281D01*
X12052027Y-14197281D02*
X12061551Y-14187758D01*
X12061551Y-14187758D02*
X12080598Y-14178234D01*
X12223456Y-14197281D02*
X12232979Y-14187758D01*
X12232979Y-14187758D02*
X12252027Y-14178234D01*
X12252027Y-14178234D02*
X12299646Y-14178234D01*
X12299646Y-14178234D02*
X12318694Y-14187758D01*
X12318694Y-14187758D02*
X12328217Y-14197281D01*
X12328217Y-14197281D02*
X12337741Y-14216329D01*
X12337741Y-14216329D02*
X12337741Y-14235377D01*
X12337741Y-14235377D02*
X12328217Y-14263948D01*
X12328217Y-14263948D02*
X12213932Y-14378234D01*
X12213932Y-14378234D02*
X12337741Y-14378234D01*
X12404408Y-14178234D02*
X12528217Y-14178234D01*
X12528217Y-14178234D02*
X12461551Y-14254424D01*
X12461551Y-14254424D02*
X12490122Y-14254424D01*
X12490122Y-14254424D02*
X12509170Y-14263948D01*
X12509170Y-14263948D02*
X12518694Y-14273472D01*
X12518694Y-14273472D02*
X12528217Y-14292519D01*
X12528217Y-14292519D02*
X12528217Y-14340138D01*
X12528217Y-14340138D02*
X12518694Y-14359186D01*
X12518694Y-14359186D02*
X12509170Y-14368710D01*
X12509170Y-14368710D02*
X12490122Y-14378234D01*
X12490122Y-14378234D02*
X12432979Y-14378234D01*
X12432979Y-14378234D02*
X12413932Y-14368710D01*
X12413932Y-14368710D02*
X12404408Y-14359186D01*
X12699646Y-14178234D02*
X12661551Y-14178234D01*
X12661551Y-14178234D02*
X12642503Y-14187758D01*
X12642503Y-14187758D02*
X12632979Y-14197281D01*
X12632979Y-14197281D02*
X12613932Y-14225853D01*
X12613932Y-14225853D02*
X12604408Y-14263948D01*
X12604408Y-14263948D02*
X12604408Y-14340138D01*
X12604408Y-14340138D02*
X12613932Y-14359186D01*
X12613932Y-14359186D02*
X12623456Y-14368710D01*
X12623456Y-14368710D02*
X12642503Y-14378234D01*
X12642503Y-14378234D02*
X12680598Y-14378234D01*
X12680598Y-14378234D02*
X12699646Y-14368710D01*
X12699646Y-14368710D02*
X12709170Y-14359186D01*
X12709170Y-14359186D02*
X12718694Y-14340138D01*
X12718694Y-14340138D02*
X12718694Y-14292519D01*
X12718694Y-14292519D02*
X12709170Y-14273472D01*
X12709170Y-14273472D02*
X12699646Y-14263948D01*
X12699646Y-14263948D02*
X12680598Y-14254424D01*
X12680598Y-14254424D02*
X12642503Y-14254424D01*
X12642503Y-14254424D02*
X12623456Y-14263948D01*
X12623456Y-14263948D02*
X12613932Y-14273472D01*
X12613932Y-14273472D02*
X12604408Y-14292519D01*
X12794884Y-14178234D02*
X12794884Y-14216329D01*
X12871075Y-14178234D02*
X12871075Y-14216329D01*
X13166313Y-14454424D02*
X13156789Y-14444900D01*
X13156789Y-14444900D02*
X13137741Y-14416329D01*
X13137741Y-14416329D02*
X13128218Y-14397281D01*
X13128218Y-14397281D02*
X13118694Y-14368710D01*
X13118694Y-14368710D02*
X13109170Y-14321091D01*
X13109170Y-14321091D02*
X13109170Y-14282996D01*
X13109170Y-14282996D02*
X13118694Y-14235377D01*
X13118694Y-14235377D02*
X13128218Y-14206805D01*
X13128218Y-14206805D02*
X13137741Y-14187758D01*
X13137741Y-14187758D02*
X13156789Y-14159186D01*
X13156789Y-14159186D02*
X13166313Y-14149662D01*
X13280598Y-14178234D02*
X13299646Y-14178234D01*
X13299646Y-14178234D02*
X13318694Y-14187758D01*
X13318694Y-14187758D02*
X13328218Y-14197281D01*
X13328218Y-14197281D02*
X13337741Y-14216329D01*
X13337741Y-14216329D02*
X13347265Y-14254424D01*
X13347265Y-14254424D02*
X13347265Y-14302043D01*
X13347265Y-14302043D02*
X13337741Y-14340138D01*
X13337741Y-14340138D02*
X13328218Y-14359186D01*
X13328218Y-14359186D02*
X13318694Y-14368710D01*
X13318694Y-14368710D02*
X13299646Y-14378234D01*
X13299646Y-14378234D02*
X13280598Y-14378234D01*
X13280598Y-14378234D02*
X13261551Y-14368710D01*
X13261551Y-14368710D02*
X13252027Y-14359186D01*
X13252027Y-14359186D02*
X13242503Y-14340138D01*
X13242503Y-14340138D02*
X13232979Y-14302043D01*
X13232979Y-14302043D02*
X13232979Y-14254424D01*
X13232979Y-14254424D02*
X13242503Y-14216329D01*
X13242503Y-14216329D02*
X13252027Y-14197281D01*
X13252027Y-14197281D02*
X13261551Y-14187758D01*
X13261551Y-14187758D02*
X13280598Y-14178234D01*
X13585360Y-14378234D02*
X13585360Y-14178234D01*
X13671075Y-14378234D02*
X13671075Y-14273472D01*
X13671075Y-14273472D02*
X13661551Y-14254424D01*
X13661551Y-14254424D02*
X13642503Y-14244900D01*
X13642503Y-14244900D02*
X13613932Y-14244900D01*
X13613932Y-14244900D02*
X13594884Y-14254424D01*
X13594884Y-14254424D02*
X13585360Y-14263948D01*
X13794884Y-14378234D02*
X13775837Y-14368710D01*
X13775837Y-14368710D02*
X13766313Y-14359186D01*
X13766313Y-14359186D02*
X13756789Y-14340138D01*
X13756789Y-14340138D02*
X13756789Y-14282996D01*
X13756789Y-14282996D02*
X13766313Y-14263948D01*
X13766313Y-14263948D02*
X13775837Y-14254424D01*
X13775837Y-14254424D02*
X13794884Y-14244900D01*
X13794884Y-14244900D02*
X13823456Y-14244900D01*
X13823456Y-14244900D02*
X13842503Y-14254424D01*
X13842503Y-14254424D02*
X13852027Y-14263948D01*
X13852027Y-14263948D02*
X13861551Y-14282996D01*
X13861551Y-14282996D02*
X13861551Y-14340138D01*
X13861551Y-14340138D02*
X13852027Y-14359186D01*
X13852027Y-14359186D02*
X13842503Y-14368710D01*
X13842503Y-14368710D02*
X13823456Y-14378234D01*
X13823456Y-14378234D02*
X13794884Y-14378234D01*
X13975837Y-14378234D02*
X13956789Y-14368710D01*
X13956789Y-14368710D02*
X13947265Y-14349662D01*
X13947265Y-14349662D02*
X13947265Y-14178234D01*
X14128218Y-14368710D02*
X14109170Y-14378234D01*
X14109170Y-14378234D02*
X14071075Y-14378234D01*
X14071075Y-14378234D02*
X14052027Y-14368710D01*
X14052027Y-14368710D02*
X14042503Y-14349662D01*
X14042503Y-14349662D02*
X14042503Y-14273472D01*
X14042503Y-14273472D02*
X14052027Y-14254424D01*
X14052027Y-14254424D02*
X14071075Y-14244900D01*
X14071075Y-14244900D02*
X14109170Y-14244900D01*
X14109170Y-14244900D02*
X14128218Y-14254424D01*
X14128218Y-14254424D02*
X14137741Y-14273472D01*
X14137741Y-14273472D02*
X14137741Y-14292519D01*
X14137741Y-14292519D02*
X14042503Y-14311567D01*
X14213932Y-14368710D02*
X14232980Y-14378234D01*
X14232980Y-14378234D02*
X14271075Y-14378234D01*
X14271075Y-14378234D02*
X14290122Y-14368710D01*
X14290122Y-14368710D02*
X14299646Y-14349662D01*
X14299646Y-14349662D02*
X14299646Y-14340138D01*
X14299646Y-14340138D02*
X14290122Y-14321091D01*
X14290122Y-14321091D02*
X14271075Y-14311567D01*
X14271075Y-14311567D02*
X14242503Y-14311567D01*
X14242503Y-14311567D02*
X14223456Y-14302043D01*
X14223456Y-14302043D02*
X14213932Y-14282996D01*
X14213932Y-14282996D02*
X14213932Y-14273472D01*
X14213932Y-14273472D02*
X14223456Y-14254424D01*
X14223456Y-14254424D02*
X14242503Y-14244900D01*
X14242503Y-14244900D02*
X14271075Y-14244900D01*
X14271075Y-14244900D02*
X14290122Y-14254424D01*
X14537742Y-14302043D02*
X14690123Y-14302043D01*
X14613932Y-14378234D02*
X14613932Y-14225853D01*
X15023456Y-14244900D02*
X15023456Y-14378234D01*
X14975837Y-14168710D02*
X14928218Y-14311567D01*
X14928218Y-14311567D02*
X15052027Y-14311567D01*
X15271075Y-14368710D02*
X15290123Y-14378234D01*
X15290123Y-14378234D02*
X15328218Y-14378234D01*
X15328218Y-14378234D02*
X15347265Y-14368710D01*
X15347265Y-14368710D02*
X15356789Y-14349662D01*
X15356789Y-14349662D02*
X15356789Y-14340138D01*
X15356789Y-14340138D02*
X15347265Y-14321091D01*
X15347265Y-14321091D02*
X15328218Y-14311567D01*
X15328218Y-14311567D02*
X15299646Y-14311567D01*
X15299646Y-14311567D02*
X15280599Y-14302043D01*
X15280599Y-14302043D02*
X15271075Y-14282996D01*
X15271075Y-14282996D02*
X15271075Y-14273472D01*
X15271075Y-14273472D02*
X15280599Y-14254424D01*
X15280599Y-14254424D02*
X15299646Y-14244900D01*
X15299646Y-14244900D02*
X15328218Y-14244900D01*
X15328218Y-14244900D02*
X15347265Y-14254424D01*
X15471075Y-14378234D02*
X15452027Y-14368710D01*
X15452027Y-14368710D02*
X15442504Y-14349662D01*
X15442504Y-14349662D02*
X15442504Y-14178234D01*
X15575837Y-14378234D02*
X15556789Y-14368710D01*
X15556789Y-14368710D02*
X15547265Y-14359186D01*
X15547265Y-14359186D02*
X15537742Y-14340138D01*
X15537742Y-14340138D02*
X15537742Y-14282996D01*
X15537742Y-14282996D02*
X15547265Y-14263948D01*
X15547265Y-14263948D02*
X15556789Y-14254424D01*
X15556789Y-14254424D02*
X15575837Y-14244900D01*
X15575837Y-14244900D02*
X15604408Y-14244900D01*
X15604408Y-14244900D02*
X15623456Y-14254424D01*
X15623456Y-14254424D02*
X15632980Y-14263948D01*
X15632980Y-14263948D02*
X15642504Y-14282996D01*
X15642504Y-14282996D02*
X15642504Y-14340138D01*
X15642504Y-14340138D02*
X15632980Y-14359186D01*
X15632980Y-14359186D02*
X15623456Y-14368710D01*
X15623456Y-14368710D02*
X15604408Y-14378234D01*
X15604408Y-14378234D02*
X15575837Y-14378234D01*
X15699646Y-14244900D02*
X15775837Y-14244900D01*
X15728218Y-14178234D02*
X15728218Y-14349662D01*
X15728218Y-14349662D02*
X15737742Y-14368710D01*
X15737742Y-14368710D02*
X15756789Y-14378234D01*
X15756789Y-14378234D02*
X15775837Y-14378234D01*
X15832980Y-14368710D02*
X15852027Y-14378234D01*
X15852027Y-14378234D02*
X15890123Y-14378234D01*
X15890123Y-14378234D02*
X15909170Y-14368710D01*
X15909170Y-14368710D02*
X15918694Y-14349662D01*
X15918694Y-14349662D02*
X15918694Y-14340138D01*
X15918694Y-14340138D02*
X15909170Y-14321091D01*
X15909170Y-14321091D02*
X15890123Y-14311567D01*
X15890123Y-14311567D02*
X15861551Y-14311567D01*
X15861551Y-14311567D02*
X15842504Y-14302043D01*
X15842504Y-14302043D02*
X15832980Y-14282996D01*
X15832980Y-14282996D02*
X15832980Y-14273472D01*
X15832980Y-14273472D02*
X15842504Y-14254424D01*
X15842504Y-14254424D02*
X15861551Y-14244900D01*
X15861551Y-14244900D02*
X15890123Y-14244900D01*
X15890123Y-14244900D02*
X15909170Y-14254424D01*
X15985361Y-14454424D02*
X15994885Y-14444900D01*
X15994885Y-14444900D02*
X16013932Y-14416329D01*
X16013932Y-14416329D02*
X16023456Y-14397281D01*
X16023456Y-14397281D02*
X16032980Y-14368710D01*
X16032980Y-14368710D02*
X16042504Y-14321091D01*
X16042504Y-14321091D02*
X16042504Y-14282996D01*
X16042504Y-14282996D02*
X16032980Y-14235377D01*
X16032980Y-14235377D02*
X16023456Y-14206805D01*
X16023456Y-14206805D02*
X16013932Y-14187758D01*
X16013932Y-14187758D02*
X15994885Y-14159186D01*
X15994885Y-14159186D02*
X15985361Y-14149662D01*
D12*
X9576606Y-14586106D02*
X9576606Y-14515394D01*
X9505894Y-14515394D01*
X9505894Y-14586106D01*
X9576606Y-14586106D01*
D11*
X9956789Y-14642234D02*
X9842503Y-14642234D01*
X9899646Y-14642234D02*
X9899646Y-14442234D01*
X9899646Y-14442234D02*
X9880598Y-14470805D01*
X9880598Y-14470805D02*
X9861551Y-14489853D01*
X9861551Y-14489853D02*
X9842503Y-14499377D01*
X10042503Y-14623186D02*
X10052027Y-14632710D01*
X10052027Y-14632710D02*
X10042503Y-14642234D01*
X10042503Y-14642234D02*
X10032979Y-14632710D01*
X10032979Y-14632710D02*
X10042503Y-14623186D01*
X10042503Y-14623186D02*
X10042503Y-14642234D01*
X10175836Y-14442234D02*
X10194884Y-14442234D01*
X10194884Y-14442234D02*
X10213932Y-14451758D01*
X10213932Y-14451758D02*
X10223455Y-14461281D01*
X10223455Y-14461281D02*
X10232979Y-14480329D01*
X10232979Y-14480329D02*
X10242503Y-14518424D01*
X10242503Y-14518424D02*
X10242503Y-14566043D01*
X10242503Y-14566043D02*
X10232979Y-14604138D01*
X10232979Y-14604138D02*
X10223455Y-14623186D01*
X10223455Y-14623186D02*
X10213932Y-14632710D01*
X10213932Y-14632710D02*
X10194884Y-14642234D01*
X10194884Y-14642234D02*
X10175836Y-14642234D01*
X10175836Y-14642234D02*
X10156789Y-14632710D01*
X10156789Y-14632710D02*
X10147265Y-14623186D01*
X10147265Y-14623186D02*
X10137741Y-14604138D01*
X10137741Y-14604138D02*
X10128217Y-14566043D01*
X10128217Y-14566043D02*
X10128217Y-14518424D01*
X10128217Y-14518424D02*
X10137741Y-14480329D01*
X10137741Y-14480329D02*
X10147265Y-14461281D01*
X10147265Y-14461281D02*
X10156789Y-14451758D01*
X10156789Y-14451758D02*
X10175836Y-14442234D01*
X10366313Y-14442234D02*
X10385360Y-14442234D01*
X10385360Y-14442234D02*
X10404408Y-14451758D01*
X10404408Y-14451758D02*
X10413932Y-14461281D01*
X10413932Y-14461281D02*
X10423455Y-14480329D01*
X10423455Y-14480329D02*
X10432979Y-14518424D01*
X10432979Y-14518424D02*
X10432979Y-14566043D01*
X10432979Y-14566043D02*
X10423455Y-14604138D01*
X10423455Y-14604138D02*
X10413932Y-14623186D01*
X10413932Y-14623186D02*
X10404408Y-14632710D01*
X10404408Y-14632710D02*
X10385360Y-14642234D01*
X10385360Y-14642234D02*
X10366313Y-14642234D01*
X10366313Y-14642234D02*
X10347265Y-14632710D01*
X10347265Y-14632710D02*
X10337741Y-14623186D01*
X10337741Y-14623186D02*
X10328217Y-14604138D01*
X10328217Y-14604138D02*
X10318694Y-14566043D01*
X10318694Y-14566043D02*
X10318694Y-14518424D01*
X10318694Y-14518424D02*
X10328217Y-14480329D01*
X10328217Y-14480329D02*
X10337741Y-14461281D01*
X10337741Y-14461281D02*
X10347265Y-14451758D01*
X10347265Y-14451758D02*
X10366313Y-14442234D01*
X10556789Y-14442234D02*
X10575836Y-14442234D01*
X10575836Y-14442234D02*
X10594884Y-14451758D01*
X10594884Y-14451758D02*
X10604408Y-14461281D01*
X10604408Y-14461281D02*
X10613932Y-14480329D01*
X10613932Y-14480329D02*
X10623455Y-14518424D01*
X10623455Y-14518424D02*
X10623455Y-14566043D01*
X10623455Y-14566043D02*
X10613932Y-14604138D01*
X10613932Y-14604138D02*
X10604408Y-14623186D01*
X10604408Y-14623186D02*
X10594884Y-14632710D01*
X10594884Y-14632710D02*
X10575836Y-14642234D01*
X10575836Y-14642234D02*
X10556789Y-14642234D01*
X10556789Y-14642234D02*
X10537741Y-14632710D01*
X10537741Y-14632710D02*
X10528217Y-14623186D01*
X10528217Y-14623186D02*
X10518694Y-14604138D01*
X10518694Y-14604138D02*
X10509170Y-14566043D01*
X10509170Y-14566043D02*
X10509170Y-14518424D01*
X10509170Y-14518424D02*
X10518694Y-14480329D01*
X10518694Y-14480329D02*
X10528217Y-14461281D01*
X10528217Y-14461281D02*
X10537741Y-14451758D01*
X10537741Y-14451758D02*
X10556789Y-14442234D01*
X10709170Y-14642234D02*
X10709170Y-14508900D01*
X10709170Y-14527948D02*
X10718694Y-14518424D01*
X10718694Y-14518424D02*
X10737741Y-14508900D01*
X10737741Y-14508900D02*
X10766313Y-14508900D01*
X10766313Y-14508900D02*
X10785360Y-14518424D01*
X10785360Y-14518424D02*
X10794884Y-14537472D01*
X10794884Y-14537472D02*
X10794884Y-14642234D01*
X10794884Y-14537472D02*
X10804408Y-14518424D01*
X10804408Y-14518424D02*
X10823455Y-14508900D01*
X10823455Y-14508900D02*
X10852027Y-14508900D01*
X10852027Y-14508900D02*
X10871075Y-14518424D01*
X10871075Y-14518424D02*
X10880598Y-14537472D01*
X10880598Y-14537472D02*
X10880598Y-14642234D01*
X10975836Y-14642234D02*
X10975836Y-14508900D01*
X10975836Y-14527948D02*
X10985360Y-14518424D01*
X10985360Y-14518424D02*
X11004408Y-14508900D01*
X11004408Y-14508900D02*
X11032979Y-14508900D01*
X11032979Y-14508900D02*
X11052027Y-14518424D01*
X11052027Y-14518424D02*
X11061551Y-14537472D01*
X11061551Y-14537472D02*
X11061551Y-14642234D01*
X11061551Y-14537472D02*
X11071075Y-14518424D01*
X11071075Y-14518424D02*
X11090122Y-14508900D01*
X11090122Y-14508900D02*
X11118694Y-14508900D01*
X11118694Y-14508900D02*
X11137741Y-14518424D01*
X11137741Y-14518424D02*
X11147265Y-14537472D01*
X11147265Y-14537472D02*
X11147265Y-14642234D01*
X11537741Y-14432710D02*
X11366313Y-14689853D01*
X11794884Y-14442234D02*
X11813932Y-14442234D01*
X11813932Y-14442234D02*
X11832979Y-14451758D01*
X11832979Y-14451758D02*
X11842503Y-14461281D01*
X11842503Y-14461281D02*
X11852027Y-14480329D01*
X11852027Y-14480329D02*
X11861551Y-14518424D01*
X11861551Y-14518424D02*
X11861551Y-14566043D01*
X11861551Y-14566043D02*
X11852027Y-14604138D01*
X11852027Y-14604138D02*
X11842503Y-14623186D01*
X11842503Y-14623186D02*
X11832979Y-14632710D01*
X11832979Y-14632710D02*
X11813932Y-14642234D01*
X11813932Y-14642234D02*
X11794884Y-14642234D01*
X11794884Y-14642234D02*
X11775836Y-14632710D01*
X11775836Y-14632710D02*
X11766313Y-14623186D01*
X11766313Y-14623186D02*
X11756789Y-14604138D01*
X11756789Y-14604138D02*
X11747265Y-14566043D01*
X11747265Y-14566043D02*
X11747265Y-14518424D01*
X11747265Y-14518424D02*
X11756789Y-14480329D01*
X11756789Y-14480329D02*
X11766313Y-14461281D01*
X11766313Y-14461281D02*
X11775836Y-14451758D01*
X11775836Y-14451758D02*
X11794884Y-14442234D01*
X11947265Y-14623186D02*
X11956789Y-14632710D01*
X11956789Y-14632710D02*
X11947265Y-14642234D01*
X11947265Y-14642234D02*
X11937741Y-14632710D01*
X11937741Y-14632710D02*
X11947265Y-14623186D01*
X11947265Y-14623186D02*
X11947265Y-14642234D01*
X12080598Y-14442234D02*
X12099646Y-14442234D01*
X12099646Y-14442234D02*
X12118694Y-14451758D01*
X12118694Y-14451758D02*
X12128217Y-14461281D01*
X12128217Y-14461281D02*
X12137741Y-14480329D01*
X12137741Y-14480329D02*
X12147265Y-14518424D01*
X12147265Y-14518424D02*
X12147265Y-14566043D01*
X12147265Y-14566043D02*
X12137741Y-14604138D01*
X12137741Y-14604138D02*
X12128217Y-14623186D01*
X12128217Y-14623186D02*
X12118694Y-14632710D01*
X12118694Y-14632710D02*
X12099646Y-14642234D01*
X12099646Y-14642234D02*
X12080598Y-14642234D01*
X12080598Y-14642234D02*
X12061551Y-14632710D01*
X12061551Y-14632710D02*
X12052027Y-14623186D01*
X12052027Y-14623186D02*
X12042503Y-14604138D01*
X12042503Y-14604138D02*
X12032979Y-14566043D01*
X12032979Y-14566043D02*
X12032979Y-14518424D01*
X12032979Y-14518424D02*
X12042503Y-14480329D01*
X12042503Y-14480329D02*
X12052027Y-14461281D01*
X12052027Y-14461281D02*
X12061551Y-14451758D01*
X12061551Y-14451758D02*
X12080598Y-14442234D01*
X12213932Y-14442234D02*
X12337741Y-14442234D01*
X12337741Y-14442234D02*
X12271075Y-14518424D01*
X12271075Y-14518424D02*
X12299646Y-14518424D01*
X12299646Y-14518424D02*
X12318694Y-14527948D01*
X12318694Y-14527948D02*
X12328217Y-14537472D01*
X12328217Y-14537472D02*
X12337741Y-14556519D01*
X12337741Y-14556519D02*
X12337741Y-14604138D01*
X12337741Y-14604138D02*
X12328217Y-14623186D01*
X12328217Y-14623186D02*
X12318694Y-14632710D01*
X12318694Y-14632710D02*
X12299646Y-14642234D01*
X12299646Y-14642234D02*
X12242503Y-14642234D01*
X12242503Y-14642234D02*
X12223456Y-14632710D01*
X12223456Y-14632710D02*
X12213932Y-14623186D01*
X12432979Y-14642234D02*
X12471075Y-14642234D01*
X12471075Y-14642234D02*
X12490122Y-14632710D01*
X12490122Y-14632710D02*
X12499646Y-14623186D01*
X12499646Y-14623186D02*
X12518694Y-14594615D01*
X12518694Y-14594615D02*
X12528217Y-14556519D01*
X12528217Y-14556519D02*
X12528217Y-14480329D01*
X12528217Y-14480329D02*
X12518694Y-14461281D01*
X12518694Y-14461281D02*
X12509170Y-14451758D01*
X12509170Y-14451758D02*
X12490122Y-14442234D01*
X12490122Y-14442234D02*
X12452027Y-14442234D01*
X12452027Y-14442234D02*
X12432979Y-14451758D01*
X12432979Y-14451758D02*
X12423456Y-14461281D01*
X12423456Y-14461281D02*
X12413932Y-14480329D01*
X12413932Y-14480329D02*
X12413932Y-14527948D01*
X12413932Y-14527948D02*
X12423456Y-14546996D01*
X12423456Y-14546996D02*
X12432979Y-14556519D01*
X12432979Y-14556519D02*
X12452027Y-14566043D01*
X12452027Y-14566043D02*
X12490122Y-14566043D01*
X12490122Y-14566043D02*
X12509170Y-14556519D01*
X12509170Y-14556519D02*
X12518694Y-14546996D01*
X12518694Y-14546996D02*
X12528217Y-14527948D01*
X12699646Y-14508900D02*
X12699646Y-14642234D01*
X12652027Y-14432710D02*
X12604408Y-14575567D01*
X12604408Y-14575567D02*
X12728217Y-14575567D01*
X12794884Y-14442234D02*
X12794884Y-14480329D01*
X12871075Y-14442234D02*
X12871075Y-14480329D01*
X13166313Y-14718424D02*
X13156789Y-14708900D01*
X13156789Y-14708900D02*
X13137741Y-14680329D01*
X13137741Y-14680329D02*
X13128218Y-14661281D01*
X13128218Y-14661281D02*
X13118694Y-14632710D01*
X13118694Y-14632710D02*
X13109170Y-14585091D01*
X13109170Y-14585091D02*
X13109170Y-14546996D01*
X13109170Y-14546996D02*
X13118694Y-14499377D01*
X13118694Y-14499377D02*
X13128218Y-14470805D01*
X13128218Y-14470805D02*
X13137741Y-14451758D01*
X13137741Y-14451758D02*
X13156789Y-14423186D01*
X13156789Y-14423186D02*
X13166313Y-14413662D01*
X13328218Y-14508900D02*
X13328218Y-14642234D01*
X13280598Y-14432710D02*
X13232979Y-14575567D01*
X13232979Y-14575567D02*
X13356789Y-14575567D01*
X13518694Y-14442234D02*
X13480598Y-14442234D01*
X13480598Y-14442234D02*
X13461551Y-14451758D01*
X13461551Y-14451758D02*
X13452027Y-14461281D01*
X13452027Y-14461281D02*
X13432979Y-14489853D01*
X13432979Y-14489853D02*
X13423456Y-14527948D01*
X13423456Y-14527948D02*
X13423456Y-14604138D01*
X13423456Y-14604138D02*
X13432979Y-14623186D01*
X13432979Y-14623186D02*
X13442503Y-14632710D01*
X13442503Y-14632710D02*
X13461551Y-14642234D01*
X13461551Y-14642234D02*
X13499646Y-14642234D01*
X13499646Y-14642234D02*
X13518694Y-14632710D01*
X13518694Y-14632710D02*
X13528218Y-14623186D01*
X13528218Y-14623186D02*
X13537741Y-14604138D01*
X13537741Y-14604138D02*
X13537741Y-14556519D01*
X13537741Y-14556519D02*
X13528218Y-14537472D01*
X13528218Y-14537472D02*
X13518694Y-14527948D01*
X13518694Y-14527948D02*
X13499646Y-14518424D01*
X13499646Y-14518424D02*
X13461551Y-14518424D01*
X13461551Y-14518424D02*
X13442503Y-14527948D01*
X13442503Y-14527948D02*
X13432979Y-14537472D01*
X13432979Y-14537472D02*
X13423456Y-14556519D01*
X13775837Y-14642234D02*
X13775837Y-14442234D01*
X13861551Y-14642234D02*
X13861551Y-14537472D01*
X13861551Y-14537472D02*
X13852027Y-14518424D01*
X13852027Y-14518424D02*
X13832980Y-14508900D01*
X13832980Y-14508900D02*
X13804408Y-14508900D01*
X13804408Y-14508900D02*
X13785360Y-14518424D01*
X13785360Y-14518424D02*
X13775837Y-14527948D01*
X13985360Y-14642234D02*
X13966313Y-14632710D01*
X13966313Y-14632710D02*
X13956789Y-14623186D01*
X13956789Y-14623186D02*
X13947265Y-14604138D01*
X13947265Y-14604138D02*
X13947265Y-14546996D01*
X13947265Y-14546996D02*
X13956789Y-14527948D01*
X13956789Y-14527948D02*
X13966313Y-14518424D01*
X13966313Y-14518424D02*
X13985360Y-14508900D01*
X13985360Y-14508900D02*
X14013932Y-14508900D01*
X14013932Y-14508900D02*
X14032980Y-14518424D01*
X14032980Y-14518424D02*
X14042503Y-14527948D01*
X14042503Y-14527948D02*
X14052027Y-14546996D01*
X14052027Y-14546996D02*
X14052027Y-14604138D01*
X14052027Y-14604138D02*
X14042503Y-14623186D01*
X14042503Y-14623186D02*
X14032980Y-14632710D01*
X14032980Y-14632710D02*
X14013932Y-14642234D01*
X14013932Y-14642234D02*
X13985360Y-14642234D01*
X14166313Y-14642234D02*
X14147265Y-14632710D01*
X14147265Y-14632710D02*
X14137741Y-14613662D01*
X14137741Y-14613662D02*
X14137741Y-14442234D01*
X14318694Y-14632710D02*
X14299646Y-14642234D01*
X14299646Y-14642234D02*
X14261551Y-14642234D01*
X14261551Y-14642234D02*
X14242503Y-14632710D01*
X14242503Y-14632710D02*
X14232980Y-14613662D01*
X14232980Y-14613662D02*
X14232980Y-14537472D01*
X14232980Y-14537472D02*
X14242503Y-14518424D01*
X14242503Y-14518424D02*
X14261551Y-14508900D01*
X14261551Y-14508900D02*
X14299646Y-14508900D01*
X14299646Y-14508900D02*
X14318694Y-14518424D01*
X14318694Y-14518424D02*
X14328218Y-14537472D01*
X14328218Y-14537472D02*
X14328218Y-14556519D01*
X14328218Y-14556519D02*
X14232980Y-14575567D01*
X14404408Y-14632710D02*
X14423456Y-14642234D01*
X14423456Y-14642234D02*
X14461551Y-14642234D01*
X14461551Y-14642234D02*
X14480599Y-14632710D01*
X14480599Y-14632710D02*
X14490122Y-14613662D01*
X14490122Y-14613662D02*
X14490122Y-14604138D01*
X14490122Y-14604138D02*
X14480599Y-14585091D01*
X14480599Y-14585091D02*
X14461551Y-14575567D01*
X14461551Y-14575567D02*
X14432980Y-14575567D01*
X14432980Y-14575567D02*
X14413932Y-14566043D01*
X14413932Y-14566043D02*
X14404408Y-14546996D01*
X14404408Y-14546996D02*
X14404408Y-14537472D01*
X14404408Y-14537472D02*
X14413932Y-14518424D01*
X14413932Y-14518424D02*
X14432980Y-14508900D01*
X14432980Y-14508900D02*
X14461551Y-14508900D01*
X14461551Y-14508900D02*
X14480599Y-14518424D01*
X14556789Y-14718424D02*
X14566313Y-14708900D01*
X14566313Y-14708900D02*
X14585361Y-14680329D01*
X14585361Y-14680329D02*
X14594884Y-14661281D01*
X14594884Y-14661281D02*
X14604408Y-14632710D01*
X14604408Y-14632710D02*
X14613932Y-14585091D01*
X14613932Y-14585091D02*
X14613932Y-14546996D01*
X14613932Y-14546996D02*
X14604408Y-14499377D01*
X14604408Y-14499377D02*
X14594884Y-14470805D01*
X14594884Y-14470805D02*
X14585361Y-14451758D01*
X14585361Y-14451758D02*
X14566313Y-14423186D01*
X14566313Y-14423186D02*
X14556789Y-14413662D01*
M02*
