M48
; DRILL file {KiCad 9.0.7} date 2026-07-01T15:36:29+0200
; FORMAT={-:-/ absolute / metric / decimal}
; #@! TF.CreationDate,2026-07-01T15:36:29+02:00
; #@! TF.GenerationSoftware,Kicad,Pcbnew,9.0.7
; #@! TF.FileFunction,Plated,1,2,PTH
FMAT,2
METRIC
; #@! TA.AperFunction,Plated,PTH,ComponentDrill
T1C0.200
; #@! TA.AperFunction,Plated,PTH,ViaDrill
T2C0.300
; #@! TA.AperFunction,Plated,PTH,ComponentDrill
T3C0.600
; #@! TA.AperFunction,Plated,PTH,ComponentDrill
T4C1.000
%
G90
G05
T1
X114.015Y-77.33
X114.015Y-78.73
X114.715Y-76.63
X114.715Y-78.03
X114.715Y-79.43
X115.415Y-77.33
X115.415Y-78.73
X116.115Y-76.63
X116.115Y-78.03
X116.115Y-79.43
X116.815Y-77.33
X116.815Y-78.73
T2
X97.6Y-106.55
X97.662Y-113.05
X97.837Y-110.445
X99.468Y-106.795
X101.2Y-112.645
X102.6Y-106.795
X103.815Y-81.867
X104.512Y-85.1
X104.6Y-71.212
X104.987Y-76.25
X106.7Y-107.75
X106.8Y-70.69
X107.05Y-111.05
X108.165Y-70.69
X108.165Y-82.12
X108.165Y-83.39
X108.165Y-84.66
X109.05Y-118.295
X109.19Y-113.51
X110.6Y-111.2
X111.2Y-88.45
X112.012Y-118.75
X112.456Y-107.906
X114.537Y-112.55
X114.588Y-107.85
X114.588Y-110.245
X114.638Y-105.55
X118.0Y-93.0
X121.105Y-117.625
X122.4Y-117.9
X122.55Y-123.72
X123.35Y-123.72
X123.645Y-117.625
X123.7Y-77.05
X125.665Y-74.5
X126.185Y-117.625
X127.2Y-121.45
X127.65Y-92.3
X128.15Y-123.72
X128.6Y-91.45
X129.01Y-123.78
X129.25Y-95.2
X132.35Y-114.462
X132.35Y-116.6
X134.713Y-120.35
X134.85Y-123.8
X171.8Y-97.85
X172.762Y-101.962
X177.9Y-101.95
X182.725Y-105.4
X187.95Y-102.6
T4
X98.775Y-75.3
X98.775Y-77.84
X98.775Y-81.45
X98.775Y-83.99
X98.775Y-86.53
X98.775Y-89.07
X99.275Y-98.595
X99.275Y-101.135
X102.83Y-98.595
X102.83Y-101.135
X106.375Y-98.595
X106.375Y-101.135
X112.745Y-98.575
X112.745Y-101.115
X122.205Y-98.63
X122.205Y-101.17
X125.945Y-98.53
X125.945Y-101.07
X130.215Y-70.85
X130.215Y-73.39
X130.215Y-75.93
X130.215Y-78.47
X130.215Y-81.01
X130.215Y-83.55
X130.215Y-86.09
X130.215Y-88.63
X130.505Y-98.58
X130.505Y-101.12
X133.905Y-98.58
X133.905Y-101.12
X134.015Y-70.83
X134.015Y-73.37
X134.015Y-75.91
X134.015Y-78.45
X134.015Y-80.99
X134.015Y-83.53
X160.875Y-108.46
X160.875Y-111.0
X164.475Y-108.5
X164.475Y-111.04
X170.775Y-108.5
X170.775Y-111.04
X174.325Y-108.46
X174.325Y-111.0
X180.55Y-128.775
X183.09Y-128.775
T3
G00X121.43Y-123.745
M15
G01X121.43Y-124.845
M16
G05
G00X121.43Y-128.075
M15
G01X121.43Y-128.875
M16
G05
G00X130.07Y-123.745
M15
G01X130.07Y-124.845
M16
G05
G00X130.07Y-128.075
M15
G01X130.07Y-128.875
M16
G05
M30
