%TF.GenerationSoftware,KiCad,Pcbnew,9.0.7*%
%TF.CreationDate,2026-07-01T15:36:29+02:00*%
%TF.ProjectId,Cat-Phones-DK-V1,4361742d-5068-46f6-9e65-732d444b2d56,rev?*%
%TF.SameCoordinates,Original*%
%TF.FileFunction,Drillmap*%
%TF.FilePolarity,Positive*%
%FSLAX45Y45*%
G04 Gerber Fmt 4.5, Leading zero omitted, Abs format (unit mm)*
G04 Created by KiCad (PCBNEW 9.0.7) date 2026-07-01 15:36:29*
%MOMM*%
%LPD*%
G01*
G04 APERTURE LIST*
%ADD10C,0.050000*%
%ADD11C,0.200000*%
%ADD12C,0.100000*%
%ADD13C,0.150000*%
G04 APERTURE END LIST*
D10*
X19033750Y-6878750D02*
X19286250Y-7131250D01*
D11*
X19070000Y-12750000D02*
G75*
G02*
X18870000Y-12750000I-100000J0D01*
G01*
X18870000Y-12750000D02*
G75*
G02*
X19070000Y-12750000I100000J0D01*
G01*
D10*
X9593750Y-7131250D02*
X9846250Y-6878750D01*
X19037500Y-13115000D02*
X19290000Y-12862500D01*
D11*
X19115000Y-7115000D02*
G75*
G02*
X18915000Y-7115000I-100000J0D01*
G01*
X18915000Y-7115000D02*
G75*
G02*
X19115000Y-7115000I100000J0D01*
G01*
D10*
X9595000Y-6875000D02*
X19290000Y-6875000D01*
X19290000Y-13115000D01*
X9595000Y-13115000D01*
X9595000Y-6875000D01*
D11*
X9950000Y-7100000D02*
G75*
G02*
X9750000Y-7100000I-100000J0D01*
G01*
X9750000Y-7100000D02*
G75*
G02*
X9950000Y-7100000I100000J0D01*
G01*
X9945000Y-12870000D02*
G75*
G02*
X9745000Y-12870000I-100000J0D01*
G01*
X9745000Y-12870000D02*
G75*
G02*
X9945000Y-12870000I100000J0D01*
G01*
D10*
X9593750Y-12863750D02*
X9846250Y-13116250D01*
D11*
D12*
X12253500Y-12447000D02*
X12318500Y-12512000D01*
X12318500Y-12447000D02*
X12253500Y-12512000D01*
X12831500Y-12447000D02*
X12896500Y-12512000D01*
X12896500Y-12447000D02*
X12831500Y-12512000D01*
D13*
X10655000Y-12099500D02*
G75*
G02*
X10505000Y-12099500I-75000J0D01*
G01*
X10505000Y-12099500D02*
G75*
G02*
X10655000Y-12099500I75000J0D01*
G01*
X10655000Y-12799500D02*
G75*
G02*
X10505000Y-12799500I-75000J0D01*
G01*
X10505000Y-12799500D02*
G75*
G02*
X10655000Y-12799500I75000J0D01*
G01*
D11*
X9852027Y-13430234D02*
X9852027Y-13230234D01*
X9852027Y-13230234D02*
X9899646Y-13230234D01*
X9899646Y-13230234D02*
X9928217Y-13239758D01*
X9928217Y-13239758D02*
X9947265Y-13258805D01*
X9947265Y-13258805D02*
X9956789Y-13277853D01*
X9956789Y-13277853D02*
X9966313Y-13315948D01*
X9966313Y-13315948D02*
X9966313Y-13344519D01*
X9966313Y-13344519D02*
X9956789Y-13382615D01*
X9956789Y-13382615D02*
X9947265Y-13401662D01*
X9947265Y-13401662D02*
X9928217Y-13420710D01*
X9928217Y-13420710D02*
X9899646Y-13430234D01*
X9899646Y-13430234D02*
X9852027Y-13430234D01*
X10052027Y-13430234D02*
X10052027Y-13296900D01*
X10052027Y-13334996D02*
X10061551Y-13315948D01*
X10061551Y-13315948D02*
X10071074Y-13306424D01*
X10071074Y-13306424D02*
X10090122Y-13296900D01*
X10090122Y-13296900D02*
X10109170Y-13296900D01*
X10175836Y-13430234D02*
X10175836Y-13296900D01*
X10175836Y-13230234D02*
X10166313Y-13239758D01*
X10166313Y-13239758D02*
X10175836Y-13249281D01*
X10175836Y-13249281D02*
X10185360Y-13239758D01*
X10185360Y-13239758D02*
X10175836Y-13230234D01*
X10175836Y-13230234D02*
X10175836Y-13249281D01*
X10299646Y-13430234D02*
X10280598Y-13420710D01*
X10280598Y-13420710D02*
X10271074Y-13401662D01*
X10271074Y-13401662D02*
X10271074Y-13230234D01*
X10404408Y-13430234D02*
X10385360Y-13420710D01*
X10385360Y-13420710D02*
X10375836Y-13401662D01*
X10375836Y-13401662D02*
X10375836Y-13230234D01*
X10632979Y-13430234D02*
X10632979Y-13230234D01*
X10632979Y-13230234D02*
X10699646Y-13373091D01*
X10699646Y-13373091D02*
X10766313Y-13230234D01*
X10766313Y-13230234D02*
X10766313Y-13430234D01*
X10947265Y-13430234D02*
X10947265Y-13325472D01*
X10947265Y-13325472D02*
X10937741Y-13306424D01*
X10937741Y-13306424D02*
X10918694Y-13296900D01*
X10918694Y-13296900D02*
X10880598Y-13296900D01*
X10880598Y-13296900D02*
X10861551Y-13306424D01*
X10947265Y-13420710D02*
X10928217Y-13430234D01*
X10928217Y-13430234D02*
X10880598Y-13430234D01*
X10880598Y-13430234D02*
X10861551Y-13420710D01*
X10861551Y-13420710D02*
X10852027Y-13401662D01*
X10852027Y-13401662D02*
X10852027Y-13382615D01*
X10852027Y-13382615D02*
X10861551Y-13363567D01*
X10861551Y-13363567D02*
X10880598Y-13354043D01*
X10880598Y-13354043D02*
X10928217Y-13354043D01*
X10928217Y-13354043D02*
X10947265Y-13344519D01*
X11042503Y-13296900D02*
X11042503Y-13496900D01*
X11042503Y-13306424D02*
X11061551Y-13296900D01*
X11061551Y-13296900D02*
X11099646Y-13296900D01*
X11099646Y-13296900D02*
X11118694Y-13306424D01*
X11118694Y-13306424D02*
X11128217Y-13315948D01*
X11128217Y-13315948D02*
X11137741Y-13334996D01*
X11137741Y-13334996D02*
X11137741Y-13392138D01*
X11137741Y-13392138D02*
X11128217Y-13411186D01*
X11128217Y-13411186D02*
X11118694Y-13420710D01*
X11118694Y-13420710D02*
X11099646Y-13430234D01*
X11099646Y-13430234D02*
X11061551Y-13430234D01*
X11061551Y-13430234D02*
X11042503Y-13420710D01*
X11223455Y-13411186D02*
X11232979Y-13420710D01*
X11232979Y-13420710D02*
X11223455Y-13430234D01*
X11223455Y-13430234D02*
X11213932Y-13420710D01*
X11213932Y-13420710D02*
X11223455Y-13411186D01*
X11223455Y-13411186D02*
X11223455Y-13430234D01*
X11223455Y-13306424D02*
X11232979Y-13315948D01*
X11232979Y-13315948D02*
X11223455Y-13325472D01*
X11223455Y-13325472D02*
X11213932Y-13315948D01*
X11213932Y-13315948D02*
X11223455Y-13306424D01*
X11223455Y-13306424D02*
X11223455Y-13325472D01*
D12*
X9526250Y-13726250D02*
X9591250Y-13791250D01*
X9591250Y-13726250D02*
X9526250Y-13791250D01*
D11*
X9890122Y-13650234D02*
X9909170Y-13650234D01*
X9909170Y-13650234D02*
X9928217Y-13659758D01*
X9928217Y-13659758D02*
X9937741Y-13669281D01*
X9937741Y-13669281D02*
X9947265Y-13688329D01*
X9947265Y-13688329D02*
X9956789Y-13726424D01*
X9956789Y-13726424D02*
X9956789Y-13774043D01*
X9956789Y-13774043D02*
X9947265Y-13812138D01*
X9947265Y-13812138D02*
X9937741Y-13831186D01*
X9937741Y-13831186D02*
X9928217Y-13840710D01*
X9928217Y-13840710D02*
X9909170Y-13850234D01*
X9909170Y-13850234D02*
X9890122Y-13850234D01*
X9890122Y-13850234D02*
X9871074Y-13840710D01*
X9871074Y-13840710D02*
X9861551Y-13831186D01*
X9861551Y-13831186D02*
X9852027Y-13812138D01*
X9852027Y-13812138D02*
X9842503Y-13774043D01*
X9842503Y-13774043D02*
X9842503Y-13726424D01*
X9842503Y-13726424D02*
X9852027Y-13688329D01*
X9852027Y-13688329D02*
X9861551Y-13669281D01*
X9861551Y-13669281D02*
X9871074Y-13659758D01*
X9871074Y-13659758D02*
X9890122Y-13650234D01*
X10042503Y-13831186D02*
X10052027Y-13840710D01*
X10052027Y-13840710D02*
X10042503Y-13850234D01*
X10042503Y-13850234D02*
X10032979Y-13840710D01*
X10032979Y-13840710D02*
X10042503Y-13831186D01*
X10042503Y-13831186D02*
X10042503Y-13850234D01*
X10223455Y-13650234D02*
X10185360Y-13650234D01*
X10185360Y-13650234D02*
X10166313Y-13659758D01*
X10166313Y-13659758D02*
X10156789Y-13669281D01*
X10156789Y-13669281D02*
X10137741Y-13697853D01*
X10137741Y-13697853D02*
X10128217Y-13735948D01*
X10128217Y-13735948D02*
X10128217Y-13812138D01*
X10128217Y-13812138D02*
X10137741Y-13831186D01*
X10137741Y-13831186D02*
X10147265Y-13840710D01*
X10147265Y-13840710D02*
X10166313Y-13850234D01*
X10166313Y-13850234D02*
X10204408Y-13850234D01*
X10204408Y-13850234D02*
X10223455Y-13840710D01*
X10223455Y-13840710D02*
X10232979Y-13831186D01*
X10232979Y-13831186D02*
X10242503Y-13812138D01*
X10242503Y-13812138D02*
X10242503Y-13764519D01*
X10242503Y-13764519D02*
X10232979Y-13745472D01*
X10232979Y-13745472D02*
X10223455Y-13735948D01*
X10223455Y-13735948D02*
X10204408Y-13726424D01*
X10204408Y-13726424D02*
X10166313Y-13726424D01*
X10166313Y-13726424D02*
X10147265Y-13735948D01*
X10147265Y-13735948D02*
X10137741Y-13745472D01*
X10137741Y-13745472D02*
X10128217Y-13764519D01*
X10423455Y-13650234D02*
X10328217Y-13650234D01*
X10328217Y-13650234D02*
X10318694Y-13745472D01*
X10318694Y-13745472D02*
X10328217Y-13735948D01*
X10328217Y-13735948D02*
X10347265Y-13726424D01*
X10347265Y-13726424D02*
X10394884Y-13726424D01*
X10394884Y-13726424D02*
X10413932Y-13735948D01*
X10413932Y-13735948D02*
X10423455Y-13745472D01*
X10423455Y-13745472D02*
X10432979Y-13764519D01*
X10432979Y-13764519D02*
X10432979Y-13812138D01*
X10432979Y-13812138D02*
X10423455Y-13831186D01*
X10423455Y-13831186D02*
X10413932Y-13840710D01*
X10413932Y-13840710D02*
X10394884Y-13850234D01*
X10394884Y-13850234D02*
X10347265Y-13850234D01*
X10347265Y-13850234D02*
X10328217Y-13840710D01*
X10328217Y-13840710D02*
X10318694Y-13831186D01*
X10556789Y-13650234D02*
X10575836Y-13650234D01*
X10575836Y-13650234D02*
X10594884Y-13659758D01*
X10594884Y-13659758D02*
X10604408Y-13669281D01*
X10604408Y-13669281D02*
X10613932Y-13688329D01*
X10613932Y-13688329D02*
X10623455Y-13726424D01*
X10623455Y-13726424D02*
X10623455Y-13774043D01*
X10623455Y-13774043D02*
X10613932Y-13812138D01*
X10613932Y-13812138D02*
X10604408Y-13831186D01*
X10604408Y-13831186D02*
X10594884Y-13840710D01*
X10594884Y-13840710D02*
X10575836Y-13850234D01*
X10575836Y-13850234D02*
X10556789Y-13850234D01*
X10556789Y-13850234D02*
X10537741Y-13840710D01*
X10537741Y-13840710D02*
X10528217Y-13831186D01*
X10528217Y-13831186D02*
X10518694Y-13812138D01*
X10518694Y-13812138D02*
X10509170Y-13774043D01*
X10509170Y-13774043D02*
X10509170Y-13726424D01*
X10509170Y-13726424D02*
X10518694Y-13688329D01*
X10518694Y-13688329D02*
X10528217Y-13669281D01*
X10528217Y-13669281D02*
X10537741Y-13659758D01*
X10537741Y-13659758D02*
X10556789Y-13650234D01*
X10709170Y-13850234D02*
X10709170Y-13716900D01*
X10709170Y-13735948D02*
X10718694Y-13726424D01*
X10718694Y-13726424D02*
X10737741Y-13716900D01*
X10737741Y-13716900D02*
X10766313Y-13716900D01*
X10766313Y-13716900D02*
X10785360Y-13726424D01*
X10785360Y-13726424D02*
X10794884Y-13745472D01*
X10794884Y-13745472D02*
X10794884Y-13850234D01*
X10794884Y-13745472D02*
X10804408Y-13726424D01*
X10804408Y-13726424D02*
X10823455Y-13716900D01*
X10823455Y-13716900D02*
X10852027Y-13716900D01*
X10852027Y-13716900D02*
X10871075Y-13726424D01*
X10871075Y-13726424D02*
X10880598Y-13745472D01*
X10880598Y-13745472D02*
X10880598Y-13850234D01*
X10975836Y-13850234D02*
X10975836Y-13716900D01*
X10975836Y-13735948D02*
X10985360Y-13726424D01*
X10985360Y-13726424D02*
X11004408Y-13716900D01*
X11004408Y-13716900D02*
X11032979Y-13716900D01*
X11032979Y-13716900D02*
X11052027Y-13726424D01*
X11052027Y-13726424D02*
X11061551Y-13745472D01*
X11061551Y-13745472D02*
X11061551Y-13850234D01*
X11061551Y-13745472D02*
X11071075Y-13726424D01*
X11071075Y-13726424D02*
X11090122Y-13716900D01*
X11090122Y-13716900D02*
X11118694Y-13716900D01*
X11118694Y-13716900D02*
X11137741Y-13726424D01*
X11137741Y-13726424D02*
X11147265Y-13745472D01*
X11147265Y-13745472D02*
X11147265Y-13850234D01*
X11537741Y-13640710D02*
X11366313Y-13897853D01*
X11794884Y-13650234D02*
X11813932Y-13650234D01*
X11813932Y-13650234D02*
X11832979Y-13659758D01*
X11832979Y-13659758D02*
X11842503Y-13669281D01*
X11842503Y-13669281D02*
X11852027Y-13688329D01*
X11852027Y-13688329D02*
X11861551Y-13726424D01*
X11861551Y-13726424D02*
X11861551Y-13774043D01*
X11861551Y-13774043D02*
X11852027Y-13812138D01*
X11852027Y-13812138D02*
X11842503Y-13831186D01*
X11842503Y-13831186D02*
X11832979Y-13840710D01*
X11832979Y-13840710D02*
X11813932Y-13850234D01*
X11813932Y-13850234D02*
X11794884Y-13850234D01*
X11794884Y-13850234D02*
X11775836Y-13840710D01*
X11775836Y-13840710D02*
X11766313Y-13831186D01*
X11766313Y-13831186D02*
X11756789Y-13812138D01*
X11756789Y-13812138D02*
X11747265Y-13774043D01*
X11747265Y-13774043D02*
X11747265Y-13726424D01*
X11747265Y-13726424D02*
X11756789Y-13688329D01*
X11756789Y-13688329D02*
X11766313Y-13669281D01*
X11766313Y-13669281D02*
X11775836Y-13659758D01*
X11775836Y-13659758D02*
X11794884Y-13650234D01*
X11947265Y-13831186D02*
X11956789Y-13840710D01*
X11956789Y-13840710D02*
X11947265Y-13850234D01*
X11947265Y-13850234D02*
X11937741Y-13840710D01*
X11937741Y-13840710D02*
X11947265Y-13831186D01*
X11947265Y-13831186D02*
X11947265Y-13850234D01*
X12080598Y-13650234D02*
X12099646Y-13650234D01*
X12099646Y-13650234D02*
X12118694Y-13659758D01*
X12118694Y-13659758D02*
X12128217Y-13669281D01*
X12128217Y-13669281D02*
X12137741Y-13688329D01*
X12137741Y-13688329D02*
X12147265Y-13726424D01*
X12147265Y-13726424D02*
X12147265Y-13774043D01*
X12147265Y-13774043D02*
X12137741Y-13812138D01*
X12137741Y-13812138D02*
X12128217Y-13831186D01*
X12128217Y-13831186D02*
X12118694Y-13840710D01*
X12118694Y-13840710D02*
X12099646Y-13850234D01*
X12099646Y-13850234D02*
X12080598Y-13850234D01*
X12080598Y-13850234D02*
X12061551Y-13840710D01*
X12061551Y-13840710D02*
X12052027Y-13831186D01*
X12052027Y-13831186D02*
X12042503Y-13812138D01*
X12042503Y-13812138D02*
X12032979Y-13774043D01*
X12032979Y-13774043D02*
X12032979Y-13726424D01*
X12032979Y-13726424D02*
X12042503Y-13688329D01*
X12042503Y-13688329D02*
X12052027Y-13669281D01*
X12052027Y-13669281D02*
X12061551Y-13659758D01*
X12061551Y-13659758D02*
X12080598Y-13650234D01*
X12223456Y-13669281D02*
X12232979Y-13659758D01*
X12232979Y-13659758D02*
X12252027Y-13650234D01*
X12252027Y-13650234D02*
X12299646Y-13650234D01*
X12299646Y-13650234D02*
X12318694Y-13659758D01*
X12318694Y-13659758D02*
X12328217Y-13669281D01*
X12328217Y-13669281D02*
X12337741Y-13688329D01*
X12337741Y-13688329D02*
X12337741Y-13707377D01*
X12337741Y-13707377D02*
X12328217Y-13735948D01*
X12328217Y-13735948D02*
X12213932Y-13850234D01*
X12213932Y-13850234D02*
X12337741Y-13850234D01*
X12518694Y-13650234D02*
X12423456Y-13650234D01*
X12423456Y-13650234D02*
X12413932Y-13745472D01*
X12413932Y-13745472D02*
X12423456Y-13735948D01*
X12423456Y-13735948D02*
X12442503Y-13726424D01*
X12442503Y-13726424D02*
X12490122Y-13726424D01*
X12490122Y-13726424D02*
X12509170Y-13735948D01*
X12509170Y-13735948D02*
X12518694Y-13745472D01*
X12518694Y-13745472D02*
X12528217Y-13764519D01*
X12528217Y-13764519D02*
X12528217Y-13812138D01*
X12528217Y-13812138D02*
X12518694Y-13831186D01*
X12518694Y-13831186D02*
X12509170Y-13840710D01*
X12509170Y-13840710D02*
X12490122Y-13850234D01*
X12490122Y-13850234D02*
X12442503Y-13850234D01*
X12442503Y-13850234D02*
X12423456Y-13840710D01*
X12423456Y-13840710D02*
X12413932Y-13831186D01*
X12699646Y-13650234D02*
X12661551Y-13650234D01*
X12661551Y-13650234D02*
X12642503Y-13659758D01*
X12642503Y-13659758D02*
X12632979Y-13669281D01*
X12632979Y-13669281D02*
X12613932Y-13697853D01*
X12613932Y-13697853D02*
X12604408Y-13735948D01*
X12604408Y-13735948D02*
X12604408Y-13812138D01*
X12604408Y-13812138D02*
X12613932Y-13831186D01*
X12613932Y-13831186D02*
X12623456Y-13840710D01*
X12623456Y-13840710D02*
X12642503Y-13850234D01*
X12642503Y-13850234D02*
X12680598Y-13850234D01*
X12680598Y-13850234D02*
X12699646Y-13840710D01*
X12699646Y-13840710D02*
X12709170Y-13831186D01*
X12709170Y-13831186D02*
X12718694Y-13812138D01*
X12718694Y-13812138D02*
X12718694Y-13764519D01*
X12718694Y-13764519D02*
X12709170Y-13745472D01*
X12709170Y-13745472D02*
X12699646Y-13735948D01*
X12699646Y-13735948D02*
X12680598Y-13726424D01*
X12680598Y-13726424D02*
X12642503Y-13726424D01*
X12642503Y-13726424D02*
X12623456Y-13735948D01*
X12623456Y-13735948D02*
X12613932Y-13745472D01*
X12613932Y-13745472D02*
X12604408Y-13764519D01*
X12794884Y-13650234D02*
X12794884Y-13688329D01*
X12871075Y-13650234D02*
X12871075Y-13688329D01*
X13166313Y-13926424D02*
X13156789Y-13916900D01*
X13156789Y-13916900D02*
X13137741Y-13888329D01*
X13137741Y-13888329D02*
X13128218Y-13869281D01*
X13128218Y-13869281D02*
X13118694Y-13840710D01*
X13118694Y-13840710D02*
X13109170Y-13793091D01*
X13109170Y-13793091D02*
X13109170Y-13754996D01*
X13109170Y-13754996D02*
X13118694Y-13707377D01*
X13118694Y-13707377D02*
X13128218Y-13678805D01*
X13128218Y-13678805D02*
X13137741Y-13659758D01*
X13137741Y-13659758D02*
X13156789Y-13631186D01*
X13156789Y-13631186D02*
X13166313Y-13621662D01*
X13232979Y-13669281D02*
X13242503Y-13659758D01*
X13242503Y-13659758D02*
X13261551Y-13650234D01*
X13261551Y-13650234D02*
X13309170Y-13650234D01*
X13309170Y-13650234D02*
X13328218Y-13659758D01*
X13328218Y-13659758D02*
X13337741Y-13669281D01*
X13337741Y-13669281D02*
X13347265Y-13688329D01*
X13347265Y-13688329D02*
X13347265Y-13707377D01*
X13347265Y-13707377D02*
X13337741Y-13735948D01*
X13337741Y-13735948D02*
X13223456Y-13850234D01*
X13223456Y-13850234D02*
X13347265Y-13850234D01*
X13585360Y-13850234D02*
X13585360Y-13650234D01*
X13671075Y-13850234D02*
X13671075Y-13745472D01*
X13671075Y-13745472D02*
X13661551Y-13726424D01*
X13661551Y-13726424D02*
X13642503Y-13716900D01*
X13642503Y-13716900D02*
X13613932Y-13716900D01*
X13613932Y-13716900D02*
X13594884Y-13726424D01*
X13594884Y-13726424D02*
X13585360Y-13735948D01*
X13794884Y-13850234D02*
X13775837Y-13840710D01*
X13775837Y-13840710D02*
X13766313Y-13831186D01*
X13766313Y-13831186D02*
X13756789Y-13812138D01*
X13756789Y-13812138D02*
X13756789Y-13754996D01*
X13756789Y-13754996D02*
X13766313Y-13735948D01*
X13766313Y-13735948D02*
X13775837Y-13726424D01*
X13775837Y-13726424D02*
X13794884Y-13716900D01*
X13794884Y-13716900D02*
X13823456Y-13716900D01*
X13823456Y-13716900D02*
X13842503Y-13726424D01*
X13842503Y-13726424D02*
X13852027Y-13735948D01*
X13852027Y-13735948D02*
X13861551Y-13754996D01*
X13861551Y-13754996D02*
X13861551Y-13812138D01*
X13861551Y-13812138D02*
X13852027Y-13831186D01*
X13852027Y-13831186D02*
X13842503Y-13840710D01*
X13842503Y-13840710D02*
X13823456Y-13850234D01*
X13823456Y-13850234D02*
X13794884Y-13850234D01*
X13975837Y-13850234D02*
X13956789Y-13840710D01*
X13956789Y-13840710D02*
X13947265Y-13821662D01*
X13947265Y-13821662D02*
X13947265Y-13650234D01*
X14128218Y-13840710D02*
X14109170Y-13850234D01*
X14109170Y-13850234D02*
X14071075Y-13850234D01*
X14071075Y-13850234D02*
X14052027Y-13840710D01*
X14052027Y-13840710D02*
X14042503Y-13821662D01*
X14042503Y-13821662D02*
X14042503Y-13745472D01*
X14042503Y-13745472D02*
X14052027Y-13726424D01*
X14052027Y-13726424D02*
X14071075Y-13716900D01*
X14071075Y-13716900D02*
X14109170Y-13716900D01*
X14109170Y-13716900D02*
X14128218Y-13726424D01*
X14128218Y-13726424D02*
X14137741Y-13745472D01*
X14137741Y-13745472D02*
X14137741Y-13764519D01*
X14137741Y-13764519D02*
X14042503Y-13783567D01*
X14213932Y-13840710D02*
X14232980Y-13850234D01*
X14232980Y-13850234D02*
X14271075Y-13850234D01*
X14271075Y-13850234D02*
X14290122Y-13840710D01*
X14290122Y-13840710D02*
X14299646Y-13821662D01*
X14299646Y-13821662D02*
X14299646Y-13812138D01*
X14299646Y-13812138D02*
X14290122Y-13793091D01*
X14290122Y-13793091D02*
X14271075Y-13783567D01*
X14271075Y-13783567D02*
X14242503Y-13783567D01*
X14242503Y-13783567D02*
X14223456Y-13774043D01*
X14223456Y-13774043D02*
X14213932Y-13754996D01*
X14213932Y-13754996D02*
X14213932Y-13745472D01*
X14213932Y-13745472D02*
X14223456Y-13726424D01*
X14223456Y-13726424D02*
X14242503Y-13716900D01*
X14242503Y-13716900D02*
X14271075Y-13716900D01*
X14271075Y-13716900D02*
X14290122Y-13726424D01*
X14366313Y-13926424D02*
X14375837Y-13916900D01*
X14375837Y-13916900D02*
X14394884Y-13888329D01*
X14394884Y-13888329D02*
X14404408Y-13869281D01*
X14404408Y-13869281D02*
X14413932Y-13840710D01*
X14413932Y-13840710D02*
X14423456Y-13793091D01*
X14423456Y-13793091D02*
X14423456Y-13754996D01*
X14423456Y-13754996D02*
X14413932Y-13707377D01*
X14413932Y-13707377D02*
X14404408Y-13678805D01*
X14404408Y-13678805D02*
X14394884Y-13659758D01*
X14394884Y-13659758D02*
X14375837Y-13631186D01*
X14375837Y-13631186D02*
X14366313Y-13621662D01*
X14728218Y-13926424D02*
X14718694Y-13916900D01*
X14718694Y-13916900D02*
X14699646Y-13888329D01*
X14699646Y-13888329D02*
X14690122Y-13869281D01*
X14690122Y-13869281D02*
X14680599Y-13840710D01*
X14680599Y-13840710D02*
X14671075Y-13793091D01*
X14671075Y-13793091D02*
X14671075Y-13754996D01*
X14671075Y-13754996D02*
X14680599Y-13707377D01*
X14680599Y-13707377D02*
X14690122Y-13678805D01*
X14690122Y-13678805D02*
X14699646Y-13659758D01*
X14699646Y-13659758D02*
X14718694Y-13631186D01*
X14718694Y-13631186D02*
X14728218Y-13621662D01*
X14804408Y-13716900D02*
X14804408Y-13850234D01*
X14804408Y-13735948D02*
X14813932Y-13726424D01*
X14813932Y-13726424D02*
X14832980Y-13716900D01*
X14832980Y-13716900D02*
X14861551Y-13716900D01*
X14861551Y-13716900D02*
X14880599Y-13726424D01*
X14880599Y-13726424D02*
X14890122Y-13745472D01*
X14890122Y-13745472D02*
X14890122Y-13850234D01*
X15013932Y-13850234D02*
X14994884Y-13840710D01*
X14994884Y-13840710D02*
X14985361Y-13831186D01*
X14985361Y-13831186D02*
X14975837Y-13812138D01*
X14975837Y-13812138D02*
X14975837Y-13754996D01*
X14975837Y-13754996D02*
X14985361Y-13735948D01*
X14985361Y-13735948D02*
X14994884Y-13726424D01*
X14994884Y-13726424D02*
X15013932Y-13716900D01*
X15013932Y-13716900D02*
X15042503Y-13716900D01*
X15042503Y-13716900D02*
X15061551Y-13726424D01*
X15061551Y-13726424D02*
X15071075Y-13735948D01*
X15071075Y-13735948D02*
X15080599Y-13754996D01*
X15080599Y-13754996D02*
X15080599Y-13812138D01*
X15080599Y-13812138D02*
X15071075Y-13831186D01*
X15071075Y-13831186D02*
X15061551Y-13840710D01*
X15061551Y-13840710D02*
X15042503Y-13850234D01*
X15042503Y-13850234D02*
X15013932Y-13850234D01*
X15137742Y-13716900D02*
X15213932Y-13716900D01*
X15166313Y-13650234D02*
X15166313Y-13821662D01*
X15166313Y-13821662D02*
X15175837Y-13840710D01*
X15175837Y-13840710D02*
X15194884Y-13850234D01*
X15194884Y-13850234D02*
X15213932Y-13850234D01*
X15432980Y-13716900D02*
X15432980Y-13916900D01*
X15432980Y-13726424D02*
X15452027Y-13716900D01*
X15452027Y-13716900D02*
X15490123Y-13716900D01*
X15490123Y-13716900D02*
X15509170Y-13726424D01*
X15509170Y-13726424D02*
X15518694Y-13735948D01*
X15518694Y-13735948D02*
X15528218Y-13754996D01*
X15528218Y-13754996D02*
X15528218Y-13812138D01*
X15528218Y-13812138D02*
X15518694Y-13831186D01*
X15518694Y-13831186D02*
X15509170Y-13840710D01*
X15509170Y-13840710D02*
X15490123Y-13850234D01*
X15490123Y-13850234D02*
X15452027Y-13850234D01*
X15452027Y-13850234D02*
X15432980Y-13840710D01*
X15642503Y-13850234D02*
X15623456Y-13840710D01*
X15623456Y-13840710D02*
X15613932Y-13821662D01*
X15613932Y-13821662D02*
X15613932Y-13650234D01*
X15804408Y-13850234D02*
X15804408Y-13745472D01*
X15804408Y-13745472D02*
X15794884Y-13726424D01*
X15794884Y-13726424D02*
X15775837Y-13716900D01*
X15775837Y-13716900D02*
X15737742Y-13716900D01*
X15737742Y-13716900D02*
X15718694Y-13726424D01*
X15804408Y-13840710D02*
X15785361Y-13850234D01*
X15785361Y-13850234D02*
X15737742Y-13850234D01*
X15737742Y-13850234D02*
X15718694Y-13840710D01*
X15718694Y-13840710D02*
X15709170Y-13821662D01*
X15709170Y-13821662D02*
X15709170Y-13802615D01*
X15709170Y-13802615D02*
X15718694Y-13783567D01*
X15718694Y-13783567D02*
X15737742Y-13774043D01*
X15737742Y-13774043D02*
X15785361Y-13774043D01*
X15785361Y-13774043D02*
X15804408Y-13764519D01*
X15871075Y-13716900D02*
X15947265Y-13716900D01*
X15899646Y-13650234D02*
X15899646Y-13821662D01*
X15899646Y-13821662D02*
X15909170Y-13840710D01*
X15909170Y-13840710D02*
X15928218Y-13850234D01*
X15928218Y-13850234D02*
X15947265Y-13850234D01*
X16090123Y-13840710D02*
X16071075Y-13850234D01*
X16071075Y-13850234D02*
X16032980Y-13850234D01*
X16032980Y-13850234D02*
X16013932Y-13840710D01*
X16013932Y-13840710D02*
X16004408Y-13821662D01*
X16004408Y-13821662D02*
X16004408Y-13745472D01*
X16004408Y-13745472D02*
X16013932Y-13726424D01*
X16013932Y-13726424D02*
X16032980Y-13716900D01*
X16032980Y-13716900D02*
X16071075Y-13716900D01*
X16071075Y-13716900D02*
X16090123Y-13726424D01*
X16090123Y-13726424D02*
X16099646Y-13745472D01*
X16099646Y-13745472D02*
X16099646Y-13764519D01*
X16099646Y-13764519D02*
X16004408Y-13783567D01*
X16271075Y-13850234D02*
X16271075Y-13650234D01*
X16271075Y-13840710D02*
X16252027Y-13850234D01*
X16252027Y-13850234D02*
X16213932Y-13850234D01*
X16213932Y-13850234D02*
X16194884Y-13840710D01*
X16194884Y-13840710D02*
X16185361Y-13831186D01*
X16185361Y-13831186D02*
X16175837Y-13812138D01*
X16175837Y-13812138D02*
X16175837Y-13754996D01*
X16175837Y-13754996D02*
X16185361Y-13735948D01*
X16185361Y-13735948D02*
X16194884Y-13726424D01*
X16194884Y-13726424D02*
X16213932Y-13716900D01*
X16213932Y-13716900D02*
X16252027Y-13716900D01*
X16252027Y-13716900D02*
X16271075Y-13726424D01*
X16347265Y-13926424D02*
X16356789Y-13916900D01*
X16356789Y-13916900D02*
X16375837Y-13888329D01*
X16375837Y-13888329D02*
X16385361Y-13869281D01*
X16385361Y-13869281D02*
X16394884Y-13840710D01*
X16394884Y-13840710D02*
X16404408Y-13793091D01*
X16404408Y-13793091D02*
X16404408Y-13754996D01*
X16404408Y-13754996D02*
X16394884Y-13707377D01*
X16394884Y-13707377D02*
X16385361Y-13678805D01*
X16385361Y-13678805D02*
X16375837Y-13659758D01*
X16375837Y-13659758D02*
X16356789Y-13631186D01*
X16356789Y-13631186D02*
X16347265Y-13621662D01*
D13*
X9591250Y-14022750D02*
G75*
G02*
X9441250Y-14022750I-75000J0D01*
G01*
X9441250Y-14022750D02*
G75*
G02*
X9591250Y-14022750I75000J0D01*
G01*
D11*
X9956789Y-14114234D02*
X9842503Y-14114234D01*
X9899646Y-14114234D02*
X9899646Y-13914234D01*
X9899646Y-13914234D02*
X9880598Y-13942805D01*
X9880598Y-13942805D02*
X9861551Y-13961853D01*
X9861551Y-13961853D02*
X9842503Y-13971377D01*
X10042503Y-14095186D02*
X10052027Y-14104710D01*
X10052027Y-14104710D02*
X10042503Y-14114234D01*
X10042503Y-14114234D02*
X10032979Y-14104710D01*
X10032979Y-14104710D02*
X10042503Y-14095186D01*
X10042503Y-14095186D02*
X10042503Y-14114234D01*
X10232979Y-13914234D02*
X10137741Y-13914234D01*
X10137741Y-13914234D02*
X10128217Y-14009472D01*
X10128217Y-14009472D02*
X10137741Y-13999948D01*
X10137741Y-13999948D02*
X10156789Y-13990424D01*
X10156789Y-13990424D02*
X10204408Y-13990424D01*
X10204408Y-13990424D02*
X10223455Y-13999948D01*
X10223455Y-13999948D02*
X10232979Y-14009472D01*
X10232979Y-14009472D02*
X10242503Y-14028519D01*
X10242503Y-14028519D02*
X10242503Y-14076138D01*
X10242503Y-14076138D02*
X10232979Y-14095186D01*
X10232979Y-14095186D02*
X10223455Y-14104710D01*
X10223455Y-14104710D02*
X10204408Y-14114234D01*
X10204408Y-14114234D02*
X10156789Y-14114234D01*
X10156789Y-14114234D02*
X10137741Y-14104710D01*
X10137741Y-14104710D02*
X10128217Y-14095186D01*
X10366313Y-13914234D02*
X10385360Y-13914234D01*
X10385360Y-13914234D02*
X10404408Y-13923758D01*
X10404408Y-13923758D02*
X10413932Y-13933281D01*
X10413932Y-13933281D02*
X10423455Y-13952329D01*
X10423455Y-13952329D02*
X10432979Y-13990424D01*
X10432979Y-13990424D02*
X10432979Y-14038043D01*
X10432979Y-14038043D02*
X10423455Y-14076138D01*
X10423455Y-14076138D02*
X10413932Y-14095186D01*
X10413932Y-14095186D02*
X10404408Y-14104710D01*
X10404408Y-14104710D02*
X10385360Y-14114234D01*
X10385360Y-14114234D02*
X10366313Y-14114234D01*
X10366313Y-14114234D02*
X10347265Y-14104710D01*
X10347265Y-14104710D02*
X10337741Y-14095186D01*
X10337741Y-14095186D02*
X10328217Y-14076138D01*
X10328217Y-14076138D02*
X10318694Y-14038043D01*
X10318694Y-14038043D02*
X10318694Y-13990424D01*
X10318694Y-13990424D02*
X10328217Y-13952329D01*
X10328217Y-13952329D02*
X10337741Y-13933281D01*
X10337741Y-13933281D02*
X10347265Y-13923758D01*
X10347265Y-13923758D02*
X10366313Y-13914234D01*
X10556789Y-13914234D02*
X10575836Y-13914234D01*
X10575836Y-13914234D02*
X10594884Y-13923758D01*
X10594884Y-13923758D02*
X10604408Y-13933281D01*
X10604408Y-13933281D02*
X10613932Y-13952329D01*
X10613932Y-13952329D02*
X10623455Y-13990424D01*
X10623455Y-13990424D02*
X10623455Y-14038043D01*
X10623455Y-14038043D02*
X10613932Y-14076138D01*
X10613932Y-14076138D02*
X10604408Y-14095186D01*
X10604408Y-14095186D02*
X10594884Y-14104710D01*
X10594884Y-14104710D02*
X10575836Y-14114234D01*
X10575836Y-14114234D02*
X10556789Y-14114234D01*
X10556789Y-14114234D02*
X10537741Y-14104710D01*
X10537741Y-14104710D02*
X10528217Y-14095186D01*
X10528217Y-14095186D02*
X10518694Y-14076138D01*
X10518694Y-14076138D02*
X10509170Y-14038043D01*
X10509170Y-14038043D02*
X10509170Y-13990424D01*
X10509170Y-13990424D02*
X10518694Y-13952329D01*
X10518694Y-13952329D02*
X10528217Y-13933281D01*
X10528217Y-13933281D02*
X10537741Y-13923758D01*
X10537741Y-13923758D02*
X10556789Y-13914234D01*
X10709170Y-14114234D02*
X10709170Y-13980900D01*
X10709170Y-13999948D02*
X10718694Y-13990424D01*
X10718694Y-13990424D02*
X10737741Y-13980900D01*
X10737741Y-13980900D02*
X10766313Y-13980900D01*
X10766313Y-13980900D02*
X10785360Y-13990424D01*
X10785360Y-13990424D02*
X10794884Y-14009472D01*
X10794884Y-14009472D02*
X10794884Y-14114234D01*
X10794884Y-14009472D02*
X10804408Y-13990424D01*
X10804408Y-13990424D02*
X10823455Y-13980900D01*
X10823455Y-13980900D02*
X10852027Y-13980900D01*
X10852027Y-13980900D02*
X10871075Y-13990424D01*
X10871075Y-13990424D02*
X10880598Y-14009472D01*
X10880598Y-14009472D02*
X10880598Y-14114234D01*
X10975836Y-14114234D02*
X10975836Y-13980900D01*
X10975836Y-13999948D02*
X10985360Y-13990424D01*
X10985360Y-13990424D02*
X11004408Y-13980900D01*
X11004408Y-13980900D02*
X11032979Y-13980900D01*
X11032979Y-13980900D02*
X11052027Y-13990424D01*
X11052027Y-13990424D02*
X11061551Y-14009472D01*
X11061551Y-14009472D02*
X11061551Y-14114234D01*
X11061551Y-14009472D02*
X11071075Y-13990424D01*
X11071075Y-13990424D02*
X11090122Y-13980900D01*
X11090122Y-13980900D02*
X11118694Y-13980900D01*
X11118694Y-13980900D02*
X11137741Y-13990424D01*
X11137741Y-13990424D02*
X11147265Y-14009472D01*
X11147265Y-14009472D02*
X11147265Y-14114234D01*
X11537741Y-13904710D02*
X11366313Y-14161853D01*
X11794884Y-13914234D02*
X11813932Y-13914234D01*
X11813932Y-13914234D02*
X11832979Y-13923758D01*
X11832979Y-13923758D02*
X11842503Y-13933281D01*
X11842503Y-13933281D02*
X11852027Y-13952329D01*
X11852027Y-13952329D02*
X11861551Y-13990424D01*
X11861551Y-13990424D02*
X11861551Y-14038043D01*
X11861551Y-14038043D02*
X11852027Y-14076138D01*
X11852027Y-14076138D02*
X11842503Y-14095186D01*
X11842503Y-14095186D02*
X11832979Y-14104710D01*
X11832979Y-14104710D02*
X11813932Y-14114234D01*
X11813932Y-14114234D02*
X11794884Y-14114234D01*
X11794884Y-14114234D02*
X11775836Y-14104710D01*
X11775836Y-14104710D02*
X11766313Y-14095186D01*
X11766313Y-14095186D02*
X11756789Y-14076138D01*
X11756789Y-14076138D02*
X11747265Y-14038043D01*
X11747265Y-14038043D02*
X11747265Y-13990424D01*
X11747265Y-13990424D02*
X11756789Y-13952329D01*
X11756789Y-13952329D02*
X11766313Y-13933281D01*
X11766313Y-13933281D02*
X11775836Y-13923758D01*
X11775836Y-13923758D02*
X11794884Y-13914234D01*
X11947265Y-14095186D02*
X11956789Y-14104710D01*
X11956789Y-14104710D02*
X11947265Y-14114234D01*
X11947265Y-14114234D02*
X11937741Y-14104710D01*
X11937741Y-14104710D02*
X11947265Y-14095186D01*
X11947265Y-14095186D02*
X11947265Y-14114234D01*
X12080598Y-13914234D02*
X12099646Y-13914234D01*
X12099646Y-13914234D02*
X12118694Y-13923758D01*
X12118694Y-13923758D02*
X12128217Y-13933281D01*
X12128217Y-13933281D02*
X12137741Y-13952329D01*
X12137741Y-13952329D02*
X12147265Y-13990424D01*
X12147265Y-13990424D02*
X12147265Y-14038043D01*
X12147265Y-14038043D02*
X12137741Y-14076138D01*
X12137741Y-14076138D02*
X12128217Y-14095186D01*
X12128217Y-14095186D02*
X12118694Y-14104710D01*
X12118694Y-14104710D02*
X12099646Y-14114234D01*
X12099646Y-14114234D02*
X12080598Y-14114234D01*
X12080598Y-14114234D02*
X12061551Y-14104710D01*
X12061551Y-14104710D02*
X12052027Y-14095186D01*
X12052027Y-14095186D02*
X12042503Y-14076138D01*
X12042503Y-14076138D02*
X12032979Y-14038043D01*
X12032979Y-14038043D02*
X12032979Y-13990424D01*
X12032979Y-13990424D02*
X12042503Y-13952329D01*
X12042503Y-13952329D02*
X12052027Y-13933281D01*
X12052027Y-13933281D02*
X12061551Y-13923758D01*
X12061551Y-13923758D02*
X12080598Y-13914234D01*
X12328217Y-13914234D02*
X12232979Y-13914234D01*
X12232979Y-13914234D02*
X12223456Y-14009472D01*
X12223456Y-14009472D02*
X12232979Y-13999948D01*
X12232979Y-13999948D02*
X12252027Y-13990424D01*
X12252027Y-13990424D02*
X12299646Y-13990424D01*
X12299646Y-13990424D02*
X12318694Y-13999948D01*
X12318694Y-13999948D02*
X12328217Y-14009472D01*
X12328217Y-14009472D02*
X12337741Y-14028519D01*
X12337741Y-14028519D02*
X12337741Y-14076138D01*
X12337741Y-14076138D02*
X12328217Y-14095186D01*
X12328217Y-14095186D02*
X12318694Y-14104710D01*
X12318694Y-14104710D02*
X12299646Y-14114234D01*
X12299646Y-14114234D02*
X12252027Y-14114234D01*
X12252027Y-14114234D02*
X12232979Y-14104710D01*
X12232979Y-14104710D02*
X12223456Y-14095186D01*
X12432979Y-14114234D02*
X12471075Y-14114234D01*
X12471075Y-14114234D02*
X12490122Y-14104710D01*
X12490122Y-14104710D02*
X12499646Y-14095186D01*
X12499646Y-14095186D02*
X12518694Y-14066615D01*
X12518694Y-14066615D02*
X12528217Y-14028519D01*
X12528217Y-14028519D02*
X12528217Y-13952329D01*
X12528217Y-13952329D02*
X12518694Y-13933281D01*
X12518694Y-13933281D02*
X12509170Y-13923758D01*
X12509170Y-13923758D02*
X12490122Y-13914234D01*
X12490122Y-13914234D02*
X12452027Y-13914234D01*
X12452027Y-13914234D02*
X12432979Y-13923758D01*
X12432979Y-13923758D02*
X12423456Y-13933281D01*
X12423456Y-13933281D02*
X12413932Y-13952329D01*
X12413932Y-13952329D02*
X12413932Y-13999948D01*
X12413932Y-13999948D02*
X12423456Y-14018996D01*
X12423456Y-14018996D02*
X12432979Y-14028519D01*
X12432979Y-14028519D02*
X12452027Y-14038043D01*
X12452027Y-14038043D02*
X12490122Y-14038043D01*
X12490122Y-14038043D02*
X12509170Y-14028519D01*
X12509170Y-14028519D02*
X12518694Y-14018996D01*
X12518694Y-14018996D02*
X12528217Y-13999948D01*
X12718694Y-14114234D02*
X12604408Y-14114234D01*
X12661551Y-14114234D02*
X12661551Y-13914234D01*
X12661551Y-13914234D02*
X12642503Y-13942805D01*
X12642503Y-13942805D02*
X12623456Y-13961853D01*
X12623456Y-13961853D02*
X12604408Y-13971377D01*
X12794884Y-13914234D02*
X12794884Y-13952329D01*
X12871075Y-13914234D02*
X12871075Y-13952329D01*
X13166313Y-14190424D02*
X13156789Y-14180900D01*
X13156789Y-14180900D02*
X13137741Y-14152329D01*
X13137741Y-14152329D02*
X13128218Y-14133281D01*
X13128218Y-14133281D02*
X13118694Y-14104710D01*
X13118694Y-14104710D02*
X13109170Y-14057091D01*
X13109170Y-14057091D02*
X13109170Y-14018996D01*
X13109170Y-14018996D02*
X13118694Y-13971377D01*
X13118694Y-13971377D02*
X13128218Y-13942805D01*
X13128218Y-13942805D02*
X13137741Y-13923758D01*
X13137741Y-13923758D02*
X13156789Y-13895186D01*
X13156789Y-13895186D02*
X13166313Y-13885662D01*
X13232979Y-13933281D02*
X13242503Y-13923758D01*
X13242503Y-13923758D02*
X13261551Y-13914234D01*
X13261551Y-13914234D02*
X13309170Y-13914234D01*
X13309170Y-13914234D02*
X13328218Y-13923758D01*
X13328218Y-13923758D02*
X13337741Y-13933281D01*
X13337741Y-13933281D02*
X13347265Y-13952329D01*
X13347265Y-13952329D02*
X13347265Y-13971377D01*
X13347265Y-13971377D02*
X13337741Y-13999948D01*
X13337741Y-13999948D02*
X13223456Y-14114234D01*
X13223456Y-14114234D02*
X13347265Y-14114234D01*
X13585360Y-14114234D02*
X13585360Y-13914234D01*
X13671075Y-14114234D02*
X13671075Y-14009472D01*
X13671075Y-14009472D02*
X13661551Y-13990424D01*
X13661551Y-13990424D02*
X13642503Y-13980900D01*
X13642503Y-13980900D02*
X13613932Y-13980900D01*
X13613932Y-13980900D02*
X13594884Y-13990424D01*
X13594884Y-13990424D02*
X13585360Y-13999948D01*
X13794884Y-14114234D02*
X13775837Y-14104710D01*
X13775837Y-14104710D02*
X13766313Y-14095186D01*
X13766313Y-14095186D02*
X13756789Y-14076138D01*
X13756789Y-14076138D02*
X13756789Y-14018996D01*
X13756789Y-14018996D02*
X13766313Y-13999948D01*
X13766313Y-13999948D02*
X13775837Y-13990424D01*
X13775837Y-13990424D02*
X13794884Y-13980900D01*
X13794884Y-13980900D02*
X13823456Y-13980900D01*
X13823456Y-13980900D02*
X13842503Y-13990424D01*
X13842503Y-13990424D02*
X13852027Y-13999948D01*
X13852027Y-13999948D02*
X13861551Y-14018996D01*
X13861551Y-14018996D02*
X13861551Y-14076138D01*
X13861551Y-14076138D02*
X13852027Y-14095186D01*
X13852027Y-14095186D02*
X13842503Y-14104710D01*
X13842503Y-14104710D02*
X13823456Y-14114234D01*
X13823456Y-14114234D02*
X13794884Y-14114234D01*
X13975837Y-14114234D02*
X13956789Y-14104710D01*
X13956789Y-14104710D02*
X13947265Y-14085662D01*
X13947265Y-14085662D02*
X13947265Y-13914234D01*
X14128218Y-14104710D02*
X14109170Y-14114234D01*
X14109170Y-14114234D02*
X14071075Y-14114234D01*
X14071075Y-14114234D02*
X14052027Y-14104710D01*
X14052027Y-14104710D02*
X14042503Y-14085662D01*
X14042503Y-14085662D02*
X14042503Y-14009472D01*
X14042503Y-14009472D02*
X14052027Y-13990424D01*
X14052027Y-13990424D02*
X14071075Y-13980900D01*
X14071075Y-13980900D02*
X14109170Y-13980900D01*
X14109170Y-13980900D02*
X14128218Y-13990424D01*
X14128218Y-13990424D02*
X14137741Y-14009472D01*
X14137741Y-14009472D02*
X14137741Y-14028519D01*
X14137741Y-14028519D02*
X14042503Y-14047567D01*
X14213932Y-14104710D02*
X14232980Y-14114234D01*
X14232980Y-14114234D02*
X14271075Y-14114234D01*
X14271075Y-14114234D02*
X14290122Y-14104710D01*
X14290122Y-14104710D02*
X14299646Y-14085662D01*
X14299646Y-14085662D02*
X14299646Y-14076138D01*
X14299646Y-14076138D02*
X14290122Y-14057091D01*
X14290122Y-14057091D02*
X14271075Y-14047567D01*
X14271075Y-14047567D02*
X14242503Y-14047567D01*
X14242503Y-14047567D02*
X14223456Y-14038043D01*
X14223456Y-14038043D02*
X14213932Y-14018996D01*
X14213932Y-14018996D02*
X14213932Y-14009472D01*
X14213932Y-14009472D02*
X14223456Y-13990424D01*
X14223456Y-13990424D02*
X14242503Y-13980900D01*
X14242503Y-13980900D02*
X14271075Y-13980900D01*
X14271075Y-13980900D02*
X14290122Y-13990424D01*
X14366313Y-14190424D02*
X14375837Y-14180900D01*
X14375837Y-14180900D02*
X14394884Y-14152329D01*
X14394884Y-14152329D02*
X14404408Y-14133281D01*
X14404408Y-14133281D02*
X14413932Y-14104710D01*
X14413932Y-14104710D02*
X14423456Y-14057091D01*
X14423456Y-14057091D02*
X14423456Y-14018996D01*
X14423456Y-14018996D02*
X14413932Y-13971377D01*
X14413932Y-13971377D02*
X14404408Y-13942805D01*
X14404408Y-13942805D02*
X14394884Y-13923758D01*
X14394884Y-13923758D02*
X14375837Y-13895186D01*
X14375837Y-13895186D02*
X14366313Y-13885662D01*
X14728218Y-14190424D02*
X14718694Y-14180900D01*
X14718694Y-14180900D02*
X14699646Y-14152329D01*
X14699646Y-14152329D02*
X14690122Y-14133281D01*
X14690122Y-14133281D02*
X14680599Y-14104710D01*
X14680599Y-14104710D02*
X14671075Y-14057091D01*
X14671075Y-14057091D02*
X14671075Y-14018996D01*
X14671075Y-14018996D02*
X14680599Y-13971377D01*
X14680599Y-13971377D02*
X14690122Y-13942805D01*
X14690122Y-13942805D02*
X14699646Y-13923758D01*
X14699646Y-13923758D02*
X14718694Y-13895186D01*
X14718694Y-13895186D02*
X14728218Y-13885662D01*
X14804408Y-13980900D02*
X14804408Y-14114234D01*
X14804408Y-13999948D02*
X14813932Y-13990424D01*
X14813932Y-13990424D02*
X14832980Y-13980900D01*
X14832980Y-13980900D02*
X14861551Y-13980900D01*
X14861551Y-13980900D02*
X14880599Y-13990424D01*
X14880599Y-13990424D02*
X14890122Y-14009472D01*
X14890122Y-14009472D02*
X14890122Y-14114234D01*
X15013932Y-14114234D02*
X14994884Y-14104710D01*
X14994884Y-14104710D02*
X14985361Y-14095186D01*
X14985361Y-14095186D02*
X14975837Y-14076138D01*
X14975837Y-14076138D02*
X14975837Y-14018996D01*
X14975837Y-14018996D02*
X14985361Y-13999948D01*
X14985361Y-13999948D02*
X14994884Y-13990424D01*
X14994884Y-13990424D02*
X15013932Y-13980900D01*
X15013932Y-13980900D02*
X15042503Y-13980900D01*
X15042503Y-13980900D02*
X15061551Y-13990424D01*
X15061551Y-13990424D02*
X15071075Y-13999948D01*
X15071075Y-13999948D02*
X15080599Y-14018996D01*
X15080599Y-14018996D02*
X15080599Y-14076138D01*
X15080599Y-14076138D02*
X15071075Y-14095186D01*
X15071075Y-14095186D02*
X15061551Y-14104710D01*
X15061551Y-14104710D02*
X15042503Y-14114234D01*
X15042503Y-14114234D02*
X15013932Y-14114234D01*
X15137742Y-13980900D02*
X15213932Y-13980900D01*
X15166313Y-13914234D02*
X15166313Y-14085662D01*
X15166313Y-14085662D02*
X15175837Y-14104710D01*
X15175837Y-14104710D02*
X15194884Y-14114234D01*
X15194884Y-14114234D02*
X15213932Y-14114234D01*
X15432980Y-13980900D02*
X15432980Y-14180900D01*
X15432980Y-13990424D02*
X15452027Y-13980900D01*
X15452027Y-13980900D02*
X15490123Y-13980900D01*
X15490123Y-13980900D02*
X15509170Y-13990424D01*
X15509170Y-13990424D02*
X15518694Y-13999948D01*
X15518694Y-13999948D02*
X15528218Y-14018996D01*
X15528218Y-14018996D02*
X15528218Y-14076138D01*
X15528218Y-14076138D02*
X15518694Y-14095186D01*
X15518694Y-14095186D02*
X15509170Y-14104710D01*
X15509170Y-14104710D02*
X15490123Y-14114234D01*
X15490123Y-14114234D02*
X15452027Y-14114234D01*
X15452027Y-14114234D02*
X15432980Y-14104710D01*
X15642503Y-14114234D02*
X15623456Y-14104710D01*
X15623456Y-14104710D02*
X15613932Y-14085662D01*
X15613932Y-14085662D02*
X15613932Y-13914234D01*
X15804408Y-14114234D02*
X15804408Y-14009472D01*
X15804408Y-14009472D02*
X15794884Y-13990424D01*
X15794884Y-13990424D02*
X15775837Y-13980900D01*
X15775837Y-13980900D02*
X15737742Y-13980900D01*
X15737742Y-13980900D02*
X15718694Y-13990424D01*
X15804408Y-14104710D02*
X15785361Y-14114234D01*
X15785361Y-14114234D02*
X15737742Y-14114234D01*
X15737742Y-14114234D02*
X15718694Y-14104710D01*
X15718694Y-14104710D02*
X15709170Y-14085662D01*
X15709170Y-14085662D02*
X15709170Y-14066615D01*
X15709170Y-14066615D02*
X15718694Y-14047567D01*
X15718694Y-14047567D02*
X15737742Y-14038043D01*
X15737742Y-14038043D02*
X15785361Y-14038043D01*
X15785361Y-14038043D02*
X15804408Y-14028519D01*
X15871075Y-13980900D02*
X15947265Y-13980900D01*
X15899646Y-13914234D02*
X15899646Y-14085662D01*
X15899646Y-14085662D02*
X15909170Y-14104710D01*
X15909170Y-14104710D02*
X15928218Y-14114234D01*
X15928218Y-14114234D02*
X15947265Y-14114234D01*
X16090123Y-14104710D02*
X16071075Y-14114234D01*
X16071075Y-14114234D02*
X16032980Y-14114234D01*
X16032980Y-14114234D02*
X16013932Y-14104710D01*
X16013932Y-14104710D02*
X16004408Y-14085662D01*
X16004408Y-14085662D02*
X16004408Y-14009472D01*
X16004408Y-14009472D02*
X16013932Y-13990424D01*
X16013932Y-13990424D02*
X16032980Y-13980900D01*
X16032980Y-13980900D02*
X16071075Y-13980900D01*
X16071075Y-13980900D02*
X16090123Y-13990424D01*
X16090123Y-13990424D02*
X16099646Y-14009472D01*
X16099646Y-14009472D02*
X16099646Y-14028519D01*
X16099646Y-14028519D02*
X16004408Y-14047567D01*
X16271075Y-14114234D02*
X16271075Y-13914234D01*
X16271075Y-14104710D02*
X16252027Y-14114234D01*
X16252027Y-14114234D02*
X16213932Y-14114234D01*
X16213932Y-14114234D02*
X16194884Y-14104710D01*
X16194884Y-14104710D02*
X16185361Y-14095186D01*
X16185361Y-14095186D02*
X16175837Y-14076138D01*
X16175837Y-14076138D02*
X16175837Y-14018996D01*
X16175837Y-14018996D02*
X16185361Y-13999948D01*
X16185361Y-13999948D02*
X16194884Y-13990424D01*
X16194884Y-13990424D02*
X16213932Y-13980900D01*
X16213932Y-13980900D02*
X16252027Y-13980900D01*
X16252027Y-13980900D02*
X16271075Y-13990424D01*
X16347265Y-14190424D02*
X16356789Y-14180900D01*
X16356789Y-14180900D02*
X16375837Y-14152329D01*
X16375837Y-14152329D02*
X16385361Y-14133281D01*
X16385361Y-14133281D02*
X16394884Y-14104710D01*
X16394884Y-14104710D02*
X16404408Y-14057091D01*
X16404408Y-14057091D02*
X16404408Y-14018996D01*
X16404408Y-14018996D02*
X16394884Y-13971377D01*
X16394884Y-13971377D02*
X16385361Y-13942805D01*
X16385361Y-13942805D02*
X16375837Y-13923758D01*
X16375837Y-13923758D02*
X16356789Y-13895186D01*
X16356789Y-13895186D02*
X16347265Y-13885662D01*
M02*
