G04 #@! TF.GenerationSoftware,KiCad,Pcbnew,9.0.7*
G04 #@! TF.CreationDate,2026-07-01T15:36:29+02:00*
G04 #@! TF.ProjectId,Cat-Phones-DK-V1,4361742d-5068-46f6-9e65-732d444b2d56,rev?*
G04 #@! TF.SameCoordinates,Original*
G04 #@! TF.FileFunction,Copper,L1,Top*
G04 #@! TF.FilePolarity,Positive*
%FSLAX46Y46*%
G04 Gerber Fmt 4.6, Leading zero omitted, Abs format (unit mm)*
G04 Created by KiCad (PCBNEW 9.0.7) date 2026-07-01 15:36:29*
%MOMM*%
%LPD*%
G01*
G04 APERTURE LIST*
G04 Aperture macros list*
%AMRoundRect*
0 Rectangle with rounded corners*
0 $1 Rounding radius*
0 $2 $3 $4 $5 $6 $7 $8 $9 X,Y pos of 4 corners*
0 Add a 4 corners polygon primitive as box body*
4,1,4,$2,$3,$4,$5,$6,$7,$8,$9,$2,$3,0*
0 Add four circle primitives for the rounded corners*
1,1,$1+$1,$2,$3*
1,1,$1+$1,$4,$5*
1,1,$1+$1,$6,$7*
1,1,$1+$1,$8,$9*
0 Add four rect primitives between the rounded corners*
20,1,$1+$1,$2,$3,$4,$5,0*
20,1,$1+$1,$4,$5,$6,$7,0*
20,1,$1+$1,$6,$7,$8,$9,0*
20,1,$1+$1,$8,$9,$2,$3,0*%
%AMOutline5P*
0 Free polygon, 5 corners , with rotation*
0 The origin of the aperture is its center*
0 number of corners: always 5*
0 $1 to $10 corner X, Y*
0 $11 Rotation angle, in degrees counterclockwise*
0 create outline with 5 corners*
4,1,5,$1,$2,$3,$4,$5,$6,$7,$8,$9,$10,$1,$2,$11*%
%AMOutline6P*
0 Free polygon, 6 corners , with rotation*
0 The origin of the aperture is its center*
0 number of corners: always 6*
0 $1 to $12 corner X, Y*
0 $13 Rotation angle, in degrees counterclockwise*
0 create outline with 6 corners*
4,1,6,$1,$2,$3,$4,$5,$6,$7,$8,$9,$10,$11,$12,$1,$2,$13*%
%AMOutline7P*
0 Free polygon, 7 corners , with rotation*
0 The origin of the aperture is its center*
0 number of corners: always 7*
0 $1 to $14 corner X, Y*
0 $15 Rotation angle, in degrees counterclockwise*
0 create outline with 7 corners*
4,1,7,$1,$2,$3,$4,$5,$6,$7,$8,$9,$10,$11,$12,$13,$14,$1,$2,$15*%
%AMOutline8P*
0 Free polygon, 8 corners , with rotation*
0 The origin of the aperture is its center*
0 number of corners: always 8*
0 $1 to $16 corner X, Y*
0 $17 Rotation angle, in degrees counterclockwise*
0 create outline with 8 corners*
4,1,8,$1,$2,$3,$4,$5,$6,$7,$8,$9,$10,$11,$12,$13,$14,$15,$16,$1,$2,$17*%
G04 Aperture macros list end*
G04 #@! TA.AperFunction,ComponentPad*
%ADD10C,1.700000*%
G04 #@! TD*
G04 #@! TA.AperFunction,ComponentPad*
%ADD11R,1.700000X1.700000*%
G04 #@! TD*
G04 #@! TA.AperFunction,SMDPad,CuDef*
%ADD12R,2.500000X1.200000*%
G04 #@! TD*
G04 #@! TA.AperFunction,SMDPad,CuDef*
%ADD13RoundRect,0.250000X0.350000X0.450000X-0.350000X0.450000X-0.350000X-0.450000X0.350000X-0.450000X0*%
G04 #@! TD*
G04 #@! TA.AperFunction,SMDPad,CuDef*
%ADD14RoundRect,0.250000X-0.337500X-0.475000X0.337500X-0.475000X0.337500X0.475000X-0.337500X0.475000X0*%
G04 #@! TD*
G04 #@! TA.AperFunction,SMDPad,CuDef*
%ADD15R,1.500000X0.900000*%
G04 #@! TD*
G04 #@! TA.AperFunction,SMDPad,CuDef*
%ADD16R,0.900000X1.500000*%
G04 #@! TD*
G04 #@! TA.AperFunction,SMDPad,CuDef*
%ADD17R,0.900000X0.900000*%
G04 #@! TD*
G04 #@! TA.AperFunction,HeatsinkPad*
%ADD18C,0.600000*%
G04 #@! TD*
G04 #@! TA.AperFunction,HeatsinkPad*
%ADD19R,3.800000X3.800000*%
G04 #@! TD*
G04 #@! TA.AperFunction,SMDPad,CuDef*
%ADD20RoundRect,0.243750X0.456250X-0.243750X0.456250X0.243750X-0.456250X0.243750X-0.456250X-0.243750X0*%
G04 #@! TD*
G04 #@! TA.AperFunction,SMDPad,CuDef*
%ADD21RoundRect,0.250000X0.475000X-0.337500X0.475000X0.337500X-0.475000X0.337500X-0.475000X-0.337500X0*%
G04 #@! TD*
G04 #@! TA.AperFunction,SMDPad,CuDef*
%ADD22RoundRect,0.150000X-0.150000X0.512500X-0.150000X-0.512500X0.150000X-0.512500X0.150000X0.512500X0*%
G04 #@! TD*
G04 #@! TA.AperFunction,SMDPad,CuDef*
%ADD23RoundRect,0.150000X-0.587500X-0.150000X0.587500X-0.150000X0.587500X0.150000X-0.587500X0.150000X0*%
G04 #@! TD*
G04 #@! TA.AperFunction,SMDPad,CuDef*
%ADD24RoundRect,0.250000X0.337500X0.475000X-0.337500X0.475000X-0.337500X-0.475000X0.337500X-0.475000X0*%
G04 #@! TD*
G04 #@! TA.AperFunction,SMDPad,CuDef*
%ADD25RoundRect,0.050000X-0.730000X-0.150000X0.730000X-0.150000X0.730000X0.150000X-0.730000X0.150000X0*%
G04 #@! TD*
G04 #@! TA.AperFunction,SMDPad,CuDef*
%ADD26RoundRect,0.250000X-0.450000X0.350000X-0.450000X-0.350000X0.450000X-0.350000X0.450000X0.350000X0*%
G04 #@! TD*
G04 #@! TA.AperFunction,SMDPad,CuDef*
%ADD27RoundRect,0.100000X0.637500X0.100000X-0.637500X0.100000X-0.637500X-0.100000X0.637500X-0.100000X0*%
G04 #@! TD*
G04 #@! TA.AperFunction,ComponentPad*
%ADD28Outline5P,-0.850000X0.510000X-0.510000X0.850000X0.850000X0.850000X0.850000X-0.850000X-0.850000X-0.850000X0.000000*%
G04 #@! TD*
G04 #@! TA.AperFunction,SMDPad,CuDef*
%ADD29RoundRect,0.150000X0.587500X0.150000X-0.587500X0.150000X-0.587500X-0.150000X0.587500X-0.150000X0*%
G04 #@! TD*
G04 #@! TA.AperFunction,SMDPad,CuDef*
%ADD30RoundRect,0.250000X-0.350000X-0.450000X0.350000X-0.450000X0.350000X0.450000X-0.350000X0.450000X0*%
G04 #@! TD*
G04 #@! TA.AperFunction,ComponentPad*
%ADD31Outline5P,-0.850000X0.510000X-0.510000X0.850000X0.850000X0.850000X0.850000X-0.850000X-0.850000X-0.850000X180.000000*%
G04 #@! TD*
G04 #@! TA.AperFunction,SMDPad,CuDef*
%ADD32RoundRect,0.250000X-0.475000X0.337500X-0.475000X-0.337500X0.475000X-0.337500X0.475000X0.337500X0*%
G04 #@! TD*
G04 #@! TA.AperFunction,SMDPad,CuDef*
%ADD33RoundRect,0.150000X0.150000X-0.512500X0.150000X0.512500X-0.150000X0.512500X-0.150000X-0.512500X0*%
G04 #@! TD*
G04 #@! TA.AperFunction,SMDPad,CuDef*
%ADD34RoundRect,0.150000X-0.512500X-0.150000X0.512500X-0.150000X0.512500X0.150000X-0.512500X0.150000X0*%
G04 #@! TD*
G04 #@! TA.AperFunction,SMDPad,CuDef*
%ADD35RoundRect,0.150000X-0.150000X-0.425000X0.150000X-0.425000X0.150000X0.425000X-0.150000X0.425000X0*%
G04 #@! TD*
G04 #@! TA.AperFunction,SMDPad,CuDef*
%ADD36RoundRect,0.075000X-0.075000X-0.500000X0.075000X-0.500000X0.075000X0.500000X-0.075000X0.500000X0*%
G04 #@! TD*
G04 #@! TA.AperFunction,HeatsinkPad*
%ADD37O,1.000000X2.100000*%
G04 #@! TD*
G04 #@! TA.AperFunction,HeatsinkPad*
%ADD38O,1.000000X1.800000*%
G04 #@! TD*
G04 #@! TA.AperFunction,SMDPad,CuDef*
%ADD39RoundRect,0.150000X0.150000X-0.825000X0.150000X0.825000X-0.150000X0.825000X-0.150000X-0.825000X0*%
G04 #@! TD*
G04 #@! TA.AperFunction,ViaPad*
%ADD40C,0.600000*%
G04 #@! TD*
G04 #@! TA.AperFunction,Conductor*
%ADD41C,0.500000*%
G04 #@! TD*
G04 #@! TA.AperFunction,Conductor*
%ADD42C,0.200000*%
G04 #@! TD*
G04 #@! TA.AperFunction,Conductor*
%ADD43C,0.600000*%
G04 #@! TD*
G04 #@! TA.AperFunction,Conductor*
%ADD44C,0.400000*%
G04 #@! TD*
G04 #@! TA.AperFunction,Conductor*
%ADD45C,0.700000*%
G04 #@! TD*
G04 #@! TA.AperFunction,Conductor*
%ADD46C,0.900000*%
G04 #@! TD*
G04 APERTURE END LIST*
D10*
G04 #@! TO.P,J11,2,Pin_2*
G04 #@! TO.N,Net-(D1-A)*
X160875000Y-108460000D03*
D11*
G04 #@! TO.P,J11,1,Pin_1*
G04 #@! TO.N,+5V*
X160875000Y-111000000D03*
G04 #@! TD*
D12*
G04 #@! TO.P,J18,R1*
G04 #@! TO.N,Net-(U5-OUTR)*
X102550000Y-123395000D03*
G04 #@! TO.P,J18,R2*
G04 #@! TO.N,unconnected-(J18-PadR2)*
X102550000Y-126395000D03*
G04 #@! TO.P,J18,S*
G04 #@! TO.N,GND*
X109050000Y-118295000D03*
G04 #@! TO.P,J18,T*
G04 #@! TO.N,Net-(U5-OUTL)*
X102550000Y-119395000D03*
G04 #@! TD*
D13*
G04 #@! TO.P,R4,1*
G04 #@! TO.N,Net-(Q1-E)*
X128800000Y-107600000D03*
G04 #@! TO.P,R4,2*
G04 #@! TO.N,Net-(Q2-B)*
X126800000Y-107600000D03*
G04 #@! TD*
D14*
G04 #@! TO.P,C11,1*
G04 #@! TO.N,Net-(U5-CAPP)*
X112462500Y-112550000D03*
G04 #@! TO.P,C11,2*
G04 #@! TO.N,Net-(U5-CAPM)*
X114537500Y-112550000D03*
G04 #@! TD*
D15*
G04 #@! TO.P,U2,1,GND*
G04 #@! TO.N,GND*
X108165000Y-70690000D03*
G04 #@! TO.P,U2,2,VDD*
G04 #@! TO.N,+3V3*
X108165000Y-71960000D03*
G04 #@! TO.P,U2,3,EN*
G04 #@! TO.N,Net-(J7-Pin_2)*
X108165000Y-73230000D03*
G04 #@! TO.P,U2,4,SENSOR_VP*
G04 #@! TO.N,unconnected-(U2-SENSOR_VP-Pad4)*
X108165000Y-74500000D03*
G04 #@! TO.P,U2,5,SENSOR_VN*
G04 #@! TO.N,unconnected-(U2-SENSOR_VN-Pad5)*
X108165000Y-75770000D03*
G04 #@! TO.P,U2,6,IO34*
G04 #@! TO.N,unconnected-(U2-IO34-Pad6)*
X108165000Y-77040000D03*
G04 #@! TO.P,U2,7,IO35*
G04 #@! TO.N,unconnected-(U2-IO35-Pad7)*
X108165000Y-78310000D03*
G04 #@! TO.P,U2,8,IO32*
G04 #@! TO.N,unconnected-(U2-IO32-Pad8)*
X108165000Y-79580000D03*
G04 #@! TO.P,U2,9,IO33*
G04 #@! TO.N,unconnected-(U2-IO33-Pad9)*
X108165000Y-80850000D03*
G04 #@! TO.P,U2,10,IO25*
G04 #@! TO.N,Net-(J10-Pin_1)*
X108165000Y-82120000D03*
G04 #@! TO.P,U2,11,IO26*
G04 #@! TO.N,Net-(J12-Pin_1)*
X108165000Y-83390000D03*
G04 #@! TO.P,U2,12,IO27*
G04 #@! TO.N,Net-(J9-Pin_1)*
X108165000Y-84660000D03*
G04 #@! TO.P,U2,13,IO14*
G04 #@! TO.N,unconnected-(U2-IO14-Pad13)*
X108165000Y-85930000D03*
G04 #@! TO.P,U2,14,IO12*
G04 #@! TO.N,unconnected-(U2-IO12-Pad14)*
X108165000Y-87200000D03*
D16*
G04 #@! TO.P,U2,15,GND*
G04 #@! TO.N,GND*
X111200000Y-88450000D03*
G04 #@! TO.P,U2,16,IO13*
G04 #@! TO.N,unconnected-(U2-IO13-Pad16)*
X112470000Y-88450000D03*
G04 #@! TO.P,U2,17,NC*
G04 #@! TO.N,unconnected-(U2-NC-Pad17)*
X113740000Y-88450000D03*
G04 #@! TO.P,U2,18,NC*
G04 #@! TO.N,unconnected-(U2-NC-Pad18)*
X115010000Y-88450000D03*
G04 #@! TO.P,U2,19,NC*
G04 #@! TO.N,unconnected-(U2-NC-Pad19)*
X116280000Y-88450000D03*
G04 #@! TO.P,U2,20,NC*
G04 #@! TO.N,unconnected-(U2-NC-Pad20)*
X117550000Y-88450000D03*
G04 #@! TO.P,U2,21,NC*
G04 #@! TO.N,unconnected-(U2-NC-Pad21)*
X118820000Y-88450000D03*
G04 #@! TO.P,U2,22,NC*
G04 #@! TO.N,unconnected-(U2-NC-Pad22)*
X120090000Y-88450000D03*
G04 #@! TO.P,U2,23,IO15*
G04 #@! TO.N,unconnected-(U2-IO15-Pad23)*
X121360000Y-88450000D03*
G04 #@! TO.P,U2,24,IO2*
G04 #@! TO.N,unconnected-(U2-IO2-Pad24)*
X122630000Y-88450000D03*
D15*
G04 #@! TO.P,U2,25,IO0*
G04 #@! TO.N,Net-(J6-Pin_2)*
X125665000Y-87200000D03*
G04 #@! TO.P,U2,26,IO4*
G04 #@! TO.N,Net-(J2-Pin_1)*
X125665000Y-85930000D03*
G04 #@! TO.P,U2,27,IO16*
G04 #@! TO.N,Net-(J2-Pin_2)*
X125665000Y-84660000D03*
G04 #@! TO.P,U2,28,IO17*
G04 #@! TO.N,Net-(J2-Pin_3)*
X125665000Y-83390000D03*
G04 #@! TO.P,U2,29,IO5*
G04 #@! TO.N,Net-(J2-Pin_4)*
X125665000Y-82120000D03*
G04 #@! TO.P,U2,30,IO18*
G04 #@! TO.N,Net-(J2-Pin_5)*
X125665000Y-80850000D03*
G04 #@! TO.P,U2,31,IO19*
G04 #@! TO.N,Net-(J3-Pin_2)*
X125665000Y-79580000D03*
G04 #@! TO.P,U2,32,NC*
G04 #@! TO.N,unconnected-(U2-NC-Pad32)*
X125665000Y-78310000D03*
G04 #@! TO.P,U2,33,IO21*
G04 #@! TO.N,Net-(J2-Pin_6)*
X125665000Y-77040000D03*
G04 #@! TO.P,U2,34,RXD0/IO3*
G04 #@! TO.N,Net-(J5-Pin_2)*
X125665000Y-75770000D03*
G04 #@! TO.P,U2,35,TXD0/IO1*
G04 #@! TO.N,Net-(J4-Pin_1)*
X125665000Y-74500000D03*
G04 #@! TO.P,U2,36,IO22*
G04 #@! TO.N,Net-(J2-Pin_7)*
X125665000Y-73230000D03*
G04 #@! TO.P,U2,37,IO23*
G04 #@! TO.N,Net-(J3-Pin_5)*
X125665000Y-71960000D03*
G04 #@! TO.P,U2,38,GND*
G04 #@! TO.N,GND*
X125665000Y-70690000D03*
D17*
G04 #@! TO.P,U2,39,GND*
X114015000Y-76630000D03*
D18*
X114015000Y-77330000D03*
D17*
X114015000Y-78030000D03*
D18*
X114015000Y-78730000D03*
D17*
X114015000Y-79430000D03*
D18*
X114715000Y-76630000D03*
X114715000Y-78030000D03*
X114715000Y-79430000D03*
D17*
X115415000Y-76630000D03*
D18*
X115415000Y-77330000D03*
D17*
X115415000Y-78030000D03*
D19*
X115415000Y-78030000D03*
D18*
X115415000Y-78730000D03*
D17*
X115415000Y-79430000D03*
D18*
X116115000Y-76630000D03*
X116115000Y-78030000D03*
X116115000Y-79430000D03*
D17*
X116815000Y-76630000D03*
D18*
X116815000Y-77330000D03*
D17*
X116815000Y-78030000D03*
D18*
X116815000Y-78730000D03*
D17*
X116815000Y-79430000D03*
G04 #@! TD*
D11*
G04 #@! TO.P,J4,1,Pin_1*
G04 #@! TO.N,Net-(J4-Pin_1)*
X125945000Y-98530000D03*
G04 #@! TO.P,J4,2,Pin_2*
G04 #@! TO.N,Net-(J4-Pin_2)*
X125945000Y-101070000D03*
G04 #@! TD*
D20*
G04 #@! TO.P,D2,1,K*
G04 #@! TO.N,Net-(D2-K)*
X184800000Y-94287500D03*
G04 #@! TO.P,D2,2,A*
G04 #@! TO.N,Net-(D1-A)*
X184800000Y-92412500D03*
G04 #@! TD*
D21*
G04 #@! TO.P,C9,1*
G04 #@! TO.N,+3V3*
X103600000Y-73287500D03*
G04 #@! TO.P,C9,2*
G04 #@! TO.N,GND*
X103600000Y-71212500D03*
G04 #@! TD*
D22*
G04 #@! TO.P,U6,1,OD*
G04 #@! TO.N,Net-(Q3-G1)*
X173712500Y-101962500D03*
G04 #@! TO.P,U6,2,CS*
G04 #@! TO.N,Net-(U6-CS)*
X172762500Y-101962500D03*
G04 #@! TO.P,U6,3,OC*
G04 #@! TO.N,Net-(Q3-G2)*
X171812500Y-101962500D03*
G04 #@! TO.P,U6,4,TD*
G04 #@! TO.N,unconnected-(U6-TD-Pad4)*
X171812500Y-104237500D03*
G04 #@! TO.P,U6,5,VCC*
G04 #@! TO.N,Net-(J15-Pin_1)*
X172762500Y-104237500D03*
G04 #@! TO.P,U6,6,GND*
G04 #@! TO.N,Net-(J16-Pin_2)*
X173712500Y-104237500D03*
G04 #@! TD*
D23*
G04 #@! TO.P,Q1,1,B*
G04 #@! TO.N,Net-(Q1-B)*
X132812500Y-105650000D03*
G04 #@! TO.P,Q1,2,E*
G04 #@! TO.N,Net-(Q1-E)*
X132812500Y-107550000D03*
G04 #@! TO.P,Q1,3,C*
G04 #@! TO.N,Net-(J7-Pin_1)*
X134687500Y-106600000D03*
G04 #@! TD*
D11*
G04 #@! TO.P,J13,1,Pin_1*
G04 #@! TO.N,+3V3*
X112745000Y-98575000D03*
G04 #@! TO.P,J13,2,Pin_2*
G04 #@! TO.N,Net-(J13-Pin_2)*
X112745000Y-101115000D03*
G04 #@! TD*
D24*
G04 #@! TO.P,C2,1*
G04 #@! TO.N,GND*
X104687500Y-85100000D03*
G04 #@! TO.P,C2,2*
G04 #@! TO.N,VBUS*
X102612500Y-85100000D03*
G04 #@! TD*
D11*
G04 #@! TO.P,J17,1,Pin_1*
G04 #@! TO.N,-BATT*
X164475000Y-108500000D03*
D10*
G04 #@! TO.P,J17,2,Pin_2*
G04 #@! TO.N,GND*
X164475000Y-111040000D03*
G04 #@! TD*
D25*
G04 #@! TO.P,Q3,1,S1*
G04 #@! TO.N,Net-(J16-Pin_2)*
X170290000Y-96775000D03*
G04 #@! TO.P,Q3,2,D1/D2*
G04 #@! TO.N,unconnected-(Q3-D1{slash}D2-Pad2)*
X170290000Y-97425000D03*
G04 #@! TO.P,Q3,3,S2*
G04 #@! TO.N,GND*
X170290000Y-98075000D03*
G04 #@! TO.P,Q3,4,G2*
G04 #@! TO.N,Net-(Q3-G2)*
X170290000Y-98725000D03*
G04 #@! TO.P,Q3,5,D1/D2*
G04 #@! TO.N,unconnected-(Q3-D1{slash}D2-Pad5)*
X176050000Y-98725000D03*
G04 #@! TO.P,Q3,6,G1*
G04 #@! TO.N,Net-(Q3-G1)*
X176050000Y-98075000D03*
G04 #@! TO.P,Q3,7*
G04 #@! TO.N,N/C*
X176050000Y-97425000D03*
G04 #@! TO.P,Q3,8*
X176050000Y-96775000D03*
G04 #@! TD*
D11*
G04 #@! TO.P,J3,1,Pin_1*
G04 #@! TO.N,+3V3*
X134015000Y-83530000D03*
D10*
G04 #@! TO.P,J3,2,Pin_2*
G04 #@! TO.N,Net-(J3-Pin_2)*
X134015000Y-80990000D03*
G04 #@! TO.P,J3,3,Pin_3*
G04 #@! TO.N,GND*
X134015000Y-78450000D03*
G04 #@! TO.P,J3,4,Pin_4*
G04 #@! TO.N,+3V3*
X134015000Y-75910000D03*
G04 #@! TO.P,J3,5,Pin_5*
G04 #@! TO.N,Net-(J3-Pin_5)*
X134015000Y-73370000D03*
G04 #@! TO.P,J3,6,Pin_6*
G04 #@! TO.N,GND*
X134015000Y-70830000D03*
G04 #@! TD*
D26*
G04 #@! TO.P,R5,1*
G04 #@! TO.N,Net-(D1-K)*
X182800000Y-99350000D03*
G04 #@! TO.P,R5,2*
G04 #@! TO.N,Net-(U4-~{CHRG})*
X182800000Y-101350000D03*
G04 #@! TD*
D24*
G04 #@! TO.P,C10,1*
G04 #@! TO.N,Net-(J13-Pin_2)*
X114087500Y-118750000D03*
G04 #@! TO.P,C10,2*
G04 #@! TO.N,GND*
X112012500Y-118750000D03*
G04 #@! TD*
D27*
G04 #@! TO.P,U5,1,CPVDD*
G04 #@! TO.N,Net-(J13-Pin_2)*
X108325000Y-112645000D03*
G04 #@! TO.P,U5,2,CAPP*
G04 #@! TO.N,Net-(U5-CAPP)*
X108325000Y-111995000D03*
G04 #@! TO.P,U5,3,CPGND*
G04 #@! TO.N,GND*
X108325000Y-111345000D03*
G04 #@! TO.P,U5,4,CAPM*
G04 #@! TO.N,Net-(U5-CAPM)*
X108325000Y-110695000D03*
G04 #@! TO.P,U5,5,VNEG*
G04 #@! TO.N,Net-(U5-VNEG)*
X108325000Y-110045000D03*
G04 #@! TO.P,U5,6,OUTL*
G04 #@! TO.N,Net-(U5-OUTL)*
X108325000Y-109395000D03*
G04 #@! TO.P,U5,7,OUTR*
G04 #@! TO.N,Net-(U5-OUTR)*
X108325000Y-108745000D03*
G04 #@! TO.P,U5,8,AVDD*
G04 #@! TO.N,Net-(J13-Pin_2)*
X108325000Y-108095000D03*
G04 #@! TO.P,U5,9,AGND*
G04 #@! TO.N,GND*
X108325000Y-107445000D03*
G04 #@! TO.P,U5,10,DEMP*
G04 #@! TO.N,Net-(U5-DEMP)*
X108325000Y-106795000D03*
G04 #@! TO.P,U5,11,FLT*
G04 #@! TO.N,GND*
X102600000Y-106795000D03*
G04 #@! TO.P,U5,12,SCK*
X102600000Y-107445000D03*
G04 #@! TO.P,U5,13,BCK*
G04 #@! TO.N,Net-(J9-Pin_2)*
X102600000Y-108095000D03*
G04 #@! TO.P,U5,14,DIN*
G04 #@! TO.N,Net-(J10-Pin_2)*
X102600000Y-108745000D03*
G04 #@! TO.P,U5,15,LRCK*
G04 #@! TO.N,Net-(J12-Pin_2)*
X102600000Y-109395000D03*
G04 #@! TO.P,U5,16,FMT*
G04 #@! TO.N,GND*
X102600000Y-110045000D03*
G04 #@! TO.P,U5,17,XSMT*
G04 #@! TO.N,unconnected-(U5-XSMT-Pad17)*
X102600000Y-110695000D03*
G04 #@! TO.P,U5,18,LDOO*
G04 #@! TO.N,Net-(U5-LDOO)*
X102600000Y-111345000D03*
G04 #@! TO.P,U5,19,DGND*
G04 #@! TO.N,GND*
X102600000Y-111995000D03*
G04 #@! TO.P,U5,20,DVDD*
G04 #@! TO.N,Net-(J13-Pin_2)*
X102600000Y-112645000D03*
G04 #@! TD*
D28*
G04 #@! TO.P,J8,1,Pin_1*
G04 #@! TO.N,Net-(J8-Pin_1)*
X98775000Y-75300000D03*
G04 #@! TO.P,J8,2,Pin_2*
G04 #@! TO.N,VBUS*
X98775000Y-77840000D03*
G04 #@! TD*
D29*
G04 #@! TO.P,Q2,1,B*
G04 #@! TO.N,Net-(Q2-B)*
X123287500Y-107550000D03*
G04 #@! TO.P,Q2,2,E*
G04 #@! TO.N,Net-(Q2-E)*
X123287500Y-105650000D03*
G04 #@! TO.P,Q2,3,C*
G04 #@! TO.N,Net-(J6-Pin_1)*
X121412500Y-106600000D03*
G04 #@! TD*
D14*
G04 #@! TO.P,C6,1*
G04 #@! TO.N,Net-(J13-Pin_2)*
X97567500Y-106795000D03*
G04 #@! TO.P,C6,2*
G04 #@! TO.N,GND*
X99642500Y-106795000D03*
G04 #@! TD*
D21*
G04 #@! TO.P,C1,1*
G04 #@! TO.N,+5V*
X132350000Y-116537500D03*
G04 #@! TO.P,C1,2*
G04 #@! TO.N,GND*
X132350000Y-114462500D03*
G04 #@! TD*
D11*
G04 #@! TO.P,J2,1,Pin_1*
G04 #@! TO.N,Net-(J2-Pin_1)*
X130215000Y-88630000D03*
D10*
G04 #@! TO.P,J2,2,Pin_2*
G04 #@! TO.N,Net-(J2-Pin_2)*
X130215000Y-86090000D03*
G04 #@! TO.P,J2,3,Pin_3*
G04 #@! TO.N,Net-(J2-Pin_3)*
X130215000Y-83550000D03*
G04 #@! TO.P,J2,4,Pin_4*
G04 #@! TO.N,Net-(J2-Pin_4)*
X130215000Y-81010000D03*
G04 #@! TO.P,J2,5,Pin_5*
G04 #@! TO.N,Net-(J2-Pin_5)*
X130215000Y-78470000D03*
G04 #@! TO.P,J2,6,Pin_6*
G04 #@! TO.N,Net-(J2-Pin_6)*
X130215000Y-75930000D03*
G04 #@! TO.P,J2,7,Pin_7*
G04 #@! TO.N,Net-(J2-Pin_7)*
X130215000Y-73390000D03*
G04 #@! TO.P,J2,8,Pin_8*
G04 #@! TO.N,GND*
X130215000Y-70850000D03*
G04 #@! TD*
D30*
G04 #@! TO.P,R3,1*
G04 #@! TO.N,Net-(Q2-E)*
X126800000Y-105650000D03*
G04 #@! TO.P,R3,2*
G04 #@! TO.N,Net-(Q1-B)*
X128800000Y-105650000D03*
G04 #@! TD*
D14*
G04 #@! TO.P,C5,1*
G04 #@! TO.N,GND*
X97662500Y-113050000D03*
G04 #@! TO.P,C5,2*
G04 #@! TO.N,Net-(J13-Pin_2)*
X99737500Y-113050000D03*
G04 #@! TD*
D11*
G04 #@! TO.P,J7,1,Pin_1*
G04 #@! TO.N,Net-(J7-Pin_1)*
X133905000Y-101120000D03*
G04 #@! TO.P,J7,2,Pin_2*
G04 #@! TO.N,Net-(J7-Pin_2)*
X133905000Y-98580000D03*
G04 #@! TD*
D24*
G04 #@! TO.P,C8,1*
G04 #@! TO.N,GND*
X114587500Y-107850000D03*
G04 #@! TO.P,C8,2*
G04 #@! TO.N,Net-(J13-Pin_2)*
X112512500Y-107850000D03*
G04 #@! TD*
D11*
G04 #@! TO.P,J15,1,Pin_1*
G04 #@! TO.N,Net-(J15-Pin_1)*
X170775000Y-108500000D03*
D10*
G04 #@! TO.P,J15,2,Pin_2*
G04 #@! TO.N,+BATT*
X170775000Y-111040000D03*
G04 #@! TD*
D24*
G04 #@! TO.P,C12,1*
G04 #@! TO.N,GND*
X114587500Y-110245000D03*
G04 #@! TO.P,C12,2*
G04 #@! TO.N,Net-(U5-VNEG)*
X112512500Y-110245000D03*
G04 #@! TD*
D11*
G04 #@! TO.P,J9,1,Pin_1*
G04 #@! TO.N,Net-(J9-Pin_1)*
X102830000Y-98595000D03*
G04 #@! TO.P,J9,2,Pin_2*
G04 #@! TO.N,Net-(J9-Pin_2)*
X102830000Y-101135000D03*
G04 #@! TD*
G04 #@! TO.P,J16,1,Pin_1*
G04 #@! TO.N,-BATT*
X174325000Y-111000000D03*
D31*
G04 #@! TO.P,J16,2,Pin_2*
G04 #@! TO.N,Net-(J16-Pin_2)*
X174325000Y-108460000D03*
G04 #@! TD*
D32*
G04 #@! TO.P,C3,1*
G04 #@! TO.N,GND*
X105600000Y-71212500D03*
G04 #@! TO.P,C3,2*
G04 #@! TO.N,+3V3*
X105600000Y-73287500D03*
G04 #@! TD*
D33*
G04 #@! TO.P,U3,1,VIN*
G04 #@! TO.N,VBUS*
X102865000Y-81867500D03*
G04 #@! TO.P,U3,2,GND*
G04 #@! TO.N,GND*
X103815000Y-81867500D03*
G04 #@! TO.P,U3,3,EN*
G04 #@! TO.N,Net-(J8-Pin_1)*
X104765000Y-81867500D03*
G04 #@! TO.P,U3,4,NC*
G04 #@! TO.N,unconnected-(U3-NC-Pad4)*
X104765000Y-79592500D03*
G04 #@! TO.P,U3,5,VOUT*
G04 #@! TO.N,+3V3*
X102865000Y-79592500D03*
G04 #@! TD*
D20*
G04 #@! TO.P,D1,1,K*
G04 #@! TO.N,Net-(D1-K)*
X182800000Y-94287500D03*
G04 #@! TO.P,D1,2,A*
G04 #@! TO.N,Net-(D1-A)*
X182800000Y-92412500D03*
G04 #@! TD*
D26*
G04 #@! TO.P,R8,1*
G04 #@! TO.N,Net-(U6-CS)*
X177900000Y-101950000D03*
G04 #@! TO.P,R8,2*
G04 #@! TO.N,Net-(J16-Pin_2)*
X177900000Y-103950000D03*
G04 #@! TD*
G04 #@! TO.P,R6,1*
G04 #@! TO.N,Net-(D2-K)*
X184750000Y-99350000D03*
G04 #@! TO.P,R6,2*
G04 #@! TO.N,Net-(U4-STDBY)*
X184750000Y-101350000D03*
G04 #@! TD*
D30*
G04 #@! TO.P,R2,1*
G04 #@! TO.N,Net-(J1-CC1)*
X132850000Y-123800000D03*
G04 #@! TO.P,R2,2*
G04 #@! TO.N,GND*
X134850000Y-123800000D03*
G04 #@! TD*
D11*
G04 #@! TO.P,J5,1,Pin_1*
G04 #@! TO.N,Net-(J5-Pin_1)*
X122205000Y-101170000D03*
G04 #@! TO.P,J5,2,Pin_2*
G04 #@! TO.N,Net-(J5-Pin_2)*
X122205000Y-98630000D03*
G04 #@! TD*
D34*
G04 #@! TO.P,U4,1,~{CHRG}*
G04 #@! TO.N,Net-(U4-~{CHRG})*
X182725000Y-104450000D03*
G04 #@! TO.P,U4,2,GND*
G04 #@! TO.N,GND*
X182725000Y-105400000D03*
G04 #@! TO.P,U4,3,BAT*
G04 #@! TO.N,+BATT*
X182725000Y-106350000D03*
G04 #@! TO.P,U4,4,V_{CC}*
G04 #@! TO.N,Net-(D1-A)*
X185000000Y-106350000D03*
G04 #@! TO.P,U4,5,STDBY*
G04 #@! TO.N,Net-(U4-STDBY)*
X185000000Y-105400000D03*
G04 #@! TO.P,U4,6,PROG*
G04 #@! TO.N,Net-(U4-PROG)*
X185000000Y-104450000D03*
G04 #@! TD*
D30*
G04 #@! TO.P,R1,1*
G04 #@! TO.N,Net-(J1-CC2)*
X132800000Y-120350000D03*
G04 #@! TO.P,R1,2*
G04 #@! TO.N,GND*
X134800000Y-120350000D03*
G04 #@! TD*
D11*
G04 #@! TO.P,J6,1,Pin_1*
G04 #@! TO.N,Net-(J6-Pin_1)*
X130505000Y-101120000D03*
G04 #@! TO.P,J6,2,Pin_2*
G04 #@! TO.N,Net-(J6-Pin_2)*
X130505000Y-98580000D03*
G04 #@! TD*
D35*
G04 #@! TO.P,J1,A1,GND*
G04 #@! TO.N,GND*
X122550000Y-123720000D03*
G04 #@! TO.P,J1,A4,VBUS*
G04 #@! TO.N,+5V*
X123350000Y-123720000D03*
D36*
G04 #@! TO.P,J1,A5,CC1*
G04 #@! TO.N,Net-(J1-CC1)*
X124500000Y-123720000D03*
G04 #@! TO.P,J1,A6,D+*
G04 #@! TO.N,Net-(U1-UD+)*
X125500000Y-123720000D03*
G04 #@! TO.P,J1,A7,D-*
G04 #@! TO.N,Net-(U1-UD-)*
X126000000Y-123720000D03*
G04 #@! TO.P,J1,A8,SBU1*
G04 #@! TO.N,unconnected-(J1-SBU1-PadA8)*
X127000000Y-123720000D03*
D35*
G04 #@! TO.P,J1,A9,VBUS*
G04 #@! TO.N,+5V*
X128150000Y-123720000D03*
G04 #@! TO.P,J1,A12,GND*
G04 #@! TO.N,GND*
X128950000Y-123720000D03*
G04 #@! TO.P,J1,B1,GND*
X128950000Y-123720000D03*
G04 #@! TO.P,J1,B4,VBUS*
G04 #@! TO.N,+5V*
X128150000Y-123720000D03*
D36*
G04 #@! TO.P,J1,B5,CC2*
G04 #@! TO.N,Net-(J1-CC2)*
X127500000Y-123720000D03*
G04 #@! TO.P,J1,B6,D+*
G04 #@! TO.N,Net-(U1-UD+)*
X126500000Y-123720000D03*
G04 #@! TO.P,J1,B7,D-*
G04 #@! TO.N,Net-(U1-UD-)*
X125000000Y-123720000D03*
G04 #@! TO.P,J1,B8,SBU2*
G04 #@! TO.N,unconnected-(J1-SBU2-PadB8)*
X124000000Y-123720000D03*
D35*
G04 #@! TO.P,J1,B9,VBUS*
G04 #@! TO.N,+5V*
X123350000Y-123720000D03*
G04 #@! TO.P,J1,B12,GND*
G04 #@! TO.N,GND*
X122550000Y-123720000D03*
D37*
G04 #@! TO.P,J1,S1,SHIELD*
X121430000Y-124295000D03*
D38*
X121430000Y-128475000D03*
D37*
X130070000Y-124295000D03*
D38*
X130070000Y-128475000D03*
G04 #@! TD*
D24*
G04 #@! TO.P,C4,1*
G04 #@! TO.N,GND*
X114637500Y-105550000D03*
G04 #@! TO.P,C4,2*
G04 #@! TO.N,Net-(U5-DEMP)*
X112562500Y-105550000D03*
G04 #@! TD*
D10*
G04 #@! TO.P,J19,1,Pin_1*
G04 #@! TO.N,+BATT*
X180550000Y-128775000D03*
D11*
G04 #@! TO.P,J19,2,Pin_2*
G04 #@! TO.N,-BATT*
X183090000Y-128775000D03*
G04 #@! TD*
D14*
G04 #@! TO.P,C13,1*
G04 #@! TO.N,GND*
X97662500Y-110445000D03*
G04 #@! TO.P,C13,2*
G04 #@! TO.N,Net-(U5-LDOO)*
X99737500Y-110445000D03*
G04 #@! TD*
D11*
G04 #@! TO.P,J12,1,Pin_1*
G04 #@! TO.N,Net-(J12-Pin_1)*
X99275000Y-98595000D03*
G04 #@! TO.P,J12,2,Pin_2*
G04 #@! TO.N,Net-(J12-Pin_2)*
X99275000Y-101135000D03*
G04 #@! TD*
D39*
G04 #@! TO.P,U1,1,GND*
G04 #@! TO.N,GND*
X121105000Y-117625000D03*
G04 #@! TO.P,U1,2,TXD*
G04 #@! TO.N,Net-(J5-Pin_1)*
X122375000Y-117625000D03*
G04 #@! TO.P,U1,3,RXD*
G04 #@! TO.N,Net-(J4-Pin_2)*
X123645000Y-117625000D03*
G04 #@! TO.P,U1,4,V3*
G04 #@! TO.N,unconnected-(U1-V3-Pad4)*
X124915000Y-117625000D03*
G04 #@! TO.P,U1,5,UD+*
G04 #@! TO.N,Net-(U1-UD+)*
X126185000Y-117625000D03*
G04 #@! TO.P,U1,6,UD-*
G04 #@! TO.N,Net-(U1-UD-)*
X127455000Y-117625000D03*
G04 #@! TO.P,U1,7,NC*
G04 #@! TO.N,unconnected-(U1-NC-Pad7)*
X128725000Y-117625000D03*
G04 #@! TO.P,U1,8,NC*
G04 #@! TO.N,unconnected-(U1-NC-Pad8)*
X129995000Y-117625000D03*
G04 #@! TO.P,U1,9,~{CTS}*
G04 #@! TO.N,unconnected-(U1-~{CTS}-Pad9)*
X129995000Y-112675000D03*
G04 #@! TO.P,U1,10,~{DSR}*
G04 #@! TO.N,unconnected-(U1-~{DSR}-Pad10)*
X128725000Y-112675000D03*
G04 #@! TO.P,U1,11,~{RI}*
G04 #@! TO.N,unconnected-(U1-~{RI}-Pad11)*
X127455000Y-112675000D03*
G04 #@! TO.P,U1,12,~{DCD}*
G04 #@! TO.N,unconnected-(U1-~{DCD}-Pad12)*
X126185000Y-112675000D03*
G04 #@! TO.P,U1,13,~{DTR}*
G04 #@! TO.N,Net-(Q2-E)*
X124915000Y-112675000D03*
G04 #@! TO.P,U1,14,~{RTS}*
G04 #@! TO.N,Net-(Q1-E)*
X123645000Y-112675000D03*
G04 #@! TO.P,U1,15,R232*
G04 #@! TO.N,unconnected-(U1-R232-Pad15)*
X122375000Y-112675000D03*
G04 #@! TO.P,U1,16,VCC*
G04 #@! TO.N,+3V3*
X121105000Y-112675000D03*
G04 #@! TD*
D26*
G04 #@! TO.P,R7,1*
G04 #@! TO.N,GND*
X187950000Y-102600000D03*
G04 #@! TO.P,R7,2*
G04 #@! TO.N,Net-(U4-PROG)*
X187950000Y-104600000D03*
G04 #@! TD*
D24*
G04 #@! TO.P,C7,1*
G04 #@! TO.N,GND*
X104987500Y-76250000D03*
G04 #@! TO.P,C7,2*
G04 #@! TO.N,+3V3*
X102912500Y-76250000D03*
G04 #@! TD*
D11*
G04 #@! TO.P,J14,1,Pin_1*
G04 #@! TO.N,GND*
X98775000Y-81450000D03*
D28*
G04 #@! TO.P,J14,2,Pin_2*
G04 #@! TO.N,VBUS*
X98775000Y-83990000D03*
G04 #@! TO.P,J14,3,Pin_3*
G04 #@! TO.N,+5V*
X98775000Y-86530000D03*
D11*
G04 #@! TO.P,J14,4,Pin_4*
G04 #@! TO.N,GND*
X98775000Y-89070000D03*
G04 #@! TD*
G04 #@! TO.P,J10,1,Pin_1*
G04 #@! TO.N,Net-(J10-Pin_1)*
X106375000Y-98595000D03*
G04 #@! TO.P,J10,2,Pin_2*
G04 #@! TO.N,Net-(J10-Pin_2)*
X106375000Y-101135000D03*
G04 #@! TD*
D40*
G04 #@! TO.N,+5V*
X132350000Y-116600000D03*
X128150000Y-123720000D03*
X123350000Y-123720000D03*
G04 #@! TO.N,+3V3*
X118000000Y-93000000D03*
G04 #@! TO.N,Net-(U5-CAPM)*
X114537500Y-112550000D03*
X110600000Y-111200000D03*
G04 #@! TO.N,Net-(U1-UD+)*
X127200000Y-121450000D03*
X126185000Y-117625000D03*
G04 #@! TO.N,Net-(J4-Pin_2)*
X123645000Y-117625000D03*
G04 #@! TO.N,Net-(J4-Pin_1)*
X125665000Y-74500000D03*
G04 #@! TO.N,Net-(J5-Pin_2)*
X123700000Y-77050000D03*
G04 #@! TO.N,Net-(J5-Pin_1)*
X122400000Y-117900000D03*
G04 #@! TO.N,Net-(J6-Pin_2)*
X128600000Y-91450000D03*
G04 #@! TO.N,Net-(J7-Pin_2)*
X129250000Y-95200000D03*
X127650000Y-92300000D03*
G04 #@! TO.N,Net-(J10-Pin_1)*
X108165000Y-82120000D03*
G04 #@! TO.N,Net-(J9-Pin_1)*
X108165000Y-84660000D03*
G04 #@! TO.N,Net-(J12-Pin_1)*
X108165000Y-83390000D03*
G04 #@! TO.N,Net-(J13-Pin_2)*
X112456250Y-107906250D03*
X109190000Y-113510000D03*
X101200000Y-112645000D03*
X97600000Y-106550000D03*
G04 #@! TO.N,Net-(U6-CS)*
X177900000Y-101950000D03*
X172762500Y-101962500D03*
G04 #@! TO.N,GND*
X129009620Y-123779620D03*
X171800000Y-97850000D03*
X102600000Y-106795000D03*
X114587501Y-107849998D03*
X103815000Y-81867500D03*
X106800000Y-70690000D03*
X187950000Y-102600000D03*
X112012500Y-118750000D03*
X111200000Y-88450000D03*
X109050000Y-118295000D03*
X97662500Y-113050000D03*
X122550000Y-123720000D03*
X134850000Y-123800000D03*
X99467500Y-106795000D03*
X104987500Y-76250000D03*
X182725000Y-105400000D03*
X114637501Y-105549998D03*
X104512500Y-85100000D03*
X106700000Y-107750000D03*
X108165000Y-70690000D03*
X114587502Y-110245000D03*
X104600000Y-71212500D03*
X107050000Y-111050000D03*
X97837500Y-110445000D03*
X121105002Y-117625000D03*
X132350000Y-114462500D03*
X134712500Y-120350000D03*
G04 #@! TD*
D41*
G04 #@! TO.N,Net-(D1-A)*
X160875000Y-108460000D02*
X160875000Y-101475000D01*
D42*
X160875000Y-101475000D02*
X160900000Y-101450000D01*
D41*
X182800000Y-92412500D02*
X169937500Y-92412500D01*
X169937500Y-92412500D02*
X160900000Y-101450000D01*
G04 #@! TO.N,+BATT*
X176650000Y-112900000D02*
X172635000Y-112900000D01*
X172635000Y-112900000D02*
X170775000Y-111040000D01*
G04 #@! TO.N,Net-(J16-Pin_2)*
X174800000Y-105325000D02*
X174325000Y-105800000D01*
X174325000Y-105800000D02*
X174325000Y-108460000D01*
G04 #@! TO.N,Net-(J15-Pin_1)*
X172762500Y-104237500D02*
X172762500Y-106512500D01*
X172762500Y-106512500D02*
X170775000Y-108500000D01*
D43*
G04 #@! TO.N,+5V*
X100480000Y-86530000D02*
X107650000Y-93700000D01*
X117000000Y-116800000D02*
X121550000Y-121350000D01*
X117000000Y-95900000D02*
X117000000Y-116800000D01*
X123350000Y-123720000D02*
X123350000Y-122450000D01*
X117000000Y-95400000D02*
X117000000Y-95900000D01*
X98775000Y-86530000D02*
X100480000Y-86530000D01*
X122250000Y-121350000D02*
X121550000Y-121350000D01*
X107650000Y-93700000D02*
X108000000Y-94050000D01*
X108000000Y-94050000D02*
X115650000Y-94050000D01*
X115650000Y-94050000D02*
X117000000Y-95400000D01*
X123350000Y-122450000D02*
X122250000Y-121350000D01*
D44*
G04 #@! TO.N,Net-(U5-DEMP)*
X108325000Y-106795000D02*
X111317500Y-106795000D01*
X111317500Y-106795000D02*
X112562500Y-105550000D01*
D45*
G04 #@! TO.N,+3V3*
X134015000Y-75910000D02*
X135600000Y-77495000D01*
D46*
X105750000Y-77900000D02*
X106200000Y-78350000D01*
X105815000Y-73112500D02*
X104315000Y-73112500D01*
D45*
X134015000Y-89585000D02*
X129650000Y-93950000D01*
D46*
X104315000Y-73112500D02*
X102912500Y-74515000D01*
D45*
X135600000Y-77495000D02*
X135600000Y-81945000D01*
D46*
X118000000Y-93000000D02*
X116450000Y-91450000D01*
X102912500Y-76250000D02*
X102912500Y-77900000D01*
D45*
X119650000Y-93950000D02*
X119300000Y-94300000D01*
D46*
X107800000Y-91450000D02*
X106200000Y-89850000D01*
X116450000Y-91450000D02*
X107800000Y-91450000D01*
X106967500Y-71960000D02*
X105815000Y-73112500D01*
D45*
X129650000Y-93950000D02*
X119650000Y-93950000D01*
D46*
X106200000Y-78350000D02*
X106200000Y-89850000D01*
D45*
X134015000Y-83530000D02*
X134015000Y-89585000D01*
D46*
X121105000Y-112675000D02*
X119300000Y-110870000D01*
X102912500Y-77900000D02*
X102912500Y-79545000D01*
X119300000Y-94300000D02*
X118000000Y-93000000D01*
X119300000Y-110870000D02*
X119300000Y-94300000D01*
D45*
X135600000Y-81945000D02*
X134015000Y-83530000D01*
D46*
X102912500Y-77900000D02*
X105750000Y-77900000D01*
X102912500Y-74515000D02*
X102912500Y-76250000D01*
X108165000Y-71960000D02*
X106967500Y-71960000D01*
D44*
G04 #@! TO.N,Net-(J12-Pin_2)*
X101862501Y-109395000D02*
X101100000Y-108632499D01*
X101100000Y-105150000D02*
X99275000Y-103325000D01*
X99275000Y-103325000D02*
X99275000Y-101135000D01*
X102600000Y-109395000D02*
X101862501Y-109395000D01*
X101100000Y-108632499D02*
X101100000Y-105150000D01*
G04 #@! TO.N,Net-(U5-CAPP)*
X111907500Y-111995000D02*
X108325000Y-111995000D01*
X112462500Y-112550000D02*
X111907500Y-111995000D01*
G04 #@! TO.N,Net-(U5-CAPM)*
X110095000Y-110695000D02*
X110600000Y-111200000D01*
X108325000Y-110695000D02*
X110095000Y-110695000D01*
G04 #@! TO.N,Net-(U5-VNEG)*
X108325000Y-110045000D02*
X112312500Y-110045000D01*
X112312500Y-110045000D02*
X112512500Y-110245000D01*
G04 #@! TO.N,Net-(U5-LDOO)*
X102600000Y-111345000D02*
X100637500Y-111345000D01*
X100637500Y-111345000D02*
X99737500Y-110445000D01*
D42*
G04 #@! TO.N,Net-(J1-CC2)*
X127500000Y-123153032D02*
X130303032Y-120350000D01*
X130303032Y-120350000D02*
X132800000Y-120350000D01*
X127500000Y-123720000D02*
X127500000Y-123153032D01*
G04 #@! TO.N,Net-(U1-UD-)*
X125000000Y-121650000D02*
X127455000Y-119195000D01*
X125267176Y-124596000D02*
X125000000Y-124328824D01*
X125000000Y-123720000D02*
X125000000Y-121650000D01*
X125732824Y-124596000D02*
X125267176Y-124596000D01*
X125000000Y-124328824D02*
X125000000Y-123720000D01*
X126000000Y-123720000D02*
X126000000Y-124328824D01*
X127455000Y-119195000D02*
X127455000Y-117625000D01*
X126000000Y-124328824D02*
X125732824Y-124596000D01*
G04 #@! TO.N,Net-(U1-UD+)*
X126232824Y-122844000D02*
X126232824Y-122417176D01*
X126232824Y-122417176D02*
X127200000Y-121450000D01*
X125767176Y-122844000D02*
X125500000Y-123111176D01*
X126500000Y-123111176D02*
X126232824Y-122844000D01*
X126500000Y-123720000D02*
X126500000Y-123111176D01*
X125500000Y-123111176D02*
X125500000Y-123720000D01*
X126232824Y-122844000D02*
X125767176Y-122844000D01*
G04 #@! TO.N,Net-(J1-CC1)*
X125750076Y-125646000D02*
X124500000Y-124395924D01*
X131004000Y-125646000D02*
X125750076Y-125646000D01*
X124500000Y-124395924D02*
X124500000Y-123720000D01*
X132850000Y-123800000D02*
X131004000Y-125646000D01*
G04 #@! TO.N,Net-(J2-Pin_7)*
X130055000Y-73230000D02*
X130215000Y-73390000D01*
D41*
X125665000Y-73230000D02*
X130055000Y-73230000D01*
G04 #@! TO.N,Net-(J2-Pin_4)*
X129105000Y-82120000D02*
X125665000Y-82120000D01*
X130215000Y-81010000D02*
X129105000Y-82120000D01*
G04 #@! TO.N,Net-(J2-Pin_6)*
X130215000Y-75930000D02*
X129012919Y-75930000D01*
X129012919Y-75930000D02*
X127902919Y-77040000D01*
X127902919Y-77040000D02*
X125665000Y-77040000D01*
G04 #@! TO.N,Net-(J2-Pin_3)*
X125665000Y-83390000D02*
X130055000Y-83390000D01*
D42*
X130055000Y-83390000D02*
X130215000Y-83550000D01*
D41*
G04 #@! TO.N,Net-(J2-Pin_5)*
X130215000Y-78470000D02*
X127835000Y-80850000D01*
X127835000Y-80850000D02*
X125665000Y-80850000D01*
G04 #@! TO.N,Net-(J2-Pin_1)*
X127515000Y-85930000D02*
X125665000Y-85930000D01*
X130215000Y-88630000D02*
X127515000Y-85930000D01*
G04 #@! TO.N,Net-(J2-Pin_2)*
X130215000Y-86090000D02*
X128785000Y-84660000D01*
X128785000Y-84660000D02*
X125665000Y-84660000D01*
G04 #@! TO.N,Net-(J3-Pin_5)*
X134015000Y-73370000D02*
X132884000Y-72239000D01*
D44*
X132745000Y-72100000D02*
X126083000Y-72100000D01*
X132884000Y-72239000D02*
X132745000Y-72100000D01*
D41*
G04 #@! TO.N,Net-(J3-Pin_2)*
X130733182Y-77219000D02*
X129381000Y-77219000D01*
X131800000Y-78285818D02*
X130733182Y-77219000D01*
X131800000Y-78775000D02*
X131800000Y-78285818D01*
X129381000Y-77219000D02*
X127020000Y-79580000D01*
X134015000Y-80990000D02*
X131800000Y-78775000D01*
X127020000Y-79580000D02*
X125665000Y-79580000D01*
G04 #@! TO.N,Net-(J5-Pin_2)*
X124980000Y-75770000D02*
X125665000Y-75770000D01*
X123700000Y-77050000D02*
X124980000Y-75770000D01*
G04 #@! TO.N,Net-(J6-Pin_2)*
X125665000Y-87200000D02*
X125665000Y-88515000D01*
X125665000Y-88515000D02*
X128600000Y-91450000D01*
G04 #@! TO.N,Net-(J6-Pin_1)*
X121412500Y-106600000D02*
X121412500Y-105487500D01*
X122650000Y-104250000D02*
X128400000Y-104250000D01*
X121412500Y-105487500D02*
X122650000Y-104250000D01*
X128400000Y-104250000D02*
X130505000Y-102145000D01*
X130505000Y-102145000D02*
X130505000Y-101120000D01*
G04 #@! TO.N,Net-(J7-Pin_2)*
X123800000Y-88450000D02*
X123800000Y-86550000D01*
X130525000Y-95200000D02*
X133905000Y-98580000D01*
X110950000Y-78150000D02*
X110950000Y-73900000D01*
X123800000Y-86550000D02*
X119350000Y-86550000D01*
D42*
X133905000Y-98580000D02*
X133905000Y-98555000D01*
D41*
X110280000Y-73230000D02*
X108165000Y-73230000D01*
X110950000Y-73900000D02*
X110280000Y-73230000D01*
X129250000Y-95200000D02*
X130525000Y-95200000D01*
X119350000Y-86550000D02*
X110950000Y-78150000D01*
X123800000Y-88450000D02*
X127650000Y-92300000D01*
G04 #@! TO.N,Net-(J7-Pin_1)*
X134687500Y-106600000D02*
X134687500Y-103312500D01*
D42*
X134687500Y-103312500D02*
X134700000Y-103300000D01*
D41*
X133905000Y-102505000D02*
X133905000Y-101120000D01*
X134700000Y-103300000D02*
X133905000Y-102505000D01*
G04 #@! TO.N,Net-(J8-Pin_1)*
X104765000Y-81205001D02*
X104765000Y-81867500D01*
X104265999Y-80706000D02*
X104765000Y-81205001D01*
X102056000Y-80706000D02*
X104265999Y-80706000D01*
X101150000Y-79800000D02*
X102056000Y-80706000D01*
X101150000Y-76800000D02*
X101150000Y-79800000D01*
X99650000Y-75300000D02*
X101150000Y-76800000D01*
X98775000Y-75300000D02*
X99650000Y-75300000D01*
D42*
G04 #@! TO.N,Net-(J9-Pin_2)*
X102600000Y-108095000D02*
X103337499Y-108095000D01*
X103337499Y-108095000D02*
X104450000Y-106982499D01*
X104450000Y-106982499D02*
X104450000Y-104450000D01*
X104450000Y-104450000D02*
X102830000Y-102830000D01*
X102830000Y-102830000D02*
X102830000Y-101135000D01*
G04 #@! TO.N,Net-(J10-Pin_2)*
X103337499Y-108745000D02*
X106375000Y-105707499D01*
X102600000Y-108745000D02*
X103337499Y-108745000D01*
X106375000Y-105707499D02*
X106375000Y-101135000D01*
D41*
G04 #@! TO.N,Net-(J13-Pin_2)*
X102600000Y-112645000D02*
X101200000Y-112645000D01*
X114087500Y-118407500D02*
X109190000Y-113510000D01*
D44*
X112267500Y-108095000D02*
X108325000Y-108095000D01*
D41*
X109190000Y-113510000D02*
X108325000Y-112645000D01*
X114087500Y-118750000D02*
X114087500Y-118407500D01*
D44*
X112512500Y-107850000D02*
X112456250Y-107906250D01*
D41*
X101200000Y-112645000D02*
X100142500Y-112645000D01*
X100142500Y-112645000D02*
X99737500Y-113050000D01*
D44*
X112456250Y-107906250D02*
X112267500Y-108095000D01*
D45*
G04 #@! TO.N,VBUS*
X98775000Y-78690000D02*
X98775000Y-77840000D01*
X102865000Y-81867500D02*
X102865000Y-84847500D01*
X101952500Y-81867500D02*
X98775000Y-78690000D01*
X102612500Y-85100000D02*
X99885000Y-85100000D01*
X102865000Y-81867500D02*
X101952500Y-81867500D01*
X99885000Y-85100000D02*
X98775000Y-83990000D01*
X102865000Y-84847500D02*
X102612500Y-85100000D01*
D41*
G04 #@! TO.N,+BATT*
X176650000Y-112900000D02*
X176650000Y-124875000D01*
X182725000Y-106825000D02*
X182725000Y-106350000D01*
X176650000Y-112900000D02*
X182725000Y-106825000D01*
X176650000Y-124875000D02*
X180550000Y-128775000D01*
G04 #@! TO.N,Net-(Q1-B)*
X132812500Y-105650000D02*
X128800000Y-105650000D01*
G04 #@! TO.N,Net-(Q1-E)*
X125584000Y-110816000D02*
X128800000Y-107600000D01*
D42*
X123645000Y-113021968D02*
X124574032Y-113951000D01*
X132762500Y-107600000D02*
X132812500Y-107550000D01*
X125584000Y-113666000D02*
X125584000Y-110816000D01*
X124574032Y-113951000D02*
X125299000Y-113951000D01*
D41*
X128800000Y-107600000D02*
X132762500Y-107600000D01*
D42*
X123645000Y-112675000D02*
X123645000Y-113021968D01*
X125299000Y-113951000D02*
X125584000Y-113666000D01*
G04 #@! TO.N,Net-(Q2-B)*
X126750000Y-107550000D02*
X126800000Y-107600000D01*
D41*
X123287500Y-107550000D02*
X126750000Y-107550000D01*
D42*
G04 #@! TO.N,Net-(Q2-E)*
X122200000Y-107191968D02*
X123287500Y-106104468D01*
X122200000Y-109350000D02*
X122200000Y-107191968D01*
D41*
X126800000Y-105650000D02*
X123287500Y-105650000D01*
D42*
X124915000Y-112675000D02*
X124915000Y-112065000D01*
X124915000Y-112065000D02*
X122200000Y-109350000D01*
X123287500Y-106104468D02*
X123287500Y-105650000D01*
D41*
G04 #@! TO.N,Net-(D1-K)*
X182800000Y-99350000D02*
X182800000Y-94287500D01*
G04 #@! TO.N,Net-(J16-Pin_2)*
X169426000Y-103076000D02*
X168550000Y-102200000D01*
X170290000Y-96090000D02*
X170290000Y-96775000D01*
X173712500Y-103575001D02*
X173213499Y-103076000D01*
X168550000Y-102200000D02*
X168550000Y-96200000D01*
X173712500Y-104237500D02*
X173712500Y-103575001D01*
X169100000Y-95650000D02*
X169850000Y-95650000D01*
X168550000Y-96200000D02*
X169100000Y-95650000D01*
X173213499Y-103076000D02*
X169426000Y-103076000D01*
X174800000Y-105325000D02*
X173712500Y-104237500D01*
X169850000Y-95650000D02*
X170290000Y-96090000D01*
X174800000Y-105325000D02*
X176175000Y-103950000D01*
X176175000Y-103950000D02*
X177900000Y-103950000D01*
G04 #@! TO.N,Net-(D1-A)*
X190400000Y-104700000D02*
X188750000Y-106350000D01*
X182800000Y-92412500D02*
X184800000Y-92412500D01*
X184800000Y-92412500D02*
X190400000Y-98012500D01*
X188750000Y-106350000D02*
X185000000Y-106350000D01*
X190400000Y-98012500D02*
X190400000Y-104700000D01*
D43*
G04 #@! TO.N,Net-(U5-OUTL)*
X106200000Y-110300000D02*
X106200000Y-116395000D01*
X106200000Y-116395000D02*
X103200000Y-119395000D01*
X103200000Y-119395000D02*
X102550000Y-119395000D01*
D41*
X107105000Y-109395000D02*
X106200000Y-110300000D01*
D44*
X108325000Y-109395000D02*
X107105000Y-109395000D01*
D43*
G04 #@! TO.N,Net-(U5-OUTR)*
X100250000Y-121095000D02*
X102550000Y-123395000D01*
D44*
X106555000Y-108745000D02*
X105000000Y-110300000D01*
D43*
X105000000Y-114100000D02*
X100250000Y-118850000D01*
X105000000Y-111332501D02*
X105000000Y-114100000D01*
D44*
X108325000Y-108745000D02*
X107587501Y-108745000D01*
D43*
X100250000Y-118850000D02*
X100250000Y-121095000D01*
D44*
X107587501Y-108745000D02*
X106555000Y-108745000D01*
D41*
X105000000Y-110300000D02*
X105000000Y-111332501D01*
G04 #@! TO.N,Net-(U4-PROG)*
X187800000Y-104450000D02*
X187950000Y-104600000D01*
X185000000Y-104450000D02*
X187800000Y-104450000D01*
G04 #@! TO.N,Net-(Q3-G1)*
X173712500Y-101962500D02*
X173712500Y-99632500D01*
X175270000Y-98075000D02*
X176050000Y-98075000D01*
X173712500Y-99632500D02*
X175270000Y-98075000D01*
G04 #@! TO.N,Net-(Q3-G2)*
X171812500Y-100299500D02*
X170290000Y-98777000D01*
X171812500Y-101962500D02*
X171812500Y-100299500D01*
G04 #@! TO.N,Net-(D2-K)*
X184750000Y-94337500D02*
X184800000Y-94287500D01*
X184750000Y-99350000D02*
X184750000Y-94337500D01*
G04 #@! TO.N,Net-(U4-~{CHRG})*
X182725000Y-104450000D02*
X182725000Y-101425000D01*
X182725000Y-101425000D02*
X182800000Y-101350000D01*
G04 #@! TO.N,Net-(U4-STDBY)*
X183900000Y-104962499D02*
X183900000Y-102200000D01*
X184337501Y-105400000D02*
X183900000Y-104962499D01*
X185000000Y-105400000D02*
X184337501Y-105400000D01*
X183900000Y-102200000D02*
X184750000Y-101350000D01*
D42*
G04 #@! TO.N,GND*
X108325000Y-111345000D02*
X107345000Y-111345000D01*
D41*
X128150000Y-70690000D02*
X130055000Y-70690000D01*
D46*
X106122500Y-70690000D02*
X105600000Y-71212500D01*
D41*
X170290000Y-98075000D02*
X171575000Y-98075000D01*
D42*
X108325000Y-107445000D02*
X107005000Y-107445000D01*
X107005000Y-107445000D02*
X106700000Y-107750000D01*
X103638500Y-110811500D02*
X106700000Y-107750000D01*
D46*
X105600000Y-71212500D02*
X104600000Y-71212500D01*
D42*
X107345000Y-111345000D02*
X107050000Y-111050000D01*
X103337499Y-111995000D02*
X103638500Y-111693999D01*
D41*
X125665000Y-70690000D02*
X128150000Y-70690000D01*
D42*
X102600000Y-111995000D02*
X103337499Y-111995000D01*
X103337499Y-110045000D02*
X102600000Y-110045000D01*
X130235000Y-70830000D02*
X130215000Y-70850000D01*
X103638500Y-111693999D02*
X103638500Y-110850000D01*
X103638500Y-110850000D02*
X103638500Y-110346001D01*
X103638500Y-110346001D02*
X103337499Y-110045000D01*
X130055000Y-70690000D02*
X130215000Y-70850000D01*
D46*
X106800000Y-70690000D02*
X108165000Y-70690000D01*
D41*
X171575000Y-98075000D02*
X171800000Y-97850000D01*
D42*
X103638500Y-110850000D02*
X103638500Y-110811500D01*
D46*
X104600000Y-71212500D02*
X103600000Y-71212500D01*
X106800000Y-70690000D02*
X106122500Y-70690000D01*
G04 #@! TD*
M02*
