G04 #@! TF.GenerationSoftware,KiCad,Pcbnew,9.0.7*
G04 #@! TF.CreationDate,2026-07-01T15:36:29+02:00*
G04 #@! TF.ProjectId,Cat-Phones-DK-V1,4361742d-5068-46f6-9e65-732d444b2d56,rev?*
G04 #@! TF.SameCoordinates,Original*
G04 #@! TF.FileFunction,Legend,Top*
G04 #@! TF.FilePolarity,Positive*
%FSLAX46Y46*%
G04 Gerber Fmt 4.6, Leading zero omitted, Abs format (unit mm)*
G04 Created by KiCad (PCBNEW 9.0.7) date 2026-07-01 15:36:29*
%MOMM*%
%LPD*%
G01*
G04 APERTURE LIST*
G04 Aperture macros list*
%AMRoundRect*
0 Rectangle with rounded corners*
0 $1 Rounding radius*
0 $2 $3 $4 $5 $6 $7 $8 $9 X,Y pos of 4 corners*
0 Add a 4 corners polygon primitive as box body*
4,1,4,$2,$3,$4,$5,$6,$7,$8,$9,$2,$3,0*
0 Add four circle primitives for the rounded corners*
1,1,$1+$1,$2,$3*
1,1,$1+$1,$4,$5*
1,1,$1+$1,$6,$7*
1,1,$1+$1,$8,$9*
0 Add four rect primitives between the rounded corners*
20,1,$1+$1,$2,$3,$4,$5,0*
20,1,$1+$1,$4,$5,$6,$7,0*
20,1,$1+$1,$6,$7,$8,$9,0*
20,1,$1+$1,$8,$9,$2,$3,0*%
%AMOutline5P*
0 Free polygon, 5 corners , with rotation*
0 The origin of the aperture is its center*
0 number of corners: always 5*
0 $1 to $10 corner X, Y*
0 $11 Rotation angle, in degrees counterclockwise*
0 create outline with 5 corners*
4,1,5,$1,$2,$3,$4,$5,$6,$7,$8,$9,$10,$1,$2,$11*%
%AMOutline6P*
0 Free polygon, 6 corners , with rotation*
0 The origin of the aperture is its center*
0 number of corners: always 6*
0 $1 to $12 corner X, Y*
0 $13 Rotation angle, in degrees counterclockwise*
0 create outline with 6 corners*
4,1,6,$1,$2,$3,$4,$5,$6,$7,$8,$9,$10,$11,$12,$1,$2,$13*%
%AMOutline7P*
0 Free polygon, 7 corners , with rotation*
0 The origin of the aperture is its center*
0 number of corners: always 7*
0 $1 to $14 corner X, Y*
0 $15 Rotation angle, in degrees counterclockwise*
0 create outline with 7 corners*
4,1,7,$1,$2,$3,$4,$5,$6,$7,$8,$9,$10,$11,$12,$13,$14,$1,$2,$15*%
%AMOutline8P*
0 Free polygon, 8 corners , with rotation*
0 The origin of the aperture is its center*
0 number of corners: always 8*
0 $1 to $16 corner X, Y*
0 $17 Rotation angle, in degrees counterclockwise*
0 create outline with 8 corners*
4,1,8,$1,$2,$3,$4,$5,$6,$7,$8,$9,$10,$11,$12,$13,$14,$15,$16,$1,$2,$17*%
G04 Aperture macros list end*
%ADD10C,0.100000*%
%ADD11C,0.150000*%
%ADD12C,0.120000*%
%ADD13C,0.127000*%
%ADD14C,0.200000*%
%ADD15C,1.700000*%
%ADD16R,1.700000X1.700000*%
%ADD17C,1.500000*%
%ADD18R,2.500000X1.200000*%
%ADD19RoundRect,0.250000X0.350000X0.450000X-0.350000X0.450000X-0.350000X-0.450000X0.350000X-0.450000X0*%
%ADD20RoundRect,0.250000X-0.337500X-0.475000X0.337500X-0.475000X0.337500X0.475000X-0.337500X0.475000X0*%
%ADD21R,1.500000X0.900000*%
%ADD22R,0.900000X1.500000*%
%ADD23C,0.600000*%
%ADD24R,3.800000X3.800000*%
%ADD25RoundRect,0.243750X0.456250X-0.243750X0.456250X0.243750X-0.456250X0.243750X-0.456250X-0.243750X0*%
%ADD26RoundRect,0.250000X0.475000X-0.337500X0.475000X0.337500X-0.475000X0.337500X-0.475000X-0.337500X0*%
%ADD27RoundRect,0.150000X-0.150000X0.512500X-0.150000X-0.512500X0.150000X-0.512500X0.150000X0.512500X0*%
%ADD28RoundRect,0.150000X-0.587500X-0.150000X0.587500X-0.150000X0.587500X0.150000X-0.587500X0.150000X0*%
%ADD29RoundRect,0.250000X0.337500X0.475000X-0.337500X0.475000X-0.337500X-0.475000X0.337500X-0.475000X0*%
%ADD30RoundRect,0.075500X-0.806500X-0.226500X0.806500X-0.226500X0.806500X0.226500X-0.806500X0.226500X0*%
%ADD31RoundRect,0.250000X-0.450000X0.350000X-0.450000X-0.350000X0.450000X-0.350000X0.450000X0.350000X0*%
%ADD32RoundRect,0.100000X0.637500X0.100000X-0.637500X0.100000X-0.637500X-0.100000X0.637500X-0.100000X0*%
%ADD33Outline5P,-0.850000X0.510000X-0.510000X0.850000X0.850000X0.850000X0.850000X-0.850000X-0.850000X-0.850000X0.000000*%
%ADD34RoundRect,0.150000X0.587500X0.150000X-0.587500X0.150000X-0.587500X-0.150000X0.587500X-0.150000X0*%
%ADD35RoundRect,0.250000X-0.350000X-0.450000X0.350000X-0.450000X0.350000X0.450000X-0.350000X0.450000X0*%
%ADD36Outline5P,-0.850000X0.510000X-0.510000X0.850000X0.850000X0.850000X0.850000X-0.850000X-0.850000X-0.850000X180.000000*%
%ADD37RoundRect,0.250000X-0.475000X0.337500X-0.475000X-0.337500X0.475000X-0.337500X0.475000X0.337500X0*%
%ADD38RoundRect,0.150000X0.150000X-0.512500X0.150000X0.512500X-0.150000X0.512500X-0.150000X-0.512500X0*%
%ADD39RoundRect,0.150000X-0.512500X-0.150000X0.512500X-0.150000X0.512500X0.150000X-0.512500X0.150000X0*%
%ADD40C,0.650000*%
%ADD41RoundRect,0.150000X-0.150000X-0.425000X0.150000X-0.425000X0.150000X0.425000X-0.150000X0.425000X0*%
%ADD42RoundRect,0.075000X-0.075000X-0.500000X0.075000X-0.500000X0.075000X0.500000X-0.075000X0.500000X0*%
%ADD43O,1.000000X2.100000*%
%ADD44O,1.000000X1.800000*%
%ADD45RoundRect,0.150000X0.150000X-0.825000X0.150000X0.825000X-0.150000X0.825000X-0.150000X-0.825000X0*%
G04 APERTURE END LIST*
D10*
X130203884Y-104022419D02*
X130203884Y-103022419D01*
X130870550Y-103022419D02*
X131061026Y-103022419D01*
X131061026Y-103022419D02*
X131156264Y-103070038D01*
X131156264Y-103070038D02*
X131251502Y-103165276D01*
X131251502Y-103165276D02*
X131299121Y-103355752D01*
X131299121Y-103355752D02*
X131299121Y-103689085D01*
X131299121Y-103689085D02*
X131251502Y-103879561D01*
X131251502Y-103879561D02*
X131156264Y-103974800D01*
X131156264Y-103974800D02*
X131061026Y-104022419D01*
X131061026Y-104022419D02*
X130870550Y-104022419D01*
X130870550Y-104022419D02*
X130775312Y-103974800D01*
X130775312Y-103974800D02*
X130680074Y-103879561D01*
X130680074Y-103879561D02*
X130632455Y-103689085D01*
X130632455Y-103689085D02*
X130632455Y-103355752D01*
X130632455Y-103355752D02*
X130680074Y-103165276D01*
X130680074Y-103165276D02*
X130775312Y-103070038D01*
X130775312Y-103070038D02*
X130870550Y-103022419D01*
X131918169Y-103022419D02*
X132013407Y-103022419D01*
X132013407Y-103022419D02*
X132108645Y-103070038D01*
X132108645Y-103070038D02*
X132156264Y-103117657D01*
X132156264Y-103117657D02*
X132203883Y-103212895D01*
X132203883Y-103212895D02*
X132251502Y-103403371D01*
X132251502Y-103403371D02*
X132251502Y-103641466D01*
X132251502Y-103641466D02*
X132203883Y-103831942D01*
X132203883Y-103831942D02*
X132156264Y-103927180D01*
X132156264Y-103927180D02*
X132108645Y-103974800D01*
X132108645Y-103974800D02*
X132013407Y-104022419D01*
X132013407Y-104022419D02*
X131918169Y-104022419D01*
X131918169Y-104022419D02*
X131822931Y-103974800D01*
X131822931Y-103974800D02*
X131775312Y-103927180D01*
X131775312Y-103927180D02*
X131727693Y-103831942D01*
X131727693Y-103831942D02*
X131680074Y-103641466D01*
X131680074Y-103641466D02*
X131680074Y-103403371D01*
X131680074Y-103403371D02*
X131727693Y-103212895D01*
X131727693Y-103212895D02*
X131775312Y-103117657D01*
X131775312Y-103117657D02*
X131822931Y-103070038D01*
X131822931Y-103070038D02*
X131918169Y-103022419D01*
X134203884Y-103548609D02*
X134537217Y-103548609D01*
X134680074Y-104072419D02*
X134203884Y-104072419D01*
X134203884Y-104072419D02*
X134203884Y-103072419D01*
X134203884Y-103072419D02*
X134680074Y-103072419D01*
X135108646Y-104072419D02*
X135108646Y-103072419D01*
X135108646Y-103072419D02*
X135680074Y-104072419D01*
X135680074Y-104072419D02*
X135680074Y-103072419D01*
X122675312Y-104022419D02*
X122341979Y-103546228D01*
X122103884Y-104022419D02*
X122103884Y-103022419D01*
X122103884Y-103022419D02*
X122484836Y-103022419D01*
X122484836Y-103022419D02*
X122580074Y-103070038D01*
X122580074Y-103070038D02*
X122627693Y-103117657D01*
X122627693Y-103117657D02*
X122675312Y-103212895D01*
X122675312Y-103212895D02*
X122675312Y-103355752D01*
X122675312Y-103355752D02*
X122627693Y-103450990D01*
X122627693Y-103450990D02*
X122580074Y-103498609D01*
X122580074Y-103498609D02*
X122484836Y-103546228D01*
X122484836Y-103546228D02*
X122103884Y-103546228D01*
X123008646Y-103022419D02*
X123675312Y-104022419D01*
X123675312Y-103022419D02*
X123008646Y-104022419D01*
X126061027Y-103072419D02*
X126632455Y-103072419D01*
X126346741Y-104072419D02*
X126346741Y-103072419D01*
X126870551Y-103072419D02*
X127537217Y-104072419D01*
X127537217Y-103072419D02*
X126870551Y-104072419D01*
X110753884Y-103722419D02*
X110753884Y-102722419D01*
X110753884Y-102722419D02*
X111134836Y-102722419D01*
X111134836Y-102722419D02*
X111230074Y-102770038D01*
X111230074Y-102770038D02*
X111277693Y-102817657D01*
X111277693Y-102817657D02*
X111325312Y-102912895D01*
X111325312Y-102912895D02*
X111325312Y-103055752D01*
X111325312Y-103055752D02*
X111277693Y-103150990D01*
X111277693Y-103150990D02*
X111230074Y-103198609D01*
X111230074Y-103198609D02*
X111134836Y-103246228D01*
X111134836Y-103246228D02*
X110753884Y-103246228D01*
X111896741Y-103722419D02*
X111801503Y-103674800D01*
X111801503Y-103674800D02*
X111753884Y-103627180D01*
X111753884Y-103627180D02*
X111706265Y-103531942D01*
X111706265Y-103531942D02*
X111706265Y-103246228D01*
X111706265Y-103246228D02*
X111753884Y-103150990D01*
X111753884Y-103150990D02*
X111801503Y-103103371D01*
X111801503Y-103103371D02*
X111896741Y-103055752D01*
X111896741Y-103055752D02*
X112039598Y-103055752D01*
X112039598Y-103055752D02*
X112134836Y-103103371D01*
X112134836Y-103103371D02*
X112182455Y-103150990D01*
X112182455Y-103150990D02*
X112230074Y-103246228D01*
X112230074Y-103246228D02*
X112230074Y-103531942D01*
X112230074Y-103531942D02*
X112182455Y-103627180D01*
X112182455Y-103627180D02*
X112134836Y-103674800D01*
X112134836Y-103674800D02*
X112039598Y-103722419D01*
X112039598Y-103722419D02*
X111896741Y-103722419D01*
X112563408Y-103055752D02*
X112753884Y-103722419D01*
X112753884Y-103722419D02*
X112944360Y-103246228D01*
X112944360Y-103246228D02*
X113134836Y-103722419D01*
X113134836Y-103722419D02*
X113325312Y-103055752D01*
X114087217Y-103674800D02*
X113991979Y-103722419D01*
X113991979Y-103722419D02*
X113801503Y-103722419D01*
X113801503Y-103722419D02*
X113706265Y-103674800D01*
X113706265Y-103674800D02*
X113658646Y-103579561D01*
X113658646Y-103579561D02*
X113658646Y-103198609D01*
X113658646Y-103198609D02*
X113706265Y-103103371D01*
X113706265Y-103103371D02*
X113801503Y-103055752D01*
X113801503Y-103055752D02*
X113991979Y-103055752D01*
X113991979Y-103055752D02*
X114087217Y-103103371D01*
X114087217Y-103103371D02*
X114134836Y-103198609D01*
X114134836Y-103198609D02*
X114134836Y-103293847D01*
X114134836Y-103293847D02*
X113658646Y-103389085D01*
X114563408Y-103722419D02*
X114563408Y-103055752D01*
X114563408Y-103246228D02*
X114611027Y-103150990D01*
X114611027Y-103150990D02*
X114658646Y-103103371D01*
X114658646Y-103103371D02*
X114753884Y-103055752D01*
X114753884Y-103055752D02*
X114849122Y-103055752D01*
X111853884Y-83248609D02*
X112187217Y-83248609D01*
X112330074Y-83772419D02*
X111853884Y-83772419D01*
X111853884Y-83772419D02*
X111853884Y-82772419D01*
X111853884Y-82772419D02*
X112330074Y-82772419D01*
X112711027Y-83724800D02*
X112853884Y-83772419D01*
X112853884Y-83772419D02*
X113091979Y-83772419D01*
X113091979Y-83772419D02*
X113187217Y-83724800D01*
X113187217Y-83724800D02*
X113234836Y-83677180D01*
X113234836Y-83677180D02*
X113282455Y-83581942D01*
X113282455Y-83581942D02*
X113282455Y-83486704D01*
X113282455Y-83486704D02*
X113234836Y-83391466D01*
X113234836Y-83391466D02*
X113187217Y-83343847D01*
X113187217Y-83343847D02*
X113091979Y-83296228D01*
X113091979Y-83296228D02*
X112901503Y-83248609D01*
X112901503Y-83248609D02*
X112806265Y-83200990D01*
X112806265Y-83200990D02*
X112758646Y-83153371D01*
X112758646Y-83153371D02*
X112711027Y-83058133D01*
X112711027Y-83058133D02*
X112711027Y-82962895D01*
X112711027Y-82962895D02*
X112758646Y-82867657D01*
X112758646Y-82867657D02*
X112806265Y-82820038D01*
X112806265Y-82820038D02*
X112901503Y-82772419D01*
X112901503Y-82772419D02*
X113139598Y-82772419D01*
X113139598Y-82772419D02*
X113282455Y-82820038D01*
X113711027Y-83772419D02*
X113711027Y-82772419D01*
X113711027Y-82772419D02*
X114091979Y-82772419D01*
X114091979Y-82772419D02*
X114187217Y-82820038D01*
X114187217Y-82820038D02*
X114234836Y-82867657D01*
X114234836Y-82867657D02*
X114282455Y-82962895D01*
X114282455Y-82962895D02*
X114282455Y-83105752D01*
X114282455Y-83105752D02*
X114234836Y-83200990D01*
X114234836Y-83200990D02*
X114187217Y-83248609D01*
X114187217Y-83248609D02*
X114091979Y-83296228D01*
X114091979Y-83296228D02*
X113711027Y-83296228D01*
X114615789Y-82772419D02*
X115234836Y-82772419D01*
X115234836Y-82772419D02*
X114901503Y-83153371D01*
X114901503Y-83153371D02*
X115044360Y-83153371D01*
X115044360Y-83153371D02*
X115139598Y-83200990D01*
X115139598Y-83200990D02*
X115187217Y-83248609D01*
X115187217Y-83248609D02*
X115234836Y-83343847D01*
X115234836Y-83343847D02*
X115234836Y-83581942D01*
X115234836Y-83581942D02*
X115187217Y-83677180D01*
X115187217Y-83677180D02*
X115139598Y-83724800D01*
X115139598Y-83724800D02*
X115044360Y-83772419D01*
X115044360Y-83772419D02*
X114758646Y-83772419D01*
X114758646Y-83772419D02*
X114663408Y-83724800D01*
X114663408Y-83724800D02*
X114615789Y-83677180D01*
X115615789Y-82867657D02*
X115663408Y-82820038D01*
X115663408Y-82820038D02*
X115758646Y-82772419D01*
X115758646Y-82772419D02*
X115996741Y-82772419D01*
X115996741Y-82772419D02*
X116091979Y-82820038D01*
X116091979Y-82820038D02*
X116139598Y-82867657D01*
X116139598Y-82867657D02*
X116187217Y-82962895D01*
X116187217Y-82962895D02*
X116187217Y-83058133D01*
X116187217Y-83058133D02*
X116139598Y-83200990D01*
X116139598Y-83200990D02*
X115568170Y-83772419D01*
X115568170Y-83772419D02*
X116187217Y-83772419D01*
X117282456Y-82772419D02*
X117520551Y-83772419D01*
X117520551Y-83772419D02*
X117711027Y-83058133D01*
X117711027Y-83058133D02*
X117901503Y-83772419D01*
X117901503Y-83772419D02*
X118139599Y-82772419D01*
X119091979Y-83772419D02*
X118758646Y-83296228D01*
X118520551Y-83772419D02*
X118520551Y-82772419D01*
X118520551Y-82772419D02*
X118901503Y-82772419D01*
X118901503Y-82772419D02*
X118996741Y-82820038D01*
X118996741Y-82820038D02*
X119044360Y-82867657D01*
X119044360Y-82867657D02*
X119091979Y-82962895D01*
X119091979Y-82962895D02*
X119091979Y-83105752D01*
X119091979Y-83105752D02*
X119044360Y-83200990D01*
X119044360Y-83200990D02*
X118996741Y-83248609D01*
X118996741Y-83248609D02*
X118901503Y-83296228D01*
X118901503Y-83296228D02*
X118520551Y-83296228D01*
X119711027Y-82772419D02*
X119901503Y-82772419D01*
X119901503Y-82772419D02*
X119996741Y-82820038D01*
X119996741Y-82820038D02*
X120091979Y-82915276D01*
X120091979Y-82915276D02*
X120139598Y-83105752D01*
X120139598Y-83105752D02*
X120139598Y-83439085D01*
X120139598Y-83439085D02*
X120091979Y-83629561D01*
X120091979Y-83629561D02*
X119996741Y-83724800D01*
X119996741Y-83724800D02*
X119901503Y-83772419D01*
X119901503Y-83772419D02*
X119711027Y-83772419D01*
X119711027Y-83772419D02*
X119615789Y-83724800D01*
X119615789Y-83724800D02*
X119520551Y-83629561D01*
X119520551Y-83629561D02*
X119472932Y-83439085D01*
X119472932Y-83439085D02*
X119472932Y-83105752D01*
X119472932Y-83105752D02*
X119520551Y-82915276D01*
X119520551Y-82915276D02*
X119615789Y-82820038D01*
X119615789Y-82820038D02*
X119711027Y-82772419D01*
X120758646Y-82772419D02*
X120949122Y-82772419D01*
X120949122Y-82772419D02*
X121044360Y-82820038D01*
X121044360Y-82820038D02*
X121139598Y-82915276D01*
X121139598Y-82915276D02*
X121187217Y-83105752D01*
X121187217Y-83105752D02*
X121187217Y-83439085D01*
X121187217Y-83439085D02*
X121139598Y-83629561D01*
X121139598Y-83629561D02*
X121044360Y-83724800D01*
X121044360Y-83724800D02*
X120949122Y-83772419D01*
X120949122Y-83772419D02*
X120758646Y-83772419D01*
X120758646Y-83772419D02*
X120663408Y-83724800D01*
X120663408Y-83724800D02*
X120568170Y-83629561D01*
X120568170Y-83629561D02*
X120520551Y-83439085D01*
X120520551Y-83439085D02*
X120520551Y-83105752D01*
X120520551Y-83105752D02*
X120568170Y-82915276D01*
X120568170Y-82915276D02*
X120663408Y-82820038D01*
X120663408Y-82820038D02*
X120758646Y-82772419D01*
X121615789Y-83772419D02*
X121615789Y-82772419D01*
X121615789Y-82772419D02*
X121949122Y-83486704D01*
X121949122Y-83486704D02*
X122282455Y-82772419D01*
X122282455Y-82772419D02*
X122282455Y-83772419D01*
X96898884Y-93922419D02*
X96898884Y-92922419D01*
X96898884Y-92922419D02*
X97279836Y-92922419D01*
X97279836Y-92922419D02*
X97375074Y-92970038D01*
X97375074Y-92970038D02*
X97422693Y-93017657D01*
X97422693Y-93017657D02*
X97470312Y-93112895D01*
X97470312Y-93112895D02*
X97470312Y-93255752D01*
X97470312Y-93255752D02*
X97422693Y-93350990D01*
X97422693Y-93350990D02*
X97375074Y-93398609D01*
X97375074Y-93398609D02*
X97279836Y-93446228D01*
X97279836Y-93446228D02*
X96898884Y-93446228D01*
X98041741Y-93922419D02*
X97946503Y-93874800D01*
X97946503Y-93874800D02*
X97898884Y-93827180D01*
X97898884Y-93827180D02*
X97851265Y-93731942D01*
X97851265Y-93731942D02*
X97851265Y-93446228D01*
X97851265Y-93446228D02*
X97898884Y-93350990D01*
X97898884Y-93350990D02*
X97946503Y-93303371D01*
X97946503Y-93303371D02*
X98041741Y-93255752D01*
X98041741Y-93255752D02*
X98184598Y-93255752D01*
X98184598Y-93255752D02*
X98279836Y-93303371D01*
X98279836Y-93303371D02*
X98327455Y-93350990D01*
X98327455Y-93350990D02*
X98375074Y-93446228D01*
X98375074Y-93446228D02*
X98375074Y-93731942D01*
X98375074Y-93731942D02*
X98327455Y-93827180D01*
X98327455Y-93827180D02*
X98279836Y-93874800D01*
X98279836Y-93874800D02*
X98184598Y-93922419D01*
X98184598Y-93922419D02*
X98041741Y-93922419D01*
X98708408Y-93255752D02*
X98898884Y-93922419D01*
X98898884Y-93922419D02*
X99089360Y-93446228D01*
X99089360Y-93446228D02*
X99279836Y-93922419D01*
X99279836Y-93922419D02*
X99470312Y-93255752D01*
X100232217Y-93874800D02*
X100136979Y-93922419D01*
X100136979Y-93922419D02*
X99946503Y-93922419D01*
X99946503Y-93922419D02*
X99851265Y-93874800D01*
X99851265Y-93874800D02*
X99803646Y-93779561D01*
X99803646Y-93779561D02*
X99803646Y-93398609D01*
X99803646Y-93398609D02*
X99851265Y-93303371D01*
X99851265Y-93303371D02*
X99946503Y-93255752D01*
X99946503Y-93255752D02*
X100136979Y-93255752D01*
X100136979Y-93255752D02*
X100232217Y-93303371D01*
X100232217Y-93303371D02*
X100279836Y-93398609D01*
X100279836Y-93398609D02*
X100279836Y-93493847D01*
X100279836Y-93493847D02*
X99803646Y-93589085D01*
X100708408Y-93922419D02*
X100708408Y-93255752D01*
X100708408Y-93446228D02*
X100756027Y-93350990D01*
X100756027Y-93350990D02*
X100803646Y-93303371D01*
X100803646Y-93303371D02*
X100898884Y-93255752D01*
X100898884Y-93255752D02*
X100994122Y-93255752D01*
X102517932Y-93874800D02*
X102422694Y-93922419D01*
X102422694Y-93922419D02*
X102232218Y-93922419D01*
X102232218Y-93922419D02*
X102136980Y-93874800D01*
X102136980Y-93874800D02*
X102089361Y-93827180D01*
X102089361Y-93827180D02*
X102041742Y-93731942D01*
X102041742Y-93731942D02*
X102041742Y-93446228D01*
X102041742Y-93446228D02*
X102089361Y-93350990D01*
X102089361Y-93350990D02*
X102136980Y-93303371D01*
X102136980Y-93303371D02*
X102232218Y-93255752D01*
X102232218Y-93255752D02*
X102422694Y-93255752D01*
X102422694Y-93255752D02*
X102517932Y-93303371D01*
X103375075Y-93255752D02*
X103375075Y-93922419D01*
X102946504Y-93255752D02*
X102946504Y-93779561D01*
X102946504Y-93779561D02*
X102994123Y-93874800D01*
X102994123Y-93874800D02*
X103089361Y-93922419D01*
X103089361Y-93922419D02*
X103232218Y-93922419D01*
X103232218Y-93922419D02*
X103327456Y-93874800D01*
X103327456Y-93874800D02*
X103375075Y-93827180D01*
X103851266Y-93922419D02*
X103851266Y-93255752D01*
X103851266Y-93446228D02*
X103898885Y-93350990D01*
X103898885Y-93350990D02*
X103946504Y-93303371D01*
X103946504Y-93303371D02*
X104041742Y-93255752D01*
X104041742Y-93255752D02*
X104136980Y-93255752D01*
X104898885Y-93874800D02*
X104803647Y-93922419D01*
X104803647Y-93922419D02*
X104613171Y-93922419D01*
X104613171Y-93922419D02*
X104517933Y-93874800D01*
X104517933Y-93874800D02*
X104470314Y-93827180D01*
X104470314Y-93827180D02*
X104422695Y-93731942D01*
X104422695Y-93731942D02*
X104422695Y-93446228D01*
X104422695Y-93446228D02*
X104470314Y-93350990D01*
X104470314Y-93350990D02*
X104517933Y-93303371D01*
X104517933Y-93303371D02*
X104613171Y-93255752D01*
X104613171Y-93255752D02*
X104803647Y-93255752D01*
X104803647Y-93255752D02*
X104898885Y-93303371D01*
X105327457Y-93922419D02*
X105327457Y-93255752D01*
X105327457Y-92922419D02*
X105279838Y-92970038D01*
X105279838Y-92970038D02*
X105327457Y-93017657D01*
X105327457Y-93017657D02*
X105375076Y-92970038D01*
X105375076Y-92970038D02*
X105327457Y-92922419D01*
X105327457Y-92922419D02*
X105327457Y-93017657D01*
X106232218Y-93922419D02*
X106232218Y-92922419D01*
X106232218Y-93874800D02*
X106136980Y-93922419D01*
X106136980Y-93922419D02*
X105946504Y-93922419D01*
X105946504Y-93922419D02*
X105851266Y-93874800D01*
X105851266Y-93874800D02*
X105803647Y-93827180D01*
X105803647Y-93827180D02*
X105756028Y-93731942D01*
X105756028Y-93731942D02*
X105756028Y-93446228D01*
X105756028Y-93446228D02*
X105803647Y-93350990D01*
X105803647Y-93350990D02*
X105851266Y-93303371D01*
X105851266Y-93303371D02*
X105946504Y-93255752D01*
X105946504Y-93255752D02*
X106136980Y-93255752D01*
X106136980Y-93255752D02*
X106232218Y-93303371D01*
X96700000Y-70100000D02*
X106650000Y-70100000D01*
X106650000Y-92550000D01*
X96700000Y-92550000D01*
X96700000Y-70100000D01*
X131377693Y-92120038D02*
X131282455Y-92072419D01*
X131282455Y-92072419D02*
X131139598Y-92072419D01*
X131139598Y-92072419D02*
X130996741Y-92120038D01*
X130996741Y-92120038D02*
X130901503Y-92215276D01*
X130901503Y-92215276D02*
X130853884Y-92310514D01*
X130853884Y-92310514D02*
X130806265Y-92500990D01*
X130806265Y-92500990D02*
X130806265Y-92643847D01*
X130806265Y-92643847D02*
X130853884Y-92834323D01*
X130853884Y-92834323D02*
X130901503Y-92929561D01*
X130901503Y-92929561D02*
X130996741Y-93024800D01*
X130996741Y-93024800D02*
X131139598Y-93072419D01*
X131139598Y-93072419D02*
X131234836Y-93072419D01*
X131234836Y-93072419D02*
X131377693Y-93024800D01*
X131377693Y-93024800D02*
X131425312Y-92977180D01*
X131425312Y-92977180D02*
X131425312Y-92643847D01*
X131425312Y-92643847D02*
X131234836Y-92643847D01*
X131853884Y-93072419D02*
X131853884Y-92072419D01*
X131853884Y-92072419D02*
X132234836Y-92072419D01*
X132234836Y-92072419D02*
X132330074Y-92120038D01*
X132330074Y-92120038D02*
X132377693Y-92167657D01*
X132377693Y-92167657D02*
X132425312Y-92262895D01*
X132425312Y-92262895D02*
X132425312Y-92405752D01*
X132425312Y-92405752D02*
X132377693Y-92500990D01*
X132377693Y-92500990D02*
X132330074Y-92548609D01*
X132330074Y-92548609D02*
X132234836Y-92596228D01*
X132234836Y-92596228D02*
X131853884Y-92596228D01*
X132853884Y-93072419D02*
X132853884Y-92072419D01*
X133520550Y-92072419D02*
X133711026Y-92072419D01*
X133711026Y-92072419D02*
X133806264Y-92120038D01*
X133806264Y-92120038D02*
X133901502Y-92215276D01*
X133901502Y-92215276D02*
X133949121Y-92405752D01*
X133949121Y-92405752D02*
X133949121Y-92739085D01*
X133949121Y-92739085D02*
X133901502Y-92929561D01*
X133901502Y-92929561D02*
X133806264Y-93024800D01*
X133806264Y-93024800D02*
X133711026Y-93072419D01*
X133711026Y-93072419D02*
X133520550Y-93072419D01*
X133520550Y-93072419D02*
X133425312Y-93024800D01*
X133425312Y-93024800D02*
X133330074Y-92929561D01*
X133330074Y-92929561D02*
X133282455Y-92739085D01*
X133282455Y-92739085D02*
X133282455Y-92405752D01*
X133282455Y-92405752D02*
X133330074Y-92215276D01*
X133330074Y-92215276D02*
X133425312Y-92120038D01*
X133425312Y-92120038D02*
X133520550Y-92072419D01*
X127700000Y-69100000D02*
X136250000Y-69100000D01*
X136250000Y-91700000D01*
X127700000Y-91700000D01*
X127700000Y-69100000D01*
X103403884Y-95622419D02*
X103403884Y-94622419D01*
X103832455Y-94717657D02*
X103880074Y-94670038D01*
X103880074Y-94670038D02*
X103975312Y-94622419D01*
X103975312Y-94622419D02*
X104213407Y-94622419D01*
X104213407Y-94622419D02*
X104308645Y-94670038D01*
X104308645Y-94670038D02*
X104356264Y-94717657D01*
X104356264Y-94717657D02*
X104403883Y-94812895D01*
X104403883Y-94812895D02*
X104403883Y-94908133D01*
X104403883Y-94908133D02*
X104356264Y-95050990D01*
X104356264Y-95050990D02*
X103784836Y-95622419D01*
X103784836Y-95622419D02*
X104403883Y-95622419D01*
X105261026Y-95574800D02*
X105165788Y-95622419D01*
X105165788Y-95622419D02*
X104975312Y-95622419D01*
X104975312Y-95622419D02*
X104880074Y-95574800D01*
X104880074Y-95574800D02*
X104832455Y-95527180D01*
X104832455Y-95527180D02*
X104784836Y-95431942D01*
X104784836Y-95431942D02*
X104784836Y-95146228D01*
X104784836Y-95146228D02*
X104832455Y-95050990D01*
X104832455Y-95050990D02*
X104880074Y-95003371D01*
X104880074Y-95003371D02*
X104975312Y-94955752D01*
X104975312Y-94955752D02*
X105165788Y-94955752D01*
X105165788Y-94955752D02*
X105261026Y-95003371D01*
X106451503Y-95622419D02*
X106451503Y-94622419D01*
X106451503Y-94622419D02*
X106689598Y-94622419D01*
X106689598Y-94622419D02*
X106832455Y-94670038D01*
X106832455Y-94670038D02*
X106927693Y-94765276D01*
X106927693Y-94765276D02*
X106975312Y-94860514D01*
X106975312Y-94860514D02*
X107022931Y-95050990D01*
X107022931Y-95050990D02*
X107022931Y-95193847D01*
X107022931Y-95193847D02*
X106975312Y-95384323D01*
X106975312Y-95384323D02*
X106927693Y-95479561D01*
X106927693Y-95479561D02*
X106832455Y-95574800D01*
X106832455Y-95574800D02*
X106689598Y-95622419D01*
X106689598Y-95622419D02*
X106451503Y-95622419D01*
X107403884Y-95336704D02*
X107880074Y-95336704D01*
X107308646Y-95622419D02*
X107641979Y-94622419D01*
X107641979Y-94622419D02*
X107975312Y-95622419D01*
X108880074Y-95527180D02*
X108832455Y-95574800D01*
X108832455Y-95574800D02*
X108689598Y-95622419D01*
X108689598Y-95622419D02*
X108594360Y-95622419D01*
X108594360Y-95622419D02*
X108451503Y-95574800D01*
X108451503Y-95574800D02*
X108356265Y-95479561D01*
X108356265Y-95479561D02*
X108308646Y-95384323D01*
X108308646Y-95384323D02*
X108261027Y-95193847D01*
X108261027Y-95193847D02*
X108261027Y-95050990D01*
X108261027Y-95050990D02*
X108308646Y-94860514D01*
X108308646Y-94860514D02*
X108356265Y-94765276D01*
X108356265Y-94765276D02*
X108451503Y-94670038D01*
X108451503Y-94670038D02*
X108594360Y-94622419D01*
X108594360Y-94622419D02*
X108689598Y-94622419D01*
X108689598Y-94622419D02*
X108832455Y-94670038D01*
X108832455Y-94670038D02*
X108880074Y-94717657D01*
X96595000Y-96550000D02*
X117800000Y-96550000D01*
X117800000Y-131150000D01*
X96595000Y-131150000D01*
X96595000Y-96550000D01*
X123453884Y-94922419D02*
X123453884Y-95731942D01*
X123453884Y-95731942D02*
X123501503Y-95827180D01*
X123501503Y-95827180D02*
X123549122Y-95874800D01*
X123549122Y-95874800D02*
X123644360Y-95922419D01*
X123644360Y-95922419D02*
X123834836Y-95922419D01*
X123834836Y-95922419D02*
X123930074Y-95874800D01*
X123930074Y-95874800D02*
X123977693Y-95827180D01*
X123977693Y-95827180D02*
X124025312Y-95731942D01*
X124025312Y-95731942D02*
X124025312Y-94922419D01*
X124453884Y-95874800D02*
X124596741Y-95922419D01*
X124596741Y-95922419D02*
X124834836Y-95922419D01*
X124834836Y-95922419D02*
X124930074Y-95874800D01*
X124930074Y-95874800D02*
X124977693Y-95827180D01*
X124977693Y-95827180D02*
X125025312Y-95731942D01*
X125025312Y-95731942D02*
X125025312Y-95636704D01*
X125025312Y-95636704D02*
X124977693Y-95541466D01*
X124977693Y-95541466D02*
X124930074Y-95493847D01*
X124930074Y-95493847D02*
X124834836Y-95446228D01*
X124834836Y-95446228D02*
X124644360Y-95398609D01*
X124644360Y-95398609D02*
X124549122Y-95350990D01*
X124549122Y-95350990D02*
X124501503Y-95303371D01*
X124501503Y-95303371D02*
X124453884Y-95208133D01*
X124453884Y-95208133D02*
X124453884Y-95112895D01*
X124453884Y-95112895D02*
X124501503Y-95017657D01*
X124501503Y-95017657D02*
X124549122Y-94970038D01*
X124549122Y-94970038D02*
X124644360Y-94922419D01*
X124644360Y-94922419D02*
X124882455Y-94922419D01*
X124882455Y-94922419D02*
X125025312Y-94970038D01*
X125787217Y-95398609D02*
X125930074Y-95446228D01*
X125930074Y-95446228D02*
X125977693Y-95493847D01*
X125977693Y-95493847D02*
X126025312Y-95589085D01*
X126025312Y-95589085D02*
X126025312Y-95731942D01*
X126025312Y-95731942D02*
X125977693Y-95827180D01*
X125977693Y-95827180D02*
X125930074Y-95874800D01*
X125930074Y-95874800D02*
X125834836Y-95922419D01*
X125834836Y-95922419D02*
X125453884Y-95922419D01*
X125453884Y-95922419D02*
X125453884Y-94922419D01*
X125453884Y-94922419D02*
X125787217Y-94922419D01*
X125787217Y-94922419D02*
X125882455Y-94970038D01*
X125882455Y-94970038D02*
X125930074Y-95017657D01*
X125930074Y-95017657D02*
X125977693Y-95112895D01*
X125977693Y-95112895D02*
X125977693Y-95208133D01*
X125977693Y-95208133D02*
X125930074Y-95303371D01*
X125930074Y-95303371D02*
X125882455Y-95350990D01*
X125882455Y-95350990D02*
X125787217Y-95398609D01*
X125787217Y-95398609D02*
X125453884Y-95398609D01*
X127072932Y-95255752D02*
X127453884Y-95255752D01*
X127215789Y-94922419D02*
X127215789Y-95779561D01*
X127215789Y-95779561D02*
X127263408Y-95874800D01*
X127263408Y-95874800D02*
X127358646Y-95922419D01*
X127358646Y-95922419D02*
X127453884Y-95922419D01*
X127930075Y-95922419D02*
X127834837Y-95874800D01*
X127834837Y-95874800D02*
X127787218Y-95827180D01*
X127787218Y-95827180D02*
X127739599Y-95731942D01*
X127739599Y-95731942D02*
X127739599Y-95446228D01*
X127739599Y-95446228D02*
X127787218Y-95350990D01*
X127787218Y-95350990D02*
X127834837Y-95303371D01*
X127834837Y-95303371D02*
X127930075Y-95255752D01*
X127930075Y-95255752D02*
X128072932Y-95255752D01*
X128072932Y-95255752D02*
X128168170Y-95303371D01*
X128168170Y-95303371D02*
X128215789Y-95350990D01*
X128215789Y-95350990D02*
X128263408Y-95446228D01*
X128263408Y-95446228D02*
X128263408Y-95731942D01*
X128263408Y-95731942D02*
X128215789Y-95827180D01*
X128215789Y-95827180D02*
X128168170Y-95874800D01*
X128168170Y-95874800D02*
X128072932Y-95922419D01*
X128072932Y-95922419D02*
X127930075Y-95922419D01*
X129406266Y-95874800D02*
X129501504Y-95922419D01*
X129501504Y-95922419D02*
X129691980Y-95922419D01*
X129691980Y-95922419D02*
X129787218Y-95874800D01*
X129787218Y-95874800D02*
X129834837Y-95779561D01*
X129834837Y-95779561D02*
X129834837Y-95731942D01*
X129834837Y-95731942D02*
X129787218Y-95636704D01*
X129787218Y-95636704D02*
X129691980Y-95589085D01*
X129691980Y-95589085D02*
X129549123Y-95589085D01*
X129549123Y-95589085D02*
X129453885Y-95541466D01*
X129453885Y-95541466D02*
X129406266Y-95446228D01*
X129406266Y-95446228D02*
X129406266Y-95398609D01*
X129406266Y-95398609D02*
X129453885Y-95303371D01*
X129453885Y-95303371D02*
X129549123Y-95255752D01*
X129549123Y-95255752D02*
X129691980Y-95255752D01*
X129691980Y-95255752D02*
X129787218Y-95303371D01*
X130644361Y-95874800D02*
X130549123Y-95922419D01*
X130549123Y-95922419D02*
X130358647Y-95922419D01*
X130358647Y-95922419D02*
X130263409Y-95874800D01*
X130263409Y-95874800D02*
X130215790Y-95779561D01*
X130215790Y-95779561D02*
X130215790Y-95398609D01*
X130215790Y-95398609D02*
X130263409Y-95303371D01*
X130263409Y-95303371D02*
X130358647Y-95255752D01*
X130358647Y-95255752D02*
X130549123Y-95255752D01*
X130549123Y-95255752D02*
X130644361Y-95303371D01*
X130644361Y-95303371D02*
X130691980Y-95398609D01*
X130691980Y-95398609D02*
X130691980Y-95493847D01*
X130691980Y-95493847D02*
X130215790Y-95589085D01*
X131120552Y-95922419D02*
X131120552Y-95255752D01*
X131120552Y-95446228D02*
X131168171Y-95350990D01*
X131168171Y-95350990D02*
X131215790Y-95303371D01*
X131215790Y-95303371D02*
X131311028Y-95255752D01*
X131311028Y-95255752D02*
X131406266Y-95255752D01*
X131739600Y-95922419D02*
X131739600Y-95255752D01*
X131739600Y-94922419D02*
X131691981Y-94970038D01*
X131691981Y-94970038D02*
X131739600Y-95017657D01*
X131739600Y-95017657D02*
X131787219Y-94970038D01*
X131787219Y-94970038D02*
X131739600Y-94922419D01*
X131739600Y-94922419D02*
X131739600Y-95017657D01*
X132644361Y-95922419D02*
X132644361Y-95398609D01*
X132644361Y-95398609D02*
X132596742Y-95303371D01*
X132596742Y-95303371D02*
X132501504Y-95255752D01*
X132501504Y-95255752D02*
X132311028Y-95255752D01*
X132311028Y-95255752D02*
X132215790Y-95303371D01*
X132644361Y-95874800D02*
X132549123Y-95922419D01*
X132549123Y-95922419D02*
X132311028Y-95922419D01*
X132311028Y-95922419D02*
X132215790Y-95874800D01*
X132215790Y-95874800D02*
X132168171Y-95779561D01*
X132168171Y-95779561D02*
X132168171Y-95684323D01*
X132168171Y-95684323D02*
X132215790Y-95589085D01*
X132215790Y-95589085D02*
X132311028Y-95541466D01*
X132311028Y-95541466D02*
X132549123Y-95541466D01*
X132549123Y-95541466D02*
X132644361Y-95493847D01*
X133263409Y-95922419D02*
X133168171Y-95874800D01*
X133168171Y-95874800D02*
X133120552Y-95779561D01*
X133120552Y-95779561D02*
X133120552Y-94922419D01*
X119700000Y-96500000D02*
X136050000Y-96500000D01*
X136050000Y-131150000D01*
X119700000Y-131150000D01*
X119700000Y-96500000D01*
X184582455Y-90124800D02*
X184487217Y-90172419D01*
X184487217Y-90172419D02*
X184296741Y-90172419D01*
X184296741Y-90172419D02*
X184201503Y-90124800D01*
X184201503Y-90124800D02*
X184153884Y-90077180D01*
X184153884Y-90077180D02*
X184106265Y-89981942D01*
X184106265Y-89981942D02*
X184106265Y-89696228D01*
X184106265Y-89696228D02*
X184153884Y-89600990D01*
X184153884Y-89600990D02*
X184201503Y-89553371D01*
X184201503Y-89553371D02*
X184296741Y-89505752D01*
X184296741Y-89505752D02*
X184487217Y-89505752D01*
X184487217Y-89505752D02*
X184582455Y-89553371D01*
X185011027Y-90172419D02*
X185011027Y-89172419D01*
X185439598Y-90172419D02*
X185439598Y-89648609D01*
X185439598Y-89648609D02*
X185391979Y-89553371D01*
X185391979Y-89553371D02*
X185296741Y-89505752D01*
X185296741Y-89505752D02*
X185153884Y-89505752D01*
X185153884Y-89505752D02*
X185058646Y-89553371D01*
X185058646Y-89553371D02*
X185011027Y-89600990D01*
X186344360Y-90172419D02*
X186344360Y-89648609D01*
X186344360Y-89648609D02*
X186296741Y-89553371D01*
X186296741Y-89553371D02*
X186201503Y-89505752D01*
X186201503Y-89505752D02*
X186011027Y-89505752D01*
X186011027Y-89505752D02*
X185915789Y-89553371D01*
X186344360Y-90124800D02*
X186249122Y-90172419D01*
X186249122Y-90172419D02*
X186011027Y-90172419D01*
X186011027Y-90172419D02*
X185915789Y-90124800D01*
X185915789Y-90124800D02*
X185868170Y-90029561D01*
X185868170Y-90029561D02*
X185868170Y-89934323D01*
X185868170Y-89934323D02*
X185915789Y-89839085D01*
X185915789Y-89839085D02*
X186011027Y-89791466D01*
X186011027Y-89791466D02*
X186249122Y-89791466D01*
X186249122Y-89791466D02*
X186344360Y-89743847D01*
X186820551Y-90172419D02*
X186820551Y-89505752D01*
X186820551Y-89696228D02*
X186868170Y-89600990D01*
X186868170Y-89600990D02*
X186915789Y-89553371D01*
X186915789Y-89553371D02*
X187011027Y-89505752D01*
X187011027Y-89505752D02*
X187106265Y-89505752D01*
X187868170Y-89505752D02*
X187868170Y-90315276D01*
X187868170Y-90315276D02*
X187820551Y-90410514D01*
X187820551Y-90410514D02*
X187772932Y-90458133D01*
X187772932Y-90458133D02*
X187677694Y-90505752D01*
X187677694Y-90505752D02*
X187534837Y-90505752D01*
X187534837Y-90505752D02*
X187439599Y-90458133D01*
X187868170Y-90124800D02*
X187772932Y-90172419D01*
X187772932Y-90172419D02*
X187582456Y-90172419D01*
X187582456Y-90172419D02*
X187487218Y-90124800D01*
X187487218Y-90124800D02*
X187439599Y-90077180D01*
X187439599Y-90077180D02*
X187391980Y-89981942D01*
X187391980Y-89981942D02*
X187391980Y-89696228D01*
X187391980Y-89696228D02*
X187439599Y-89600990D01*
X187439599Y-89600990D02*
X187487218Y-89553371D01*
X187487218Y-89553371D02*
X187582456Y-89505752D01*
X187582456Y-89505752D02*
X187772932Y-89505752D01*
X187772932Y-89505752D02*
X187868170Y-89553371D01*
X188725313Y-90124800D02*
X188630075Y-90172419D01*
X188630075Y-90172419D02*
X188439599Y-90172419D01*
X188439599Y-90172419D02*
X188344361Y-90124800D01*
X188344361Y-90124800D02*
X188296742Y-90029561D01*
X188296742Y-90029561D02*
X188296742Y-89648609D01*
X188296742Y-89648609D02*
X188344361Y-89553371D01*
X188344361Y-89553371D02*
X188439599Y-89505752D01*
X188439599Y-89505752D02*
X188630075Y-89505752D01*
X188630075Y-89505752D02*
X188725313Y-89553371D01*
X188725313Y-89553371D02*
X188772932Y-89648609D01*
X188772932Y-89648609D02*
X188772932Y-89743847D01*
X188772932Y-89743847D02*
X188296742Y-89839085D01*
X180600000Y-90700000D02*
X191350000Y-90700000D01*
X191350000Y-107800000D01*
X180600000Y-107800000D01*
X180600000Y-90700000D01*
X171153884Y-94472419D02*
X171153884Y-93472419D01*
X171153884Y-93472419D02*
X171391979Y-93472419D01*
X171391979Y-93472419D02*
X171534836Y-93520038D01*
X171534836Y-93520038D02*
X171630074Y-93615276D01*
X171630074Y-93615276D02*
X171677693Y-93710514D01*
X171677693Y-93710514D02*
X171725312Y-93900990D01*
X171725312Y-93900990D02*
X171725312Y-94043847D01*
X171725312Y-94043847D02*
X171677693Y-94234323D01*
X171677693Y-94234323D02*
X171630074Y-94329561D01*
X171630074Y-94329561D02*
X171534836Y-94424800D01*
X171534836Y-94424800D02*
X171391979Y-94472419D01*
X171391979Y-94472419D02*
X171153884Y-94472419D01*
X172153884Y-94472419D02*
X172153884Y-93805752D01*
X172153884Y-93472419D02*
X172106265Y-93520038D01*
X172106265Y-93520038D02*
X172153884Y-93567657D01*
X172153884Y-93567657D02*
X172201503Y-93520038D01*
X172201503Y-93520038D02*
X172153884Y-93472419D01*
X172153884Y-93472419D02*
X172153884Y-93567657D01*
X172582455Y-94424800D02*
X172677693Y-94472419D01*
X172677693Y-94472419D02*
X172868169Y-94472419D01*
X172868169Y-94472419D02*
X172963407Y-94424800D01*
X172963407Y-94424800D02*
X173011026Y-94329561D01*
X173011026Y-94329561D02*
X173011026Y-94281942D01*
X173011026Y-94281942D02*
X172963407Y-94186704D01*
X172963407Y-94186704D02*
X172868169Y-94139085D01*
X172868169Y-94139085D02*
X172725312Y-94139085D01*
X172725312Y-94139085D02*
X172630074Y-94091466D01*
X172630074Y-94091466D02*
X172582455Y-93996228D01*
X172582455Y-93996228D02*
X172582455Y-93948609D01*
X172582455Y-93948609D02*
X172630074Y-93853371D01*
X172630074Y-93853371D02*
X172725312Y-93805752D01*
X172725312Y-93805752D02*
X172868169Y-93805752D01*
X172868169Y-93805752D02*
X172963407Y-93853371D01*
X173868169Y-94424800D02*
X173772931Y-94472419D01*
X173772931Y-94472419D02*
X173582455Y-94472419D01*
X173582455Y-94472419D02*
X173487217Y-94424800D01*
X173487217Y-94424800D02*
X173439598Y-94377180D01*
X173439598Y-94377180D02*
X173391979Y-94281942D01*
X173391979Y-94281942D02*
X173391979Y-93996228D01*
X173391979Y-93996228D02*
X173439598Y-93900990D01*
X173439598Y-93900990D02*
X173487217Y-93853371D01*
X173487217Y-93853371D02*
X173582455Y-93805752D01*
X173582455Y-93805752D02*
X173772931Y-93805752D01*
X173772931Y-93805752D02*
X173868169Y-93853371D01*
X174296741Y-94472419D02*
X174296741Y-93472419D01*
X174725312Y-94472419D02*
X174725312Y-93948609D01*
X174725312Y-93948609D02*
X174677693Y-93853371D01*
X174677693Y-93853371D02*
X174582455Y-93805752D01*
X174582455Y-93805752D02*
X174439598Y-93805752D01*
X174439598Y-93805752D02*
X174344360Y-93853371D01*
X174344360Y-93853371D02*
X174296741Y-93900990D01*
X175630074Y-94472419D02*
X175630074Y-93948609D01*
X175630074Y-93948609D02*
X175582455Y-93853371D01*
X175582455Y-93853371D02*
X175487217Y-93805752D01*
X175487217Y-93805752D02*
X175296741Y-93805752D01*
X175296741Y-93805752D02*
X175201503Y-93853371D01*
X175630074Y-94424800D02*
X175534836Y-94472419D01*
X175534836Y-94472419D02*
X175296741Y-94472419D01*
X175296741Y-94472419D02*
X175201503Y-94424800D01*
X175201503Y-94424800D02*
X175153884Y-94329561D01*
X175153884Y-94329561D02*
X175153884Y-94234323D01*
X175153884Y-94234323D02*
X175201503Y-94139085D01*
X175201503Y-94139085D02*
X175296741Y-94091466D01*
X175296741Y-94091466D02*
X175534836Y-94091466D01*
X175534836Y-94091466D02*
X175630074Y-94043847D01*
X176106265Y-94472419D02*
X176106265Y-93805752D01*
X176106265Y-93996228D02*
X176153884Y-93900990D01*
X176153884Y-93900990D02*
X176201503Y-93853371D01*
X176201503Y-93853371D02*
X176296741Y-93805752D01*
X176296741Y-93805752D02*
X176391979Y-93805752D01*
X177153884Y-93805752D02*
X177153884Y-94615276D01*
X177153884Y-94615276D02*
X177106265Y-94710514D01*
X177106265Y-94710514D02*
X177058646Y-94758133D01*
X177058646Y-94758133D02*
X176963408Y-94805752D01*
X176963408Y-94805752D02*
X176820551Y-94805752D01*
X176820551Y-94805752D02*
X176725313Y-94758133D01*
X177153884Y-94424800D02*
X177058646Y-94472419D01*
X177058646Y-94472419D02*
X176868170Y-94472419D01*
X176868170Y-94472419D02*
X176772932Y-94424800D01*
X176772932Y-94424800D02*
X176725313Y-94377180D01*
X176725313Y-94377180D02*
X176677694Y-94281942D01*
X176677694Y-94281942D02*
X176677694Y-93996228D01*
X176677694Y-93996228D02*
X176725313Y-93900990D01*
X176725313Y-93900990D02*
X176772932Y-93853371D01*
X176772932Y-93853371D02*
X176868170Y-93805752D01*
X176868170Y-93805752D02*
X177058646Y-93805752D01*
X177058646Y-93805752D02*
X177153884Y-93853371D01*
X178011027Y-94424800D02*
X177915789Y-94472419D01*
X177915789Y-94472419D02*
X177725313Y-94472419D01*
X177725313Y-94472419D02*
X177630075Y-94424800D01*
X177630075Y-94424800D02*
X177582456Y-94329561D01*
X177582456Y-94329561D02*
X177582456Y-93948609D01*
X177582456Y-93948609D02*
X177630075Y-93853371D01*
X177630075Y-93853371D02*
X177725313Y-93805752D01*
X177725313Y-93805752D02*
X177915789Y-93805752D01*
X177915789Y-93805752D02*
X178011027Y-93853371D01*
X178011027Y-93853371D02*
X178058646Y-93948609D01*
X178058646Y-93948609D02*
X178058646Y-94043847D01*
X178058646Y-94043847D02*
X177582456Y-94139085D01*
X168500000Y-95050000D02*
X179500000Y-95050000D01*
X179500000Y-105300000D01*
X168500000Y-105300000D01*
X168500000Y-95050000D01*
X169187217Y-113438665D02*
X169330074Y-113486284D01*
X169330074Y-113486284D02*
X169377693Y-113533903D01*
X169377693Y-113533903D02*
X169425312Y-113629141D01*
X169425312Y-113629141D02*
X169425312Y-113771998D01*
X169425312Y-113771998D02*
X169377693Y-113867236D01*
X169377693Y-113867236D02*
X169330074Y-113914856D01*
X169330074Y-113914856D02*
X169234836Y-113962475D01*
X169234836Y-113962475D02*
X168853884Y-113962475D01*
X168853884Y-113962475D02*
X168853884Y-112962475D01*
X168853884Y-112962475D02*
X169187217Y-112962475D01*
X169187217Y-112962475D02*
X169282455Y-113010094D01*
X169282455Y-113010094D02*
X169330074Y-113057713D01*
X169330074Y-113057713D02*
X169377693Y-113152951D01*
X169377693Y-113152951D02*
X169377693Y-113248189D01*
X169377693Y-113248189D02*
X169330074Y-113343427D01*
X169330074Y-113343427D02*
X169282455Y-113391046D01*
X169282455Y-113391046D02*
X169187217Y-113438665D01*
X169187217Y-113438665D02*
X168853884Y-113438665D01*
X170282455Y-113962475D02*
X170282455Y-113438665D01*
X170282455Y-113438665D02*
X170234836Y-113343427D01*
X170234836Y-113343427D02*
X170139598Y-113295808D01*
X170139598Y-113295808D02*
X169949122Y-113295808D01*
X169949122Y-113295808D02*
X169853884Y-113343427D01*
X170282455Y-113914856D02*
X170187217Y-113962475D01*
X170187217Y-113962475D02*
X169949122Y-113962475D01*
X169949122Y-113962475D02*
X169853884Y-113914856D01*
X169853884Y-113914856D02*
X169806265Y-113819617D01*
X169806265Y-113819617D02*
X169806265Y-113724379D01*
X169806265Y-113724379D02*
X169853884Y-113629141D01*
X169853884Y-113629141D02*
X169949122Y-113581522D01*
X169949122Y-113581522D02*
X170187217Y-113581522D01*
X170187217Y-113581522D02*
X170282455Y-113533903D01*
X170615789Y-113295808D02*
X170996741Y-113295808D01*
X170758646Y-112962475D02*
X170758646Y-113819617D01*
X170758646Y-113819617D02*
X170806265Y-113914856D01*
X170806265Y-113914856D02*
X170901503Y-113962475D01*
X170901503Y-113962475D02*
X170996741Y-113962475D01*
X171187218Y-113295808D02*
X171568170Y-113295808D01*
X171330075Y-112962475D02*
X171330075Y-113819617D01*
X171330075Y-113819617D02*
X171377694Y-113914856D01*
X171377694Y-113914856D02*
X171472932Y-113962475D01*
X171472932Y-113962475D02*
X171568170Y-113962475D01*
X172282456Y-113914856D02*
X172187218Y-113962475D01*
X172187218Y-113962475D02*
X171996742Y-113962475D01*
X171996742Y-113962475D02*
X171901504Y-113914856D01*
X171901504Y-113914856D02*
X171853885Y-113819617D01*
X171853885Y-113819617D02*
X171853885Y-113438665D01*
X171853885Y-113438665D02*
X171901504Y-113343427D01*
X171901504Y-113343427D02*
X171996742Y-113295808D01*
X171996742Y-113295808D02*
X172187218Y-113295808D01*
X172187218Y-113295808D02*
X172282456Y-113343427D01*
X172282456Y-113343427D02*
X172330075Y-113438665D01*
X172330075Y-113438665D02*
X172330075Y-113533903D01*
X172330075Y-113533903D02*
X171853885Y-113629141D01*
X172758647Y-113962475D02*
X172758647Y-113295808D01*
X172758647Y-113486284D02*
X172806266Y-113391046D01*
X172806266Y-113391046D02*
X172853885Y-113343427D01*
X172853885Y-113343427D02*
X172949123Y-113295808D01*
X172949123Y-113295808D02*
X173044361Y-113295808D01*
X173282457Y-113295808D02*
X173520552Y-113962475D01*
X173758647Y-113295808D02*
X173520552Y-113962475D01*
X173520552Y-113962475D02*
X173425314Y-114200570D01*
X173425314Y-114200570D02*
X173377695Y-114248189D01*
X173377695Y-114248189D02*
X173282457Y-114295808D01*
X174758648Y-113295808D02*
X175139600Y-113295808D01*
X174901505Y-112962475D02*
X174901505Y-113819617D01*
X174901505Y-113819617D02*
X174949124Y-113914856D01*
X174949124Y-113914856D02*
X175044362Y-113962475D01*
X175044362Y-113962475D02*
X175139600Y-113962475D01*
X175615791Y-113962475D02*
X175520553Y-113914856D01*
X175520553Y-113914856D02*
X175472934Y-113867236D01*
X175472934Y-113867236D02*
X175425315Y-113771998D01*
X175425315Y-113771998D02*
X175425315Y-113486284D01*
X175425315Y-113486284D02*
X175472934Y-113391046D01*
X175472934Y-113391046D02*
X175520553Y-113343427D01*
X175520553Y-113343427D02*
X175615791Y-113295808D01*
X175615791Y-113295808D02*
X175758648Y-113295808D01*
X175758648Y-113295808D02*
X175853886Y-113343427D01*
X175853886Y-113343427D02*
X175901505Y-113391046D01*
X175901505Y-113391046D02*
X175949124Y-113486284D01*
X175949124Y-113486284D02*
X175949124Y-113771998D01*
X175949124Y-113771998D02*
X175901505Y-113867236D01*
X175901505Y-113867236D02*
X175853886Y-113914856D01*
X175853886Y-113914856D02*
X175758648Y-113962475D01*
X175758648Y-113962475D02*
X175615791Y-113962475D01*
X169282455Y-115572419D02*
X169282455Y-114572419D01*
X169282455Y-115524800D02*
X169187217Y-115572419D01*
X169187217Y-115572419D02*
X168996741Y-115572419D01*
X168996741Y-115572419D02*
X168901503Y-115524800D01*
X168901503Y-115524800D02*
X168853884Y-115477180D01*
X168853884Y-115477180D02*
X168806265Y-115381942D01*
X168806265Y-115381942D02*
X168806265Y-115096228D01*
X168806265Y-115096228D02*
X168853884Y-115000990D01*
X168853884Y-115000990D02*
X168901503Y-114953371D01*
X168901503Y-114953371D02*
X168996741Y-114905752D01*
X168996741Y-114905752D02*
X169187217Y-114905752D01*
X169187217Y-114905752D02*
X169282455Y-114953371D01*
X169758646Y-115572419D02*
X169758646Y-114905752D01*
X169758646Y-114572419D02*
X169711027Y-114620038D01*
X169711027Y-114620038D02*
X169758646Y-114667657D01*
X169758646Y-114667657D02*
X169806265Y-114620038D01*
X169806265Y-114620038D02*
X169758646Y-114572419D01*
X169758646Y-114572419D02*
X169758646Y-114667657D01*
X170187217Y-115524800D02*
X170282455Y-115572419D01*
X170282455Y-115572419D02*
X170472931Y-115572419D01*
X170472931Y-115572419D02*
X170568169Y-115524800D01*
X170568169Y-115524800D02*
X170615788Y-115429561D01*
X170615788Y-115429561D02*
X170615788Y-115381942D01*
X170615788Y-115381942D02*
X170568169Y-115286704D01*
X170568169Y-115286704D02*
X170472931Y-115239085D01*
X170472931Y-115239085D02*
X170330074Y-115239085D01*
X170330074Y-115239085D02*
X170234836Y-115191466D01*
X170234836Y-115191466D02*
X170187217Y-115096228D01*
X170187217Y-115096228D02*
X170187217Y-115048609D01*
X170187217Y-115048609D02*
X170234836Y-114953371D01*
X170234836Y-114953371D02*
X170330074Y-114905752D01*
X170330074Y-114905752D02*
X170472931Y-114905752D01*
X170472931Y-114905752D02*
X170568169Y-114953371D01*
X171472931Y-115524800D02*
X171377693Y-115572419D01*
X171377693Y-115572419D02*
X171187217Y-115572419D01*
X171187217Y-115572419D02*
X171091979Y-115524800D01*
X171091979Y-115524800D02*
X171044360Y-115477180D01*
X171044360Y-115477180D02*
X170996741Y-115381942D01*
X170996741Y-115381942D02*
X170996741Y-115096228D01*
X170996741Y-115096228D02*
X171044360Y-115000990D01*
X171044360Y-115000990D02*
X171091979Y-114953371D01*
X171091979Y-114953371D02*
X171187217Y-114905752D01*
X171187217Y-114905752D02*
X171377693Y-114905752D01*
X171377693Y-114905752D02*
X171472931Y-114953371D01*
X171901503Y-115572419D02*
X171901503Y-114572419D01*
X172330074Y-115572419D02*
X172330074Y-115048609D01*
X172330074Y-115048609D02*
X172282455Y-114953371D01*
X172282455Y-114953371D02*
X172187217Y-114905752D01*
X172187217Y-114905752D02*
X172044360Y-114905752D01*
X172044360Y-114905752D02*
X171949122Y-114953371D01*
X171949122Y-114953371D02*
X171901503Y-115000990D01*
X173234836Y-115572419D02*
X173234836Y-115048609D01*
X173234836Y-115048609D02*
X173187217Y-114953371D01*
X173187217Y-114953371D02*
X173091979Y-114905752D01*
X173091979Y-114905752D02*
X172901503Y-114905752D01*
X172901503Y-114905752D02*
X172806265Y-114953371D01*
X173234836Y-115524800D02*
X173139598Y-115572419D01*
X173139598Y-115572419D02*
X172901503Y-115572419D01*
X172901503Y-115572419D02*
X172806265Y-115524800D01*
X172806265Y-115524800D02*
X172758646Y-115429561D01*
X172758646Y-115429561D02*
X172758646Y-115334323D01*
X172758646Y-115334323D02*
X172806265Y-115239085D01*
X172806265Y-115239085D02*
X172901503Y-115191466D01*
X172901503Y-115191466D02*
X173139598Y-115191466D01*
X173139598Y-115191466D02*
X173234836Y-115143847D01*
X173711027Y-115572419D02*
X173711027Y-114905752D01*
X173711027Y-115096228D02*
X173758646Y-115000990D01*
X173758646Y-115000990D02*
X173806265Y-114953371D01*
X173806265Y-114953371D02*
X173901503Y-114905752D01*
X173901503Y-114905752D02*
X173996741Y-114905752D01*
X174758646Y-114905752D02*
X174758646Y-115715276D01*
X174758646Y-115715276D02*
X174711027Y-115810514D01*
X174711027Y-115810514D02*
X174663408Y-115858133D01*
X174663408Y-115858133D02*
X174568170Y-115905752D01*
X174568170Y-115905752D02*
X174425313Y-115905752D01*
X174425313Y-115905752D02*
X174330075Y-115858133D01*
X174758646Y-115524800D02*
X174663408Y-115572419D01*
X174663408Y-115572419D02*
X174472932Y-115572419D01*
X174472932Y-115572419D02*
X174377694Y-115524800D01*
X174377694Y-115524800D02*
X174330075Y-115477180D01*
X174330075Y-115477180D02*
X174282456Y-115381942D01*
X174282456Y-115381942D02*
X174282456Y-115096228D01*
X174282456Y-115096228D02*
X174330075Y-115000990D01*
X174330075Y-115000990D02*
X174377694Y-114953371D01*
X174377694Y-114953371D02*
X174472932Y-114905752D01*
X174472932Y-114905752D02*
X174663408Y-114905752D01*
X174663408Y-114905752D02*
X174758646Y-114953371D01*
X175615789Y-115524800D02*
X175520551Y-115572419D01*
X175520551Y-115572419D02*
X175330075Y-115572419D01*
X175330075Y-115572419D02*
X175234837Y-115524800D01*
X175234837Y-115524800D02*
X175187218Y-115429561D01*
X175187218Y-115429561D02*
X175187218Y-115048609D01*
X175187218Y-115048609D02*
X175234837Y-114953371D01*
X175234837Y-114953371D02*
X175330075Y-114905752D01*
X175330075Y-114905752D02*
X175520551Y-114905752D01*
X175520551Y-114905752D02*
X175615789Y-114953371D01*
X175615789Y-114953371D02*
X175663408Y-115048609D01*
X175663408Y-115048609D02*
X175663408Y-115143847D01*
X175663408Y-115143847D02*
X175187218Y-115239085D01*
X159387217Y-113548609D02*
X159530074Y-113596228D01*
X159530074Y-113596228D02*
X159577693Y-113643847D01*
X159577693Y-113643847D02*
X159625312Y-113739085D01*
X159625312Y-113739085D02*
X159625312Y-113881942D01*
X159625312Y-113881942D02*
X159577693Y-113977180D01*
X159577693Y-113977180D02*
X159530074Y-114024800D01*
X159530074Y-114024800D02*
X159434836Y-114072419D01*
X159434836Y-114072419D02*
X159053884Y-114072419D01*
X159053884Y-114072419D02*
X159053884Y-113072419D01*
X159053884Y-113072419D02*
X159387217Y-113072419D01*
X159387217Y-113072419D02*
X159482455Y-113120038D01*
X159482455Y-113120038D02*
X159530074Y-113167657D01*
X159530074Y-113167657D02*
X159577693Y-113262895D01*
X159577693Y-113262895D02*
X159577693Y-113358133D01*
X159577693Y-113358133D02*
X159530074Y-113453371D01*
X159530074Y-113453371D02*
X159482455Y-113500990D01*
X159482455Y-113500990D02*
X159387217Y-113548609D01*
X159387217Y-113548609D02*
X159053884Y-113548609D01*
X160482455Y-114072419D02*
X160482455Y-113548609D01*
X160482455Y-113548609D02*
X160434836Y-113453371D01*
X160434836Y-113453371D02*
X160339598Y-113405752D01*
X160339598Y-113405752D02*
X160149122Y-113405752D01*
X160149122Y-113405752D02*
X160053884Y-113453371D01*
X160482455Y-114024800D02*
X160387217Y-114072419D01*
X160387217Y-114072419D02*
X160149122Y-114072419D01*
X160149122Y-114072419D02*
X160053884Y-114024800D01*
X160053884Y-114024800D02*
X160006265Y-113929561D01*
X160006265Y-113929561D02*
X160006265Y-113834323D01*
X160006265Y-113834323D02*
X160053884Y-113739085D01*
X160053884Y-113739085D02*
X160149122Y-113691466D01*
X160149122Y-113691466D02*
X160387217Y-113691466D01*
X160387217Y-113691466D02*
X160482455Y-113643847D01*
X160815789Y-113405752D02*
X161196741Y-113405752D01*
X160958646Y-113072419D02*
X160958646Y-113929561D01*
X160958646Y-113929561D02*
X161006265Y-114024800D01*
X161006265Y-114024800D02*
X161101503Y-114072419D01*
X161101503Y-114072419D02*
X161196741Y-114072419D01*
X161387218Y-113405752D02*
X161768170Y-113405752D01*
X161530075Y-113072419D02*
X161530075Y-113929561D01*
X161530075Y-113929561D02*
X161577694Y-114024800D01*
X161577694Y-114024800D02*
X161672932Y-114072419D01*
X161672932Y-114072419D02*
X161768170Y-114072419D01*
X162482456Y-114024800D02*
X162387218Y-114072419D01*
X162387218Y-114072419D02*
X162196742Y-114072419D01*
X162196742Y-114072419D02*
X162101504Y-114024800D01*
X162101504Y-114024800D02*
X162053885Y-113929561D01*
X162053885Y-113929561D02*
X162053885Y-113548609D01*
X162053885Y-113548609D02*
X162101504Y-113453371D01*
X162101504Y-113453371D02*
X162196742Y-113405752D01*
X162196742Y-113405752D02*
X162387218Y-113405752D01*
X162387218Y-113405752D02*
X162482456Y-113453371D01*
X162482456Y-113453371D02*
X162530075Y-113548609D01*
X162530075Y-113548609D02*
X162530075Y-113643847D01*
X162530075Y-113643847D02*
X162053885Y-113739085D01*
X162958647Y-114072419D02*
X162958647Y-113405752D01*
X162958647Y-113596228D02*
X163006266Y-113500990D01*
X163006266Y-113500990D02*
X163053885Y-113453371D01*
X163053885Y-113453371D02*
X163149123Y-113405752D01*
X163149123Y-113405752D02*
X163244361Y-113405752D01*
X163482457Y-113405752D02*
X163720552Y-114072419D01*
X163958647Y-113405752D02*
X163720552Y-114072419D01*
X163720552Y-114072419D02*
X163625314Y-114310514D01*
X163625314Y-114310514D02*
X163577695Y-114358133D01*
X163577695Y-114358133D02*
X163482457Y-114405752D01*
X165101505Y-114072419D02*
X165101505Y-113072419D01*
X165577695Y-114072419D02*
X165577695Y-113072419D01*
X165577695Y-113072419D02*
X166149123Y-114072419D01*
X166149123Y-114072419D02*
X166149123Y-113072419D01*
X179837217Y-125798609D02*
X179980074Y-125846228D01*
X179980074Y-125846228D02*
X180027693Y-125893847D01*
X180027693Y-125893847D02*
X180075312Y-125989085D01*
X180075312Y-125989085D02*
X180075312Y-126131942D01*
X180075312Y-126131942D02*
X180027693Y-126227180D01*
X180027693Y-126227180D02*
X179980074Y-126274800D01*
X179980074Y-126274800D02*
X179884836Y-126322419D01*
X179884836Y-126322419D02*
X179503884Y-126322419D01*
X179503884Y-126322419D02*
X179503884Y-125322419D01*
X179503884Y-125322419D02*
X179837217Y-125322419D01*
X179837217Y-125322419D02*
X179932455Y-125370038D01*
X179932455Y-125370038D02*
X179980074Y-125417657D01*
X179980074Y-125417657D02*
X180027693Y-125512895D01*
X180027693Y-125512895D02*
X180027693Y-125608133D01*
X180027693Y-125608133D02*
X179980074Y-125703371D01*
X179980074Y-125703371D02*
X179932455Y-125750990D01*
X179932455Y-125750990D02*
X179837217Y-125798609D01*
X179837217Y-125798609D02*
X179503884Y-125798609D01*
X180932455Y-126322419D02*
X180932455Y-125798609D01*
X180932455Y-125798609D02*
X180884836Y-125703371D01*
X180884836Y-125703371D02*
X180789598Y-125655752D01*
X180789598Y-125655752D02*
X180599122Y-125655752D01*
X180599122Y-125655752D02*
X180503884Y-125703371D01*
X180932455Y-126274800D02*
X180837217Y-126322419D01*
X180837217Y-126322419D02*
X180599122Y-126322419D01*
X180599122Y-126322419D02*
X180503884Y-126274800D01*
X180503884Y-126274800D02*
X180456265Y-126179561D01*
X180456265Y-126179561D02*
X180456265Y-126084323D01*
X180456265Y-126084323D02*
X180503884Y-125989085D01*
X180503884Y-125989085D02*
X180599122Y-125941466D01*
X180599122Y-125941466D02*
X180837217Y-125941466D01*
X180837217Y-125941466D02*
X180932455Y-125893847D01*
X181265789Y-125655752D02*
X181646741Y-125655752D01*
X181408646Y-125322419D02*
X181408646Y-126179561D01*
X181408646Y-126179561D02*
X181456265Y-126274800D01*
X181456265Y-126274800D02*
X181551503Y-126322419D01*
X181551503Y-126322419D02*
X181646741Y-126322419D01*
X181837218Y-125655752D02*
X182218170Y-125655752D01*
X181980075Y-125322419D02*
X181980075Y-126179561D01*
X181980075Y-126179561D02*
X182027694Y-126274800D01*
X182027694Y-126274800D02*
X182122932Y-126322419D01*
X182122932Y-126322419D02*
X182218170Y-126322419D01*
X182932456Y-126274800D02*
X182837218Y-126322419D01*
X182837218Y-126322419D02*
X182646742Y-126322419D01*
X182646742Y-126322419D02*
X182551504Y-126274800D01*
X182551504Y-126274800D02*
X182503885Y-126179561D01*
X182503885Y-126179561D02*
X182503885Y-125798609D01*
X182503885Y-125798609D02*
X182551504Y-125703371D01*
X182551504Y-125703371D02*
X182646742Y-125655752D01*
X182646742Y-125655752D02*
X182837218Y-125655752D01*
X182837218Y-125655752D02*
X182932456Y-125703371D01*
X182932456Y-125703371D02*
X182980075Y-125798609D01*
X182980075Y-125798609D02*
X182980075Y-125893847D01*
X182980075Y-125893847D02*
X182503885Y-125989085D01*
X183408647Y-126322419D02*
X183408647Y-125655752D01*
X183408647Y-125846228D02*
X183456266Y-125750990D01*
X183456266Y-125750990D02*
X183503885Y-125703371D01*
X183503885Y-125703371D02*
X183599123Y-125655752D01*
X183599123Y-125655752D02*
X183694361Y-125655752D01*
X183932457Y-125655752D02*
X184170552Y-126322419D01*
X184408647Y-125655752D02*
X184170552Y-126322419D01*
X184170552Y-126322419D02*
X184075314Y-126560514D01*
X184075314Y-126560514D02*
X184027695Y-126608133D01*
X184027695Y-126608133D02*
X183932457Y-126655752D01*
D11*
X159990476Y-105454819D02*
X159990476Y-106169104D01*
X159990476Y-106169104D02*
X159942857Y-106311961D01*
X159942857Y-106311961D02*
X159847619Y-106407200D01*
X159847619Y-106407200D02*
X159704762Y-106454819D01*
X159704762Y-106454819D02*
X159609524Y-106454819D01*
X160990476Y-106454819D02*
X160419048Y-106454819D01*
X160704762Y-106454819D02*
X160704762Y-105454819D01*
X160704762Y-105454819D02*
X160609524Y-105597676D01*
X160609524Y-105597676D02*
X160514286Y-105692914D01*
X160514286Y-105692914D02*
X160419048Y-105740533D01*
X161942857Y-106454819D02*
X161371429Y-106454819D01*
X161657143Y-106454819D02*
X161657143Y-105454819D01*
X161657143Y-105454819D02*
X161561905Y-105597676D01*
X161561905Y-105597676D02*
X161466667Y-105692914D01*
X161466667Y-105692914D02*
X161371429Y-105740533D01*
X99904819Y-123979523D02*
X100619104Y-123979523D01*
X100619104Y-123979523D02*
X100761961Y-124027142D01*
X100761961Y-124027142D02*
X100857200Y-124122380D01*
X100857200Y-124122380D02*
X100904819Y-124265237D01*
X100904819Y-124265237D02*
X100904819Y-124360475D01*
X100904819Y-122979523D02*
X100904819Y-123550951D01*
X100904819Y-123265237D02*
X99904819Y-123265237D01*
X99904819Y-123265237D02*
X100047676Y-123360475D01*
X100047676Y-123360475D02*
X100142914Y-123455713D01*
X100142914Y-123455713D02*
X100190533Y-123550951D01*
X100333390Y-122408094D02*
X100285771Y-122503332D01*
X100285771Y-122503332D02*
X100238152Y-122550951D01*
X100238152Y-122550951D02*
X100142914Y-122598570D01*
X100142914Y-122598570D02*
X100095295Y-122598570D01*
X100095295Y-122598570D02*
X100000057Y-122550951D01*
X100000057Y-122550951D02*
X99952438Y-122503332D01*
X99952438Y-122503332D02*
X99904819Y-122408094D01*
X99904819Y-122408094D02*
X99904819Y-122217618D01*
X99904819Y-122217618D02*
X99952438Y-122122380D01*
X99952438Y-122122380D02*
X100000057Y-122074761D01*
X100000057Y-122074761D02*
X100095295Y-122027142D01*
X100095295Y-122027142D02*
X100142914Y-122027142D01*
X100142914Y-122027142D02*
X100238152Y-122074761D01*
X100238152Y-122074761D02*
X100285771Y-122122380D01*
X100285771Y-122122380D02*
X100333390Y-122217618D01*
X100333390Y-122217618D02*
X100333390Y-122408094D01*
X100333390Y-122408094D02*
X100381009Y-122503332D01*
X100381009Y-122503332D02*
X100428628Y-122550951D01*
X100428628Y-122550951D02*
X100523866Y-122598570D01*
X100523866Y-122598570D02*
X100714342Y-122598570D01*
X100714342Y-122598570D02*
X100809580Y-122550951D01*
X100809580Y-122550951D02*
X100857200Y-122503332D01*
X100857200Y-122503332D02*
X100904819Y-122408094D01*
X100904819Y-122408094D02*
X100904819Y-122217618D01*
X100904819Y-122217618D02*
X100857200Y-122122380D01*
X100857200Y-122122380D02*
X100809580Y-122074761D01*
X100809580Y-122074761D02*
X100714342Y-122027142D01*
X100714342Y-122027142D02*
X100523866Y-122027142D01*
X100523866Y-122027142D02*
X100428628Y-122074761D01*
X100428628Y-122074761D02*
X100381009Y-122122380D01*
X100381009Y-122122380D02*
X100333390Y-122217618D01*
X130333333Y-108104819D02*
X130000000Y-107628628D01*
X129761905Y-108104819D02*
X129761905Y-107104819D01*
X129761905Y-107104819D02*
X130142857Y-107104819D01*
X130142857Y-107104819D02*
X130238095Y-107152438D01*
X130238095Y-107152438D02*
X130285714Y-107200057D01*
X130285714Y-107200057D02*
X130333333Y-107295295D01*
X130333333Y-107295295D02*
X130333333Y-107438152D01*
X130333333Y-107438152D02*
X130285714Y-107533390D01*
X130285714Y-107533390D02*
X130238095Y-107581009D01*
X130238095Y-107581009D02*
X130142857Y-107628628D01*
X130142857Y-107628628D02*
X129761905Y-107628628D01*
X131190476Y-107438152D02*
X131190476Y-108104819D01*
X130952381Y-107057200D02*
X130714286Y-107771485D01*
X130714286Y-107771485D02*
X131333333Y-107771485D01*
X116207142Y-112914580D02*
X116159523Y-112962200D01*
X116159523Y-112962200D02*
X116016666Y-113009819D01*
X116016666Y-113009819D02*
X115921428Y-113009819D01*
X115921428Y-113009819D02*
X115778571Y-112962200D01*
X115778571Y-112962200D02*
X115683333Y-112866961D01*
X115683333Y-112866961D02*
X115635714Y-112771723D01*
X115635714Y-112771723D02*
X115588095Y-112581247D01*
X115588095Y-112581247D02*
X115588095Y-112438390D01*
X115588095Y-112438390D02*
X115635714Y-112247914D01*
X115635714Y-112247914D02*
X115683333Y-112152676D01*
X115683333Y-112152676D02*
X115778571Y-112057438D01*
X115778571Y-112057438D02*
X115921428Y-112009819D01*
X115921428Y-112009819D02*
X116016666Y-112009819D01*
X116016666Y-112009819D02*
X116159523Y-112057438D01*
X116159523Y-112057438D02*
X116207142Y-112105057D01*
X117159523Y-113009819D02*
X116588095Y-113009819D01*
X116873809Y-113009819D02*
X116873809Y-112009819D01*
X116873809Y-112009819D02*
X116778571Y-112152676D01*
X116778571Y-112152676D02*
X116683333Y-112247914D01*
X116683333Y-112247914D02*
X116588095Y-112295533D01*
X118111904Y-113009819D02*
X117540476Y-113009819D01*
X117826190Y-113009819D02*
X117826190Y-112009819D01*
X117826190Y-112009819D02*
X117730952Y-112152676D01*
X117730952Y-112152676D02*
X117635714Y-112247914D01*
X117635714Y-112247914D02*
X117540476Y-112295533D01*
X116153095Y-70904819D02*
X116153095Y-71714342D01*
X116153095Y-71714342D02*
X116200714Y-71809580D01*
X116200714Y-71809580D02*
X116248333Y-71857200D01*
X116248333Y-71857200D02*
X116343571Y-71904819D01*
X116343571Y-71904819D02*
X116534047Y-71904819D01*
X116534047Y-71904819D02*
X116629285Y-71857200D01*
X116629285Y-71857200D02*
X116676904Y-71809580D01*
X116676904Y-71809580D02*
X116724523Y-71714342D01*
X116724523Y-71714342D02*
X116724523Y-70904819D01*
X117153095Y-71000057D02*
X117200714Y-70952438D01*
X117200714Y-70952438D02*
X117295952Y-70904819D01*
X117295952Y-70904819D02*
X117534047Y-70904819D01*
X117534047Y-70904819D02*
X117629285Y-70952438D01*
X117629285Y-70952438D02*
X117676904Y-71000057D01*
X117676904Y-71000057D02*
X117724523Y-71095295D01*
X117724523Y-71095295D02*
X117724523Y-71190533D01*
X117724523Y-71190533D02*
X117676904Y-71333390D01*
X117676904Y-71333390D02*
X117105476Y-71904819D01*
X117105476Y-71904819D02*
X117724523Y-71904819D01*
X124666666Y-103204819D02*
X124666666Y-103919104D01*
X124666666Y-103919104D02*
X124619047Y-104061961D01*
X124619047Y-104061961D02*
X124523809Y-104157200D01*
X124523809Y-104157200D02*
X124380952Y-104204819D01*
X124380952Y-104204819D02*
X124285714Y-104204819D01*
X125571428Y-103538152D02*
X125571428Y-104204819D01*
X125333333Y-103157200D02*
X125095238Y-103871485D01*
X125095238Y-103871485D02*
X125714285Y-103871485D01*
X184061905Y-96254819D02*
X184061905Y-95254819D01*
X184061905Y-95254819D02*
X184300000Y-95254819D01*
X184300000Y-95254819D02*
X184442857Y-95302438D01*
X184442857Y-95302438D02*
X184538095Y-95397676D01*
X184538095Y-95397676D02*
X184585714Y-95492914D01*
X184585714Y-95492914D02*
X184633333Y-95683390D01*
X184633333Y-95683390D02*
X184633333Y-95826247D01*
X184633333Y-95826247D02*
X184585714Y-96016723D01*
X184585714Y-96016723D02*
X184538095Y-96111961D01*
X184538095Y-96111961D02*
X184442857Y-96207200D01*
X184442857Y-96207200D02*
X184300000Y-96254819D01*
X184300000Y-96254819D02*
X184061905Y-96254819D01*
X185014286Y-95350057D02*
X185061905Y-95302438D01*
X185061905Y-95302438D02*
X185157143Y-95254819D01*
X185157143Y-95254819D02*
X185395238Y-95254819D01*
X185395238Y-95254819D02*
X185490476Y-95302438D01*
X185490476Y-95302438D02*
X185538095Y-95350057D01*
X185538095Y-95350057D02*
X185585714Y-95445295D01*
X185585714Y-95445295D02*
X185585714Y-95540533D01*
X185585714Y-95540533D02*
X185538095Y-95683390D01*
X185538095Y-95683390D02*
X184966667Y-96254819D01*
X184966667Y-96254819D02*
X185585714Y-96254819D01*
X102359580Y-72166666D02*
X102407200Y-72214285D01*
X102407200Y-72214285D02*
X102454819Y-72357142D01*
X102454819Y-72357142D02*
X102454819Y-72452380D01*
X102454819Y-72452380D02*
X102407200Y-72595237D01*
X102407200Y-72595237D02*
X102311961Y-72690475D01*
X102311961Y-72690475D02*
X102216723Y-72738094D01*
X102216723Y-72738094D02*
X102026247Y-72785713D01*
X102026247Y-72785713D02*
X101883390Y-72785713D01*
X101883390Y-72785713D02*
X101692914Y-72738094D01*
X101692914Y-72738094D02*
X101597676Y-72690475D01*
X101597676Y-72690475D02*
X101502438Y-72595237D01*
X101502438Y-72595237D02*
X101454819Y-72452380D01*
X101454819Y-72452380D02*
X101454819Y-72357142D01*
X101454819Y-72357142D02*
X101502438Y-72214285D01*
X101502438Y-72214285D02*
X101550057Y-72166666D01*
X102454819Y-71690475D02*
X102454819Y-71499999D01*
X102454819Y-71499999D02*
X102407200Y-71404761D01*
X102407200Y-71404761D02*
X102359580Y-71357142D01*
X102359580Y-71357142D02*
X102216723Y-71261904D01*
X102216723Y-71261904D02*
X102026247Y-71214285D01*
X102026247Y-71214285D02*
X101645295Y-71214285D01*
X101645295Y-71214285D02*
X101550057Y-71261904D01*
X101550057Y-71261904D02*
X101502438Y-71309523D01*
X101502438Y-71309523D02*
X101454819Y-71404761D01*
X101454819Y-71404761D02*
X101454819Y-71595237D01*
X101454819Y-71595237D02*
X101502438Y-71690475D01*
X101502438Y-71690475D02*
X101550057Y-71738094D01*
X101550057Y-71738094D02*
X101645295Y-71785713D01*
X101645295Y-71785713D02*
X101883390Y-71785713D01*
X101883390Y-71785713D02*
X101978628Y-71738094D01*
X101978628Y-71738094D02*
X102026247Y-71690475D01*
X102026247Y-71690475D02*
X102073866Y-71595237D01*
X102073866Y-71595237D02*
X102073866Y-71404761D01*
X102073866Y-71404761D02*
X102026247Y-71309523D01*
X102026247Y-71309523D02*
X101978628Y-71261904D01*
X101978628Y-71261904D02*
X101883390Y-71214285D01*
X172238095Y-102604819D02*
X172238095Y-103414342D01*
X172238095Y-103414342D02*
X172285714Y-103509580D01*
X172285714Y-103509580D02*
X172333333Y-103557200D01*
X172333333Y-103557200D02*
X172428571Y-103604819D01*
X172428571Y-103604819D02*
X172619047Y-103604819D01*
X172619047Y-103604819D02*
X172714285Y-103557200D01*
X172714285Y-103557200D02*
X172761904Y-103509580D01*
X172761904Y-103509580D02*
X172809523Y-103414342D01*
X172809523Y-103414342D02*
X172809523Y-102604819D01*
X173714285Y-102604819D02*
X173523809Y-102604819D01*
X173523809Y-102604819D02*
X173428571Y-102652438D01*
X173428571Y-102652438D02*
X173380952Y-102700057D01*
X173380952Y-102700057D02*
X173285714Y-102842914D01*
X173285714Y-102842914D02*
X173238095Y-103033390D01*
X173238095Y-103033390D02*
X173238095Y-103414342D01*
X173238095Y-103414342D02*
X173285714Y-103509580D01*
X173285714Y-103509580D02*
X173333333Y-103557200D01*
X173333333Y-103557200D02*
X173428571Y-103604819D01*
X173428571Y-103604819D02*
X173619047Y-103604819D01*
X173619047Y-103604819D02*
X173714285Y-103557200D01*
X173714285Y-103557200D02*
X173761904Y-103509580D01*
X173761904Y-103509580D02*
X173809523Y-103414342D01*
X173809523Y-103414342D02*
X173809523Y-103176247D01*
X173809523Y-103176247D02*
X173761904Y-103081009D01*
X173761904Y-103081009D02*
X173714285Y-103033390D01*
X173714285Y-103033390D02*
X173619047Y-102985771D01*
X173619047Y-102985771D02*
X173428571Y-102985771D01*
X173428571Y-102985771D02*
X173333333Y-103033390D01*
X173333333Y-103033390D02*
X173285714Y-103081009D01*
X173285714Y-103081009D02*
X173238095Y-103176247D01*
X133654761Y-109550057D02*
X133559523Y-109502438D01*
X133559523Y-109502438D02*
X133464285Y-109407200D01*
X133464285Y-109407200D02*
X133321428Y-109264342D01*
X133321428Y-109264342D02*
X133226190Y-109216723D01*
X133226190Y-109216723D02*
X133130952Y-109216723D01*
X133178571Y-109454819D02*
X133083333Y-109407200D01*
X133083333Y-109407200D02*
X132988095Y-109311961D01*
X132988095Y-109311961D02*
X132940476Y-109121485D01*
X132940476Y-109121485D02*
X132940476Y-108788152D01*
X132940476Y-108788152D02*
X132988095Y-108597676D01*
X132988095Y-108597676D02*
X133083333Y-108502438D01*
X133083333Y-108502438D02*
X133178571Y-108454819D01*
X133178571Y-108454819D02*
X133369047Y-108454819D01*
X133369047Y-108454819D02*
X133464285Y-108502438D01*
X133464285Y-108502438D02*
X133559523Y-108597676D01*
X133559523Y-108597676D02*
X133607142Y-108788152D01*
X133607142Y-108788152D02*
X133607142Y-109121485D01*
X133607142Y-109121485D02*
X133559523Y-109311961D01*
X133559523Y-109311961D02*
X133464285Y-109407200D01*
X133464285Y-109407200D02*
X133369047Y-109454819D01*
X133369047Y-109454819D02*
X133178571Y-109454819D01*
X134559523Y-109454819D02*
X133988095Y-109454819D01*
X134273809Y-109454819D02*
X134273809Y-108454819D01*
X134273809Y-108454819D02*
X134178571Y-108597676D01*
X134178571Y-108597676D02*
X134083333Y-108692914D01*
X134083333Y-108692914D02*
X133988095Y-108740533D01*
X114740476Y-100004819D02*
X114740476Y-100719104D01*
X114740476Y-100719104D02*
X114692857Y-100861961D01*
X114692857Y-100861961D02*
X114597619Y-100957200D01*
X114597619Y-100957200D02*
X114454762Y-101004819D01*
X114454762Y-101004819D02*
X114359524Y-101004819D01*
X115740476Y-101004819D02*
X115169048Y-101004819D01*
X115454762Y-101004819D02*
X115454762Y-100004819D01*
X115454762Y-100004819D02*
X115359524Y-100147676D01*
X115359524Y-100147676D02*
X115264286Y-100242914D01*
X115264286Y-100242914D02*
X115169048Y-100290533D01*
X116073810Y-100004819D02*
X116692857Y-100004819D01*
X116692857Y-100004819D02*
X116359524Y-100385771D01*
X116359524Y-100385771D02*
X116502381Y-100385771D01*
X116502381Y-100385771D02*
X116597619Y-100433390D01*
X116597619Y-100433390D02*
X116645238Y-100481009D01*
X116645238Y-100481009D02*
X116692857Y-100576247D01*
X116692857Y-100576247D02*
X116692857Y-100814342D01*
X116692857Y-100814342D02*
X116645238Y-100909580D01*
X116645238Y-100909580D02*
X116597619Y-100957200D01*
X116597619Y-100957200D02*
X116502381Y-101004819D01*
X116502381Y-101004819D02*
X116216667Y-101004819D01*
X116216667Y-101004819D02*
X116121429Y-100957200D01*
X116121429Y-100957200D02*
X116073810Y-100909580D01*
X103483333Y-87139580D02*
X103435714Y-87187200D01*
X103435714Y-87187200D02*
X103292857Y-87234819D01*
X103292857Y-87234819D02*
X103197619Y-87234819D01*
X103197619Y-87234819D02*
X103054762Y-87187200D01*
X103054762Y-87187200D02*
X102959524Y-87091961D01*
X102959524Y-87091961D02*
X102911905Y-86996723D01*
X102911905Y-86996723D02*
X102864286Y-86806247D01*
X102864286Y-86806247D02*
X102864286Y-86663390D01*
X102864286Y-86663390D02*
X102911905Y-86472914D01*
X102911905Y-86472914D02*
X102959524Y-86377676D01*
X102959524Y-86377676D02*
X103054762Y-86282438D01*
X103054762Y-86282438D02*
X103197619Y-86234819D01*
X103197619Y-86234819D02*
X103292857Y-86234819D01*
X103292857Y-86234819D02*
X103435714Y-86282438D01*
X103435714Y-86282438D02*
X103483333Y-86330057D01*
X103864286Y-86330057D02*
X103911905Y-86282438D01*
X103911905Y-86282438D02*
X104007143Y-86234819D01*
X104007143Y-86234819D02*
X104245238Y-86234819D01*
X104245238Y-86234819D02*
X104340476Y-86282438D01*
X104340476Y-86282438D02*
X104388095Y-86330057D01*
X104388095Y-86330057D02*
X104435714Y-86425295D01*
X104435714Y-86425295D02*
X104435714Y-86520533D01*
X104435714Y-86520533D02*
X104388095Y-86663390D01*
X104388095Y-86663390D02*
X103816667Y-87234819D01*
X103816667Y-87234819D02*
X104435714Y-87234819D01*
X163590476Y-105004819D02*
X163590476Y-105719104D01*
X163590476Y-105719104D02*
X163542857Y-105861961D01*
X163542857Y-105861961D02*
X163447619Y-105957200D01*
X163447619Y-105957200D02*
X163304762Y-106004819D01*
X163304762Y-106004819D02*
X163209524Y-106004819D01*
X164590476Y-106004819D02*
X164019048Y-106004819D01*
X164304762Y-106004819D02*
X164304762Y-105004819D01*
X164304762Y-105004819D02*
X164209524Y-105147676D01*
X164209524Y-105147676D02*
X164114286Y-105242914D01*
X164114286Y-105242914D02*
X164019048Y-105290533D01*
X164923810Y-105004819D02*
X165590476Y-105004819D01*
X165590476Y-105004819D02*
X165161905Y-106004819D01*
X173454761Y-98200057D02*
X173359523Y-98152438D01*
X173359523Y-98152438D02*
X173264285Y-98057200D01*
X173264285Y-98057200D02*
X173121428Y-97914342D01*
X173121428Y-97914342D02*
X173026190Y-97866723D01*
X173026190Y-97866723D02*
X172930952Y-97866723D01*
X172978571Y-98104819D02*
X172883333Y-98057200D01*
X172883333Y-98057200D02*
X172788095Y-97961961D01*
X172788095Y-97961961D02*
X172740476Y-97771485D01*
X172740476Y-97771485D02*
X172740476Y-97438152D01*
X172740476Y-97438152D02*
X172788095Y-97247676D01*
X172788095Y-97247676D02*
X172883333Y-97152438D01*
X172883333Y-97152438D02*
X172978571Y-97104819D01*
X172978571Y-97104819D02*
X173169047Y-97104819D01*
X173169047Y-97104819D02*
X173264285Y-97152438D01*
X173264285Y-97152438D02*
X173359523Y-97247676D01*
X173359523Y-97247676D02*
X173407142Y-97438152D01*
X173407142Y-97438152D02*
X173407142Y-97771485D01*
X173407142Y-97771485D02*
X173359523Y-97961961D01*
X173359523Y-97961961D02*
X173264285Y-98057200D01*
X173264285Y-98057200D02*
X173169047Y-98104819D01*
X173169047Y-98104819D02*
X172978571Y-98104819D01*
X173740476Y-97104819D02*
X174359523Y-97104819D01*
X174359523Y-97104819D02*
X174026190Y-97485771D01*
X174026190Y-97485771D02*
X174169047Y-97485771D01*
X174169047Y-97485771D02*
X174264285Y-97533390D01*
X174264285Y-97533390D02*
X174311904Y-97581009D01*
X174311904Y-97581009D02*
X174359523Y-97676247D01*
X174359523Y-97676247D02*
X174359523Y-97914342D01*
X174359523Y-97914342D02*
X174311904Y-98009580D01*
X174311904Y-98009580D02*
X174264285Y-98057200D01*
X174264285Y-98057200D02*
X174169047Y-98104819D01*
X174169047Y-98104819D02*
X173883333Y-98104819D01*
X173883333Y-98104819D02*
X173788095Y-98057200D01*
X173788095Y-98057200D02*
X173740476Y-98009580D01*
X133681666Y-85364819D02*
X133681666Y-86079104D01*
X133681666Y-86079104D02*
X133634047Y-86221961D01*
X133634047Y-86221961D02*
X133538809Y-86317200D01*
X133538809Y-86317200D02*
X133395952Y-86364819D01*
X133395952Y-86364819D02*
X133300714Y-86364819D01*
X134062619Y-85364819D02*
X134681666Y-85364819D01*
X134681666Y-85364819D02*
X134348333Y-85745771D01*
X134348333Y-85745771D02*
X134491190Y-85745771D01*
X134491190Y-85745771D02*
X134586428Y-85793390D01*
X134586428Y-85793390D02*
X134634047Y-85841009D01*
X134634047Y-85841009D02*
X134681666Y-85936247D01*
X134681666Y-85936247D02*
X134681666Y-86174342D01*
X134681666Y-86174342D02*
X134634047Y-86269580D01*
X134634047Y-86269580D02*
X134586428Y-86317200D01*
X134586428Y-86317200D02*
X134491190Y-86364819D01*
X134491190Y-86364819D02*
X134205476Y-86364819D01*
X134205476Y-86364819D02*
X134110238Y-86317200D01*
X134110238Y-86317200D02*
X134062619Y-86269580D01*
X182483333Y-98154819D02*
X182150000Y-97678628D01*
X181911905Y-98154819D02*
X181911905Y-97154819D01*
X181911905Y-97154819D02*
X182292857Y-97154819D01*
X182292857Y-97154819D02*
X182388095Y-97202438D01*
X182388095Y-97202438D02*
X182435714Y-97250057D01*
X182435714Y-97250057D02*
X182483333Y-97345295D01*
X182483333Y-97345295D02*
X182483333Y-97488152D01*
X182483333Y-97488152D02*
X182435714Y-97583390D01*
X182435714Y-97583390D02*
X182388095Y-97631009D01*
X182388095Y-97631009D02*
X182292857Y-97678628D01*
X182292857Y-97678628D02*
X181911905Y-97678628D01*
X183388095Y-97154819D02*
X182911905Y-97154819D01*
X182911905Y-97154819D02*
X182864286Y-97631009D01*
X182864286Y-97631009D02*
X182911905Y-97583390D01*
X182911905Y-97583390D02*
X183007143Y-97535771D01*
X183007143Y-97535771D02*
X183245238Y-97535771D01*
X183245238Y-97535771D02*
X183340476Y-97583390D01*
X183340476Y-97583390D02*
X183388095Y-97631009D01*
X183388095Y-97631009D02*
X183435714Y-97726247D01*
X183435714Y-97726247D02*
X183435714Y-97964342D01*
X183435714Y-97964342D02*
X183388095Y-98059580D01*
X183388095Y-98059580D02*
X183340476Y-98107200D01*
X183340476Y-98107200D02*
X183245238Y-98154819D01*
X183245238Y-98154819D02*
X183007143Y-98154819D01*
X183007143Y-98154819D02*
X182911905Y-98107200D01*
X182911905Y-98107200D02*
X182864286Y-98059580D01*
X112407142Y-120789580D02*
X112359523Y-120837200D01*
X112359523Y-120837200D02*
X112216666Y-120884819D01*
X112216666Y-120884819D02*
X112121428Y-120884819D01*
X112121428Y-120884819D02*
X111978571Y-120837200D01*
X111978571Y-120837200D02*
X111883333Y-120741961D01*
X111883333Y-120741961D02*
X111835714Y-120646723D01*
X111835714Y-120646723D02*
X111788095Y-120456247D01*
X111788095Y-120456247D02*
X111788095Y-120313390D01*
X111788095Y-120313390D02*
X111835714Y-120122914D01*
X111835714Y-120122914D02*
X111883333Y-120027676D01*
X111883333Y-120027676D02*
X111978571Y-119932438D01*
X111978571Y-119932438D02*
X112121428Y-119884819D01*
X112121428Y-119884819D02*
X112216666Y-119884819D01*
X112216666Y-119884819D02*
X112359523Y-119932438D01*
X112359523Y-119932438D02*
X112407142Y-119980057D01*
X113359523Y-120884819D02*
X112788095Y-120884819D01*
X113073809Y-120884819D02*
X113073809Y-119884819D01*
X113073809Y-119884819D02*
X112978571Y-120027676D01*
X112978571Y-120027676D02*
X112883333Y-120122914D01*
X112883333Y-120122914D02*
X112788095Y-120170533D01*
X113978571Y-119884819D02*
X114073809Y-119884819D01*
X114073809Y-119884819D02*
X114169047Y-119932438D01*
X114169047Y-119932438D02*
X114216666Y-119980057D01*
X114216666Y-119980057D02*
X114264285Y-120075295D01*
X114264285Y-120075295D02*
X114311904Y-120265771D01*
X114311904Y-120265771D02*
X114311904Y-120503866D01*
X114311904Y-120503866D02*
X114264285Y-120694342D01*
X114264285Y-120694342D02*
X114216666Y-120789580D01*
X114216666Y-120789580D02*
X114169047Y-120837200D01*
X114169047Y-120837200D02*
X114073809Y-120884819D01*
X114073809Y-120884819D02*
X113978571Y-120884819D01*
X113978571Y-120884819D02*
X113883333Y-120837200D01*
X113883333Y-120837200D02*
X113835714Y-120789580D01*
X113835714Y-120789580D02*
X113788095Y-120694342D01*
X113788095Y-120694342D02*
X113740476Y-120503866D01*
X113740476Y-120503866D02*
X113740476Y-120265771D01*
X113740476Y-120265771D02*
X113788095Y-120075295D01*
X113788095Y-120075295D02*
X113835714Y-119980057D01*
X113835714Y-119980057D02*
X113883333Y-119932438D01*
X113883333Y-119932438D02*
X113978571Y-119884819D01*
X104738095Y-108354819D02*
X104738095Y-109164342D01*
X104738095Y-109164342D02*
X104785714Y-109259580D01*
X104785714Y-109259580D02*
X104833333Y-109307200D01*
X104833333Y-109307200D02*
X104928571Y-109354819D01*
X104928571Y-109354819D02*
X105119047Y-109354819D01*
X105119047Y-109354819D02*
X105214285Y-109307200D01*
X105214285Y-109307200D02*
X105261904Y-109259580D01*
X105261904Y-109259580D02*
X105309523Y-109164342D01*
X105309523Y-109164342D02*
X105309523Y-108354819D01*
X106261904Y-108354819D02*
X105785714Y-108354819D01*
X105785714Y-108354819D02*
X105738095Y-108831009D01*
X105738095Y-108831009D02*
X105785714Y-108783390D01*
X105785714Y-108783390D02*
X105880952Y-108735771D01*
X105880952Y-108735771D02*
X106119047Y-108735771D01*
X106119047Y-108735771D02*
X106214285Y-108783390D01*
X106214285Y-108783390D02*
X106261904Y-108831009D01*
X106261904Y-108831009D02*
X106309523Y-108926247D01*
X106309523Y-108926247D02*
X106309523Y-109164342D01*
X106309523Y-109164342D02*
X106261904Y-109259580D01*
X106261904Y-109259580D02*
X106214285Y-109307200D01*
X106214285Y-109307200D02*
X106119047Y-109354819D01*
X106119047Y-109354819D02*
X105880952Y-109354819D01*
X105880952Y-109354819D02*
X105785714Y-109307200D01*
X105785714Y-109307200D02*
X105738095Y-109259580D01*
X98416666Y-72354819D02*
X98416666Y-73069104D01*
X98416666Y-73069104D02*
X98369047Y-73211961D01*
X98369047Y-73211961D02*
X98273809Y-73307200D01*
X98273809Y-73307200D02*
X98130952Y-73354819D01*
X98130952Y-73354819D02*
X98035714Y-73354819D01*
X99035714Y-72783390D02*
X98940476Y-72735771D01*
X98940476Y-72735771D02*
X98892857Y-72688152D01*
X98892857Y-72688152D02*
X98845238Y-72592914D01*
X98845238Y-72592914D02*
X98845238Y-72545295D01*
X98845238Y-72545295D02*
X98892857Y-72450057D01*
X98892857Y-72450057D02*
X98940476Y-72402438D01*
X98940476Y-72402438D02*
X99035714Y-72354819D01*
X99035714Y-72354819D02*
X99226190Y-72354819D01*
X99226190Y-72354819D02*
X99321428Y-72402438D01*
X99321428Y-72402438D02*
X99369047Y-72450057D01*
X99369047Y-72450057D02*
X99416666Y-72545295D01*
X99416666Y-72545295D02*
X99416666Y-72592914D01*
X99416666Y-72592914D02*
X99369047Y-72688152D01*
X99369047Y-72688152D02*
X99321428Y-72735771D01*
X99321428Y-72735771D02*
X99226190Y-72783390D01*
X99226190Y-72783390D02*
X99035714Y-72783390D01*
X99035714Y-72783390D02*
X98940476Y-72831009D01*
X98940476Y-72831009D02*
X98892857Y-72878628D01*
X98892857Y-72878628D02*
X98845238Y-72973866D01*
X98845238Y-72973866D02*
X98845238Y-73164342D01*
X98845238Y-73164342D02*
X98892857Y-73259580D01*
X98892857Y-73259580D02*
X98940476Y-73307200D01*
X98940476Y-73307200D02*
X99035714Y-73354819D01*
X99035714Y-73354819D02*
X99226190Y-73354819D01*
X99226190Y-73354819D02*
X99321428Y-73307200D01*
X99321428Y-73307200D02*
X99369047Y-73259580D01*
X99369047Y-73259580D02*
X99416666Y-73164342D01*
X99416666Y-73164342D02*
X99416666Y-72973866D01*
X99416666Y-72973866D02*
X99369047Y-72878628D01*
X99369047Y-72878628D02*
X99321428Y-72831009D01*
X99321428Y-72831009D02*
X99226190Y-72783390D01*
X122254761Y-109550057D02*
X122159523Y-109502438D01*
X122159523Y-109502438D02*
X122064285Y-109407200D01*
X122064285Y-109407200D02*
X121921428Y-109264342D01*
X121921428Y-109264342D02*
X121826190Y-109216723D01*
X121826190Y-109216723D02*
X121730952Y-109216723D01*
X121778571Y-109454819D02*
X121683333Y-109407200D01*
X121683333Y-109407200D02*
X121588095Y-109311961D01*
X121588095Y-109311961D02*
X121540476Y-109121485D01*
X121540476Y-109121485D02*
X121540476Y-108788152D01*
X121540476Y-108788152D02*
X121588095Y-108597676D01*
X121588095Y-108597676D02*
X121683333Y-108502438D01*
X121683333Y-108502438D02*
X121778571Y-108454819D01*
X121778571Y-108454819D02*
X121969047Y-108454819D01*
X121969047Y-108454819D02*
X122064285Y-108502438D01*
X122064285Y-108502438D02*
X122159523Y-108597676D01*
X122159523Y-108597676D02*
X122207142Y-108788152D01*
X122207142Y-108788152D02*
X122207142Y-109121485D01*
X122207142Y-109121485D02*
X122159523Y-109311961D01*
X122159523Y-109311961D02*
X122064285Y-109407200D01*
X122064285Y-109407200D02*
X121969047Y-109454819D01*
X121969047Y-109454819D02*
X121778571Y-109454819D01*
X122588095Y-108550057D02*
X122635714Y-108502438D01*
X122635714Y-108502438D02*
X122730952Y-108454819D01*
X122730952Y-108454819D02*
X122969047Y-108454819D01*
X122969047Y-108454819D02*
X123064285Y-108502438D01*
X123064285Y-108502438D02*
X123111904Y-108550057D01*
X123111904Y-108550057D02*
X123159523Y-108645295D01*
X123159523Y-108645295D02*
X123159523Y-108740533D01*
X123159523Y-108740533D02*
X123111904Y-108883390D01*
X123111904Y-108883390D02*
X122540476Y-109454819D01*
X122540476Y-109454819D02*
X123159523Y-109454819D01*
X98438333Y-105474580D02*
X98390714Y-105522200D01*
X98390714Y-105522200D02*
X98247857Y-105569819D01*
X98247857Y-105569819D02*
X98152619Y-105569819D01*
X98152619Y-105569819D02*
X98009762Y-105522200D01*
X98009762Y-105522200D02*
X97914524Y-105426961D01*
X97914524Y-105426961D02*
X97866905Y-105331723D01*
X97866905Y-105331723D02*
X97819286Y-105141247D01*
X97819286Y-105141247D02*
X97819286Y-104998390D01*
X97819286Y-104998390D02*
X97866905Y-104807914D01*
X97866905Y-104807914D02*
X97914524Y-104712676D01*
X97914524Y-104712676D02*
X98009762Y-104617438D01*
X98009762Y-104617438D02*
X98152619Y-104569819D01*
X98152619Y-104569819D02*
X98247857Y-104569819D01*
X98247857Y-104569819D02*
X98390714Y-104617438D01*
X98390714Y-104617438D02*
X98438333Y-104665057D01*
X99295476Y-104569819D02*
X99105000Y-104569819D01*
X99105000Y-104569819D02*
X99009762Y-104617438D01*
X99009762Y-104617438D02*
X98962143Y-104665057D01*
X98962143Y-104665057D02*
X98866905Y-104807914D01*
X98866905Y-104807914D02*
X98819286Y-104998390D01*
X98819286Y-104998390D02*
X98819286Y-105379342D01*
X98819286Y-105379342D02*
X98866905Y-105474580D01*
X98866905Y-105474580D02*
X98914524Y-105522200D01*
X98914524Y-105522200D02*
X99009762Y-105569819D01*
X99009762Y-105569819D02*
X99200238Y-105569819D01*
X99200238Y-105569819D02*
X99295476Y-105522200D01*
X99295476Y-105522200D02*
X99343095Y-105474580D01*
X99343095Y-105474580D02*
X99390714Y-105379342D01*
X99390714Y-105379342D02*
X99390714Y-105141247D01*
X99390714Y-105141247D02*
X99343095Y-105046009D01*
X99343095Y-105046009D02*
X99295476Y-104998390D01*
X99295476Y-104998390D02*
X99200238Y-104950771D01*
X99200238Y-104950771D02*
X99009762Y-104950771D01*
X99009762Y-104950771D02*
X98914524Y-104998390D01*
X98914524Y-104998390D02*
X98866905Y-105046009D01*
X98866905Y-105046009D02*
X98819286Y-105141247D01*
X132233333Y-113309580D02*
X132185714Y-113357200D01*
X132185714Y-113357200D02*
X132042857Y-113404819D01*
X132042857Y-113404819D02*
X131947619Y-113404819D01*
X131947619Y-113404819D02*
X131804762Y-113357200D01*
X131804762Y-113357200D02*
X131709524Y-113261961D01*
X131709524Y-113261961D02*
X131661905Y-113166723D01*
X131661905Y-113166723D02*
X131614286Y-112976247D01*
X131614286Y-112976247D02*
X131614286Y-112833390D01*
X131614286Y-112833390D02*
X131661905Y-112642914D01*
X131661905Y-112642914D02*
X131709524Y-112547676D01*
X131709524Y-112547676D02*
X131804762Y-112452438D01*
X131804762Y-112452438D02*
X131947619Y-112404819D01*
X131947619Y-112404819D02*
X132042857Y-112404819D01*
X132042857Y-112404819D02*
X132185714Y-112452438D01*
X132185714Y-112452438D02*
X132233333Y-112500057D01*
X133185714Y-113404819D02*
X132614286Y-113404819D01*
X132900000Y-113404819D02*
X132900000Y-112404819D01*
X132900000Y-112404819D02*
X132804762Y-112547676D01*
X132804762Y-112547676D02*
X132709524Y-112642914D01*
X132709524Y-112642914D02*
X132614286Y-112690533D01*
X129881666Y-90464819D02*
X129881666Y-91179104D01*
X129881666Y-91179104D02*
X129834047Y-91321961D01*
X129834047Y-91321961D02*
X129738809Y-91417200D01*
X129738809Y-91417200D02*
X129595952Y-91464819D01*
X129595952Y-91464819D02*
X129500714Y-91464819D01*
X130310238Y-90560057D02*
X130357857Y-90512438D01*
X130357857Y-90512438D02*
X130453095Y-90464819D01*
X130453095Y-90464819D02*
X130691190Y-90464819D01*
X130691190Y-90464819D02*
X130786428Y-90512438D01*
X130786428Y-90512438D02*
X130834047Y-90560057D01*
X130834047Y-90560057D02*
X130881666Y-90655295D01*
X130881666Y-90655295D02*
X130881666Y-90750533D01*
X130881666Y-90750533D02*
X130834047Y-90893390D01*
X130834047Y-90893390D02*
X130262619Y-91464819D01*
X130262619Y-91464819D02*
X130881666Y-91464819D01*
X130333333Y-106104819D02*
X130000000Y-105628628D01*
X129761905Y-106104819D02*
X129761905Y-105104819D01*
X129761905Y-105104819D02*
X130142857Y-105104819D01*
X130142857Y-105104819D02*
X130238095Y-105152438D01*
X130238095Y-105152438D02*
X130285714Y-105200057D01*
X130285714Y-105200057D02*
X130333333Y-105295295D01*
X130333333Y-105295295D02*
X130333333Y-105438152D01*
X130333333Y-105438152D02*
X130285714Y-105533390D01*
X130285714Y-105533390D02*
X130238095Y-105581009D01*
X130238095Y-105581009D02*
X130142857Y-105628628D01*
X130142857Y-105628628D02*
X129761905Y-105628628D01*
X130666667Y-105104819D02*
X131285714Y-105104819D01*
X131285714Y-105104819D02*
X130952381Y-105485771D01*
X130952381Y-105485771D02*
X131095238Y-105485771D01*
X131095238Y-105485771D02*
X131190476Y-105533390D01*
X131190476Y-105533390D02*
X131238095Y-105581009D01*
X131238095Y-105581009D02*
X131285714Y-105676247D01*
X131285714Y-105676247D02*
X131285714Y-105914342D01*
X131285714Y-105914342D02*
X131238095Y-106009580D01*
X131238095Y-106009580D02*
X131190476Y-106057200D01*
X131190476Y-106057200D02*
X131095238Y-106104819D01*
X131095238Y-106104819D02*
X130809524Y-106104819D01*
X130809524Y-106104819D02*
X130714286Y-106057200D01*
X130714286Y-106057200D02*
X130666667Y-106009580D01*
X98533333Y-115214580D02*
X98485714Y-115262200D01*
X98485714Y-115262200D02*
X98342857Y-115309819D01*
X98342857Y-115309819D02*
X98247619Y-115309819D01*
X98247619Y-115309819D02*
X98104762Y-115262200D01*
X98104762Y-115262200D02*
X98009524Y-115166961D01*
X98009524Y-115166961D02*
X97961905Y-115071723D01*
X97961905Y-115071723D02*
X97914286Y-114881247D01*
X97914286Y-114881247D02*
X97914286Y-114738390D01*
X97914286Y-114738390D02*
X97961905Y-114547914D01*
X97961905Y-114547914D02*
X98009524Y-114452676D01*
X98009524Y-114452676D02*
X98104762Y-114357438D01*
X98104762Y-114357438D02*
X98247619Y-114309819D01*
X98247619Y-114309819D02*
X98342857Y-114309819D01*
X98342857Y-114309819D02*
X98485714Y-114357438D01*
X98485714Y-114357438D02*
X98533333Y-114405057D01*
X99438095Y-114309819D02*
X98961905Y-114309819D01*
X98961905Y-114309819D02*
X98914286Y-114786009D01*
X98914286Y-114786009D02*
X98961905Y-114738390D01*
X98961905Y-114738390D02*
X99057143Y-114690771D01*
X99057143Y-114690771D02*
X99295238Y-114690771D01*
X99295238Y-114690771D02*
X99390476Y-114738390D01*
X99390476Y-114738390D02*
X99438095Y-114786009D01*
X99438095Y-114786009D02*
X99485714Y-114881247D01*
X99485714Y-114881247D02*
X99485714Y-115119342D01*
X99485714Y-115119342D02*
X99438095Y-115214580D01*
X99438095Y-115214580D02*
X99390476Y-115262200D01*
X99390476Y-115262200D02*
X99295238Y-115309819D01*
X99295238Y-115309819D02*
X99057143Y-115309819D01*
X99057143Y-115309819D02*
X98961905Y-115262200D01*
X98961905Y-115262200D02*
X98914286Y-115214580D01*
X132816666Y-103104819D02*
X132816666Y-103819104D01*
X132816666Y-103819104D02*
X132769047Y-103961961D01*
X132769047Y-103961961D02*
X132673809Y-104057200D01*
X132673809Y-104057200D02*
X132530952Y-104104819D01*
X132530952Y-104104819D02*
X132435714Y-104104819D01*
X133197619Y-103104819D02*
X133864285Y-103104819D01*
X133864285Y-103104819D02*
X133435714Y-104104819D01*
X116283333Y-108214580D02*
X116235714Y-108262200D01*
X116235714Y-108262200D02*
X116092857Y-108309819D01*
X116092857Y-108309819D02*
X115997619Y-108309819D01*
X115997619Y-108309819D02*
X115854762Y-108262200D01*
X115854762Y-108262200D02*
X115759524Y-108166961D01*
X115759524Y-108166961D02*
X115711905Y-108071723D01*
X115711905Y-108071723D02*
X115664286Y-107881247D01*
X115664286Y-107881247D02*
X115664286Y-107738390D01*
X115664286Y-107738390D02*
X115711905Y-107547914D01*
X115711905Y-107547914D02*
X115759524Y-107452676D01*
X115759524Y-107452676D02*
X115854762Y-107357438D01*
X115854762Y-107357438D02*
X115997619Y-107309819D01*
X115997619Y-107309819D02*
X116092857Y-107309819D01*
X116092857Y-107309819D02*
X116235714Y-107357438D01*
X116235714Y-107357438D02*
X116283333Y-107405057D01*
X116854762Y-107738390D02*
X116759524Y-107690771D01*
X116759524Y-107690771D02*
X116711905Y-107643152D01*
X116711905Y-107643152D02*
X116664286Y-107547914D01*
X116664286Y-107547914D02*
X116664286Y-107500295D01*
X116664286Y-107500295D02*
X116711905Y-107405057D01*
X116711905Y-107405057D02*
X116759524Y-107357438D01*
X116759524Y-107357438D02*
X116854762Y-107309819D01*
X116854762Y-107309819D02*
X117045238Y-107309819D01*
X117045238Y-107309819D02*
X117140476Y-107357438D01*
X117140476Y-107357438D02*
X117188095Y-107405057D01*
X117188095Y-107405057D02*
X117235714Y-107500295D01*
X117235714Y-107500295D02*
X117235714Y-107547914D01*
X117235714Y-107547914D02*
X117188095Y-107643152D01*
X117188095Y-107643152D02*
X117140476Y-107690771D01*
X117140476Y-107690771D02*
X117045238Y-107738390D01*
X117045238Y-107738390D02*
X116854762Y-107738390D01*
X116854762Y-107738390D02*
X116759524Y-107786009D01*
X116759524Y-107786009D02*
X116711905Y-107833628D01*
X116711905Y-107833628D02*
X116664286Y-107928866D01*
X116664286Y-107928866D02*
X116664286Y-108119342D01*
X116664286Y-108119342D02*
X116711905Y-108214580D01*
X116711905Y-108214580D02*
X116759524Y-108262200D01*
X116759524Y-108262200D02*
X116854762Y-108309819D01*
X116854762Y-108309819D02*
X117045238Y-108309819D01*
X117045238Y-108309819D02*
X117140476Y-108262200D01*
X117140476Y-108262200D02*
X117188095Y-108214580D01*
X117188095Y-108214580D02*
X117235714Y-108119342D01*
X117235714Y-108119342D02*
X117235714Y-107928866D01*
X117235714Y-107928866D02*
X117188095Y-107833628D01*
X117188095Y-107833628D02*
X117140476Y-107786009D01*
X117140476Y-107786009D02*
X117045238Y-107738390D01*
X169690476Y-105554819D02*
X169690476Y-106269104D01*
X169690476Y-106269104D02*
X169642857Y-106411961D01*
X169642857Y-106411961D02*
X169547619Y-106507200D01*
X169547619Y-106507200D02*
X169404762Y-106554819D01*
X169404762Y-106554819D02*
X169309524Y-106554819D01*
X170690476Y-106554819D02*
X170119048Y-106554819D01*
X170404762Y-106554819D02*
X170404762Y-105554819D01*
X170404762Y-105554819D02*
X170309524Y-105697676D01*
X170309524Y-105697676D02*
X170214286Y-105792914D01*
X170214286Y-105792914D02*
X170119048Y-105840533D01*
X171595238Y-105554819D02*
X171119048Y-105554819D01*
X171119048Y-105554819D02*
X171071429Y-106031009D01*
X171071429Y-106031009D02*
X171119048Y-105983390D01*
X171119048Y-105983390D02*
X171214286Y-105935771D01*
X171214286Y-105935771D02*
X171452381Y-105935771D01*
X171452381Y-105935771D02*
X171547619Y-105983390D01*
X171547619Y-105983390D02*
X171595238Y-106031009D01*
X171595238Y-106031009D02*
X171642857Y-106126247D01*
X171642857Y-106126247D02*
X171642857Y-106364342D01*
X171642857Y-106364342D02*
X171595238Y-106459580D01*
X171595238Y-106459580D02*
X171547619Y-106507200D01*
X171547619Y-106507200D02*
X171452381Y-106554819D01*
X171452381Y-106554819D02*
X171214286Y-106554819D01*
X171214286Y-106554819D02*
X171119048Y-106507200D01*
X171119048Y-106507200D02*
X171071429Y-106459580D01*
X116357142Y-110609580D02*
X116309523Y-110657200D01*
X116309523Y-110657200D02*
X116166666Y-110704819D01*
X116166666Y-110704819D02*
X116071428Y-110704819D01*
X116071428Y-110704819D02*
X115928571Y-110657200D01*
X115928571Y-110657200D02*
X115833333Y-110561961D01*
X115833333Y-110561961D02*
X115785714Y-110466723D01*
X115785714Y-110466723D02*
X115738095Y-110276247D01*
X115738095Y-110276247D02*
X115738095Y-110133390D01*
X115738095Y-110133390D02*
X115785714Y-109942914D01*
X115785714Y-109942914D02*
X115833333Y-109847676D01*
X115833333Y-109847676D02*
X115928571Y-109752438D01*
X115928571Y-109752438D02*
X116071428Y-109704819D01*
X116071428Y-109704819D02*
X116166666Y-109704819D01*
X116166666Y-109704819D02*
X116309523Y-109752438D01*
X116309523Y-109752438D02*
X116357142Y-109800057D01*
X117309523Y-110704819D02*
X116738095Y-110704819D01*
X117023809Y-110704819D02*
X117023809Y-109704819D01*
X117023809Y-109704819D02*
X116928571Y-109847676D01*
X116928571Y-109847676D02*
X116833333Y-109942914D01*
X116833333Y-109942914D02*
X116738095Y-109990533D01*
X117690476Y-109800057D02*
X117738095Y-109752438D01*
X117738095Y-109752438D02*
X117833333Y-109704819D01*
X117833333Y-109704819D02*
X118071428Y-109704819D01*
X118071428Y-109704819D02*
X118166666Y-109752438D01*
X118166666Y-109752438D02*
X118214285Y-109800057D01*
X118214285Y-109800057D02*
X118261904Y-109895295D01*
X118261904Y-109895295D02*
X118261904Y-109990533D01*
X118261904Y-109990533D02*
X118214285Y-110133390D01*
X118214285Y-110133390D02*
X117642857Y-110704819D01*
X117642857Y-110704819D02*
X118261904Y-110704819D01*
X102516666Y-102904819D02*
X102516666Y-103619104D01*
X102516666Y-103619104D02*
X102469047Y-103761961D01*
X102469047Y-103761961D02*
X102373809Y-103857200D01*
X102373809Y-103857200D02*
X102230952Y-103904819D01*
X102230952Y-103904819D02*
X102135714Y-103904819D01*
X103040476Y-103904819D02*
X103230952Y-103904819D01*
X103230952Y-103904819D02*
X103326190Y-103857200D01*
X103326190Y-103857200D02*
X103373809Y-103809580D01*
X103373809Y-103809580D02*
X103469047Y-103666723D01*
X103469047Y-103666723D02*
X103516666Y-103476247D01*
X103516666Y-103476247D02*
X103516666Y-103095295D01*
X103516666Y-103095295D02*
X103469047Y-103000057D01*
X103469047Y-103000057D02*
X103421428Y-102952438D01*
X103421428Y-102952438D02*
X103326190Y-102904819D01*
X103326190Y-102904819D02*
X103135714Y-102904819D01*
X103135714Y-102904819D02*
X103040476Y-102952438D01*
X103040476Y-102952438D02*
X102992857Y-103000057D01*
X102992857Y-103000057D02*
X102945238Y-103095295D01*
X102945238Y-103095295D02*
X102945238Y-103333390D01*
X102945238Y-103333390D02*
X102992857Y-103428628D01*
X102992857Y-103428628D02*
X103040476Y-103476247D01*
X103040476Y-103476247D02*
X103135714Y-103523866D01*
X103135714Y-103523866D02*
X103326190Y-103523866D01*
X103326190Y-103523866D02*
X103421428Y-103476247D01*
X103421428Y-103476247D02*
X103469047Y-103428628D01*
X103469047Y-103428628D02*
X103516666Y-103333390D01*
X173490476Y-105504819D02*
X173490476Y-106219104D01*
X173490476Y-106219104D02*
X173442857Y-106361961D01*
X173442857Y-106361961D02*
X173347619Y-106457200D01*
X173347619Y-106457200D02*
X173204762Y-106504819D01*
X173204762Y-106504819D02*
X173109524Y-106504819D01*
X174490476Y-106504819D02*
X173919048Y-106504819D01*
X174204762Y-106504819D02*
X174204762Y-105504819D01*
X174204762Y-105504819D02*
X174109524Y-105647676D01*
X174109524Y-105647676D02*
X174014286Y-105742914D01*
X174014286Y-105742914D02*
X173919048Y-105790533D01*
X175347619Y-105504819D02*
X175157143Y-105504819D01*
X175157143Y-105504819D02*
X175061905Y-105552438D01*
X175061905Y-105552438D02*
X175014286Y-105600057D01*
X175014286Y-105600057D02*
X174919048Y-105742914D01*
X174919048Y-105742914D02*
X174871429Y-105933390D01*
X174871429Y-105933390D02*
X174871429Y-106314342D01*
X174871429Y-106314342D02*
X174919048Y-106409580D01*
X174919048Y-106409580D02*
X174966667Y-106457200D01*
X174966667Y-106457200D02*
X175061905Y-106504819D01*
X175061905Y-106504819D02*
X175252381Y-106504819D01*
X175252381Y-106504819D02*
X175347619Y-106457200D01*
X175347619Y-106457200D02*
X175395238Y-106409580D01*
X175395238Y-106409580D02*
X175442857Y-106314342D01*
X175442857Y-106314342D02*
X175442857Y-106076247D01*
X175442857Y-106076247D02*
X175395238Y-105981009D01*
X175395238Y-105981009D02*
X175347619Y-105933390D01*
X175347619Y-105933390D02*
X175252381Y-105885771D01*
X175252381Y-105885771D02*
X175061905Y-105885771D01*
X175061905Y-105885771D02*
X174966667Y-105933390D01*
X174966667Y-105933390D02*
X174919048Y-105981009D01*
X174919048Y-105981009D02*
X174871429Y-106076247D01*
X107309580Y-72516666D02*
X107357200Y-72564285D01*
X107357200Y-72564285D02*
X107404819Y-72707142D01*
X107404819Y-72707142D02*
X107404819Y-72802380D01*
X107404819Y-72802380D02*
X107357200Y-72945237D01*
X107357200Y-72945237D02*
X107261961Y-73040475D01*
X107261961Y-73040475D02*
X107166723Y-73088094D01*
X107166723Y-73088094D02*
X106976247Y-73135713D01*
X106976247Y-73135713D02*
X106833390Y-73135713D01*
X106833390Y-73135713D02*
X106642914Y-73088094D01*
X106642914Y-73088094D02*
X106547676Y-73040475D01*
X106547676Y-73040475D02*
X106452438Y-72945237D01*
X106452438Y-72945237D02*
X106404819Y-72802380D01*
X106404819Y-72802380D02*
X106404819Y-72707142D01*
X106404819Y-72707142D02*
X106452438Y-72564285D01*
X106452438Y-72564285D02*
X106500057Y-72516666D01*
X106404819Y-72183332D02*
X106404819Y-71564285D01*
X106404819Y-71564285D02*
X106785771Y-71897618D01*
X106785771Y-71897618D02*
X106785771Y-71754761D01*
X106785771Y-71754761D02*
X106833390Y-71659523D01*
X106833390Y-71659523D02*
X106881009Y-71611904D01*
X106881009Y-71611904D02*
X106976247Y-71564285D01*
X106976247Y-71564285D02*
X107214342Y-71564285D01*
X107214342Y-71564285D02*
X107309580Y-71611904D01*
X107309580Y-71611904D02*
X107357200Y-71659523D01*
X107357200Y-71659523D02*
X107404819Y-71754761D01*
X107404819Y-71754761D02*
X107404819Y-72040475D01*
X107404819Y-72040475D02*
X107357200Y-72135713D01*
X107357200Y-72135713D02*
X107309580Y-72183332D01*
X102965595Y-80184819D02*
X102965595Y-80994342D01*
X102965595Y-80994342D02*
X103013214Y-81089580D01*
X103013214Y-81089580D02*
X103060833Y-81137200D01*
X103060833Y-81137200D02*
X103156071Y-81184819D01*
X103156071Y-81184819D02*
X103346547Y-81184819D01*
X103346547Y-81184819D02*
X103441785Y-81137200D01*
X103441785Y-81137200D02*
X103489404Y-81089580D01*
X103489404Y-81089580D02*
X103537023Y-80994342D01*
X103537023Y-80994342D02*
X103537023Y-80184819D01*
X103917976Y-80184819D02*
X104537023Y-80184819D01*
X104537023Y-80184819D02*
X104203690Y-80565771D01*
X104203690Y-80565771D02*
X104346547Y-80565771D01*
X104346547Y-80565771D02*
X104441785Y-80613390D01*
X104441785Y-80613390D02*
X104489404Y-80661009D01*
X104489404Y-80661009D02*
X104537023Y-80756247D01*
X104537023Y-80756247D02*
X104537023Y-80994342D01*
X104537023Y-80994342D02*
X104489404Y-81089580D01*
X104489404Y-81089580D02*
X104441785Y-81137200D01*
X104441785Y-81137200D02*
X104346547Y-81184819D01*
X104346547Y-81184819D02*
X104060833Y-81184819D01*
X104060833Y-81184819D02*
X103965595Y-81137200D01*
X103965595Y-81137200D02*
X103917976Y-81089580D01*
X182061905Y-96254819D02*
X182061905Y-95254819D01*
X182061905Y-95254819D02*
X182300000Y-95254819D01*
X182300000Y-95254819D02*
X182442857Y-95302438D01*
X182442857Y-95302438D02*
X182538095Y-95397676D01*
X182538095Y-95397676D02*
X182585714Y-95492914D01*
X182585714Y-95492914D02*
X182633333Y-95683390D01*
X182633333Y-95683390D02*
X182633333Y-95826247D01*
X182633333Y-95826247D02*
X182585714Y-96016723D01*
X182585714Y-96016723D02*
X182538095Y-96111961D01*
X182538095Y-96111961D02*
X182442857Y-96207200D01*
X182442857Y-96207200D02*
X182300000Y-96254819D01*
X182300000Y-96254819D02*
X182061905Y-96254819D01*
X183585714Y-96254819D02*
X183014286Y-96254819D01*
X183300000Y-96254819D02*
X183300000Y-95254819D01*
X183300000Y-95254819D02*
X183204762Y-95397676D01*
X183204762Y-95397676D02*
X183109524Y-95492914D01*
X183109524Y-95492914D02*
X183014286Y-95540533D01*
X177783333Y-101004819D02*
X177450000Y-100528628D01*
X177211905Y-101004819D02*
X177211905Y-100004819D01*
X177211905Y-100004819D02*
X177592857Y-100004819D01*
X177592857Y-100004819D02*
X177688095Y-100052438D01*
X177688095Y-100052438D02*
X177735714Y-100100057D01*
X177735714Y-100100057D02*
X177783333Y-100195295D01*
X177783333Y-100195295D02*
X177783333Y-100338152D01*
X177783333Y-100338152D02*
X177735714Y-100433390D01*
X177735714Y-100433390D02*
X177688095Y-100481009D01*
X177688095Y-100481009D02*
X177592857Y-100528628D01*
X177592857Y-100528628D02*
X177211905Y-100528628D01*
X178354762Y-100433390D02*
X178259524Y-100385771D01*
X178259524Y-100385771D02*
X178211905Y-100338152D01*
X178211905Y-100338152D02*
X178164286Y-100242914D01*
X178164286Y-100242914D02*
X178164286Y-100195295D01*
X178164286Y-100195295D02*
X178211905Y-100100057D01*
X178211905Y-100100057D02*
X178259524Y-100052438D01*
X178259524Y-100052438D02*
X178354762Y-100004819D01*
X178354762Y-100004819D02*
X178545238Y-100004819D01*
X178545238Y-100004819D02*
X178640476Y-100052438D01*
X178640476Y-100052438D02*
X178688095Y-100100057D01*
X178688095Y-100100057D02*
X178735714Y-100195295D01*
X178735714Y-100195295D02*
X178735714Y-100242914D01*
X178735714Y-100242914D02*
X178688095Y-100338152D01*
X178688095Y-100338152D02*
X178640476Y-100385771D01*
X178640476Y-100385771D02*
X178545238Y-100433390D01*
X178545238Y-100433390D02*
X178354762Y-100433390D01*
X178354762Y-100433390D02*
X178259524Y-100481009D01*
X178259524Y-100481009D02*
X178211905Y-100528628D01*
X178211905Y-100528628D02*
X178164286Y-100623866D01*
X178164286Y-100623866D02*
X178164286Y-100814342D01*
X178164286Y-100814342D02*
X178211905Y-100909580D01*
X178211905Y-100909580D02*
X178259524Y-100957200D01*
X178259524Y-100957200D02*
X178354762Y-101004819D01*
X178354762Y-101004819D02*
X178545238Y-101004819D01*
X178545238Y-101004819D02*
X178640476Y-100957200D01*
X178640476Y-100957200D02*
X178688095Y-100909580D01*
X178688095Y-100909580D02*
X178735714Y-100814342D01*
X178735714Y-100814342D02*
X178735714Y-100623866D01*
X178735714Y-100623866D02*
X178688095Y-100528628D01*
X178688095Y-100528628D02*
X178640476Y-100481009D01*
X178640476Y-100481009D02*
X178545238Y-100433390D01*
X184733333Y-98304819D02*
X184400000Y-97828628D01*
X184161905Y-98304819D02*
X184161905Y-97304819D01*
X184161905Y-97304819D02*
X184542857Y-97304819D01*
X184542857Y-97304819D02*
X184638095Y-97352438D01*
X184638095Y-97352438D02*
X184685714Y-97400057D01*
X184685714Y-97400057D02*
X184733333Y-97495295D01*
X184733333Y-97495295D02*
X184733333Y-97638152D01*
X184733333Y-97638152D02*
X184685714Y-97733390D01*
X184685714Y-97733390D02*
X184638095Y-97781009D01*
X184638095Y-97781009D02*
X184542857Y-97828628D01*
X184542857Y-97828628D02*
X184161905Y-97828628D01*
X185590476Y-97304819D02*
X185400000Y-97304819D01*
X185400000Y-97304819D02*
X185304762Y-97352438D01*
X185304762Y-97352438D02*
X185257143Y-97400057D01*
X185257143Y-97400057D02*
X185161905Y-97542914D01*
X185161905Y-97542914D02*
X185114286Y-97733390D01*
X185114286Y-97733390D02*
X185114286Y-98114342D01*
X185114286Y-98114342D02*
X185161905Y-98209580D01*
X185161905Y-98209580D02*
X185209524Y-98257200D01*
X185209524Y-98257200D02*
X185304762Y-98304819D01*
X185304762Y-98304819D02*
X185495238Y-98304819D01*
X185495238Y-98304819D02*
X185590476Y-98257200D01*
X185590476Y-98257200D02*
X185638095Y-98209580D01*
X185638095Y-98209580D02*
X185685714Y-98114342D01*
X185685714Y-98114342D02*
X185685714Y-97876247D01*
X185685714Y-97876247D02*
X185638095Y-97781009D01*
X185638095Y-97781009D02*
X185590476Y-97733390D01*
X185590476Y-97733390D02*
X185495238Y-97685771D01*
X185495238Y-97685771D02*
X185304762Y-97685771D01*
X185304762Y-97685771D02*
X185209524Y-97733390D01*
X185209524Y-97733390D02*
X185161905Y-97781009D01*
X185161905Y-97781009D02*
X185114286Y-97876247D01*
X133683333Y-122604819D02*
X133350000Y-122128628D01*
X133111905Y-122604819D02*
X133111905Y-121604819D01*
X133111905Y-121604819D02*
X133492857Y-121604819D01*
X133492857Y-121604819D02*
X133588095Y-121652438D01*
X133588095Y-121652438D02*
X133635714Y-121700057D01*
X133635714Y-121700057D02*
X133683333Y-121795295D01*
X133683333Y-121795295D02*
X133683333Y-121938152D01*
X133683333Y-121938152D02*
X133635714Y-122033390D01*
X133635714Y-122033390D02*
X133588095Y-122081009D01*
X133588095Y-122081009D02*
X133492857Y-122128628D01*
X133492857Y-122128628D02*
X133111905Y-122128628D01*
X134064286Y-121700057D02*
X134111905Y-121652438D01*
X134111905Y-121652438D02*
X134207143Y-121604819D01*
X134207143Y-121604819D02*
X134445238Y-121604819D01*
X134445238Y-121604819D02*
X134540476Y-121652438D01*
X134540476Y-121652438D02*
X134588095Y-121700057D01*
X134588095Y-121700057D02*
X134635714Y-121795295D01*
X134635714Y-121795295D02*
X134635714Y-121890533D01*
X134635714Y-121890533D02*
X134588095Y-122033390D01*
X134588095Y-122033390D02*
X134016667Y-122604819D01*
X134016667Y-122604819D02*
X134635714Y-122604819D01*
X120766666Y-103054819D02*
X120766666Y-103769104D01*
X120766666Y-103769104D02*
X120719047Y-103911961D01*
X120719047Y-103911961D02*
X120623809Y-104007200D01*
X120623809Y-104007200D02*
X120480952Y-104054819D01*
X120480952Y-104054819D02*
X120385714Y-104054819D01*
X121719047Y-103054819D02*
X121242857Y-103054819D01*
X121242857Y-103054819D02*
X121195238Y-103531009D01*
X121195238Y-103531009D02*
X121242857Y-103483390D01*
X121242857Y-103483390D02*
X121338095Y-103435771D01*
X121338095Y-103435771D02*
X121576190Y-103435771D01*
X121576190Y-103435771D02*
X121671428Y-103483390D01*
X121671428Y-103483390D02*
X121719047Y-103531009D01*
X121719047Y-103531009D02*
X121766666Y-103626247D01*
X121766666Y-103626247D02*
X121766666Y-103864342D01*
X121766666Y-103864342D02*
X121719047Y-103959580D01*
X121719047Y-103959580D02*
X121671428Y-104007200D01*
X121671428Y-104007200D02*
X121576190Y-104054819D01*
X121576190Y-104054819D02*
X121338095Y-104054819D01*
X121338095Y-104054819D02*
X121242857Y-104007200D01*
X121242857Y-104007200D02*
X121195238Y-103959580D01*
X183100595Y-102454819D02*
X183100595Y-103264342D01*
X183100595Y-103264342D02*
X183148214Y-103359580D01*
X183148214Y-103359580D02*
X183195833Y-103407200D01*
X183195833Y-103407200D02*
X183291071Y-103454819D01*
X183291071Y-103454819D02*
X183481547Y-103454819D01*
X183481547Y-103454819D02*
X183576785Y-103407200D01*
X183576785Y-103407200D02*
X183624404Y-103359580D01*
X183624404Y-103359580D02*
X183672023Y-103264342D01*
X183672023Y-103264342D02*
X183672023Y-102454819D01*
X184576785Y-102788152D02*
X184576785Y-103454819D01*
X184338690Y-102407200D02*
X184100595Y-103121485D01*
X184100595Y-103121485D02*
X184719642Y-103121485D01*
X133633333Y-119154819D02*
X133300000Y-118678628D01*
X133061905Y-119154819D02*
X133061905Y-118154819D01*
X133061905Y-118154819D02*
X133442857Y-118154819D01*
X133442857Y-118154819D02*
X133538095Y-118202438D01*
X133538095Y-118202438D02*
X133585714Y-118250057D01*
X133585714Y-118250057D02*
X133633333Y-118345295D01*
X133633333Y-118345295D02*
X133633333Y-118488152D01*
X133633333Y-118488152D02*
X133585714Y-118583390D01*
X133585714Y-118583390D02*
X133538095Y-118631009D01*
X133538095Y-118631009D02*
X133442857Y-118678628D01*
X133442857Y-118678628D02*
X133061905Y-118678628D01*
X134585714Y-119154819D02*
X134014286Y-119154819D01*
X134300000Y-119154819D02*
X134300000Y-118154819D01*
X134300000Y-118154819D02*
X134204762Y-118297676D01*
X134204762Y-118297676D02*
X134109524Y-118392914D01*
X134109524Y-118392914D02*
X134014286Y-118440533D01*
X128766666Y-103004819D02*
X128766666Y-103719104D01*
X128766666Y-103719104D02*
X128719047Y-103861961D01*
X128719047Y-103861961D02*
X128623809Y-103957200D01*
X128623809Y-103957200D02*
X128480952Y-104004819D01*
X128480952Y-104004819D02*
X128385714Y-104004819D01*
X129671428Y-103004819D02*
X129480952Y-103004819D01*
X129480952Y-103004819D02*
X129385714Y-103052438D01*
X129385714Y-103052438D02*
X129338095Y-103100057D01*
X129338095Y-103100057D02*
X129242857Y-103242914D01*
X129242857Y-103242914D02*
X129195238Y-103433390D01*
X129195238Y-103433390D02*
X129195238Y-103814342D01*
X129195238Y-103814342D02*
X129242857Y-103909580D01*
X129242857Y-103909580D02*
X129290476Y-103957200D01*
X129290476Y-103957200D02*
X129385714Y-104004819D01*
X129385714Y-104004819D02*
X129576190Y-104004819D01*
X129576190Y-104004819D02*
X129671428Y-103957200D01*
X129671428Y-103957200D02*
X129719047Y-103909580D01*
X129719047Y-103909580D02*
X129766666Y-103814342D01*
X129766666Y-103814342D02*
X129766666Y-103576247D01*
X129766666Y-103576247D02*
X129719047Y-103481009D01*
X129719047Y-103481009D02*
X129671428Y-103433390D01*
X129671428Y-103433390D02*
X129576190Y-103385771D01*
X129576190Y-103385771D02*
X129385714Y-103385771D01*
X129385714Y-103385771D02*
X129290476Y-103433390D01*
X129290476Y-103433390D02*
X129242857Y-103481009D01*
X129242857Y-103481009D02*
X129195238Y-103576247D01*
X125416666Y-121354819D02*
X125416666Y-122069104D01*
X125416666Y-122069104D02*
X125369047Y-122211961D01*
X125369047Y-122211961D02*
X125273809Y-122307200D01*
X125273809Y-122307200D02*
X125130952Y-122354819D01*
X125130952Y-122354819D02*
X125035714Y-122354819D01*
X126416666Y-122354819D02*
X125845238Y-122354819D01*
X126130952Y-122354819D02*
X126130952Y-121354819D01*
X126130952Y-121354819D02*
X126035714Y-121497676D01*
X126035714Y-121497676D02*
X125940476Y-121592914D01*
X125940476Y-121592914D02*
X125845238Y-121640533D01*
X116283333Y-105964580D02*
X116235714Y-106012200D01*
X116235714Y-106012200D02*
X116092857Y-106059819D01*
X116092857Y-106059819D02*
X115997619Y-106059819D01*
X115997619Y-106059819D02*
X115854762Y-106012200D01*
X115854762Y-106012200D02*
X115759524Y-105916961D01*
X115759524Y-105916961D02*
X115711905Y-105821723D01*
X115711905Y-105821723D02*
X115664286Y-105631247D01*
X115664286Y-105631247D02*
X115664286Y-105488390D01*
X115664286Y-105488390D02*
X115711905Y-105297914D01*
X115711905Y-105297914D02*
X115759524Y-105202676D01*
X115759524Y-105202676D02*
X115854762Y-105107438D01*
X115854762Y-105107438D02*
X115997619Y-105059819D01*
X115997619Y-105059819D02*
X116092857Y-105059819D01*
X116092857Y-105059819D02*
X116235714Y-105107438D01*
X116235714Y-105107438D02*
X116283333Y-105155057D01*
X117140476Y-105393152D02*
X117140476Y-106059819D01*
X116902381Y-105012200D02*
X116664286Y-105726485D01*
X116664286Y-105726485D02*
X117283333Y-105726485D01*
X177234819Y-129584523D02*
X177949104Y-129584523D01*
X177949104Y-129584523D02*
X178091961Y-129632142D01*
X178091961Y-129632142D02*
X178187200Y-129727380D01*
X178187200Y-129727380D02*
X178234819Y-129870237D01*
X178234819Y-129870237D02*
X178234819Y-129965475D01*
X178234819Y-128584523D02*
X178234819Y-129155951D01*
X178234819Y-128870237D02*
X177234819Y-128870237D01*
X177234819Y-128870237D02*
X177377676Y-128965475D01*
X177377676Y-128965475D02*
X177472914Y-129060713D01*
X177472914Y-129060713D02*
X177520533Y-129155951D01*
X178234819Y-128108332D02*
X178234819Y-127917856D01*
X178234819Y-127917856D02*
X178187200Y-127822618D01*
X178187200Y-127822618D02*
X178139580Y-127774999D01*
X178139580Y-127774999D02*
X177996723Y-127679761D01*
X177996723Y-127679761D02*
X177806247Y-127632142D01*
X177806247Y-127632142D02*
X177425295Y-127632142D01*
X177425295Y-127632142D02*
X177330057Y-127679761D01*
X177330057Y-127679761D02*
X177282438Y-127727380D01*
X177282438Y-127727380D02*
X177234819Y-127822618D01*
X177234819Y-127822618D02*
X177234819Y-128013094D01*
X177234819Y-128013094D02*
X177282438Y-128108332D01*
X177282438Y-128108332D02*
X177330057Y-128155951D01*
X177330057Y-128155951D02*
X177425295Y-128203570D01*
X177425295Y-128203570D02*
X177663390Y-128203570D01*
X177663390Y-128203570D02*
X177758628Y-128155951D01*
X177758628Y-128155951D02*
X177806247Y-128108332D01*
X177806247Y-128108332D02*
X177853866Y-128013094D01*
X177853866Y-128013094D02*
X177853866Y-127822618D01*
X177853866Y-127822618D02*
X177806247Y-127727380D01*
X177806247Y-127727380D02*
X177758628Y-127679761D01*
X177758628Y-127679761D02*
X177663390Y-127632142D01*
X98057142Y-109124580D02*
X98009523Y-109172200D01*
X98009523Y-109172200D02*
X97866666Y-109219819D01*
X97866666Y-109219819D02*
X97771428Y-109219819D01*
X97771428Y-109219819D02*
X97628571Y-109172200D01*
X97628571Y-109172200D02*
X97533333Y-109076961D01*
X97533333Y-109076961D02*
X97485714Y-108981723D01*
X97485714Y-108981723D02*
X97438095Y-108791247D01*
X97438095Y-108791247D02*
X97438095Y-108648390D01*
X97438095Y-108648390D02*
X97485714Y-108457914D01*
X97485714Y-108457914D02*
X97533333Y-108362676D01*
X97533333Y-108362676D02*
X97628571Y-108267438D01*
X97628571Y-108267438D02*
X97771428Y-108219819D01*
X97771428Y-108219819D02*
X97866666Y-108219819D01*
X97866666Y-108219819D02*
X98009523Y-108267438D01*
X98009523Y-108267438D02*
X98057142Y-108315057D01*
X99009523Y-109219819D02*
X98438095Y-109219819D01*
X98723809Y-109219819D02*
X98723809Y-108219819D01*
X98723809Y-108219819D02*
X98628571Y-108362676D01*
X98628571Y-108362676D02*
X98533333Y-108457914D01*
X98533333Y-108457914D02*
X98438095Y-108505533D01*
X99342857Y-108219819D02*
X99961904Y-108219819D01*
X99961904Y-108219819D02*
X99628571Y-108600771D01*
X99628571Y-108600771D02*
X99771428Y-108600771D01*
X99771428Y-108600771D02*
X99866666Y-108648390D01*
X99866666Y-108648390D02*
X99914285Y-108696009D01*
X99914285Y-108696009D02*
X99961904Y-108791247D01*
X99961904Y-108791247D02*
X99961904Y-109029342D01*
X99961904Y-109029342D02*
X99914285Y-109124580D01*
X99914285Y-109124580D02*
X99866666Y-109172200D01*
X99866666Y-109172200D02*
X99771428Y-109219819D01*
X99771428Y-109219819D02*
X99485714Y-109219819D01*
X99485714Y-109219819D02*
X99390476Y-109172200D01*
X99390476Y-109172200D02*
X99342857Y-109124580D01*
X98540476Y-102754819D02*
X98540476Y-103469104D01*
X98540476Y-103469104D02*
X98492857Y-103611961D01*
X98492857Y-103611961D02*
X98397619Y-103707200D01*
X98397619Y-103707200D02*
X98254762Y-103754819D01*
X98254762Y-103754819D02*
X98159524Y-103754819D01*
X99540476Y-103754819D02*
X98969048Y-103754819D01*
X99254762Y-103754819D02*
X99254762Y-102754819D01*
X99254762Y-102754819D02*
X99159524Y-102897676D01*
X99159524Y-102897676D02*
X99064286Y-102992914D01*
X99064286Y-102992914D02*
X98969048Y-103040533D01*
X99921429Y-102850057D02*
X99969048Y-102802438D01*
X99969048Y-102802438D02*
X100064286Y-102754819D01*
X100064286Y-102754819D02*
X100302381Y-102754819D01*
X100302381Y-102754819D02*
X100397619Y-102802438D01*
X100397619Y-102802438D02*
X100445238Y-102850057D01*
X100445238Y-102850057D02*
X100492857Y-102945295D01*
X100492857Y-102945295D02*
X100492857Y-103040533D01*
X100492857Y-103040533D02*
X100445238Y-103183390D01*
X100445238Y-103183390D02*
X99873810Y-103754819D01*
X99873810Y-103754819D02*
X100492857Y-103754819D01*
X122888095Y-114554819D02*
X122888095Y-115364342D01*
X122888095Y-115364342D02*
X122935714Y-115459580D01*
X122935714Y-115459580D02*
X122983333Y-115507200D01*
X122983333Y-115507200D02*
X123078571Y-115554819D01*
X123078571Y-115554819D02*
X123269047Y-115554819D01*
X123269047Y-115554819D02*
X123364285Y-115507200D01*
X123364285Y-115507200D02*
X123411904Y-115459580D01*
X123411904Y-115459580D02*
X123459523Y-115364342D01*
X123459523Y-115364342D02*
X123459523Y-114554819D01*
X124459523Y-115554819D02*
X123888095Y-115554819D01*
X124173809Y-115554819D02*
X124173809Y-114554819D01*
X124173809Y-114554819D02*
X124078571Y-114697676D01*
X124078571Y-114697676D02*
X123983333Y-114792914D01*
X123983333Y-114792914D02*
X123888095Y-114840533D01*
X187883333Y-106654819D02*
X187550000Y-106178628D01*
X187311905Y-106654819D02*
X187311905Y-105654819D01*
X187311905Y-105654819D02*
X187692857Y-105654819D01*
X187692857Y-105654819D02*
X187788095Y-105702438D01*
X187788095Y-105702438D02*
X187835714Y-105750057D01*
X187835714Y-105750057D02*
X187883333Y-105845295D01*
X187883333Y-105845295D02*
X187883333Y-105988152D01*
X187883333Y-105988152D02*
X187835714Y-106083390D01*
X187835714Y-106083390D02*
X187788095Y-106131009D01*
X187788095Y-106131009D02*
X187692857Y-106178628D01*
X187692857Y-106178628D02*
X187311905Y-106178628D01*
X188216667Y-105654819D02*
X188883333Y-105654819D01*
X188883333Y-105654819D02*
X188454762Y-106654819D01*
X103783333Y-78289580D02*
X103735714Y-78337200D01*
X103735714Y-78337200D02*
X103592857Y-78384819D01*
X103592857Y-78384819D02*
X103497619Y-78384819D01*
X103497619Y-78384819D02*
X103354762Y-78337200D01*
X103354762Y-78337200D02*
X103259524Y-78241961D01*
X103259524Y-78241961D02*
X103211905Y-78146723D01*
X103211905Y-78146723D02*
X103164286Y-77956247D01*
X103164286Y-77956247D02*
X103164286Y-77813390D01*
X103164286Y-77813390D02*
X103211905Y-77622914D01*
X103211905Y-77622914D02*
X103259524Y-77527676D01*
X103259524Y-77527676D02*
X103354762Y-77432438D01*
X103354762Y-77432438D02*
X103497619Y-77384819D01*
X103497619Y-77384819D02*
X103592857Y-77384819D01*
X103592857Y-77384819D02*
X103735714Y-77432438D01*
X103735714Y-77432438D02*
X103783333Y-77480057D01*
X104116667Y-77384819D02*
X104783333Y-77384819D01*
X104783333Y-77384819D02*
X104354762Y-78384819D01*
X97840476Y-91154819D02*
X97840476Y-91869104D01*
X97840476Y-91869104D02*
X97792857Y-92011961D01*
X97792857Y-92011961D02*
X97697619Y-92107200D01*
X97697619Y-92107200D02*
X97554762Y-92154819D01*
X97554762Y-92154819D02*
X97459524Y-92154819D01*
X98840476Y-92154819D02*
X98269048Y-92154819D01*
X98554762Y-92154819D02*
X98554762Y-91154819D01*
X98554762Y-91154819D02*
X98459524Y-91297676D01*
X98459524Y-91297676D02*
X98364286Y-91392914D01*
X98364286Y-91392914D02*
X98269048Y-91440533D01*
X99697619Y-91488152D02*
X99697619Y-92154819D01*
X99459524Y-91107200D02*
X99221429Y-91821485D01*
X99221429Y-91821485D02*
X99840476Y-91821485D01*
X105690476Y-103004819D02*
X105690476Y-103719104D01*
X105690476Y-103719104D02*
X105642857Y-103861961D01*
X105642857Y-103861961D02*
X105547619Y-103957200D01*
X105547619Y-103957200D02*
X105404762Y-104004819D01*
X105404762Y-104004819D02*
X105309524Y-104004819D01*
X106690476Y-104004819D02*
X106119048Y-104004819D01*
X106404762Y-104004819D02*
X106404762Y-103004819D01*
X106404762Y-103004819D02*
X106309524Y-103147676D01*
X106309524Y-103147676D02*
X106214286Y-103242914D01*
X106214286Y-103242914D02*
X106119048Y-103290533D01*
X107309524Y-103004819D02*
X107404762Y-103004819D01*
X107404762Y-103004819D02*
X107500000Y-103052438D01*
X107500000Y-103052438D02*
X107547619Y-103100057D01*
X107547619Y-103100057D02*
X107595238Y-103195295D01*
X107595238Y-103195295D02*
X107642857Y-103385771D01*
X107642857Y-103385771D02*
X107642857Y-103623866D01*
X107642857Y-103623866D02*
X107595238Y-103814342D01*
X107595238Y-103814342D02*
X107547619Y-103909580D01*
X107547619Y-103909580D02*
X107500000Y-103957200D01*
X107500000Y-103957200D02*
X107404762Y-104004819D01*
X107404762Y-104004819D02*
X107309524Y-104004819D01*
X107309524Y-104004819D02*
X107214286Y-103957200D01*
X107214286Y-103957200D02*
X107166667Y-103909580D01*
X107166667Y-103909580D02*
X107119048Y-103814342D01*
X107119048Y-103814342D02*
X107071429Y-103623866D01*
X107071429Y-103623866D02*
X107071429Y-103385771D01*
X107071429Y-103385771D02*
X107119048Y-103195295D01*
X107119048Y-103195295D02*
X107166667Y-103100057D01*
X107166667Y-103100057D02*
X107214286Y-103052438D01*
X107214286Y-103052438D02*
X107309524Y-103004819D01*
D12*
G04 #@! TO.C,J11*
X162205000Y-109730000D02*
X162205000Y-107130000D01*
X162205000Y-109730000D02*
X159545000Y-109730000D01*
X162205000Y-107130000D02*
X159545000Y-107130000D01*
X160875000Y-112330000D02*
X159545000Y-112330000D01*
X159545000Y-112330000D02*
X159545000Y-111000000D01*
X159545000Y-109730000D02*
X159545000Y-107130000D01*
G04 #@! TO.C,J18*
X102700000Y-118620000D02*
X101300000Y-118620000D01*
X102700000Y-118620000D02*
X102700000Y-117495000D01*
X102700000Y-120170000D02*
X101300000Y-120170000D01*
X102700000Y-122570000D02*
X102700000Y-120170000D01*
X102700000Y-125570000D02*
X102700000Y-124220000D01*
X102700000Y-129595000D02*
X102700000Y-127220000D01*
X102700000Y-129595000D02*
X103300000Y-129595000D01*
X103300000Y-129595000D02*
X103300000Y-131595000D01*
X103300000Y-131595000D02*
X108300000Y-131595000D01*
X108300000Y-129595000D02*
X108300000Y-131595000D01*
X108300000Y-129595000D02*
X108900000Y-129595000D01*
X108900000Y-117495000D02*
X102700000Y-117495000D01*
X108900000Y-119070000D02*
X108900000Y-129595000D01*
G04 #@! TO.C,R4*
X128027064Y-106865000D02*
X127572936Y-106865000D01*
X128027064Y-108335000D02*
X127572936Y-108335000D01*
G04 #@! TO.C,C11*
X113238748Y-111815000D02*
X113761252Y-111815000D01*
X113238748Y-113285000D02*
X113761252Y-113285000D01*
G04 #@! TO.C,U2*
X107805000Y-87910000D02*
X107805000Y-88810000D01*
X107805000Y-88810000D02*
X110490000Y-88810000D01*
X108115000Y-69390000D02*
X126025000Y-69390000D01*
X123340000Y-88810000D02*
X126025000Y-88810000D01*
X126025000Y-69390000D02*
X126025000Y-69980000D01*
X126025000Y-87910000D02*
X126025000Y-88810000D01*
X107805000Y-69950000D02*
X107305000Y-69950000D01*
X107805000Y-69450000D01*
X107805000Y-69950000D01*
G36*
X107805000Y-69950000D02*
G01*
X107305000Y-69950000D01*
X107805000Y-69450000D01*
X107805000Y-69950000D01*
G37*
G04 #@! TO.C,J4*
X124615000Y-97130000D02*
X124615000Y-102400000D01*
X124615000Y-97130000D02*
X127275000Y-97130000D01*
X124615000Y-102400000D02*
X127275000Y-102400000D01*
X127275000Y-97130000D02*
X127275000Y-102400000D01*
G04 #@! TO.C,D2*
X183840000Y-92350000D02*
X183840000Y-95035000D01*
X183840000Y-95035000D02*
X185760000Y-95035000D01*
X185760000Y-95035000D02*
X185760000Y-92350000D01*
G04 #@! TO.C,C9*
X102865000Y-72511252D02*
X102865000Y-71988748D01*
X104335000Y-72511252D02*
X104335000Y-71988748D01*
G04 #@! TO.C,U6*
X171202500Y-102190000D02*
X171252500Y-102190000D01*
X171202500Y-104010000D02*
X171202500Y-102190000D01*
X171252500Y-104010000D02*
X171202500Y-104010000D01*
X174272500Y-102190000D02*
X174322500Y-102190000D01*
X174322500Y-102190000D02*
X174322500Y-104010000D01*
X174322500Y-104010000D02*
X174272500Y-104010000D01*
X174602500Y-101890000D02*
X174272500Y-101650000D01*
X174602500Y-101410000D01*
X174602500Y-101890000D01*
G36*
X174602500Y-101890000D02*
G01*
X174272500Y-101650000D01*
X174602500Y-101410000D01*
X174602500Y-101890000D01*
G37*
G04 #@! TO.C,Q1*
X132990000Y-105040000D02*
X134510000Y-105040000D01*
X132990000Y-105090000D02*
X132990000Y-105040000D01*
X132990000Y-106990000D02*
X132990000Y-106210000D01*
X132990000Y-108160000D02*
X132990000Y-108110000D01*
X134510000Y-105040000D02*
X134510000Y-106040000D01*
X134510000Y-107160000D02*
X134510000Y-108160000D01*
X134510000Y-108160000D02*
X132990000Y-108160000D01*
X132690000Y-106550000D02*
X132210000Y-106550000D01*
X132450000Y-106220000D01*
X132690000Y-106550000D01*
G36*
X132690000Y-106550000D02*
G01*
X132210000Y-106550000D01*
X132450000Y-106220000D01*
X132690000Y-106550000D01*
G37*
G04 #@! TO.C,J13*
X111415000Y-97175000D02*
X111415000Y-102445000D01*
X111415000Y-97175000D02*
X114075000Y-97175000D01*
X111415000Y-102445000D02*
X114075000Y-102445000D01*
X114075000Y-97175000D02*
X114075000Y-102445000D01*
G04 #@! TO.C,C2*
X103911252Y-84365000D02*
X103388748Y-84365000D01*
X103911252Y-85835000D02*
X103388748Y-85835000D01*
G04 #@! TO.C,J17*
X163145000Y-109770000D02*
X163145000Y-112370000D01*
X163145000Y-109770000D02*
X165805000Y-109770000D01*
X163145000Y-112370000D02*
X165805000Y-112370000D01*
X164475000Y-107170000D02*
X165805000Y-107170000D01*
X165805000Y-107170000D02*
X165805000Y-108500000D01*
X165805000Y-109770000D02*
X165805000Y-112370000D01*
D13*
G04 #@! TO.C,Q3*
X170920000Y-96235000D02*
X175420000Y-96235000D01*
X170920000Y-99265000D02*
X175420000Y-99265000D01*
D14*
X168830000Y-96375000D02*
G75*
G02*
X168630000Y-96375000I-100000J0D01*
G01*
X168630000Y-96375000D02*
G75*
G02*
X168830000Y-96375000I100000J0D01*
G01*
D12*
G04 #@! TO.C,J3*
X132635000Y-82260000D02*
X132635000Y-69450000D01*
X135395000Y-69450000D02*
X132635000Y-69450000D01*
X135395000Y-82260000D02*
X132635000Y-82260000D01*
X135395000Y-82260000D02*
X135395000Y-69450000D01*
X135395000Y-83530000D02*
X135395000Y-84910000D01*
X135395000Y-84910000D02*
X134015000Y-84910000D01*
G04 #@! TO.C,R5*
X182065000Y-100122936D02*
X182065000Y-100577064D01*
X183535000Y-100122936D02*
X183535000Y-100577064D01*
G04 #@! TO.C,C10*
X113311252Y-118015000D02*
X112788748Y-118015000D01*
X113311252Y-119485000D02*
X112788748Y-119485000D01*
G04 #@! TO.C,U5*
X103152500Y-106335000D02*
X107772500Y-106335000D01*
X107772500Y-113105000D02*
X103152500Y-113105000D01*
X109652500Y-112890000D02*
X109322500Y-112650000D01*
X109652500Y-112410000D01*
X109652500Y-112890000D01*
G36*
X109652500Y-112890000D02*
G01*
X109322500Y-112650000D01*
X109652500Y-112410000D01*
X109652500Y-112890000D01*
G37*
G04 #@! TO.C,J8*
X97445000Y-73900000D02*
X97445000Y-79170000D01*
X97445000Y-73900000D02*
X100105000Y-73900000D01*
X97445000Y-79170000D02*
X100105000Y-79170000D01*
X100105000Y-73900000D02*
X100105000Y-79170000D01*
G04 #@! TO.C,Q2*
X121590000Y-105040000D02*
X123110000Y-105040000D01*
X121590000Y-106040000D02*
X121590000Y-105040000D01*
X121590000Y-108160000D02*
X121590000Y-107160000D01*
X123110000Y-105040000D02*
X123110000Y-105090000D01*
X123110000Y-106210000D02*
X123110000Y-106990000D01*
X123110000Y-108110000D02*
X123110000Y-108160000D01*
X123110000Y-108160000D02*
X121590000Y-108160000D01*
X123650000Y-106980000D02*
X123410000Y-106650000D01*
X123890000Y-106650000D01*
X123650000Y-106980000D01*
G36*
X123650000Y-106980000D02*
G01*
X123410000Y-106650000D01*
X123890000Y-106650000D01*
X123650000Y-106980000D01*
G37*
G04 #@! TO.C,C6*
X98343748Y-106060000D02*
X98866252Y-106060000D01*
X98343748Y-107530000D02*
X98866252Y-107530000D01*
G04 #@! TO.C,C1*
X131615000Y-115761252D02*
X131615000Y-115238748D01*
X133085000Y-115761252D02*
X133085000Y-115238748D01*
G04 #@! TO.C,J2*
X128835000Y-87360000D02*
X128835000Y-69470000D01*
X131595000Y-69470000D02*
X128835000Y-69470000D01*
X131595000Y-87360000D02*
X128835000Y-87360000D01*
X131595000Y-87360000D02*
X131595000Y-69470000D01*
X131595000Y-88630000D02*
X131595000Y-90010000D01*
X131595000Y-90010000D02*
X130215000Y-90010000D01*
G04 #@! TO.C,R3*
X127572936Y-104915000D02*
X128027064Y-104915000D01*
X127572936Y-106385000D02*
X128027064Y-106385000D01*
G04 #@! TO.C,C5*
X98438748Y-112315000D02*
X98961252Y-112315000D01*
X98438748Y-113785000D02*
X98961252Y-113785000D01*
G04 #@! TO.C,J7*
X132575000Y-102520000D02*
X132575000Y-97250000D01*
X135235000Y-97250000D02*
X132575000Y-97250000D01*
X135235000Y-102520000D02*
X132575000Y-102520000D01*
X135235000Y-102520000D02*
X135235000Y-97250000D01*
G04 #@! TO.C,C8*
X113811252Y-107115000D02*
X113288748Y-107115000D01*
X113811252Y-108585000D02*
X113288748Y-108585000D01*
G04 #@! TO.C,J15*
X169445000Y-109770000D02*
X169445000Y-112370000D01*
X169445000Y-109770000D02*
X172105000Y-109770000D01*
X169445000Y-112370000D02*
X172105000Y-112370000D01*
X172105000Y-109770000D02*
X172105000Y-112370000D01*
G04 #@! TO.C,C12*
X113811252Y-109510000D02*
X113288748Y-109510000D01*
X113811252Y-110980000D02*
X113288748Y-110980000D01*
G04 #@! TO.C,J9*
X101500000Y-97195000D02*
X101500000Y-102465000D01*
X101500000Y-97195000D02*
X104160000Y-97195000D01*
X101500000Y-102465000D02*
X104160000Y-102465000D01*
X104160000Y-97195000D02*
X104160000Y-102465000D01*
G04 #@! TO.C,J16*
X172995000Y-112400000D02*
X172995000Y-109800000D01*
X175655000Y-109800000D02*
X172995000Y-109800000D01*
X175655000Y-112400000D02*
X172995000Y-112400000D01*
X175655000Y-112400000D02*
X175655000Y-109800000D01*
G04 #@! TO.C,C3*
X104865000Y-71988748D02*
X104865000Y-72511252D01*
X106335000Y-71988748D02*
X106335000Y-72511252D01*
G04 #@! TO.C,U3*
X102255000Y-79820000D02*
X102305000Y-79820000D01*
X102255000Y-81640000D02*
X102255000Y-79820000D01*
X102305000Y-81640000D02*
X102255000Y-81640000D01*
X103425000Y-79820000D02*
X104205000Y-79820000D01*
X105325000Y-79820000D02*
X105375000Y-79820000D01*
X105375000Y-79820000D02*
X105375000Y-81640000D01*
X105375000Y-81640000D02*
X105325000Y-81640000D01*
X102305000Y-82180000D02*
X101975000Y-82420000D01*
X101975000Y-81940000D01*
X102305000Y-82180000D01*
G36*
X102305000Y-82180000D02*
G01*
X101975000Y-82420000D01*
X101975000Y-81940000D01*
X102305000Y-82180000D01*
G37*
G04 #@! TO.C,D1*
X181840000Y-92350000D02*
X181840000Y-95035000D01*
X181840000Y-95035000D02*
X183760000Y-95035000D01*
X183760000Y-95035000D02*
X183760000Y-92350000D01*
G04 #@! TO.C,R8*
X177165000Y-102722936D02*
X177165000Y-103177064D01*
X178635000Y-102722936D02*
X178635000Y-103177064D01*
G04 #@! TO.C,R6*
X184015000Y-100122936D02*
X184015000Y-100577064D01*
X185485000Y-100122936D02*
X185485000Y-100577064D01*
G04 #@! TO.C,R2*
X133622936Y-123065000D02*
X134077064Y-123065000D01*
X133622936Y-124535000D02*
X134077064Y-124535000D01*
G04 #@! TO.C,J5*
X120875000Y-102570000D02*
X120875000Y-97300000D01*
X123535000Y-97300000D02*
X120875000Y-97300000D01*
X123535000Y-102570000D02*
X120875000Y-102570000D01*
X123535000Y-102570000D02*
X123535000Y-97300000D01*
G04 #@! TO.C,U4*
X182952500Y-103840000D02*
X184772500Y-103840000D01*
X182952500Y-103890000D02*
X182952500Y-103840000D01*
X182952500Y-106960000D02*
X182952500Y-106910000D01*
X184772500Y-103840000D02*
X184772500Y-103890000D01*
X184772500Y-106910000D02*
X184772500Y-106960000D01*
X184772500Y-106960000D02*
X182952500Y-106960000D01*
X182412500Y-103890000D02*
X182172500Y-103560000D01*
X182652500Y-103560000D01*
X182412500Y-103890000D01*
G36*
X182412500Y-103890000D02*
G01*
X182172500Y-103560000D01*
X182652500Y-103560000D01*
X182412500Y-103890000D01*
G37*
G04 #@! TO.C,R1*
X133572936Y-119615000D02*
X134027064Y-119615000D01*
X133572936Y-121085000D02*
X134027064Y-121085000D01*
G04 #@! TO.C,J6*
X129175000Y-102520000D02*
X129175000Y-97250000D01*
X131835000Y-97250000D02*
X129175000Y-97250000D01*
X131835000Y-102520000D02*
X129175000Y-102520000D01*
X131835000Y-102520000D02*
X131835000Y-97250000D01*
G04 #@! TO.C,J1*
X121080000Y-127300000D02*
X121080000Y-125600000D01*
X130420000Y-127300000D02*
X130420000Y-125600000D01*
G04 #@! TO.C,C4*
X113861252Y-104815000D02*
X113338748Y-104815000D01*
X113861252Y-106285000D02*
X113338748Y-106285000D01*
G04 #@! TO.C,J19*
X181820000Y-127445000D02*
X184420000Y-127445000D01*
X181820000Y-130105000D02*
X181820000Y-127445000D01*
X181820000Y-130105000D02*
X184420000Y-130105000D01*
X184420000Y-130105000D02*
X184420000Y-127445000D01*
G04 #@! TO.C,C13*
X98438748Y-109710000D02*
X98961252Y-109710000D01*
X98438748Y-111180000D02*
X98961252Y-111180000D01*
G04 #@! TO.C,J12*
X97945000Y-97195000D02*
X97945000Y-102465000D01*
X97945000Y-97195000D02*
X100605000Y-97195000D01*
X97945000Y-102465000D02*
X100605000Y-102465000D01*
X100605000Y-97195000D02*
X100605000Y-102465000D01*
G04 #@! TO.C,U1*
X120490000Y-113090000D02*
X120545000Y-113090000D01*
X120490000Y-117210000D02*
X120490000Y-113090000D01*
X120545000Y-117210000D02*
X120490000Y-117210000D01*
X130555000Y-113090000D02*
X130610000Y-113090000D01*
X130610000Y-113090000D02*
X130610000Y-117210000D01*
X130610000Y-117210000D02*
X130555000Y-117210000D01*
X120540000Y-117750000D02*
X120210000Y-117990000D01*
X120210000Y-117510000D01*
X120540000Y-117750000D01*
G36*
X120540000Y-117750000D02*
G01*
X120210000Y-117990000D01*
X120210000Y-117510000D01*
X120540000Y-117750000D01*
G37*
G04 #@! TO.C,R7*
X187215000Y-103372936D02*
X187215000Y-103827064D01*
X188685000Y-103372936D02*
X188685000Y-103827064D01*
G04 #@! TO.C,C7*
X104211252Y-75515000D02*
X103688748Y-75515000D01*
X104211252Y-76985000D02*
X103688748Y-76985000D01*
G04 #@! TO.C,J14*
X97445000Y-80050000D02*
X97445000Y-90400000D01*
X97445000Y-80050000D02*
X100105000Y-80050000D01*
X97445000Y-90400000D02*
X100105000Y-90400000D01*
X100105000Y-80050000D02*
X100105000Y-90400000D01*
G04 #@! TO.C,J10*
X105045000Y-97195000D02*
X105045000Y-102465000D01*
X105045000Y-97195000D02*
X107705000Y-97195000D01*
X105045000Y-102465000D02*
X107705000Y-102465000D01*
X107705000Y-97195000D02*
X107705000Y-102465000D01*
G04 #@! TD*
%LPC*%
D15*
G04 #@! TO.C,J11*
X160875000Y-108460000D03*
D16*
X160875000Y-111000000D03*
G04 #@! TD*
D17*
G04 #@! TO.C,J18*
X105800000Y-127995000D03*
X105800000Y-120995000D03*
D18*
X102550000Y-123395000D03*
X102550000Y-126395000D03*
X109050000Y-118295000D03*
X102550000Y-119395000D03*
G04 #@! TD*
D19*
G04 #@! TO.C,R4*
X128800000Y-107600000D03*
X126800000Y-107600000D03*
G04 #@! TD*
D20*
G04 #@! TO.C,C11*
X112462500Y-112550000D03*
X114537500Y-112550000D03*
G04 #@! TD*
D21*
G04 #@! TO.C,U2*
X108165000Y-70690000D03*
X108165000Y-71960000D03*
X108165000Y-73230000D03*
X108165000Y-74500000D03*
X108165000Y-75770000D03*
X108165000Y-77040000D03*
X108165000Y-78310000D03*
X108165000Y-79580000D03*
X108165000Y-80850000D03*
X108165000Y-82120000D03*
X108165000Y-83390000D03*
X108165000Y-84660000D03*
X108165000Y-85930000D03*
X108165000Y-87200000D03*
D22*
X111200000Y-88450000D03*
X112470000Y-88450000D03*
X113740000Y-88450000D03*
X115010000Y-88450000D03*
X116280000Y-88450000D03*
X117550000Y-88450000D03*
X118820000Y-88450000D03*
X120090000Y-88450000D03*
X121360000Y-88450000D03*
X122630000Y-88450000D03*
D21*
X125665000Y-87200000D03*
X125665000Y-85930000D03*
X125665000Y-84660000D03*
X125665000Y-83390000D03*
X125665000Y-82120000D03*
X125665000Y-80850000D03*
X125665000Y-79580000D03*
X125665000Y-78310000D03*
X125665000Y-77040000D03*
X125665000Y-75770000D03*
X125665000Y-74500000D03*
X125665000Y-73230000D03*
X125665000Y-71960000D03*
X125665000Y-70690000D03*
D23*
X114015000Y-77330000D03*
X114015000Y-78730000D03*
X114715000Y-76630000D03*
X114715000Y-78030000D03*
X114715000Y-79430000D03*
X115415000Y-77330000D03*
D24*
X115415000Y-78030000D03*
D23*
X115415000Y-78730000D03*
X116115000Y-76630000D03*
X116115000Y-78030000D03*
X116115000Y-79430000D03*
X116815000Y-77330000D03*
X116815000Y-78730000D03*
G04 #@! TD*
D16*
G04 #@! TO.C,J4*
X125945000Y-98530000D03*
X125945000Y-101070000D03*
G04 #@! TD*
D25*
G04 #@! TO.C,D2*
X184800000Y-94287500D03*
X184800000Y-92412500D03*
G04 #@! TD*
D26*
G04 #@! TO.C,C9*
X103600000Y-73287500D03*
X103600000Y-71212500D03*
G04 #@! TD*
D27*
G04 #@! TO.C,U6*
X173712500Y-101962500D03*
X172762500Y-101962500D03*
X171812500Y-101962500D03*
X171812500Y-104237500D03*
X172762500Y-104237500D03*
X173712500Y-104237500D03*
G04 #@! TD*
D28*
G04 #@! TO.C,Q1*
X132812500Y-105650000D03*
X132812500Y-107550000D03*
X134687500Y-106600000D03*
G04 #@! TD*
D16*
G04 #@! TO.C,J13*
X112745000Y-98575000D03*
X112745000Y-101115000D03*
G04 #@! TD*
D29*
G04 #@! TO.C,C2*
X104687500Y-85100000D03*
X102612500Y-85100000D03*
G04 #@! TD*
D16*
G04 #@! TO.C,J17*
X164475000Y-108500000D03*
D15*
X164475000Y-111040000D03*
G04 #@! TD*
D30*
G04 #@! TO.C,Q3*
X170290000Y-96775000D03*
X170290000Y-97425000D03*
X170290000Y-98075000D03*
X170290000Y-98725000D03*
X176050000Y-98725000D03*
X176050000Y-98075000D03*
X176050000Y-97425000D03*
X176050000Y-96775000D03*
G04 #@! TD*
D16*
G04 #@! TO.C,J3*
X134015000Y-83530000D03*
D15*
X134015000Y-80990000D03*
X134015000Y-78450000D03*
X134015000Y-75910000D03*
X134015000Y-73370000D03*
X134015000Y-70830000D03*
G04 #@! TD*
D31*
G04 #@! TO.C,R5*
X182800000Y-99350000D03*
X182800000Y-101350000D03*
G04 #@! TD*
D29*
G04 #@! TO.C,C10*
X114087500Y-118750000D03*
X112012500Y-118750000D03*
G04 #@! TD*
D32*
G04 #@! TO.C,U5*
X108325000Y-112645000D03*
X108325000Y-111995000D03*
X108325000Y-111345000D03*
X108325000Y-110695000D03*
X108325000Y-110045000D03*
X108325000Y-109395000D03*
X108325000Y-108745000D03*
X108325000Y-108095000D03*
X108325000Y-107445000D03*
X108325000Y-106795000D03*
X102600000Y-106795000D03*
X102600000Y-107445000D03*
X102600000Y-108095000D03*
X102600000Y-108745000D03*
X102600000Y-109395000D03*
X102600000Y-110045000D03*
X102600000Y-110695000D03*
X102600000Y-111345000D03*
X102600000Y-111995000D03*
X102600000Y-112645000D03*
G04 #@! TD*
D33*
G04 #@! TO.C,J8*
X98775000Y-75300000D03*
X98775000Y-77840000D03*
G04 #@! TD*
D34*
G04 #@! TO.C,Q2*
X123287500Y-107550000D03*
X123287500Y-105650000D03*
X121412500Y-106600000D03*
G04 #@! TD*
D20*
G04 #@! TO.C,C6*
X97567500Y-106795000D03*
X99642500Y-106795000D03*
G04 #@! TD*
D26*
G04 #@! TO.C,C1*
X132350000Y-116537500D03*
X132350000Y-114462500D03*
G04 #@! TD*
D16*
G04 #@! TO.C,J2*
X130215000Y-88630000D03*
D15*
X130215000Y-86090000D03*
X130215000Y-83550000D03*
X130215000Y-81010000D03*
X130215000Y-78470000D03*
X130215000Y-75930000D03*
X130215000Y-73390000D03*
X130215000Y-70850000D03*
G04 #@! TD*
D35*
G04 #@! TO.C,R3*
X126800000Y-105650000D03*
X128800000Y-105650000D03*
G04 #@! TD*
D20*
G04 #@! TO.C,C5*
X97662500Y-113050000D03*
X99737500Y-113050000D03*
G04 #@! TD*
D16*
G04 #@! TO.C,J7*
X133905000Y-101120000D03*
X133905000Y-98580000D03*
G04 #@! TD*
D29*
G04 #@! TO.C,C8*
X114587500Y-107850000D03*
X112512500Y-107850000D03*
G04 #@! TD*
D16*
G04 #@! TO.C,J15*
X170775000Y-108500000D03*
D15*
X170775000Y-111040000D03*
G04 #@! TD*
D29*
G04 #@! TO.C,C12*
X114587500Y-110245000D03*
X112512500Y-110245000D03*
G04 #@! TD*
D16*
G04 #@! TO.C,J9*
X102830000Y-98595000D03*
X102830000Y-101135000D03*
G04 #@! TD*
G04 #@! TO.C,J16*
X174325000Y-111000000D03*
D36*
X174325000Y-108460000D03*
G04 #@! TD*
D37*
G04 #@! TO.C,C3*
X105600000Y-71212500D03*
X105600000Y-73287500D03*
G04 #@! TD*
D38*
G04 #@! TO.C,U3*
X102865000Y-81867500D03*
X103815000Y-81867500D03*
X104765000Y-81867500D03*
X104765000Y-79592500D03*
X102865000Y-79592500D03*
G04 #@! TD*
D25*
G04 #@! TO.C,D1*
X182800000Y-94287500D03*
X182800000Y-92412500D03*
G04 #@! TD*
D31*
G04 #@! TO.C,R8*
X177900000Y-101950000D03*
X177900000Y-103950000D03*
G04 #@! TD*
G04 #@! TO.C,R6*
X184750000Y-99350000D03*
X184750000Y-101350000D03*
G04 #@! TD*
D35*
G04 #@! TO.C,R2*
X132850000Y-123800000D03*
X134850000Y-123800000D03*
G04 #@! TD*
D16*
G04 #@! TO.C,J5*
X122205000Y-101170000D03*
X122205000Y-98630000D03*
G04 #@! TD*
D39*
G04 #@! TO.C,U4*
X182725000Y-104450000D03*
X182725000Y-105400000D03*
X182725000Y-106350000D03*
X185000000Y-106350000D03*
X185000000Y-105400000D03*
X185000000Y-104450000D03*
G04 #@! TD*
D35*
G04 #@! TO.C,R1*
X132800000Y-120350000D03*
X134800000Y-120350000D03*
G04 #@! TD*
D16*
G04 #@! TO.C,J6*
X130505000Y-101120000D03*
X130505000Y-98580000D03*
G04 #@! TD*
D40*
G04 #@! TO.C,J1*
X122860000Y-124795000D03*
X128640000Y-124795000D03*
D41*
X122550000Y-123720000D03*
X123350000Y-123720000D03*
D42*
X124500000Y-123720000D03*
X125500000Y-123720000D03*
X126000000Y-123720000D03*
X127000000Y-123720000D03*
D41*
X128150000Y-123720000D03*
X128950000Y-123720000D03*
X128950000Y-123720000D03*
X128150000Y-123720000D03*
D42*
X127500000Y-123720000D03*
X126500000Y-123720000D03*
X125000000Y-123720000D03*
X124000000Y-123720000D03*
D41*
X123350000Y-123720000D03*
X122550000Y-123720000D03*
D43*
X121430000Y-124295000D03*
D44*
X121430000Y-128475000D03*
D43*
X130070000Y-124295000D03*
D44*
X130070000Y-128475000D03*
G04 #@! TD*
D29*
G04 #@! TO.C,C4*
X114637500Y-105550000D03*
X112562500Y-105550000D03*
G04 #@! TD*
D15*
G04 #@! TO.C,J19*
X180550000Y-128775000D03*
D16*
X183090000Y-128775000D03*
G04 #@! TD*
D20*
G04 #@! TO.C,C13*
X97662500Y-110445000D03*
X99737500Y-110445000D03*
G04 #@! TD*
D16*
G04 #@! TO.C,J12*
X99275000Y-98595000D03*
X99275000Y-101135000D03*
G04 #@! TD*
D45*
G04 #@! TO.C,U1*
X121105000Y-117625000D03*
X122375000Y-117625000D03*
X123645000Y-117625000D03*
X124915000Y-117625000D03*
X126185000Y-117625000D03*
X127455000Y-117625000D03*
X128725000Y-117625000D03*
X129995000Y-117625000D03*
X129995000Y-112675000D03*
X128725000Y-112675000D03*
X127455000Y-112675000D03*
X126185000Y-112675000D03*
X124915000Y-112675000D03*
X123645000Y-112675000D03*
X122375000Y-112675000D03*
X121105000Y-112675000D03*
G04 #@! TD*
D31*
G04 #@! TO.C,R7*
X187950000Y-102600000D03*
X187950000Y-104600000D03*
G04 #@! TD*
D29*
G04 #@! TO.C,C7*
X104987500Y-76250000D03*
X102912500Y-76250000D03*
G04 #@! TD*
D16*
G04 #@! TO.C,J14*
X98775000Y-81450000D03*
D33*
X98775000Y-83990000D03*
X98775000Y-86530000D03*
D16*
X98775000Y-89070000D03*
G04 #@! TD*
G04 #@! TO.C,J10*
X106375000Y-98595000D03*
X106375000Y-101135000D03*
G04 #@! TD*
%LPD*%
M02*
